<?xml version="1.0" encoding="utf-8" standalone="no"?>
<!DOCTYPE svg PUBLIC "-//W3C//DTD SVG 1.1//EN"
  "http://www.w3.org/Graphics/SVG/1.1/DTD/svg11.dtd">
<svg xmlns:xlink="http://www.w3.org/1999/xlink" width="1440pt" height="720pt" viewBox="0 0 1440 720" xmlns="http://www.w3.org/2000/svg" version="1.1">
 <metadata>
  <rdf:RDF xmlns:dc="http://purl.org/dc/elements/1.1/" xmlns:cc="http://creativecommons.org/ns#" xmlns:rdf="http://www.w3.org/1999/02/22-rdf-syntax-ns#">
   <cc:Work>
    <dc:type rdf:resource="http://purl.org/dc/dcmitype/StillImage"/>
    <dc:date>2022-04-08T11:46:15.672639</dc:date>
    <dc:format>image/svg+xml</dc:format>
    <dc:creator>
     <cc:Agent>
      <dc:title>Matplotlib v3.5.1, https://matplotlib.org/</dc:title>
     </cc:Agent>
    </dc:creator>
   </cc:Work>
  </rdf:RDF>
 </metadata>
 <defs>
  <style type="text/css">*{stroke-linejoin: round; stroke-linecap: butt}</style>
 </defs>
 <g id="figure_1">
  <g id="patch_1">
   <path d="M 0 720 
L 1440 720 
L 1440 0 
L 0 0 
L 0 720 
z
" style="fill: none"/>
  </g>
  <g id="axes_1">
   <g id="patch_2">
    <path d="M 180 630 
L 1296 630 
L 1296 86.4 
L 180 86.4 
z
" style="fill: #ffffff"/>
   </g>
   <g id="patch_3">
    <path d="M 185.873684 630 
L 232.863158 630 
L 232.863158 112.285714 
L 185.873684 112.285714 
z
" clip-path="url(#p8bd08f2ffa)" style="fill: #ea96a3"/>
   </g>
   <g id="patch_4">
    <path d="M 244.610526 630 
L 291.6 630 
L 291.6 245.534849 
L 244.610526 245.534849 
z
" clip-path="url(#p8bd08f2ffa)" style="fill: #e79680"/>
   </g>
   <g id="patch_5">
    <path d="M 303.347368 630 
L 350.336842 630 
L 350.336842 374.010509 
L 303.347368 374.010509 
z
" clip-path="url(#p8bd08f2ffa)" style="fill: #d4954d"/>
   </g>
   <g id="patch_6">
    <path d="M 362.084211 630 
L 409.073684 630 
L 409.073684 395.641889 
L 362.084211 395.641889 
z
" clip-path="url(#p8bd08f2ffa)" style="fill: #bc9b4a"/>
   </g>
   <g id="patch_7">
    <path d="M 420.821053 630 
L 467.810526 630 
L 467.810526 426.570663 
L 420.821053 426.570663 
z
" clip-path="url(#p8bd08f2ffa)" style="fill: #a79e46"/>
   </g>
   <g id="patch_8">
    <path d="M 479.557895 630 
L 526.547368 630 
L 526.547368 439.254763 
L 479.557895 439.254763 
z
" clip-path="url(#p8bd08f2ffa)" style="fill: #92a446"/>
   </g>
   <g id="patch_9">
    <path d="M 538.294737 630 
L 585.284211 630 
L 585.284211 445.646264 
L 538.294737 445.646264 
z
" clip-path="url(#p8bd08f2ffa)" style="fill: #73ab47"/>
   </g>
   <g id="patch_10">
    <path d="M 597.031579 630 
L 644.021053 630 
L 644.021053 464.868899 
L 597.031579 464.868899 
z
" clip-path="url(#p8bd08f2ffa)" style="fill: #48af6c"/>
   </g>
   <g id="patch_11">
    <path d="M 655.768421 630 
L 702.757895 630 
L 702.757895 466.038212 
L 655.768421 466.038212 
z
" clip-path="url(#p8bd08f2ffa)" style="fill: #4aad8c"/>
   </g>
   <g id="patch_12">
    <path d="M 714.505263 630 
L 761.494737 630 
L 761.494737 467.599396 
L 714.505263 467.599396 
z
" clip-path="url(#p8bd08f2ffa)" style="fill: #4bac9d"/>
   </g>
   <g id="patch_13">
    <path d="M 773.242105 630 
L 820.231579 630 
L 820.231579 473.52386 
L 773.242105 473.52386 
z
" clip-path="url(#p8bd08f2ffa)" style="fill: #4baaab"/>
   </g>
   <g id="patch_14">
    <path d="M 831.978947 630 
L 878.968421 630 
L 878.968421 474.747178 
L 831.978947 474.747178 
z
" clip-path="url(#p8bd08f2ffa)" style="fill: #4fabbb"/>
   </g>
   <g id="patch_15">
    <path d="M 890.715789 630 
L 937.705263 630 
L 937.705263 475.334656 
L 890.715789 475.334656 
z
" clip-path="url(#p8bd08f2ffa)" style="fill: #54acd1"/>
   </g>
   <g id="patch_16">
    <path d="M 949.452632 630 
L 996.442105 630 
L 996.442105 477.774507 
L 949.452632 477.774507 
z
" clip-path="url(#p8bd08f2ffa)" style="fill: #84aee6"/>
   </g>
   <g id="patch_17">
    <path d="M 1008.189474 630 
L 1055.178947 630 
L 1055.178947 483.300541 
L 1008.189474 483.300541 
z
" clip-path="url(#p8bd08f2ffa)" style="fill: #afaaeb"/>
   </g>
   <g id="patch_18">
    <path d="M 1066.926316 630 
L 1113.915789 630 
L 1113.915789 495.695989 
L 1066.926316 495.695989 
z
" clip-path="url(#p8bd08f2ffa)" style="fill: #c99ee9"/>
   </g>
   <g id="patch_19">
    <path d="M 1125.663158 630 
L 1172.652632 630 
L 1172.652632 497.500043 
L 1125.663158 497.500043 
z
" clip-path="url(#p8bd08f2ffa)" style="fill: #e38be7"/>
   </g>
   <g id="patch_20">
    <path d="M 1184.4 630 
L 1231.389474 630 
L 1231.389474 498.96265 
L 1184.4 498.96265 
z
" clip-path="url(#p8bd08f2ffa)" style="fill: #e88ecf"/>
   </g>
   <g id="patch_21">
    <path d="M 1243.136842 630 
L 1290.126316 630 
L 1290.126316 499.882181 
L 1243.136842 499.882181 
z
" clip-path="url(#p8bd08f2ffa)" style="fill: #e992ba"/>
   </g>
   <g id="matplotlib.axis_1">
    <g id="xtick_1">
     <g id="line2d_1">
      <defs>
       <path id="mc1e4e3a7cb" d="M 0 0 
L 0 3.5 
" style="stroke: #000000; stroke-width: 0.8"/>
      </defs>
      <g>
       <use xlink:href="#mc1e4e3a7cb" x="209.368421" y="630" style="stroke: #000000; stroke-width: 0.8"/>
      </g>
     </g>
     <g id="text_1">
      <!-- 13296 -->
      <g transform="translate(203.804985 668.349652)rotate(-60)scale(0.1 -0.1)">
       <defs>
        <path id="DejaVuSans-31" d="M 794 531 
L 1825 531 
L 1825 4091 
L 703 3866 
L 703 4441 
L 1819 4666 
L 2450 4666 
L 2450 531 
L 3481 531 
L 3481 0 
L 794 0 
L 794 531 
z
" transform="scale(0.015625)"/>
        <path id="DejaVuSans-33" d="M 2597 2516 
Q 3050 2419 3304 2112 
Q 3559 1806 3559 1356 
Q 3559 666 3084 287 
Q 2609 -91 1734 -91 
Q 1441 -91 1130 -33 
Q 819 25 488 141 
L 488 750 
Q 750 597 1062 519 
Q 1375 441 1716 441 
Q 2309 441 2620 675 
Q 2931 909 2931 1356 
Q 2931 1769 2642 2001 
Q 2353 2234 1838 2234 
L 1294 2234 
L 1294 2753 
L 1863 2753 
Q 2328 2753 2575 2939 
Q 2822 3125 2822 3475 
Q 2822 3834 2567 4026 
Q 2313 4219 1838 4219 
Q 1578 4219 1281 4162 
Q 984 4106 628 3988 
L 628 4550 
Q 988 4650 1302 4700 
Q 1616 4750 1894 4750 
Q 2613 4750 3031 4423 
Q 3450 4097 3450 3541 
Q 3450 3153 3228 2886 
Q 3006 2619 2597 2516 
z
" transform="scale(0.015625)"/>
        <path id="DejaVuSans-32" d="M 1228 531 
L 3431 531 
L 3431 0 
L 469 0 
L 469 531 
Q 828 903 1448 1529 
Q 2069 2156 2228 2338 
Q 2531 2678 2651 2914 
Q 2772 3150 2772 3378 
Q 2772 3750 2511 3984 
Q 2250 4219 1831 4219 
Q 1534 4219 1204 4116 
Q 875 4013 500 3803 
L 500 4441 
Q 881 4594 1212 4672 
Q 1544 4750 1819 4750 
Q 2544 4750 2975 4387 
Q 3406 4025 3406 3419 
Q 3406 3131 3298 2873 
Q 3191 2616 2906 2266 
Q 2828 2175 2409 1742 
Q 1991 1309 1228 531 
z
" transform="scale(0.015625)"/>
        <path id="DejaVuSans-39" d="M 703 97 
L 703 672 
Q 941 559 1184 500 
Q 1428 441 1663 441 
Q 2288 441 2617 861 
Q 2947 1281 2994 2138 
Q 2813 1869 2534 1725 
Q 2256 1581 1919 1581 
Q 1219 1581 811 2004 
Q 403 2428 403 3163 
Q 403 3881 828 4315 
Q 1253 4750 1959 4750 
Q 2769 4750 3195 4129 
Q 3622 3509 3622 2328 
Q 3622 1225 3098 567 
Q 2575 -91 1691 -91 
Q 1453 -91 1209 -44 
Q 966 3 703 97 
z
M 1959 2075 
Q 2384 2075 2632 2365 
Q 2881 2656 2881 3163 
Q 2881 3666 2632 3958 
Q 2384 4250 1959 4250 
Q 1534 4250 1286 3958 
Q 1038 3666 1038 3163 
Q 1038 2656 1286 2365 
Q 1534 2075 1959 2075 
z
" transform="scale(0.015625)"/>
        <path id="DejaVuSans-36" d="M 2113 2584 
Q 1688 2584 1439 2293 
Q 1191 2003 1191 1497 
Q 1191 994 1439 701 
Q 1688 409 2113 409 
Q 2538 409 2786 701 
Q 3034 994 3034 1497 
Q 3034 2003 2786 2293 
Q 2538 2584 2113 2584 
z
M 3366 4563 
L 3366 3988 
Q 3128 4100 2886 4159 
Q 2644 4219 2406 4219 
Q 1781 4219 1451 3797 
Q 1122 3375 1075 2522 
Q 1259 2794 1537 2939 
Q 1816 3084 2150 3084 
Q 2853 3084 3261 2657 
Q 3669 2231 3669 1497 
Q 3669 778 3244 343 
Q 2819 -91 2113 -91 
Q 1303 -91 875 529 
Q 447 1150 447 2328 
Q 447 3434 972 4092 
Q 1497 4750 2381 4750 
Q 2619 4750 2861 4703 
Q 3103 4656 3366 4563 
z
" transform="scale(0.015625)"/>
       </defs>
       <use xlink:href="#DejaVuSans-31"/>
       <use xlink:href="#DejaVuSans-33" x="63.623047"/>
       <use xlink:href="#DejaVuSans-32" x="127.246094"/>
       <use xlink:href="#DejaVuSans-39" x="190.869141"/>
       <use xlink:href="#DejaVuSans-36" x="254.492188"/>
      </g>
     </g>
    </g>
    <g id="xtick_2">
     <g id="line2d_2">
      <g>
       <use xlink:href="#mc1e4e3a7cb" x="268.105263" y="630" style="stroke: #000000; stroke-width: 0.8"/>
      </g>
     </g>
     <g id="text_2">
      <!-- 878 -->
      <g transform="translate(265.723077 657.329479)rotate(-60)scale(0.1 -0.1)">
       <defs>
        <path id="DejaVuSans-38" d="M 2034 2216 
Q 1584 2216 1326 1975 
Q 1069 1734 1069 1313 
Q 1069 891 1326 650 
Q 1584 409 2034 409 
Q 2484 409 2743 651 
Q 3003 894 3003 1313 
Q 3003 1734 2745 1975 
Q 2488 2216 2034 2216 
z
M 1403 2484 
Q 997 2584 770 2862 
Q 544 3141 544 3541 
Q 544 4100 942 4425 
Q 1341 4750 2034 4750 
Q 2731 4750 3128 4425 
Q 3525 4100 3525 3541 
Q 3525 3141 3298 2862 
Q 3072 2584 2669 2484 
Q 3125 2378 3379 2068 
Q 3634 1759 3634 1313 
Q 3634 634 3220 271 
Q 2806 -91 2034 -91 
Q 1263 -91 848 271 
Q 434 634 434 1313 
Q 434 1759 690 2068 
Q 947 2378 1403 2484 
z
M 1172 3481 
Q 1172 3119 1398 2916 
Q 1625 2713 2034 2713 
Q 2441 2713 2670 2916 
Q 2900 3119 2900 3481 
Q 2900 3844 2670 4047 
Q 2441 4250 2034 4250 
Q 1625 4250 1398 4047 
Q 1172 3844 1172 3481 
z
" transform="scale(0.015625)"/>
        <path id="DejaVuSans-37" d="M 525 4666 
L 3525 4666 
L 3525 4397 
L 1831 0 
L 1172 0 
L 2766 4134 
L 525 4134 
L 525 4666 
z
" transform="scale(0.015625)"/>
       </defs>
       <use xlink:href="#DejaVuSans-38"/>
       <use xlink:href="#DejaVuSans-37" x="63.623047"/>
       <use xlink:href="#DejaVuSans-38" x="127.246094"/>
      </g>
     </g>
    </g>
    <g id="xtick_3">
     <g id="line2d_3">
      <g>
       <use xlink:href="#mc1e4e3a7cb" x="326.842105" y="630" style="stroke: #000000; stroke-width: 0.8"/>
      </g>
     </g>
     <g id="text_3">
      <!-- 13467 -->
      <g transform="translate(321.278669 668.349652)rotate(-60)scale(0.1 -0.1)">
       <defs>
        <path id="DejaVuSans-34" d="M 2419 4116 
L 825 1625 
L 2419 1625 
L 2419 4116 
z
M 2253 4666 
L 3047 4666 
L 3047 1625 
L 3713 1625 
L 3713 1100 
L 3047 1100 
L 3047 0 
L 2419 0 
L 2419 1100 
L 313 1100 
L 313 1709 
L 2253 4666 
z
" transform="scale(0.015625)"/>
       </defs>
       <use xlink:href="#DejaVuSans-31"/>
       <use xlink:href="#DejaVuSans-33" x="63.623047"/>
       <use xlink:href="#DejaVuSans-34" x="127.246094"/>
       <use xlink:href="#DejaVuSans-36" x="190.869141"/>
       <use xlink:href="#DejaVuSans-37" x="254.492188"/>
      </g>
     </g>
    </g>
    <g id="xtick_4">
     <g id="line2d_4">
      <g>
       <use xlink:href="#mc1e4e3a7cb" x="385.578947" y="630" style="stroke: #000000; stroke-width: 0.8"/>
      </g>
     </g>
     <g id="text_4">
      <!-- 1084 -->
      <g transform="translate(381.606136 662.839565)rotate(-60)scale(0.1 -0.1)">
       <defs>
        <path id="DejaVuSans-30" d="M 2034 4250 
Q 1547 4250 1301 3770 
Q 1056 3291 1056 2328 
Q 1056 1369 1301 889 
Q 1547 409 2034 409 
Q 2525 409 2770 889 
Q 3016 1369 3016 2328 
Q 3016 3291 2770 3770 
Q 2525 4250 2034 4250 
z
M 2034 4750 
Q 2819 4750 3233 4129 
Q 3647 3509 3647 2328 
Q 3647 1150 3233 529 
Q 2819 -91 2034 -91 
Q 1250 -91 836 529 
Q 422 1150 422 2328 
Q 422 3509 836 4129 
Q 1250 4750 2034 4750 
z
" transform="scale(0.015625)"/>
       </defs>
       <use xlink:href="#DejaVuSans-31"/>
       <use xlink:href="#DejaVuSans-30" x="63.623047"/>
       <use xlink:href="#DejaVuSans-38" x="127.246094"/>
       <use xlink:href="#DejaVuSans-34" x="190.869141"/>
      </g>
     </g>
    </g>
    <g id="xtick_5">
     <g id="line2d_5">
      <g>
       <use xlink:href="#mc1e4e3a7cb" x="444.315789" y="630" style="stroke: #000000; stroke-width: 0.8"/>
      </g>
     </g>
     <g id="text_5">
      <!-- 11191 -->
      <g transform="translate(438.752353 668.349652)rotate(-60)scale(0.1 -0.1)">
       <use xlink:href="#DejaVuSans-31"/>
       <use xlink:href="#DejaVuSans-31" x="63.623047"/>
       <use xlink:href="#DejaVuSans-31" x="127.246094"/>
       <use xlink:href="#DejaVuSans-39" x="190.869141"/>
       <use xlink:href="#DejaVuSans-31" x="254.492188"/>
      </g>
     </g>
    </g>
    <g id="xtick_6">
     <g id="line2d_6">
      <g>
       <use xlink:href="#mc1e4e3a7cb" x="503.052632" y="630" style="stroke: #000000; stroke-width: 0.8"/>
      </g>
     </g>
     <g id="text_6">
      <!-- 2658 -->
      <g transform="translate(499.07982 662.839565)rotate(-60)scale(0.1 -0.1)">
       <defs>
        <path id="DejaVuSans-35" d="M 691 4666 
L 3169 4666 
L 3169 4134 
L 1269 4134 
L 1269 2991 
Q 1406 3038 1543 3061 
Q 1681 3084 1819 3084 
Q 2600 3084 3056 2656 
Q 3513 2228 3513 1497 
Q 3513 744 3044 326 
Q 2575 -91 1722 -91 
Q 1428 -91 1123 -41 
Q 819 9 494 109 
L 494 744 
Q 775 591 1075 516 
Q 1375 441 1709 441 
Q 2250 441 2565 725 
Q 2881 1009 2881 1497 
Q 2881 1984 2565 2268 
Q 2250 2553 1709 2553 
Q 1456 2553 1204 2497 
Q 953 2441 691 2322 
L 691 4666 
z
" transform="scale(0.015625)"/>
       </defs>
       <use xlink:href="#DejaVuSans-32"/>
       <use xlink:href="#DejaVuSans-36" x="63.623047"/>
       <use xlink:href="#DejaVuSans-35" x="127.246094"/>
       <use xlink:href="#DejaVuSans-38" x="190.869141"/>
      </g>
     </g>
    </g>
    <g id="xtick_7">
     <g id="line2d_7">
      <g>
       <use xlink:href="#mc1e4e3a7cb" x="561.789474" y="630" style="stroke: #000000; stroke-width: 0.8"/>
      </g>
     </g>
     <g id="text_7">
      <!-- 10663 -->
      <g transform="translate(556.226038 668.349652)rotate(-60)scale(0.1 -0.1)">
       <use xlink:href="#DejaVuSans-31"/>
       <use xlink:href="#DejaVuSans-30" x="63.623047"/>
       <use xlink:href="#DejaVuSans-36" x="127.246094"/>
       <use xlink:href="#DejaVuSans-36" x="190.869141"/>
       <use xlink:href="#DejaVuSans-33" x="254.492188"/>
      </g>
     </g>
    </g>
    <g id="xtick_8">
     <g id="line2d_8">
      <g>
       <use xlink:href="#mc1e4e3a7cb" x="620.526316" y="630" style="stroke: #000000; stroke-width: 0.8"/>
      </g>
     </g>
     <g id="text_8">
      <!-- 18198 -->
      <g transform="translate(614.96288 668.349652)rotate(-60)scale(0.1 -0.1)">
       <use xlink:href="#DejaVuSans-31"/>
       <use xlink:href="#DejaVuSans-38" x="63.623047"/>
       <use xlink:href="#DejaVuSans-31" x="127.246094"/>
       <use xlink:href="#DejaVuSans-39" x="190.869141"/>
       <use xlink:href="#DejaVuSans-38" x="254.492188"/>
      </g>
     </g>
    </g>
    <g id="xtick_9">
     <g id="line2d_9">
      <g>
       <use xlink:href="#mc1e4e3a7cb" x="679.263158" y="630" style="stroke: #000000; stroke-width: 0.8"/>
      </g>
     </g>
     <g id="text_9">
      <!-- 14693 -->
      <g transform="translate(673.699722 668.349652)rotate(-60)scale(0.1 -0.1)">
       <use xlink:href="#DejaVuSans-31"/>
       <use xlink:href="#DejaVuSans-34" x="63.623047"/>
       <use xlink:href="#DejaVuSans-36" x="127.246094"/>
       <use xlink:href="#DejaVuSans-39" x="190.869141"/>
       <use xlink:href="#DejaVuSans-33" x="254.492188"/>
      </g>
     </g>
    </g>
    <g id="xtick_10">
     <g id="line2d_10">
      <g>
       <use xlink:href="#mc1e4e3a7cb" x="738" y="630" style="stroke: #000000; stroke-width: 0.8"/>
      </g>
     </g>
     <g id="text_10">
      <!-- 13986 -->
      <g transform="translate(732.436564 668.349652)rotate(-60)scale(0.1 -0.1)">
       <use xlink:href="#DejaVuSans-31"/>
       <use xlink:href="#DejaVuSans-33" x="63.623047"/>
       <use xlink:href="#DejaVuSans-39" x="127.246094"/>
       <use xlink:href="#DejaVuSans-38" x="190.869141"/>
       <use xlink:href="#DejaVuSans-36" x="254.492188"/>
      </g>
     </g>
    </g>
    <g id="xtick_11">
     <g id="line2d_11">
      <g>
       <use xlink:href="#mc1e4e3a7cb" x="796.736842" y="630" style="stroke: #000000; stroke-width: 0.8"/>
      </g>
     </g>
     <g id="text_11">
      <!-- 17370 -->
      <g transform="translate(791.173406 668.349652)rotate(-60)scale(0.1 -0.1)">
       <use xlink:href="#DejaVuSans-31"/>
       <use xlink:href="#DejaVuSans-37" x="63.623047"/>
       <use xlink:href="#DejaVuSans-33" x="127.246094"/>
       <use xlink:href="#DejaVuSans-37" x="190.869141"/>
       <use xlink:href="#DejaVuSans-30" x="254.492188"/>
      </g>
     </g>
    </g>
    <g id="xtick_12">
     <g id="line2d_12">
      <g>
       <use xlink:href="#mc1e4e3a7cb" x="855.473684" y="630" style="stroke: #000000; stroke-width: 0.8"/>
      </g>
     </g>
     <g id="text_12">
      <!-- 4153 -->
      <g transform="translate(851.500873 662.839565)rotate(-60)scale(0.1 -0.1)">
       <use xlink:href="#DejaVuSans-34"/>
       <use xlink:href="#DejaVuSans-31" x="63.623047"/>
       <use xlink:href="#DejaVuSans-35" x="127.246094"/>
       <use xlink:href="#DejaVuSans-33" x="190.869141"/>
      </g>
     </g>
    </g>
    <g id="xtick_13">
     <g id="line2d_13">
      <g>
       <use xlink:href="#mc1e4e3a7cb" x="914.210526" y="630" style="stroke: #000000; stroke-width: 0.8"/>
      </g>
     </g>
     <g id="text_13">
      <!-- 16144 -->
      <g transform="translate(908.64709 668.349652)rotate(-60)scale(0.1 -0.1)">
       <use xlink:href="#DejaVuSans-31"/>
       <use xlink:href="#DejaVuSans-36" x="63.623047"/>
       <use xlink:href="#DejaVuSans-31" x="127.246094"/>
       <use xlink:href="#DejaVuSans-34" x="190.869141"/>
       <use xlink:href="#DejaVuSans-34" x="254.492188"/>
      </g>
     </g>
    </g>
    <g id="xtick_14">
     <g id="line2d_14">
      <g>
       <use xlink:href="#mc1e4e3a7cb" x="972.947368" y="630" style="stroke: #000000; stroke-width: 0.8"/>
      </g>
     </g>
     <g id="text_14">
      <!-- 17940 -->
      <g transform="translate(967.383932 668.349652)rotate(-60)scale(0.1 -0.1)">
       <use xlink:href="#DejaVuSans-31"/>
       <use xlink:href="#DejaVuSans-37" x="63.623047"/>
       <use xlink:href="#DejaVuSans-39" x="127.246094"/>
       <use xlink:href="#DejaVuSans-34" x="190.869141"/>
       <use xlink:href="#DejaVuSans-30" x="254.492188"/>
      </g>
     </g>
    </g>
    <g id="xtick_15">
     <g id="line2d_15">
      <g>
       <use xlink:href="#mc1e4e3a7cb" x="1031.684211" y="630" style="stroke: #000000; stroke-width: 0.8"/>
      </g>
     </g>
     <g id="text_15">
      <!-- 5616 -->
      <g transform="translate(1027.711399 662.839565)rotate(-60)scale(0.1 -0.1)">
       <use xlink:href="#DejaVuSans-35"/>
       <use xlink:href="#DejaVuSans-36" x="63.623047"/>
       <use xlink:href="#DejaVuSans-31" x="127.246094"/>
       <use xlink:href="#DejaVuSans-36" x="190.869141"/>
      </g>
     </g>
    </g>
    <g id="xtick_16">
     <g id="line2d_16">
      <g>
       <use xlink:href="#mc1e4e3a7cb" x="1090.421053" y="630" style="stroke: #000000; stroke-width: 0.8"/>
      </g>
     </g>
     <g id="text_16">
      <!-- 15512 -->
      <g transform="translate(1084.857616 668.349652)rotate(-60)scale(0.1 -0.1)">
       <use xlink:href="#DejaVuSans-31"/>
       <use xlink:href="#DejaVuSans-35" x="63.623047"/>
       <use xlink:href="#DejaVuSans-35" x="127.246094"/>
       <use xlink:href="#DejaVuSans-31" x="190.869141"/>
       <use xlink:href="#DejaVuSans-32" x="254.492188"/>
      </g>
     </g>
    </g>
    <g id="xtick_17">
     <g id="line2d_17">
      <g>
       <use xlink:href="#mc1e4e3a7cb" x="1149.157895" y="630" style="stroke: #000000; stroke-width: 0.8"/>
      </g>
     </g>
     <g id="text_17">
      <!-- 6078 -->
      <g transform="translate(1145.185084 662.839565)rotate(-60)scale(0.1 -0.1)">
       <use xlink:href="#DejaVuSans-36"/>
       <use xlink:href="#DejaVuSans-30" x="63.623047"/>
       <use xlink:href="#DejaVuSans-37" x="127.246094"/>
       <use xlink:href="#DejaVuSans-38" x="190.869141"/>
      </g>
     </g>
    </g>
    <g id="xtick_18">
     <g id="line2d_18">
      <g>
       <use xlink:href="#mc1e4e3a7cb" x="1207.894737" y="630" style="stroke: #000000; stroke-width: 0.8"/>
      </g>
     </g>
     <g id="text_18">
      <!-- 6227 -->
      <g transform="translate(1203.921926 662.839565)rotate(-60)scale(0.1 -0.1)">
       <use xlink:href="#DejaVuSans-36"/>
       <use xlink:href="#DejaVuSans-32" x="63.623047"/>
       <use xlink:href="#DejaVuSans-32" x="127.246094"/>
       <use xlink:href="#DejaVuSans-37" x="190.869141"/>
      </g>
     </g>
    </g>
    <g id="xtick_19">
     <g id="line2d_19">
      <g>
       <use xlink:href="#mc1e4e3a7cb" x="1266.631579" y="630" style="stroke: #000000; stroke-width: 0.8"/>
      </g>
     </g>
     <g id="text_19">
      <!-- 17371 -->
      <g transform="translate(1261.068143 668.349652)rotate(-60)scale(0.1 -0.1)">
       <use xlink:href="#DejaVuSans-31"/>
       <use xlink:href="#DejaVuSans-37" x="63.623047"/>
       <use xlink:href="#DejaVuSans-33" x="127.246094"/>
       <use xlink:href="#DejaVuSans-37" x="190.869141"/>
       <use xlink:href="#DejaVuSans-31" x="254.492188"/>
      </g>
     </g>
    </g>
    <g id="text_20">
     <!-- Metabolite ID -->
     <g transform="translate(704.622656 680.987933)scale(0.1 -0.1)">
      <defs>
       <path id="DejaVuSans-4d" d="M 628 4666 
L 1569 4666 
L 2759 1491 
L 3956 4666 
L 4897 4666 
L 4897 0 
L 4281 0 
L 4281 4097 
L 3078 897 
L 2444 897 
L 1241 4097 
L 1241 0 
L 628 0 
L 628 4666 
z
" transform="scale(0.015625)"/>
       <path id="DejaVuSans-65" d="M 3597 1894 
L 3597 1613 
L 953 1613 
Q 991 1019 1311 708 
Q 1631 397 2203 397 
Q 2534 397 2845 478 
Q 3156 559 3463 722 
L 3463 178 
Q 3153 47 2828 -22 
Q 2503 -91 2169 -91 
Q 1331 -91 842 396 
Q 353 884 353 1716 
Q 353 2575 817 3079 
Q 1281 3584 2069 3584 
Q 2775 3584 3186 3129 
Q 3597 2675 3597 1894 
z
M 3022 2063 
Q 3016 2534 2758 2815 
Q 2500 3097 2075 3097 
Q 1594 3097 1305 2825 
Q 1016 2553 972 2059 
L 3022 2063 
z
" transform="scale(0.015625)"/>
       <path id="DejaVuSans-74" d="M 1172 4494 
L 1172 3500 
L 2356 3500 
L 2356 3053 
L 1172 3053 
L 1172 1153 
Q 1172 725 1289 603 
Q 1406 481 1766 481 
L 2356 481 
L 2356 0 
L 1766 0 
Q 1100 0 847 248 
Q 594 497 594 1153 
L 594 3053 
L 172 3053 
L 172 3500 
L 594 3500 
L 594 4494 
L 1172 4494 
z
" transform="scale(0.015625)"/>
       <path id="DejaVuSans-61" d="M 2194 1759 
Q 1497 1759 1228 1600 
Q 959 1441 959 1056 
Q 959 750 1161 570 
Q 1363 391 1709 391 
Q 2188 391 2477 730 
Q 2766 1069 2766 1631 
L 2766 1759 
L 2194 1759 
z
M 3341 1997 
L 3341 0 
L 2766 0 
L 2766 531 
Q 2569 213 2275 61 
Q 1981 -91 1556 -91 
Q 1019 -91 701 211 
Q 384 513 384 1019 
Q 384 1609 779 1909 
Q 1175 2209 1959 2209 
L 2766 2209 
L 2766 2266 
Q 2766 2663 2505 2880 
Q 2244 3097 1772 3097 
Q 1472 3097 1187 3025 
Q 903 2953 641 2809 
L 641 3341 
Q 956 3463 1253 3523 
Q 1550 3584 1831 3584 
Q 2591 3584 2966 3190 
Q 3341 2797 3341 1997 
z
" transform="scale(0.015625)"/>
       <path id="DejaVuSans-62" d="M 3116 1747 
Q 3116 2381 2855 2742 
Q 2594 3103 2138 3103 
Q 1681 3103 1420 2742 
Q 1159 2381 1159 1747 
Q 1159 1113 1420 752 
Q 1681 391 2138 391 
Q 2594 391 2855 752 
Q 3116 1113 3116 1747 
z
M 1159 2969 
Q 1341 3281 1617 3432 
Q 1894 3584 2278 3584 
Q 2916 3584 3314 3078 
Q 3713 2572 3713 1747 
Q 3713 922 3314 415 
Q 2916 -91 2278 -91 
Q 1894 -91 1617 61 
Q 1341 213 1159 525 
L 1159 0 
L 581 0 
L 581 4863 
L 1159 4863 
L 1159 2969 
z
" transform="scale(0.015625)"/>
       <path id="DejaVuSans-6f" d="M 1959 3097 
Q 1497 3097 1228 2736 
Q 959 2375 959 1747 
Q 959 1119 1226 758 
Q 1494 397 1959 397 
Q 2419 397 2687 759 
Q 2956 1122 2956 1747 
Q 2956 2369 2687 2733 
Q 2419 3097 1959 3097 
z
M 1959 3584 
Q 2709 3584 3137 3096 
Q 3566 2609 3566 1747 
Q 3566 888 3137 398 
Q 2709 -91 1959 -91 
Q 1206 -91 779 398 
Q 353 888 353 1747 
Q 353 2609 779 3096 
Q 1206 3584 1959 3584 
z
" transform="scale(0.015625)"/>
       <path id="DejaVuSans-6c" d="M 603 4863 
L 1178 4863 
L 1178 0 
L 603 0 
L 603 4863 
z
" transform="scale(0.015625)"/>
       <path id="DejaVuSans-69" d="M 603 3500 
L 1178 3500 
L 1178 0 
L 603 0 
L 603 3500 
z
M 603 4863 
L 1178 4863 
L 1178 4134 
L 603 4134 
L 603 4863 
z
" transform="scale(0.015625)"/>
       <path id="DejaVuSans-20" transform="scale(0.015625)"/>
       <path id="DejaVuSans-49" d="M 628 4666 
L 1259 4666 
L 1259 0 
L 628 0 
L 628 4666 
z
" transform="scale(0.015625)"/>
       <path id="DejaVuSans-44" d="M 1259 4147 
L 1259 519 
L 2022 519 
Q 2988 519 3436 956 
Q 3884 1394 3884 2338 
Q 3884 3275 3436 3711 
Q 2988 4147 2022 4147 
L 1259 4147 
z
M 628 4666 
L 1925 4666 
Q 3281 4666 3915 4102 
Q 4550 3538 4550 2338 
Q 4550 1131 3912 565 
Q 3275 0 1925 0 
L 628 0 
L 628 4666 
z
" transform="scale(0.015625)"/>
      </defs>
      <use xlink:href="#DejaVuSans-4d"/>
      <use xlink:href="#DejaVuSans-65" x="86.279297"/>
      <use xlink:href="#DejaVuSans-74" x="147.802734"/>
      <use xlink:href="#DejaVuSans-61" x="187.011719"/>
      <use xlink:href="#DejaVuSans-62" x="248.291016"/>
      <use xlink:href="#DejaVuSans-6f" x="311.767578"/>
      <use xlink:href="#DejaVuSans-6c" x="372.949219"/>
      <use xlink:href="#DejaVuSans-69" x="400.732422"/>
      <use xlink:href="#DejaVuSans-74" x="428.515625"/>
      <use xlink:href="#DejaVuSans-65" x="467.724609"/>
      <use xlink:href="#DejaVuSans-20" x="529.248047"/>
      <use xlink:href="#DejaVuSans-49" x="561.035156"/>
      <use xlink:href="#DejaVuSans-44" x="590.527344"/>
     </g>
    </g>
   </g>
   <g id="matplotlib.axis_2">
    <g id="ytick_1">
     <g id="line2d_20">
      <defs>
       <path id="ma069b85176" d="M 0 0 
L -3.5 0 
" style="stroke: #000000; stroke-width: 0.8"/>
      </defs>
      <g>
       <use xlink:href="#ma069b85176" x="180" y="630" style="stroke: #000000; stroke-width: 0.8"/>
      </g>
     </g>
     <g id="text_21">
      <!-- 0.000 -->
      <g transform="translate(144.371875 633.799219)scale(0.1 -0.1)">
       <defs>
        <path id="DejaVuSans-2e" d="M 684 794 
L 1344 794 
L 1344 0 
L 684 0 
L 684 794 
z
" transform="scale(0.015625)"/>
       </defs>
       <use xlink:href="#DejaVuSans-30"/>
       <use xlink:href="#DejaVuSans-2e" x="63.623047"/>
       <use xlink:href="#DejaVuSans-30" x="95.410156"/>
       <use xlink:href="#DejaVuSans-30" x="159.033203"/>
       <use xlink:href="#DejaVuSans-30" x="222.65625"/>
      </g>
     </g>
    </g>
    <g id="ytick_2">
     <g id="line2d_21">
      <g>
       <use xlink:href="#ma069b85176" x="180" y="565.596907" style="stroke: #000000; stroke-width: 0.8"/>
      </g>
     </g>
     <g id="text_22">
      <!-- 0.005 -->
      <g transform="translate(144.371875 569.396126)scale(0.1 -0.1)">
       <use xlink:href="#DejaVuSans-30"/>
       <use xlink:href="#DejaVuSans-2e" x="63.623047"/>
       <use xlink:href="#DejaVuSans-30" x="95.410156"/>
       <use xlink:href="#DejaVuSans-30" x="159.033203"/>
       <use xlink:href="#DejaVuSans-35" x="222.65625"/>
      </g>
     </g>
    </g>
    <g id="ytick_3">
     <g id="line2d_22">
      <g>
       <use xlink:href="#ma069b85176" x="180" y="501.193814" style="stroke: #000000; stroke-width: 0.8"/>
      </g>
     </g>
     <g id="text_23">
      <!-- 0.010 -->
      <g transform="translate(144.371875 504.993033)scale(0.1 -0.1)">
       <use xlink:href="#DejaVuSans-30"/>
       <use xlink:href="#DejaVuSans-2e" x="63.623047"/>
       <use xlink:href="#DejaVuSans-30" x="95.410156"/>
       <use xlink:href="#DejaVuSans-31" x="159.033203"/>
       <use xlink:href="#DejaVuSans-30" x="222.65625"/>
      </g>
     </g>
    </g>
    <g id="ytick_4">
     <g id="line2d_23">
      <g>
       <use xlink:href="#ma069b85176" x="180" y="436.790721" style="stroke: #000000; stroke-width: 0.8"/>
      </g>
     </g>
     <g id="text_24">
      <!-- 0.015 -->
      <g transform="translate(144.371875 440.58994)scale(0.1 -0.1)">
       <use xlink:href="#DejaVuSans-30"/>
       <use xlink:href="#DejaVuSans-2e" x="63.623047"/>
       <use xlink:href="#DejaVuSans-30" x="95.410156"/>
       <use xlink:href="#DejaVuSans-31" x="159.033203"/>
       <use xlink:href="#DejaVuSans-35" x="222.65625"/>
      </g>
     </g>
    </g>
    <g id="ytick_5">
     <g id="line2d_24">
      <g>
       <use xlink:href="#ma069b85176" x="180" y="372.387628" style="stroke: #000000; stroke-width: 0.8"/>
      </g>
     </g>
     <g id="text_25">
      <!-- 0.020 -->
      <g transform="translate(144.371875 376.186846)scale(0.1 -0.1)">
       <use xlink:href="#DejaVuSans-30"/>
       <use xlink:href="#DejaVuSans-2e" x="63.623047"/>
       <use xlink:href="#DejaVuSans-30" x="95.410156"/>
       <use xlink:href="#DejaVuSans-32" x="159.033203"/>
       <use xlink:href="#DejaVuSans-30" x="222.65625"/>
      </g>
     </g>
    </g>
    <g id="ytick_6">
     <g id="line2d_25">
      <g>
       <use xlink:href="#ma069b85176" x="180" y="307.984535" style="stroke: #000000; stroke-width: 0.8"/>
      </g>
     </g>
     <g id="text_26">
      <!-- 0.025 -->
      <g transform="translate(144.371875 311.783753)scale(0.1 -0.1)">
       <use xlink:href="#DejaVuSans-30"/>
       <use xlink:href="#DejaVuSans-2e" x="63.623047"/>
       <use xlink:href="#DejaVuSans-30" x="95.410156"/>
       <use xlink:href="#DejaVuSans-32" x="159.033203"/>
       <use xlink:href="#DejaVuSans-35" x="222.65625"/>
      </g>
     </g>
    </g>
    <g id="ytick_7">
     <g id="line2d_26">
      <g>
       <use xlink:href="#ma069b85176" x="180" y="243.581442" style="stroke: #000000; stroke-width: 0.8"/>
      </g>
     </g>
     <g id="text_27">
      <!-- 0.030 -->
      <g transform="translate(144.371875 247.38066)scale(0.1 -0.1)">
       <use xlink:href="#DejaVuSans-30"/>
       <use xlink:href="#DejaVuSans-2e" x="63.623047"/>
       <use xlink:href="#DejaVuSans-30" x="95.410156"/>
       <use xlink:href="#DejaVuSans-33" x="159.033203"/>
       <use xlink:href="#DejaVuSans-30" x="222.65625"/>
      </g>
     </g>
    </g>
    <g id="ytick_8">
     <g id="line2d_27">
      <g>
       <use xlink:href="#ma069b85176" x="180" y="179.178348" style="stroke: #000000; stroke-width: 0.8"/>
      </g>
     </g>
     <g id="text_28">
      <!-- 0.035 -->
      <g transform="translate(144.371875 182.977567)scale(0.1 -0.1)">
       <use xlink:href="#DejaVuSans-30"/>
       <use xlink:href="#DejaVuSans-2e" x="63.623047"/>
       <use xlink:href="#DejaVuSans-30" x="95.410156"/>
       <use xlink:href="#DejaVuSans-33" x="159.033203"/>
       <use xlink:href="#DejaVuSans-35" x="222.65625"/>
      </g>
     </g>
    </g>
    <g id="ytick_9">
     <g id="line2d_28">
      <g>
       <use xlink:href="#ma069b85176" x="180" y="114.775255" style="stroke: #000000; stroke-width: 0.8"/>
      </g>
     </g>
     <g id="text_29">
      <!-- 0.040 -->
      <g transform="translate(144.371875 118.574474)scale(0.1 -0.1)">
       <use xlink:href="#DejaVuSans-30"/>
       <use xlink:href="#DejaVuSans-2e" x="63.623047"/>
       <use xlink:href="#DejaVuSans-30" x="95.410156"/>
       <use xlink:href="#DejaVuSans-34" x="159.033203"/>
       <use xlink:href="#DejaVuSans-30" x="222.65625"/>
      </g>
     </g>
    </g>
    <g id="text_30">
     <!-- Feature Importance -->
     <g transform="translate(138.292187 407.332031)rotate(-90)scale(0.1 -0.1)">
      <defs>
       <path id="DejaVuSans-46" d="M 628 4666 
L 3309 4666 
L 3309 4134 
L 1259 4134 
L 1259 2759 
L 3109 2759 
L 3109 2228 
L 1259 2228 
L 1259 0 
L 628 0 
L 628 4666 
z
" transform="scale(0.015625)"/>
       <path id="DejaVuSans-75" d="M 544 1381 
L 544 3500 
L 1119 3500 
L 1119 1403 
Q 1119 906 1312 657 
Q 1506 409 1894 409 
Q 2359 409 2629 706 
Q 2900 1003 2900 1516 
L 2900 3500 
L 3475 3500 
L 3475 0 
L 2900 0 
L 2900 538 
Q 2691 219 2414 64 
Q 2138 -91 1772 -91 
Q 1169 -91 856 284 
Q 544 659 544 1381 
z
M 1991 3584 
L 1991 3584 
z
" transform="scale(0.015625)"/>
       <path id="DejaVuSans-72" d="M 2631 2963 
Q 2534 3019 2420 3045 
Q 2306 3072 2169 3072 
Q 1681 3072 1420 2755 
Q 1159 2438 1159 1844 
L 1159 0 
L 581 0 
L 581 3500 
L 1159 3500 
L 1159 2956 
Q 1341 3275 1631 3429 
Q 1922 3584 2338 3584 
Q 2397 3584 2469 3576 
Q 2541 3569 2628 3553 
L 2631 2963 
z
" transform="scale(0.015625)"/>
       <path id="DejaVuSans-6d" d="M 3328 2828 
Q 3544 3216 3844 3400 
Q 4144 3584 4550 3584 
Q 5097 3584 5394 3201 
Q 5691 2819 5691 2113 
L 5691 0 
L 5113 0 
L 5113 2094 
Q 5113 2597 4934 2840 
Q 4756 3084 4391 3084 
Q 3944 3084 3684 2787 
Q 3425 2491 3425 1978 
L 3425 0 
L 2847 0 
L 2847 2094 
Q 2847 2600 2669 2842 
Q 2491 3084 2119 3084 
Q 1678 3084 1418 2786 
Q 1159 2488 1159 1978 
L 1159 0 
L 581 0 
L 581 3500 
L 1159 3500 
L 1159 2956 
Q 1356 3278 1631 3431 
Q 1906 3584 2284 3584 
Q 2666 3584 2933 3390 
Q 3200 3197 3328 2828 
z
" transform="scale(0.015625)"/>
       <path id="DejaVuSans-70" d="M 1159 525 
L 1159 -1331 
L 581 -1331 
L 581 3500 
L 1159 3500 
L 1159 2969 
Q 1341 3281 1617 3432 
Q 1894 3584 2278 3584 
Q 2916 3584 3314 3078 
Q 3713 2572 3713 1747 
Q 3713 922 3314 415 
Q 2916 -91 2278 -91 
Q 1894 -91 1617 61 
Q 1341 213 1159 525 
z
M 3116 1747 
Q 3116 2381 2855 2742 
Q 2594 3103 2138 3103 
Q 1681 3103 1420 2742 
Q 1159 2381 1159 1747 
Q 1159 1113 1420 752 
Q 1681 391 2138 391 
Q 2594 391 2855 752 
Q 3116 1113 3116 1747 
z
" transform="scale(0.015625)"/>
       <path id="DejaVuSans-6e" d="M 3513 2113 
L 3513 0 
L 2938 0 
L 2938 2094 
Q 2938 2591 2744 2837 
Q 2550 3084 2163 3084 
Q 1697 3084 1428 2787 
Q 1159 2491 1159 1978 
L 1159 0 
L 581 0 
L 581 3500 
L 1159 3500 
L 1159 2956 
Q 1366 3272 1645 3428 
Q 1925 3584 2291 3584 
Q 2894 3584 3203 3211 
Q 3513 2838 3513 2113 
z
" transform="scale(0.015625)"/>
       <path id="DejaVuSans-63" d="M 3122 3366 
L 3122 2828 
Q 2878 2963 2633 3030 
Q 2388 3097 2138 3097 
Q 1578 3097 1268 2742 
Q 959 2388 959 1747 
Q 959 1106 1268 751 
Q 1578 397 2138 397 
Q 2388 397 2633 464 
Q 2878 531 3122 666 
L 3122 134 
Q 2881 22 2623 -34 
Q 2366 -91 2075 -91 
Q 1284 -91 818 406 
Q 353 903 353 1747 
Q 353 2603 823 3093 
Q 1294 3584 2113 3584 
Q 2378 3584 2631 3529 
Q 2884 3475 3122 3366 
z
" transform="scale(0.015625)"/>
      </defs>
      <use xlink:href="#DejaVuSans-46"/>
      <use xlink:href="#DejaVuSans-65" x="52.019531"/>
      <use xlink:href="#DejaVuSans-61" x="113.542969"/>
      <use xlink:href="#DejaVuSans-74" x="174.822266"/>
      <use xlink:href="#DejaVuSans-75" x="214.03125"/>
      <use xlink:href="#DejaVuSans-72" x="277.410156"/>
      <use xlink:href="#DejaVuSans-65" x="316.273438"/>
      <use xlink:href="#DejaVuSans-20" x="377.796875"/>
      <use xlink:href="#DejaVuSans-49" x="409.583984"/>
      <use xlink:href="#DejaVuSans-6d" x="439.076172"/>
      <use xlink:href="#DejaVuSans-70" x="536.488281"/>
      <use xlink:href="#DejaVuSans-6f" x="599.964844"/>
      <use xlink:href="#DejaVuSans-72" x="661.146484"/>
      <use xlink:href="#DejaVuSans-74" x="702.259766"/>
      <use xlink:href="#DejaVuSans-61" x="741.46875"/>
      <use xlink:href="#DejaVuSans-6e" x="802.748047"/>
      <use xlink:href="#DejaVuSans-63" x="866.126953"/>
      <use xlink:href="#DejaVuSans-65" x="921.107422"/>
     </g>
    </g>
   </g>
   <g id="line2d_29">
    <path clip-path="url(#p8bd08f2ffa)" style="fill: none; stroke: #424242; stroke-width: 2.7; stroke-linecap: square"/>
   </g>
   <g id="line2d_30">
    <path clip-path="url(#p8bd08f2ffa)" style="fill: none; stroke: #424242; stroke-width: 2.7; stroke-linecap: square"/>
   </g>
   <g id="line2d_31">
    <path clip-path="url(#p8bd08f2ffa)" style="fill: none; stroke: #424242; stroke-width: 2.7; stroke-linecap: square"/>
   </g>
   <g id="line2d_32">
    <path clip-path="url(#p8bd08f2ffa)" style="fill: none; stroke: #424242; stroke-width: 2.7; stroke-linecap: square"/>
   </g>
   <g id="line2d_33">
    <path clip-path="url(#p8bd08f2ffa)" style="fill: none; stroke: #424242; stroke-width: 2.7; stroke-linecap: square"/>
   </g>
   <g id="line2d_34">
    <path clip-path="url(#p8bd08f2ffa)" style="fill: none; stroke: #424242; stroke-width: 2.7; stroke-linecap: square"/>
   </g>
   <g id="line2d_35">
    <path clip-path="url(#p8bd08f2ffa)" style="fill: none; stroke: #424242; stroke-width: 2.7; stroke-linecap: square"/>
   </g>
   <g id="line2d_36">
    <path clip-path="url(#p8bd08f2ffa)" style="fill: none; stroke: #424242; stroke-width: 2.7; stroke-linecap: square"/>
   </g>
   <g id="line2d_37">
    <path clip-path="url(#p8bd08f2ffa)" style="fill: none; stroke: #424242; stroke-width: 2.7; stroke-linecap: square"/>
   </g>
   <g id="line2d_38">
    <path clip-path="url(#p8bd08f2ffa)" style="fill: none; stroke: #424242; stroke-width: 2.7; stroke-linecap: square"/>
   </g>
   <g id="line2d_39">
    <path clip-path="url(#p8bd08f2ffa)" style="fill: none; stroke: #424242; stroke-width: 2.7; stroke-linecap: square"/>
   </g>
   <g id="line2d_40">
    <path clip-path="url(#p8bd08f2ffa)" style="fill: none; stroke: #424242; stroke-width: 2.7; stroke-linecap: square"/>
   </g>
   <g id="line2d_41">
    <path clip-path="url(#p8bd08f2ffa)" style="fill: none; stroke: #424242; stroke-width: 2.7; stroke-linecap: square"/>
   </g>
   <g id="line2d_42">
    <path clip-path="url(#p8bd08f2ffa)" style="fill: none; stroke: #424242; stroke-width: 2.7; stroke-linecap: square"/>
   </g>
   <g id="line2d_43">
    <path clip-path="url(#p8bd08f2ffa)" style="fill: none; stroke: #424242; stroke-width: 2.7; stroke-linecap: square"/>
   </g>
   <g id="line2d_44">
    <path clip-path="url(#p8bd08f2ffa)" style="fill: none; stroke: #424242; stroke-width: 2.7; stroke-linecap: square"/>
   </g>
   <g id="line2d_45">
    <path clip-path="url(#p8bd08f2ffa)" style="fill: none; stroke: #424242; stroke-width: 2.7; stroke-linecap: square"/>
   </g>
   <g id="line2d_46">
    <path clip-path="url(#p8bd08f2ffa)" style="fill: none; stroke: #424242; stroke-width: 2.7; stroke-linecap: square"/>
   </g>
   <g id="line2d_47">
    <path clip-path="url(#p8bd08f2ffa)" style="fill: none; stroke: #424242; stroke-width: 2.7; stroke-linecap: square"/>
   </g>
   <g id="patch_22">
    <path d="M 180 630 
L 180 86.4 
" style="fill: none; stroke: #000000; stroke-width: 0.8; stroke-linejoin: miter; stroke-linecap: square"/>
   </g>
   <g id="patch_23">
    <path d="M 1296 630 
L 1296 86.4 
" style="fill: none; stroke: #000000; stroke-width: 0.8; stroke-linejoin: miter; stroke-linecap: square"/>
   </g>
   <g id="patch_24">
    <path d="M 180 630 
L 1296 630 
" style="fill: none; stroke: #000000; stroke-width: 0.8; stroke-linejoin: miter; stroke-linecap: square"/>
   </g>
   <g id="patch_25">
    <path d="M 180 86.4 
L 1296 86.4 
" style="fill: none; stroke: #000000; stroke-width: 0.8; stroke-linejoin: miter; stroke-linecap: square"/>
   </g>
   <g id="text_31">
    <!-- c18neg_area_QCext_intensity_svr_poly - Binary classification onset vs control-local - 50 estimators -->
    <g transform="translate(441.67875 80.4)scale(0.12 -0.12)">
     <defs>
      <path id="DejaVuSans-67" d="M 2906 1791 
Q 2906 2416 2648 2759 
Q 2391 3103 1925 3103 
Q 1463 3103 1205 2759 
Q 947 2416 947 1791 
Q 947 1169 1205 825 
Q 1463 481 1925 481 
Q 2391 481 2648 825 
Q 2906 1169 2906 1791 
z
M 3481 434 
Q 3481 -459 3084 -895 
Q 2688 -1331 1869 -1331 
Q 1566 -1331 1297 -1286 
Q 1028 -1241 775 -1147 
L 775 -588 
Q 1028 -725 1275 -790 
Q 1522 -856 1778 -856 
Q 2344 -856 2625 -561 
Q 2906 -266 2906 331 
L 2906 616 
Q 2728 306 2450 153 
Q 2172 0 1784 0 
Q 1141 0 747 490 
Q 353 981 353 1791 
Q 353 2603 747 3093 
Q 1141 3584 1784 3584 
Q 2172 3584 2450 3431 
Q 2728 3278 2906 2969 
L 2906 3500 
L 3481 3500 
L 3481 434 
z
" transform="scale(0.015625)"/>
      <path id="DejaVuSans-5f" d="M 3263 -1063 
L 3263 -1509 
L -63 -1509 
L -63 -1063 
L 3263 -1063 
z
" transform="scale(0.015625)"/>
      <path id="DejaVuSans-51" d="M 2522 4238 
Q 1834 4238 1429 3725 
Q 1025 3213 1025 2328 
Q 1025 1447 1429 934 
Q 1834 422 2522 422 
Q 3209 422 3611 934 
Q 4013 1447 4013 2328 
Q 4013 3213 3611 3725 
Q 3209 4238 2522 4238 
z
M 3406 84 
L 4238 -825 
L 3475 -825 
L 2784 -78 
Q 2681 -84 2626 -87 
Q 2572 -91 2522 -91 
Q 1538 -91 948 567 
Q 359 1225 359 2328 
Q 359 3434 948 4092 
Q 1538 4750 2522 4750 
Q 3503 4750 4090 4092 
Q 4678 3434 4678 2328 
Q 4678 1516 4351 937 
Q 4025 359 3406 84 
z
" transform="scale(0.015625)"/>
      <path id="DejaVuSans-43" d="M 4122 4306 
L 4122 3641 
Q 3803 3938 3442 4084 
Q 3081 4231 2675 4231 
Q 1875 4231 1450 3742 
Q 1025 3253 1025 2328 
Q 1025 1406 1450 917 
Q 1875 428 2675 428 
Q 3081 428 3442 575 
Q 3803 722 4122 1019 
L 4122 359 
Q 3791 134 3420 21 
Q 3050 -91 2638 -91 
Q 1578 -91 968 557 
Q 359 1206 359 2328 
Q 359 3453 968 4101 
Q 1578 4750 2638 4750 
Q 3056 4750 3426 4639 
Q 3797 4528 4122 4306 
z
" transform="scale(0.015625)"/>
      <path id="DejaVuSans-78" d="M 3513 3500 
L 2247 1797 
L 3578 0 
L 2900 0 
L 1881 1375 
L 863 0 
L 184 0 
L 1544 1831 
L 300 3500 
L 978 3500 
L 1906 2253 
L 2834 3500 
L 3513 3500 
z
" transform="scale(0.015625)"/>
      <path id="DejaVuSans-73" d="M 2834 3397 
L 2834 2853 
Q 2591 2978 2328 3040 
Q 2066 3103 1784 3103 
Q 1356 3103 1142 2972 
Q 928 2841 928 2578 
Q 928 2378 1081 2264 
Q 1234 2150 1697 2047 
L 1894 2003 
Q 2506 1872 2764 1633 
Q 3022 1394 3022 966 
Q 3022 478 2636 193 
Q 2250 -91 1575 -91 
Q 1294 -91 989 -36 
Q 684 19 347 128 
L 347 722 
Q 666 556 975 473 
Q 1284 391 1588 391 
Q 1994 391 2212 530 
Q 2431 669 2431 922 
Q 2431 1156 2273 1281 
Q 2116 1406 1581 1522 
L 1381 1569 
Q 847 1681 609 1914 
Q 372 2147 372 2553 
Q 372 3047 722 3315 
Q 1072 3584 1716 3584 
Q 2034 3584 2315 3537 
Q 2597 3491 2834 3397 
z
" transform="scale(0.015625)"/>
      <path id="DejaVuSans-79" d="M 2059 -325 
Q 1816 -950 1584 -1140 
Q 1353 -1331 966 -1331 
L 506 -1331 
L 506 -850 
L 844 -850 
Q 1081 -850 1212 -737 
Q 1344 -625 1503 -206 
L 1606 56 
L 191 3500 
L 800 3500 
L 1894 763 
L 2988 3500 
L 3597 3500 
L 2059 -325 
z
" transform="scale(0.015625)"/>
      <path id="DejaVuSans-76" d="M 191 3500 
L 800 3500 
L 1894 563 
L 2988 3500 
L 3597 3500 
L 2284 0 
L 1503 0 
L 191 3500 
z
" transform="scale(0.015625)"/>
      <path id="DejaVuSans-2d" d="M 313 2009 
L 1997 2009 
L 1997 1497 
L 313 1497 
L 313 2009 
z
" transform="scale(0.015625)"/>
      <path id="DejaVuSans-42" d="M 1259 2228 
L 1259 519 
L 2272 519 
Q 2781 519 3026 730 
Q 3272 941 3272 1375 
Q 3272 1813 3026 2020 
Q 2781 2228 2272 2228 
L 1259 2228 
z
M 1259 4147 
L 1259 2741 
L 2194 2741 
Q 2656 2741 2882 2914 
Q 3109 3088 3109 3444 
Q 3109 3797 2882 3972 
Q 2656 4147 2194 4147 
L 1259 4147 
z
M 628 4666 
L 2241 4666 
Q 2963 4666 3353 4366 
Q 3744 4066 3744 3513 
Q 3744 3084 3544 2831 
Q 3344 2578 2956 2516 
Q 3422 2416 3680 2098 
Q 3938 1781 3938 1306 
Q 3938 681 3513 340 
Q 3088 0 2303 0 
L 628 0 
L 628 4666 
z
" transform="scale(0.015625)"/>
      <path id="DejaVuSans-66" d="M 2375 4863 
L 2375 4384 
L 1825 4384 
Q 1516 4384 1395 4259 
Q 1275 4134 1275 3809 
L 1275 3500 
L 2222 3500 
L 2222 3053 
L 1275 3053 
L 1275 0 
L 697 0 
L 697 3053 
L 147 3053 
L 147 3500 
L 697 3500 
L 697 3744 
Q 697 4328 969 4595 
Q 1241 4863 1831 4863 
L 2375 4863 
z
" transform="scale(0.015625)"/>
     </defs>
     <use xlink:href="#DejaVuSans-63"/>
     <use xlink:href="#DejaVuSans-31" x="54.980469"/>
     <use xlink:href="#DejaVuSans-38" x="118.603516"/>
     <use xlink:href="#DejaVuSans-6e" x="182.226562"/>
     <use xlink:href="#DejaVuSans-65" x="245.605469"/>
     <use xlink:href="#DejaVuSans-67" x="307.128906"/>
     <use xlink:href="#DejaVuSans-5f" x="370.605469"/>
     <use xlink:href="#DejaVuSans-61" x="420.605469"/>
     <use xlink:href="#DejaVuSans-72" x="481.884766"/>
     <use xlink:href="#DejaVuSans-65" x="520.748047"/>
     <use xlink:href="#DejaVuSans-61" x="582.271484"/>
     <use xlink:href="#DejaVuSans-5f" x="643.550781"/>
     <use xlink:href="#DejaVuSans-51" x="693.550781"/>
     <use xlink:href="#DejaVuSans-43" x="772.261719"/>
     <use xlink:href="#DejaVuSans-65" x="842.085938"/>
     <use xlink:href="#DejaVuSans-78" x="901.859375"/>
     <use xlink:href="#DejaVuSans-74" x="961.039062"/>
     <use xlink:href="#DejaVuSans-5f" x="1000.248047"/>
     <use xlink:href="#DejaVuSans-69" x="1050.248047"/>
     <use xlink:href="#DejaVuSans-6e" x="1078.03125"/>
     <use xlink:href="#DejaVuSans-74" x="1141.410156"/>
     <use xlink:href="#DejaVuSans-65" x="1180.619141"/>
     <use xlink:href="#DejaVuSans-6e" x="1242.142578"/>
     <use xlink:href="#DejaVuSans-73" x="1305.521484"/>
     <use xlink:href="#DejaVuSans-69" x="1357.621094"/>
     <use xlink:href="#DejaVuSans-74" x="1385.404297"/>
     <use xlink:href="#DejaVuSans-79" x="1424.613281"/>
     <use xlink:href="#DejaVuSans-5f" x="1483.792969"/>
     <use xlink:href="#DejaVuSans-73" x="1533.792969"/>
     <use xlink:href="#DejaVuSans-76" x="1585.892578"/>
     <use xlink:href="#DejaVuSans-72" x="1645.072266"/>
     <use xlink:href="#DejaVuSans-5f" x="1686.185547"/>
     <use xlink:href="#DejaVuSans-70" x="1736.185547"/>
     <use xlink:href="#DejaVuSans-6f" x="1799.662109"/>
     <use xlink:href="#DejaVuSans-6c" x="1860.84375"/>
     <use xlink:href="#DejaVuSans-79" x="1888.626953"/>
     <use xlink:href="#DejaVuSans-20" x="1947.806641"/>
     <use xlink:href="#DejaVuSans-2d" x="1979.59375"/>
     <use xlink:href="#DejaVuSans-20" x="2015.677734"/>
     <use xlink:href="#DejaVuSans-42" x="2047.464844"/>
     <use xlink:href="#DejaVuSans-69" x="2116.068359"/>
     <use xlink:href="#DejaVuSans-6e" x="2143.851562"/>
     <use xlink:href="#DejaVuSans-61" x="2207.230469"/>
     <use xlink:href="#DejaVuSans-72" x="2268.509766"/>
     <use xlink:href="#DejaVuSans-79" x="2309.623047"/>
     <use xlink:href="#DejaVuSans-20" x="2368.802734"/>
     <use xlink:href="#DejaVuSans-63" x="2400.589844"/>
     <use xlink:href="#DejaVuSans-6c" x="2455.570312"/>
     <use xlink:href="#DejaVuSans-61" x="2483.353516"/>
     <use xlink:href="#DejaVuSans-73" x="2544.632812"/>
     <use xlink:href="#DejaVuSans-73" x="2596.732422"/>
     <use xlink:href="#DejaVuSans-69" x="2648.832031"/>
     <use xlink:href="#DejaVuSans-66" x="2676.615234"/>
     <use xlink:href="#DejaVuSans-69" x="2711.820312"/>
     <use xlink:href="#DejaVuSans-63" x="2739.603516"/>
     <use xlink:href="#DejaVuSans-61" x="2794.583984"/>
     <use xlink:href="#DejaVuSans-74" x="2855.863281"/>
     <use xlink:href="#DejaVuSans-69" x="2895.072266"/>
     <use xlink:href="#DejaVuSans-6f" x="2922.855469"/>
     <use xlink:href="#DejaVuSans-6e" x="2984.037109"/>
     <use xlink:href="#DejaVuSans-20" x="3047.416016"/>
     <use xlink:href="#DejaVuSans-6f" x="3079.203125"/>
     <use xlink:href="#DejaVuSans-6e" x="3140.384766"/>
     <use xlink:href="#DejaVuSans-73" x="3203.763672"/>
     <use xlink:href="#DejaVuSans-65" x="3255.863281"/>
     <use xlink:href="#DejaVuSans-74" x="3317.386719"/>
     <use xlink:href="#DejaVuSans-20" x="3356.595703"/>
     <use xlink:href="#DejaVuSans-76" x="3388.382812"/>
     <use xlink:href="#DejaVuSans-73" x="3447.5625"/>
     <use xlink:href="#DejaVuSans-20" x="3499.662109"/>
     <use xlink:href="#DejaVuSans-63" x="3531.449219"/>
     <use xlink:href="#DejaVuSans-6f" x="3586.429688"/>
     <use xlink:href="#DejaVuSans-6e" x="3647.611328"/>
     <use xlink:href="#DejaVuSans-74" x="3710.990234"/>
     <use xlink:href="#DejaVuSans-72" x="3750.199219"/>
     <use xlink:href="#DejaVuSans-6f" x="3789.0625"/>
     <use xlink:href="#DejaVuSans-6c" x="3850.244141"/>
     <use xlink:href="#DejaVuSans-2d" x="3878.027344"/>
     <use xlink:href="#DejaVuSans-6c" x="3914.111328"/>
     <use xlink:href="#DejaVuSans-6f" x="3941.894531"/>
     <use xlink:href="#DejaVuSans-63" x="4003.076172"/>
     <use xlink:href="#DejaVuSans-61" x="4058.056641"/>
     <use xlink:href="#DejaVuSans-6c" x="4119.335938"/>
     <use xlink:href="#DejaVuSans-20" x="4147.119141"/>
     <use xlink:href="#DejaVuSans-2d" x="4178.90625"/>
     <use xlink:href="#DejaVuSans-20" x="4214.990234"/>
     <use xlink:href="#DejaVuSans-35" x="4246.777344"/>
     <use xlink:href="#DejaVuSans-30" x="4310.400391"/>
     <use xlink:href="#DejaVuSans-20" x="4374.023438"/>
     <use xlink:href="#DejaVuSans-65" x="4405.810547"/>
     <use xlink:href="#DejaVuSans-73" x="4467.333984"/>
     <use xlink:href="#DejaVuSans-74" x="4519.433594"/>
     <use xlink:href="#DejaVuSans-69" x="4558.642578"/>
     <use xlink:href="#DejaVuSans-6d" x="4586.425781"/>
     <use xlink:href="#DejaVuSans-61" x="4683.837891"/>
     <use xlink:href="#DejaVuSans-74" x="4745.117188"/>
     <use xlink:href="#DejaVuSans-6f" x="4784.326172"/>
     <use xlink:href="#DejaVuSans-72" x="4845.507812"/>
     <use xlink:href="#DejaVuSans-73" x="4886.621094"/>
    </g>
   </g>
  </g>
 </g>
 <defs>
  <clipPath id="p8bd08f2ffa">
   <rect x="180" y="86.4" width="1116" height="543.6"/>
  </clipPath>
 </defs>
</svg>
