<?xml version="1.0" encoding="utf-8" standalone="no"?>
<!DOCTYPE svg PUBLIC "-//W3C//DTD SVG 1.1//EN"
  "http://www.w3.org/Graphics/SVG/1.1/DTD/svg11.dtd">
<svg xmlns:xlink="http://www.w3.org/1999/xlink" width="720pt" height="720pt" viewBox="0 0 720 720" xmlns="http://www.w3.org/2000/svg" version="1.1">
 <metadata>
  <rdf:RDF xmlns:dc="http://purl.org/dc/elements/1.1/" xmlns:cc="http://creativecommons.org/ns#" xmlns:rdf="http://www.w3.org/1999/02/22-rdf-syntax-ns#">
   <cc:Work>
    <dc:type rdf:resource="http://purl.org/dc/dcmitype/StillImage"/>
    <dc:date>2022-04-08T13:31:18.674776</dc:date>
    <dc:format>image/svg+xml</dc:format>
    <dc:creator>
     <cc:Agent>
      <dc:title>Matplotlib v3.5.1, https://matplotlib.org/</dc:title>
     </cc:Agent>
    </dc:creator>
   </cc:Work>
  </rdf:RDF>
 </metadata>
 <defs>
  <style type="text/css">*{stroke-linejoin: round; stroke-linecap: butt}</style>
 </defs>
 <g id="figure_1">
  <g id="patch_1">
   <path d="M 0 720 
L 720 720 
L 720 0 
L 0 0 
L 0 720 
z
" style="fill: none"/>
  </g>
  <g id="axes_1">
   <g id="patch_2">
    <path d="M 90 630 
L 648 630 
L 648 86.4 
L 90 86.4 
z
" style="fill: #ffffff"/>
   </g>
   <g id="patch_3">
    <path d="M 115.368606 630 
L 125.513961 630 
L 125.513961 123.679701 
L 115.368606 123.679701 
z
" clip-path="url(#p960a72580b)" style="fill: #0000ff; fill-opacity: 0.6; stroke: #000000; stroke-linejoin: miter"/>
   </g>
   <g id="patch_4">
    <path d="M 125.513961 630 
L 135.659317 630 
L 135.659317 609.585773 
L 125.513961 609.585773 
z
" clip-path="url(#p960a72580b)" style="fill: #0000ff; fill-opacity: 0.6; stroke: #000000; stroke-linejoin: miter"/>
   </g>
   <g id="patch_5">
    <path d="M 135.659317 630 
L 145.804672 630 
L 145.804672 617.181765 
L 135.659317 617.181765 
z
" clip-path="url(#p960a72580b)" style="fill: #0000ff; fill-opacity: 0.6; stroke: #000000; stroke-linejoin: miter"/>
   </g>
   <g id="patch_6">
    <path d="M 145.804672 630 
L 155.950027 630 
L 155.950027 622.404009 
L 145.804672 622.404009 
z
" clip-path="url(#p960a72580b)" style="fill: #0000ff; fill-opacity: 0.6; stroke: #000000; stroke-linejoin: miter"/>
   </g>
   <g id="patch_7">
    <path d="M 155.950027 630 
L 166.095382 630 
L 166.095382 626.202004 
L 155.950027 626.202004 
z
" clip-path="url(#p960a72580b)" style="fill: #0000ff; fill-opacity: 0.6; stroke: #000000; stroke-linejoin: miter"/>
   </g>
   <g id="patch_8">
    <path d="M 166.095382 630 
L 176.240737 630 
L 176.240737 627.626253 
L 166.095382 627.626253 
z
" clip-path="url(#p960a72580b)" style="fill: #0000ff; fill-opacity: 0.6; stroke: #000000; stroke-linejoin: miter"/>
   </g>
   <g id="patch_9">
    <path d="M 176.240737 630 
L 186.386092 630 
L 186.386092 628.575752 
L 176.240737 628.575752 
z
" clip-path="url(#p960a72580b)" style="fill: #0000ff; fill-opacity: 0.6; stroke: #000000; stroke-linejoin: miter"/>
   </g>
   <g id="patch_10">
    <path d="M 186.386092 630 
L 196.531447 630 
L 196.531447 627.863627 
L 186.386092 627.863627 
z
" clip-path="url(#p960a72580b)" style="fill: #0000ff; fill-opacity: 0.6; stroke: #000000; stroke-linejoin: miter"/>
   </g>
   <g id="patch_11">
    <path d="M 196.531447 630 
L 206.676803 630 
L 206.676803 629.287876 
L 196.531447 629.287876 
z
" clip-path="url(#p960a72580b)" style="fill: #0000ff; fill-opacity: 0.6; stroke: #000000; stroke-linejoin: miter"/>
   </g>
   <g id="patch_12">
    <path d="M 206.676803 630 
L 216.822158 630 
L 216.822158 630 
L 206.676803 630 
z
" clip-path="url(#p960a72580b)" style="fill: #0000ff; fill-opacity: 0.6; stroke: #000000; stroke-linejoin: miter"/>
   </g>
   <g id="patch_13">
    <path d="M 216.822158 630 
L 226.967513 630 
L 226.967513 630 
L 216.822158 630 
z
" clip-path="url(#p960a72580b)" style="fill: #0000ff; fill-opacity: 0.6; stroke: #000000; stroke-linejoin: miter"/>
   </g>
   <g id="patch_14">
    <path d="M 226.967513 630 
L 237.112868 630 
L 237.112868 628.813126 
L 226.967513 628.813126 
z
" clip-path="url(#p960a72580b)" style="fill: #0000ff; fill-opacity: 0.6; stroke: #000000; stroke-linejoin: miter"/>
   </g>
   <g id="patch_15">
    <path d="M 237.112868 630 
L 247.258223 630 
L 247.258223 629.050501 
L 237.112868 629.050501 
z
" clip-path="url(#p960a72580b)" style="fill: #0000ff; fill-opacity: 0.6; stroke: #000000; stroke-linejoin: miter"/>
   </g>
   <g id="patch_16">
    <path d="M 247.258223 630 
L 257.403578 630 
L 257.403578 629.762625 
L 247.258223 629.762625 
z
" clip-path="url(#p960a72580b)" style="fill: #0000ff; fill-opacity: 0.6; stroke: #000000; stroke-linejoin: miter"/>
   </g>
   <g id="patch_17">
    <path d="M 257.403578 630 
L 267.548934 630 
L 267.548934 628.813126 
L 257.403578 628.813126 
z
" clip-path="url(#p960a72580b)" style="fill: #0000ff; fill-opacity: 0.6; stroke: #000000; stroke-linejoin: miter"/>
   </g>
   <g id="patch_18">
    <path d="M 267.548934 630 
L 277.694289 630 
L 277.694289 629.525251 
L 267.548934 629.525251 
z
" clip-path="url(#p960a72580b)" style="fill: #0000ff; fill-opacity: 0.6; stroke: #000000; stroke-linejoin: miter"/>
   </g>
   <g id="patch_19">
    <path d="M 277.694289 630 
L 287.839644 630 
L 287.839644 630 
L 277.694289 630 
z
" clip-path="url(#p960a72580b)" style="fill: #0000ff; fill-opacity: 0.6; stroke: #000000; stroke-linejoin: miter"/>
   </g>
   <g id="patch_20">
    <path d="M 287.839644 630 
L 297.984999 630 
L 297.984999 630 
L 287.839644 630 
z
" clip-path="url(#p960a72580b)" style="fill: #0000ff; fill-opacity: 0.6; stroke: #000000; stroke-linejoin: miter"/>
   </g>
   <g id="patch_21">
    <path d="M 297.984999 630 
L 308.130354 630 
L 308.130354 630 
L 297.984999 630 
z
" clip-path="url(#p960a72580b)" style="fill: #0000ff; fill-opacity: 0.6; stroke: #000000; stroke-linejoin: miter"/>
   </g>
   <g id="patch_22">
    <path d="M 308.130354 630 
L 318.275709 630 
L 318.275709 629.525251 
L 308.130354 629.525251 
z
" clip-path="url(#p960a72580b)" style="fill: #0000ff; fill-opacity: 0.6; stroke: #000000; stroke-linejoin: miter"/>
   </g>
   <g id="patch_23">
    <path d="M 318.275709 630 
L 328.421064 630 
L 328.421064 629.525251 
L 318.275709 629.525251 
z
" clip-path="url(#p960a72580b)" style="fill: #0000ff; fill-opacity: 0.6; stroke: #000000; stroke-linejoin: miter"/>
   </g>
   <g id="patch_24">
    <path d="M 328.421064 630 
L 338.56642 630 
L 338.56642 630 
L 328.421064 630 
z
" clip-path="url(#p960a72580b)" style="fill: #0000ff; fill-opacity: 0.6; stroke: #000000; stroke-linejoin: miter"/>
   </g>
   <g id="patch_25">
    <path d="M 338.56642 630 
L 348.711775 630 
L 348.711775 630 
L 338.56642 630 
z
" clip-path="url(#p960a72580b)" style="fill: #0000ff; fill-opacity: 0.6; stroke: #000000; stroke-linejoin: miter"/>
   </g>
   <g id="patch_26">
    <path d="M 348.711775 630 
L 358.85713 630 
L 358.85713 630 
L 348.711775 630 
z
" clip-path="url(#p960a72580b)" style="fill: #0000ff; fill-opacity: 0.6; stroke: #000000; stroke-linejoin: miter"/>
   </g>
   <g id="patch_27">
    <path d="M 358.85713 630 
L 369.002485 630 
L 369.002485 629.762625 
L 358.85713 629.762625 
z
" clip-path="url(#p960a72580b)" style="fill: #0000ff; fill-opacity: 0.6; stroke: #000000; stroke-linejoin: miter"/>
   </g>
   <g id="patch_28">
    <path d="M 369.002485 630 
L 379.14784 630 
L 379.14784 630 
L 369.002485 630 
z
" clip-path="url(#p960a72580b)" style="fill: #0000ff; fill-opacity: 0.6; stroke: #000000; stroke-linejoin: miter"/>
   </g>
   <g id="patch_29">
    <path d="M 379.14784 630 
L 389.293195 630 
L 389.293195 630 
L 379.14784 630 
z
" clip-path="url(#p960a72580b)" style="fill: #0000ff; fill-opacity: 0.6; stroke: #000000; stroke-linejoin: miter"/>
   </g>
   <g id="patch_30">
    <path d="M 389.293195 630 
L 399.43855 630 
L 399.43855 630 
L 389.293195 630 
z
" clip-path="url(#p960a72580b)" style="fill: #0000ff; fill-opacity: 0.6; stroke: #000000; stroke-linejoin: miter"/>
   </g>
   <g id="patch_31">
    <path d="M 399.43855 630 
L 409.583906 630 
L 409.583906 630 
L 399.43855 630 
z
" clip-path="url(#p960a72580b)" style="fill: #0000ff; fill-opacity: 0.6; stroke: #000000; stroke-linejoin: miter"/>
   </g>
   <g id="patch_32">
    <path d="M 409.583906 630 
L 419.729261 630 
L 419.729261 630 
L 409.583906 630 
z
" clip-path="url(#p960a72580b)" style="fill: #0000ff; fill-opacity: 0.6; stroke: #000000; stroke-linejoin: miter"/>
   </g>
   <g id="patch_33">
    <path d="M 419.729261 630 
L 429.874616 630 
L 429.874616 630 
L 419.729261 630 
z
" clip-path="url(#p960a72580b)" style="fill: #0000ff; fill-opacity: 0.6; stroke: #000000; stroke-linejoin: miter"/>
   </g>
   <g id="patch_34">
    <path d="M 429.874616 630 
L 440.019971 630 
L 440.019971 630 
L 429.874616 630 
z
" clip-path="url(#p960a72580b)" style="fill: #0000ff; fill-opacity: 0.6; stroke: #000000; stroke-linejoin: miter"/>
   </g>
   <g id="patch_35">
    <path d="M 440.019971 630 
L 450.165326 630 
L 450.165326 630 
L 440.019971 630 
z
" clip-path="url(#p960a72580b)" style="fill: #0000ff; fill-opacity: 0.6; stroke: #000000; stroke-linejoin: miter"/>
   </g>
   <g id="patch_36">
    <path d="M 450.165326 630 
L 460.310681 630 
L 460.310681 630 
L 450.165326 630 
z
" clip-path="url(#p960a72580b)" style="fill: #0000ff; fill-opacity: 0.6; stroke: #000000; stroke-linejoin: miter"/>
   </g>
   <g id="patch_37">
    <path d="M 460.310681 630 
L 470.456036 630 
L 470.456036 630 
L 460.310681 630 
z
" clip-path="url(#p960a72580b)" style="fill: #0000ff; fill-opacity: 0.6; stroke: #000000; stroke-linejoin: miter"/>
   </g>
   <g id="patch_38">
    <path d="M 470.456036 630 
L 480.601392 630 
L 480.601392 630 
L 470.456036 630 
z
" clip-path="url(#p960a72580b)" style="fill: #0000ff; fill-opacity: 0.6; stroke: #000000; stroke-linejoin: miter"/>
   </g>
   <g id="patch_39">
    <path d="M 480.601392 630 
L 490.746747 630 
L 490.746747 630 
L 480.601392 630 
z
" clip-path="url(#p960a72580b)" style="fill: #0000ff; fill-opacity: 0.6; stroke: #000000; stroke-linejoin: miter"/>
   </g>
   <g id="patch_40">
    <path d="M 490.746747 630 
L 500.892102 630 
L 500.892102 630 
L 490.746747 630 
z
" clip-path="url(#p960a72580b)" style="fill: #0000ff; fill-opacity: 0.6; stroke: #000000; stroke-linejoin: miter"/>
   </g>
   <g id="patch_41">
    <path d="M 500.892102 630 
L 511.037457 630 
L 511.037457 630 
L 500.892102 630 
z
" clip-path="url(#p960a72580b)" style="fill: #0000ff; fill-opacity: 0.6; stroke: #000000; stroke-linejoin: miter"/>
   </g>
   <g id="patch_42">
    <path d="M 511.037457 630 
L 521.182812 630 
L 521.182812 630 
L 511.037457 630 
z
" clip-path="url(#p960a72580b)" style="fill: #0000ff; fill-opacity: 0.6; stroke: #000000; stroke-linejoin: miter"/>
   </g>
   <g id="patch_43">
    <path d="M 521.182812 630 
L 531.328167 630 
L 531.328167 630 
L 521.182812 630 
z
" clip-path="url(#p960a72580b)" style="fill: #0000ff; fill-opacity: 0.6; stroke: #000000; stroke-linejoin: miter"/>
   </g>
   <g id="patch_44">
    <path d="M 531.328167 630 
L 541.473522 630 
L 541.473522 630 
L 531.328167 630 
z
" clip-path="url(#p960a72580b)" style="fill: #0000ff; fill-opacity: 0.6; stroke: #000000; stroke-linejoin: miter"/>
   </g>
   <g id="patch_45">
    <path d="M 541.473522 630 
L 551.618878 630 
L 551.618878 630 
L 541.473522 630 
z
" clip-path="url(#p960a72580b)" style="fill: #0000ff; fill-opacity: 0.6; stroke: #000000; stroke-linejoin: miter"/>
   </g>
   <g id="patch_46">
    <path d="M 551.618878 630 
L 561.764233 630 
L 561.764233 630 
L 551.618878 630 
z
" clip-path="url(#p960a72580b)" style="fill: #0000ff; fill-opacity: 0.6; stroke: #000000; stroke-linejoin: miter"/>
   </g>
   <g id="patch_47">
    <path d="M 561.764233 630 
L 571.909588 630 
L 571.909588 629.762625 
L 561.764233 629.762625 
z
" clip-path="url(#p960a72580b)" style="fill: #0000ff; fill-opacity: 0.6; stroke: #000000; stroke-linejoin: miter"/>
   </g>
   <g id="patch_48">
    <path d="M 571.909588 630 
L 582.054943 630 
L 582.054943 630 
L 571.909588 630 
z
" clip-path="url(#p960a72580b)" style="fill: #0000ff; fill-opacity: 0.6; stroke: #000000; stroke-linejoin: miter"/>
   </g>
   <g id="patch_49">
    <path d="M 582.054943 630 
L 592.200298 630 
L 592.200298 630 
L 582.054943 630 
z
" clip-path="url(#p960a72580b)" style="fill: #0000ff; fill-opacity: 0.6; stroke: #000000; stroke-linejoin: miter"/>
   </g>
   <g id="patch_50">
    <path d="M 592.200298 630 
L 602.345653 630 
L 602.345653 630 
L 592.200298 630 
z
" clip-path="url(#p960a72580b)" style="fill: #0000ff; fill-opacity: 0.6; stroke: #000000; stroke-linejoin: miter"/>
   </g>
   <g id="patch_51">
    <path d="M 602.345653 630 
L 612.491008 630 
L 612.491008 630 
L 602.345653 630 
z
" clip-path="url(#p960a72580b)" style="fill: #0000ff; fill-opacity: 0.6; stroke: #000000; stroke-linejoin: miter"/>
   </g>
   <g id="patch_52">
    <path d="M 612.491008 630 
L 622.636364 630 
L 622.636364 629.762625 
L 612.491008 629.762625 
z
" clip-path="url(#p960a72580b)" style="fill: #0000ff; fill-opacity: 0.6; stroke: #000000; stroke-linejoin: miter"/>
   </g>
   <g id="patch_53">
    <path d="M 115.363636 630 
L 124.422439 630 
L 124.422439 112.285714 
L 115.363636 112.285714 
z
" clip-path="url(#p960a72580b)" style="fill: #ffff00; fill-opacity: 0.2; stroke: #000000; stroke-width: 0.90588; stroke-linejoin: miter"/>
   </g>
   <g id="patch_54">
    <path d="M 124.422439 630 
L 133.481242 630 
L 133.481242 611.247396 
L 124.422439 611.247396 
z
" clip-path="url(#p960a72580b)" style="fill: #ffff00; fill-opacity: 0.2; stroke: #000000; stroke-width: 0.90588; stroke-linejoin: miter"/>
   </g>
   <g id="patch_55">
    <path d="M 133.481242 630 
L 142.540045 630 
L 142.540045 620.97976 
L 133.481242 620.97976 
z
" clip-path="url(#p960a72580b)" style="fill: #ffff00; fill-opacity: 0.2; stroke: #000000; stroke-width: 0.90588; stroke-linejoin: miter"/>
   </g>
   <g id="patch_56">
    <path d="M 142.540045 630 
L 151.598848 630 
L 151.598848 626.914129 
L 142.540045 626.914129 
z
" clip-path="url(#p960a72580b)" style="fill: #ffff00; fill-opacity: 0.2; stroke: #000000; stroke-width: 0.90588; stroke-linejoin: miter"/>
   </g>
   <g id="patch_57">
    <path d="M 151.598848 630 
L 160.65765 630 
L 160.65765 626.914129 
L 151.598848 626.914129 
z
" clip-path="url(#p960a72580b)" style="fill: #ffff00; fill-opacity: 0.2; stroke: #000000; stroke-width: 0.90588; stroke-linejoin: miter"/>
   </g>
   <g id="patch_58">
    <path d="M 160.65765 630 
L 169.716453 630 
L 169.716453 627.151503 
L 160.65765 627.151503 
z
" clip-path="url(#p960a72580b)" style="fill: #ffff00; fill-opacity: 0.2; stroke: #000000; stroke-width: 0.90588; stroke-linejoin: miter"/>
   </g>
   <g id="patch_59">
    <path d="M 169.716453 630 
L 178.775256 630 
L 178.775256 629.287876 
L 169.716453 629.287876 
z
" clip-path="url(#p960a72580b)" style="fill: #ffff00; fill-opacity: 0.2; stroke: #000000; stroke-width: 0.90588; stroke-linejoin: miter"/>
   </g>
   <g id="patch_60">
    <path d="M 178.775256 630 
L 187.834059 630 
L 187.834059 628.575752 
L 178.775256 628.575752 
z
" clip-path="url(#p960a72580b)" style="fill: #ffff00; fill-opacity: 0.2; stroke: #000000; stroke-width: 0.90588; stroke-linejoin: miter"/>
   </g>
   <g id="patch_61">
    <path d="M 187.834059 630 
L 196.892862 630 
L 196.892862 629.050501 
L 187.834059 629.050501 
z
" clip-path="url(#p960a72580b)" style="fill: #ffff00; fill-opacity: 0.2; stroke: #000000; stroke-width: 0.90588; stroke-linejoin: miter"/>
   </g>
   <g id="patch_62">
    <path d="M 196.892862 630 
L 205.951664 630 
L 205.951664 629.050501 
L 196.892862 629.050501 
z
" clip-path="url(#p960a72580b)" style="fill: #ffff00; fill-opacity: 0.2; stroke: #000000; stroke-width: 0.90588; stroke-linejoin: miter"/>
   </g>
   <g id="patch_63">
    <path d="M 205.951664 630 
L 215.010467 630 
L 215.010467 629.525251 
L 205.951664 629.525251 
z
" clip-path="url(#p960a72580b)" style="fill: #ffff00; fill-opacity: 0.2; stroke: #000000; stroke-width: 0.90588; stroke-linejoin: miter"/>
   </g>
   <g id="patch_64">
    <path d="M 215.010467 630 
L 224.06927 630 
L 224.06927 629.525251 
L 215.010467 629.525251 
z
" clip-path="url(#p960a72580b)" style="fill: #ffff00; fill-opacity: 0.2; stroke: #000000; stroke-width: 0.90588; stroke-linejoin: miter"/>
   </g>
   <g id="patch_65">
    <path d="M 224.06927 630 
L 233.128073 630 
L 233.128073 629.287876 
L 224.06927 629.287876 
z
" clip-path="url(#p960a72580b)" style="fill: #ffff00; fill-opacity: 0.2; stroke: #000000; stroke-width: 0.90588; stroke-linejoin: miter"/>
   </g>
   <g id="patch_66">
    <path d="M 233.128073 630 
L 242.186876 630 
L 242.186876 629.525251 
L 233.128073 629.525251 
z
" clip-path="url(#p960a72580b)" style="fill: #ffff00; fill-opacity: 0.2; stroke: #000000; stroke-width: 0.90588; stroke-linejoin: miter"/>
   </g>
   <g id="patch_67">
    <path d="M 242.186876 630 
L 251.245678 630 
L 251.245678 629.762625 
L 242.186876 629.762625 
z
" clip-path="url(#p960a72580b)" style="fill: #ffff00; fill-opacity: 0.2; stroke: #000000; stroke-width: 0.90588; stroke-linejoin: miter"/>
   </g>
   <g id="patch_68">
    <path d="M 251.245678 630 
L 260.304481 630 
L 260.304481 629.762625 
L 251.245678 629.762625 
z
" clip-path="url(#p960a72580b)" style="fill: #ffff00; fill-opacity: 0.2; stroke: #000000; stroke-width: 0.90588; stroke-linejoin: miter"/>
   </g>
   <g id="patch_69">
    <path d="M 260.304481 630 
L 269.363284 630 
L 269.363284 629.762625 
L 260.304481 629.762625 
z
" clip-path="url(#p960a72580b)" style="fill: #ffff00; fill-opacity: 0.2; stroke: #000000; stroke-width: 0.90588; stroke-linejoin: miter"/>
   </g>
   <g id="patch_70">
    <path d="M 269.363284 630 
L 278.422087 630 
L 278.422087 629.762625 
L 269.363284 629.762625 
z
" clip-path="url(#p960a72580b)" style="fill: #ffff00; fill-opacity: 0.2; stroke: #000000; stroke-width: 0.90588; stroke-linejoin: miter"/>
   </g>
   <g id="patch_71">
    <path d="M 278.422087 630 
L 287.480889 630 
L 287.480889 629.525251 
L 278.422087 629.525251 
z
" clip-path="url(#p960a72580b)" style="fill: #ffff00; fill-opacity: 0.2; stroke: #000000; stroke-width: 0.90588; stroke-linejoin: miter"/>
   </g>
   <g id="patch_72">
    <path d="M 287.480889 630 
L 296.539692 630 
L 296.539692 629.762625 
L 287.480889 629.762625 
z
" clip-path="url(#p960a72580b)" style="fill: #ffff00; fill-opacity: 0.2; stroke: #000000; stroke-width: 0.90588; stroke-linejoin: miter"/>
   </g>
   <g id="patch_73">
    <path d="M 296.539692 630 
L 305.598495 630 
L 305.598495 629.525251 
L 296.539692 629.525251 
z
" clip-path="url(#p960a72580b)" style="fill: #ffff00; fill-opacity: 0.2; stroke: #000000; stroke-width: 0.90588; stroke-linejoin: miter"/>
   </g>
   <g id="patch_74">
    <path d="M 305.598495 630 
L 314.657298 630 
L 314.657298 630 
L 305.598495 630 
z
" clip-path="url(#p960a72580b)" style="fill: #ffff00; fill-opacity: 0.2; stroke: #000000; stroke-width: 0.90588; stroke-linejoin: miter"/>
   </g>
   <g id="patch_75">
    <path d="M 314.657298 630 
L 323.716101 630 
L 323.716101 630 
L 314.657298 630 
z
" clip-path="url(#p960a72580b)" style="fill: #ffff00; fill-opacity: 0.2; stroke: #000000; stroke-width: 0.90588; stroke-linejoin: miter"/>
   </g>
   <g id="patch_76">
    <path d="M 323.716101 630 
L 332.774903 630 
L 332.774903 630 
L 323.716101 630 
z
" clip-path="url(#p960a72580b)" style="fill: #ffff00; fill-opacity: 0.2; stroke: #000000; stroke-width: 0.90588; stroke-linejoin: miter"/>
   </g>
   <g id="patch_77">
    <path d="M 332.774903 630 
L 341.833706 630 
L 341.833706 630 
L 332.774903 630 
z
" clip-path="url(#p960a72580b)" style="fill: #ffff00; fill-opacity: 0.2; stroke: #000000; stroke-width: 0.90588; stroke-linejoin: miter"/>
   </g>
   <g id="patch_78">
    <path d="M 341.833706 630 
L 350.892509 630 
L 350.892509 630 
L 341.833706 630 
z
" clip-path="url(#p960a72580b)" style="fill: #ffff00; fill-opacity: 0.2; stroke: #000000; stroke-width: 0.90588; stroke-linejoin: miter"/>
   </g>
   <g id="patch_79">
    <path d="M 350.892509 630 
L 359.951312 630 
L 359.951312 630 
L 350.892509 630 
z
" clip-path="url(#p960a72580b)" style="fill: #ffff00; fill-opacity: 0.2; stroke: #000000; stroke-width: 0.90588; stroke-linejoin: miter"/>
   </g>
   <g id="patch_80">
    <path d="M 359.951312 630 
L 369.010115 630 
L 369.010115 629.762625 
L 359.951312 629.762625 
z
" clip-path="url(#p960a72580b)" style="fill: #ffff00; fill-opacity: 0.2; stroke: #000000; stroke-width: 0.90588; stroke-linejoin: miter"/>
   </g>
   <g id="patch_81">
    <path d="M 369.010115 630 
L 378.068917 630 
L 378.068917 630 
L 369.010115 630 
z
" clip-path="url(#p960a72580b)" style="fill: #ffff00; fill-opacity: 0.2; stroke: #000000; stroke-width: 0.90588; stroke-linejoin: miter"/>
   </g>
   <g id="patch_82">
    <path d="M 378.068917 630 
L 387.12772 630 
L 387.12772 630 
L 378.068917 630 
z
" clip-path="url(#p960a72580b)" style="fill: #ffff00; fill-opacity: 0.2; stroke: #000000; stroke-width: 0.90588; stroke-linejoin: miter"/>
   </g>
   <g id="patch_83">
    <path d="M 387.12772 630 
L 396.186523 630 
L 396.186523 630 
L 387.12772 630 
z
" clip-path="url(#p960a72580b)" style="fill: #ffff00; fill-opacity: 0.2; stroke: #000000; stroke-width: 0.90588; stroke-linejoin: miter"/>
   </g>
   <g id="patch_84">
    <path d="M 396.186523 630 
L 405.245326 630 
L 405.245326 630 
L 396.186523 630 
z
" clip-path="url(#p960a72580b)" style="fill: #ffff00; fill-opacity: 0.2; stroke: #000000; stroke-width: 0.90588; stroke-linejoin: miter"/>
   </g>
   <g id="patch_85">
    <path d="M 405.245326 630 
L 414.304129 630 
L 414.304129 630 
L 405.245326 630 
z
" clip-path="url(#p960a72580b)" style="fill: #ffff00; fill-opacity: 0.2; stroke: #000000; stroke-width: 0.90588; stroke-linejoin: miter"/>
   </g>
   <g id="patch_86">
    <path d="M 414.304129 630 
L 423.362931 630 
L 423.362931 630 
L 414.304129 630 
z
" clip-path="url(#p960a72580b)" style="fill: #ffff00; fill-opacity: 0.2; stroke: #000000; stroke-width: 0.90588; stroke-linejoin: miter"/>
   </g>
   <g id="patch_87">
    <path d="M 423.362931 630 
L 432.421734 630 
L 432.421734 630 
L 423.362931 630 
z
" clip-path="url(#p960a72580b)" style="fill: #ffff00; fill-opacity: 0.2; stroke: #000000; stroke-width: 0.90588; stroke-linejoin: miter"/>
   </g>
   <g id="patch_88">
    <path d="M 432.421734 630 
L 441.480537 630 
L 441.480537 630 
L 432.421734 630 
z
" clip-path="url(#p960a72580b)" style="fill: #ffff00; fill-opacity: 0.2; stroke: #000000; stroke-width: 0.90588; stroke-linejoin: miter"/>
   </g>
   <g id="patch_89">
    <path d="M 441.480537 630 
L 450.53934 630 
L 450.53934 630 
L 441.480537 630 
z
" clip-path="url(#p960a72580b)" style="fill: #ffff00; fill-opacity: 0.2; stroke: #000000; stroke-width: 0.90588; stroke-linejoin: miter"/>
   </g>
   <g id="patch_90">
    <path d="M 450.53934 630 
L 459.598143 630 
L 459.598143 630 
L 450.53934 630 
z
" clip-path="url(#p960a72580b)" style="fill: #ffff00; fill-opacity: 0.2; stroke: #000000; stroke-width: 0.90588; stroke-linejoin: miter"/>
   </g>
   <g id="patch_91">
    <path d="M 459.598143 630 
L 468.656945 630 
L 468.656945 630 
L 459.598143 630 
z
" clip-path="url(#p960a72580b)" style="fill: #ffff00; fill-opacity: 0.2; stroke: #000000; stroke-width: 0.90588; stroke-linejoin: miter"/>
   </g>
   <g id="patch_92">
    <path d="M 468.656945 630 
L 477.715748 630 
L 477.715748 630 
L 468.656945 630 
z
" clip-path="url(#p960a72580b)" style="fill: #ffff00; fill-opacity: 0.2; stroke: #000000; stroke-width: 0.90588; stroke-linejoin: miter"/>
   </g>
   <g id="patch_93">
    <path d="M 477.715748 630 
L 486.774551 630 
L 486.774551 630 
L 477.715748 630 
z
" clip-path="url(#p960a72580b)" style="fill: #ffff00; fill-opacity: 0.2; stroke: #000000; stroke-width: 0.90588; stroke-linejoin: miter"/>
   </g>
   <g id="patch_94">
    <path d="M 486.774551 630 
L 495.833354 630 
L 495.833354 630 
L 486.774551 630 
z
" clip-path="url(#p960a72580b)" style="fill: #ffff00; fill-opacity: 0.2; stroke: #000000; stroke-width: 0.90588; stroke-linejoin: miter"/>
   </g>
   <g id="patch_95">
    <path d="M 495.833354 630 
L 504.892157 630 
L 504.892157 630 
L 495.833354 630 
z
" clip-path="url(#p960a72580b)" style="fill: #ffff00; fill-opacity: 0.2; stroke: #000000; stroke-width: 0.90588; stroke-linejoin: miter"/>
   </g>
   <g id="patch_96">
    <path d="M 504.892157 630 
L 513.950959 630 
L 513.950959 630 
L 504.892157 630 
z
" clip-path="url(#p960a72580b)" style="fill: #ffff00; fill-opacity: 0.2; stroke: #000000; stroke-width: 0.90588; stroke-linejoin: miter"/>
   </g>
   <g id="patch_97">
    <path d="M 513.950959 630 
L 523.009762 630 
L 523.009762 630 
L 513.950959 630 
z
" clip-path="url(#p960a72580b)" style="fill: #ffff00; fill-opacity: 0.2; stroke: #000000; stroke-width: 0.90588; stroke-linejoin: miter"/>
   </g>
   <g id="patch_98">
    <path d="M 523.009762 630 
L 532.068565 630 
L 532.068565 630 
L 523.009762 630 
z
" clip-path="url(#p960a72580b)" style="fill: #ffff00; fill-opacity: 0.2; stroke: #000000; stroke-width: 0.90588; stroke-linejoin: miter"/>
   </g>
   <g id="patch_99">
    <path d="M 532.068565 630 
L 541.127368 630 
L 541.127368 630 
L 532.068565 630 
z
" clip-path="url(#p960a72580b)" style="fill: #ffff00; fill-opacity: 0.2; stroke: #000000; stroke-width: 0.90588; stroke-linejoin: miter"/>
   </g>
   <g id="patch_100">
    <path d="M 541.127368 630 
L 550.186171 630 
L 550.186171 630 
L 541.127368 630 
z
" clip-path="url(#p960a72580b)" style="fill: #ffff00; fill-opacity: 0.2; stroke: #000000; stroke-width: 0.90588; stroke-linejoin: miter"/>
   </g>
   <g id="patch_101">
    <path d="M 550.186171 630 
L 559.244973 630 
L 559.244973 630 
L 550.186171 630 
z
" clip-path="url(#p960a72580b)" style="fill: #ffff00; fill-opacity: 0.2; stroke: #000000; stroke-width: 0.90588; stroke-linejoin: miter"/>
   </g>
   <g id="patch_102">
    <path d="M 559.244973 630 
L 568.303776 630 
L 568.303776 629.762625 
L 559.244973 629.762625 
z
" clip-path="url(#p960a72580b)" style="fill: #ffff00; fill-opacity: 0.2; stroke: #000000; stroke-width: 0.90588; stroke-linejoin: miter"/>
   </g>
   <g id="matplotlib.axis_1">
    <g id="xtick_1">
     <g id="line2d_1">
      <defs>
       <path id="m4881154fc6" d="M 0 0 
L 0 3.5 
" style="stroke: #000000; stroke-width: 0.8"/>
      </defs>
      <g>
       <use xlink:href="#m4881154fc6" x="115.362471" y="630" style="stroke: #000000; stroke-width: 0.8"/>
      </g>
     </g>
     <g id="text_1">
      <!-- 0 -->
      <g transform="translate(112.181221 644.598438)scale(0.1 -0.1)">
       <defs>
        <path id="DejaVuSans-30" d="M 2034 4250 
Q 1547 4250 1301 3770 
Q 1056 3291 1056 2328 
Q 1056 1369 1301 889 
Q 1547 409 2034 409 
Q 2525 409 2770 889 
Q 3016 1369 3016 2328 
Q 3016 3291 2770 3770 
Q 2525 4250 2034 4250 
z
M 2034 4750 
Q 2819 4750 3233 4129 
Q 3647 3509 3647 2328 
Q 3647 1150 3233 529 
Q 2819 -91 2034 -91 
Q 1250 -91 836 529 
Q 422 1150 422 2328 
Q 422 3509 836 4129 
Q 1250 4750 2034 4750 
z
" transform="scale(0.015625)"/>
       </defs>
       <use xlink:href="#DejaVuSans-30"/>
      </g>
     </g>
    </g>
    <g id="xtick_2">
     <g id="line2d_2">
      <g>
       <use xlink:href="#m4881154fc6" x="216.359513" y="630" style="stroke: #000000; stroke-width: 0.8"/>
      </g>
     </g>
     <g id="text_2">
      <!-- 5 -->
      <g transform="translate(213.178263 644.598438)scale(0.1 -0.1)">
       <defs>
        <path id="DejaVuSans-35" d="M 691 4666 
L 3169 4666 
L 3169 4134 
L 1269 4134 
L 1269 2991 
Q 1406 3038 1543 3061 
Q 1681 3084 1819 3084 
Q 2600 3084 3056 2656 
Q 3513 2228 3513 1497 
Q 3513 744 3044 326 
Q 2575 -91 1722 -91 
Q 1428 -91 1123 -41 
Q 819 9 494 109 
L 494 744 
Q 775 591 1075 516 
Q 1375 441 1709 441 
Q 2250 441 2565 725 
Q 2881 1009 2881 1497 
Q 2881 1984 2565 2268 
Q 2250 2553 1709 2553 
Q 1456 2553 1204 2497 
Q 953 2441 691 2322 
L 691 4666 
z
" transform="scale(0.015625)"/>
       </defs>
       <use xlink:href="#DejaVuSans-35"/>
      </g>
     </g>
    </g>
    <g id="xtick_3">
     <g id="line2d_3">
      <g>
       <use xlink:href="#m4881154fc6" x="317.356555" y="630" style="stroke: #000000; stroke-width: 0.8"/>
      </g>
     </g>
     <g id="text_3">
      <!-- 10 -->
      <g transform="translate(310.994055 644.598438)scale(0.1 -0.1)">
       <defs>
        <path id="DejaVuSans-31" d="M 794 531 
L 1825 531 
L 1825 4091 
L 703 3866 
L 703 4441 
L 1819 4666 
L 2450 4666 
L 2450 531 
L 3481 531 
L 3481 0 
L 794 0 
L 794 531 
z
" transform="scale(0.015625)"/>
       </defs>
       <use xlink:href="#DejaVuSans-31"/>
       <use xlink:href="#DejaVuSans-30" x="63.623047"/>
      </g>
     </g>
    </g>
    <g id="xtick_4">
     <g id="line2d_4">
      <g>
       <use xlink:href="#m4881154fc6" x="418.353597" y="630" style="stroke: #000000; stroke-width: 0.8"/>
      </g>
     </g>
     <g id="text_4">
      <!-- 15 -->
      <g transform="translate(411.991097 644.598438)scale(0.1 -0.1)">
       <use xlink:href="#DejaVuSans-31"/>
       <use xlink:href="#DejaVuSans-35" x="63.623047"/>
      </g>
     </g>
    </g>
    <g id="xtick_5">
     <g id="line2d_5">
      <g>
       <use xlink:href="#m4881154fc6" x="519.350639" y="630" style="stroke: #000000; stroke-width: 0.8"/>
      </g>
     </g>
     <g id="text_5">
      <!-- 20 -->
      <g transform="translate(512.988139 644.598438)scale(0.1 -0.1)">
       <defs>
        <path id="DejaVuSans-32" d="M 1228 531 
L 3431 531 
L 3431 0 
L 469 0 
L 469 531 
Q 828 903 1448 1529 
Q 2069 2156 2228 2338 
Q 2531 2678 2651 2914 
Q 2772 3150 2772 3378 
Q 2772 3750 2511 3984 
Q 2250 4219 1831 4219 
Q 1534 4219 1204 4116 
Q 875 4013 500 3803 
L 500 4441 
Q 881 4594 1212 4672 
Q 1544 4750 1819 4750 
Q 2544 4750 2975 4387 
Q 3406 4025 3406 3419 
Q 3406 3131 3298 2873 
Q 3191 2616 2906 2266 
Q 2828 2175 2409 1742 
Q 1991 1309 1228 531 
z
" transform="scale(0.015625)"/>
       </defs>
       <use xlink:href="#DejaVuSans-32"/>
       <use xlink:href="#DejaVuSans-30" x="63.623047"/>
      </g>
     </g>
    </g>
    <g id="xtick_6">
     <g id="line2d_6">
      <g>
       <use xlink:href="#m4881154fc6" x="620.347681" y="630" style="stroke: #000000; stroke-width: 0.8"/>
      </g>
     </g>
     <g id="text_6">
      <!-- 25 -->
      <g transform="translate(613.985181 644.598438)scale(0.1 -0.1)">
       <use xlink:href="#DejaVuSans-32"/>
       <use xlink:href="#DejaVuSans-35" x="63.623047"/>
      </g>
     </g>
    </g>
   </g>
   <g id="matplotlib.axis_2">
    <g id="ytick_1">
     <g id="line2d_7">
      <defs>
       <path id="m1843792883" d="M 0 0 
L -3.5 0 
" style="stroke: #000000; stroke-width: 0.8"/>
      </defs>
      <g>
       <use xlink:href="#m1843792883" x="90" y="630" style="stroke: #000000; stroke-width: 0.8"/>
      </g>
     </g>
     <g id="text_7">
      <!-- 0 -->
      <g transform="translate(76.6375 633.799219)scale(0.1 -0.1)">
       <use xlink:href="#DejaVuSans-30"/>
      </g>
     </g>
    </g>
    <g id="ytick_2">
     <g id="line2d_8">
      <g>
       <use xlink:href="#m1843792883" x="90" y="511.312635" style="stroke: #000000; stroke-width: 0.8"/>
      </g>
     </g>
     <g id="text_8">
      <!-- 500 -->
      <g transform="translate(63.9125 515.111854)scale(0.1 -0.1)">
       <use xlink:href="#DejaVuSans-35"/>
       <use xlink:href="#DejaVuSans-30" x="63.623047"/>
       <use xlink:href="#DejaVuSans-30" x="127.246094"/>
      </g>
     </g>
    </g>
    <g id="ytick_3">
     <g id="line2d_9">
      <g>
       <use xlink:href="#m1843792883" x="90" y="392.62527" style="stroke: #000000; stroke-width: 0.8"/>
      </g>
     </g>
     <g id="text_9">
      <!-- 1000 -->
      <g transform="translate(57.55 396.424489)scale(0.1 -0.1)">
       <use xlink:href="#DejaVuSans-31"/>
       <use xlink:href="#DejaVuSans-30" x="63.623047"/>
       <use xlink:href="#DejaVuSans-30" x="127.246094"/>
       <use xlink:href="#DejaVuSans-30" x="190.869141"/>
      </g>
     </g>
    </g>
    <g id="ytick_4">
     <g id="line2d_10">
      <g>
       <use xlink:href="#m1843792883" x="90" y="273.937905" style="stroke: #000000; stroke-width: 0.8"/>
      </g>
     </g>
     <g id="text_10">
      <!-- 1500 -->
      <g transform="translate(57.55 277.737124)scale(0.1 -0.1)">
       <use xlink:href="#DejaVuSans-31"/>
       <use xlink:href="#DejaVuSans-35" x="63.623047"/>
       <use xlink:href="#DejaVuSans-30" x="127.246094"/>
       <use xlink:href="#DejaVuSans-30" x="190.869141"/>
      </g>
     </g>
    </g>
    <g id="ytick_5">
     <g id="line2d_11">
      <g>
       <use xlink:href="#m1843792883" x="90" y="155.25054" style="stroke: #000000; stroke-width: 0.8"/>
      </g>
     </g>
     <g id="text_11">
      <!-- 2000 -->
      <g transform="translate(57.55 159.049759)scale(0.1 -0.1)">
       <use xlink:href="#DejaVuSans-32"/>
       <use xlink:href="#DejaVuSans-30" x="63.623047"/>
       <use xlink:href="#DejaVuSans-30" x="127.246094"/>
       <use xlink:href="#DejaVuSans-30" x="190.869141"/>
      </g>
     </g>
    </g>
    <g id="text_12">
     <!-- Count -->
     <g transform="translate(51.470312 373.048437)rotate(-90)scale(0.1 -0.1)">
      <defs>
       <path id="DejaVuSans-43" d="M 4122 4306 
L 4122 3641 
Q 3803 3938 3442 4084 
Q 3081 4231 2675 4231 
Q 1875 4231 1450 3742 
Q 1025 3253 1025 2328 
Q 1025 1406 1450 917 
Q 1875 428 2675 428 
Q 3081 428 3442 575 
Q 3803 722 4122 1019 
L 4122 359 
Q 3791 134 3420 21 
Q 3050 -91 2638 -91 
Q 1578 -91 968 557 
Q 359 1206 359 2328 
Q 359 3453 968 4101 
Q 1578 4750 2638 4750 
Q 3056 4750 3426 4639 
Q 3797 4528 4122 4306 
z
" transform="scale(0.015625)"/>
       <path id="DejaVuSans-6f" d="M 1959 3097 
Q 1497 3097 1228 2736 
Q 959 2375 959 1747 
Q 959 1119 1226 758 
Q 1494 397 1959 397 
Q 2419 397 2687 759 
Q 2956 1122 2956 1747 
Q 2956 2369 2687 2733 
Q 2419 3097 1959 3097 
z
M 1959 3584 
Q 2709 3584 3137 3096 
Q 3566 2609 3566 1747 
Q 3566 888 3137 398 
Q 2709 -91 1959 -91 
Q 1206 -91 779 398 
Q 353 888 353 1747 
Q 353 2609 779 3096 
Q 1206 3584 1959 3584 
z
" transform="scale(0.015625)"/>
       <path id="DejaVuSans-75" d="M 544 1381 
L 544 3500 
L 1119 3500 
L 1119 1403 
Q 1119 906 1312 657 
Q 1506 409 1894 409 
Q 2359 409 2629 706 
Q 2900 1003 2900 1516 
L 2900 3500 
L 3475 3500 
L 3475 0 
L 2900 0 
L 2900 538 
Q 2691 219 2414 64 
Q 2138 -91 1772 -91 
Q 1169 -91 856 284 
Q 544 659 544 1381 
z
M 1991 3584 
L 1991 3584 
z
" transform="scale(0.015625)"/>
       <path id="DejaVuSans-6e" d="M 3513 2113 
L 3513 0 
L 2938 0 
L 2938 2094 
Q 2938 2591 2744 2837 
Q 2550 3084 2163 3084 
Q 1697 3084 1428 2787 
Q 1159 2491 1159 1978 
L 1159 0 
L 581 0 
L 581 3500 
L 1159 3500 
L 1159 2956 
Q 1366 3272 1645 3428 
Q 1925 3584 2291 3584 
Q 2894 3584 3203 3211 
Q 3513 2838 3513 2113 
z
" transform="scale(0.015625)"/>
       <path id="DejaVuSans-74" d="M 1172 4494 
L 1172 3500 
L 2356 3500 
L 2356 3053 
L 1172 3053 
L 1172 1153 
Q 1172 725 1289 603 
Q 1406 481 1766 481 
L 2356 481 
L 2356 0 
L 1766 0 
Q 1100 0 847 248 
Q 594 497 594 1153 
L 594 3053 
L 172 3053 
L 172 3500 
L 594 3500 
L 594 4494 
L 1172 4494 
z
" transform="scale(0.015625)"/>
      </defs>
      <use xlink:href="#DejaVuSans-43"/>
      <use xlink:href="#DejaVuSans-6f" x="69.824219"/>
      <use xlink:href="#DejaVuSans-75" x="131.005859"/>
      <use xlink:href="#DejaVuSans-6e" x="194.384766"/>
      <use xlink:href="#DejaVuSans-74" x="257.763672"/>
     </g>
    </g>
   </g>
   <g id="patch_103">
    <path d="M 90 630 
L 90 86.4 
" style="fill: none; stroke: #000000; stroke-width: 0.8; stroke-linejoin: miter; stroke-linecap: square"/>
   </g>
   <g id="patch_104">
    <path d="M 648 630 
L 648 86.4 
" style="fill: none; stroke: #000000; stroke-width: 0.8; stroke-linejoin: miter; stroke-linecap: square"/>
   </g>
   <g id="patch_105">
    <path d="M 90 630 
L 648 630 
" style="fill: none; stroke: #000000; stroke-width: 0.8; stroke-linejoin: miter; stroke-linecap: square"/>
   </g>
   <g id="patch_106">
    <path d="M 90 86.4 
L 648 86.4 
" style="fill: none; stroke: #000000; stroke-width: 0.8; stroke-linejoin: miter; stroke-linecap: square"/>
   </g>
   <g id="text_13">
    <!-- HILICpos_area_QCext Variances between qc raw and normalized  -->
    <g transform="translate(173.901563 80.4)scale(0.12 -0.12)">
     <defs>
      <path id="DejaVuSans-48" d="M 628 4666 
L 1259 4666 
L 1259 2753 
L 3553 2753 
L 3553 4666 
L 4184 4666 
L 4184 0 
L 3553 0 
L 3553 2222 
L 1259 2222 
L 1259 0 
L 628 0 
L 628 4666 
z
" transform="scale(0.015625)"/>
      <path id="DejaVuSans-49" d="M 628 4666 
L 1259 4666 
L 1259 0 
L 628 0 
L 628 4666 
z
" transform="scale(0.015625)"/>
      <path id="DejaVuSans-4c" d="M 628 4666 
L 1259 4666 
L 1259 531 
L 3531 531 
L 3531 0 
L 628 0 
L 628 4666 
z
" transform="scale(0.015625)"/>
      <path id="DejaVuSans-70" d="M 1159 525 
L 1159 -1331 
L 581 -1331 
L 581 3500 
L 1159 3500 
L 1159 2969 
Q 1341 3281 1617 3432 
Q 1894 3584 2278 3584 
Q 2916 3584 3314 3078 
Q 3713 2572 3713 1747 
Q 3713 922 3314 415 
Q 2916 -91 2278 -91 
Q 1894 -91 1617 61 
Q 1341 213 1159 525 
z
M 3116 1747 
Q 3116 2381 2855 2742 
Q 2594 3103 2138 3103 
Q 1681 3103 1420 2742 
Q 1159 2381 1159 1747 
Q 1159 1113 1420 752 
Q 1681 391 2138 391 
Q 2594 391 2855 752 
Q 3116 1113 3116 1747 
z
" transform="scale(0.015625)"/>
      <path id="DejaVuSans-73" d="M 2834 3397 
L 2834 2853 
Q 2591 2978 2328 3040 
Q 2066 3103 1784 3103 
Q 1356 3103 1142 2972 
Q 928 2841 928 2578 
Q 928 2378 1081 2264 
Q 1234 2150 1697 2047 
L 1894 2003 
Q 2506 1872 2764 1633 
Q 3022 1394 3022 966 
Q 3022 478 2636 193 
Q 2250 -91 1575 -91 
Q 1294 -91 989 -36 
Q 684 19 347 128 
L 347 722 
Q 666 556 975 473 
Q 1284 391 1588 391 
Q 1994 391 2212 530 
Q 2431 669 2431 922 
Q 2431 1156 2273 1281 
Q 2116 1406 1581 1522 
L 1381 1569 
Q 847 1681 609 1914 
Q 372 2147 372 2553 
Q 372 3047 722 3315 
Q 1072 3584 1716 3584 
Q 2034 3584 2315 3537 
Q 2597 3491 2834 3397 
z
" transform="scale(0.015625)"/>
      <path id="DejaVuSans-5f" d="M 3263 -1063 
L 3263 -1509 
L -63 -1509 
L -63 -1063 
L 3263 -1063 
z
" transform="scale(0.015625)"/>
      <path id="DejaVuSans-61" d="M 2194 1759 
Q 1497 1759 1228 1600 
Q 959 1441 959 1056 
Q 959 750 1161 570 
Q 1363 391 1709 391 
Q 2188 391 2477 730 
Q 2766 1069 2766 1631 
L 2766 1759 
L 2194 1759 
z
M 3341 1997 
L 3341 0 
L 2766 0 
L 2766 531 
Q 2569 213 2275 61 
Q 1981 -91 1556 -91 
Q 1019 -91 701 211 
Q 384 513 384 1019 
Q 384 1609 779 1909 
Q 1175 2209 1959 2209 
L 2766 2209 
L 2766 2266 
Q 2766 2663 2505 2880 
Q 2244 3097 1772 3097 
Q 1472 3097 1187 3025 
Q 903 2953 641 2809 
L 641 3341 
Q 956 3463 1253 3523 
Q 1550 3584 1831 3584 
Q 2591 3584 2966 3190 
Q 3341 2797 3341 1997 
z
" transform="scale(0.015625)"/>
      <path id="DejaVuSans-72" d="M 2631 2963 
Q 2534 3019 2420 3045 
Q 2306 3072 2169 3072 
Q 1681 3072 1420 2755 
Q 1159 2438 1159 1844 
L 1159 0 
L 581 0 
L 581 3500 
L 1159 3500 
L 1159 2956 
Q 1341 3275 1631 3429 
Q 1922 3584 2338 3584 
Q 2397 3584 2469 3576 
Q 2541 3569 2628 3553 
L 2631 2963 
z
" transform="scale(0.015625)"/>
      <path id="DejaVuSans-65" d="M 3597 1894 
L 3597 1613 
L 953 1613 
Q 991 1019 1311 708 
Q 1631 397 2203 397 
Q 2534 397 2845 478 
Q 3156 559 3463 722 
L 3463 178 
Q 3153 47 2828 -22 
Q 2503 -91 2169 -91 
Q 1331 -91 842 396 
Q 353 884 353 1716 
Q 353 2575 817 3079 
Q 1281 3584 2069 3584 
Q 2775 3584 3186 3129 
Q 3597 2675 3597 1894 
z
M 3022 2063 
Q 3016 2534 2758 2815 
Q 2500 3097 2075 3097 
Q 1594 3097 1305 2825 
Q 1016 2553 972 2059 
L 3022 2063 
z
" transform="scale(0.015625)"/>
      <path id="DejaVuSans-51" d="M 2522 4238 
Q 1834 4238 1429 3725 
Q 1025 3213 1025 2328 
Q 1025 1447 1429 934 
Q 1834 422 2522 422 
Q 3209 422 3611 934 
Q 4013 1447 4013 2328 
Q 4013 3213 3611 3725 
Q 3209 4238 2522 4238 
z
M 3406 84 
L 4238 -825 
L 3475 -825 
L 2784 -78 
Q 2681 -84 2626 -87 
Q 2572 -91 2522 -91 
Q 1538 -91 948 567 
Q 359 1225 359 2328 
Q 359 3434 948 4092 
Q 1538 4750 2522 4750 
Q 3503 4750 4090 4092 
Q 4678 3434 4678 2328 
Q 4678 1516 4351 937 
Q 4025 359 3406 84 
z
" transform="scale(0.015625)"/>
      <path id="DejaVuSans-78" d="M 3513 3500 
L 2247 1797 
L 3578 0 
L 2900 0 
L 1881 1375 
L 863 0 
L 184 0 
L 1544 1831 
L 300 3500 
L 978 3500 
L 1906 2253 
L 2834 3500 
L 3513 3500 
z
" transform="scale(0.015625)"/>
      <path id="DejaVuSans-20" transform="scale(0.015625)"/>
      <path id="DejaVuSans-56" d="M 1831 0 
L 50 4666 
L 709 4666 
L 2188 738 
L 3669 4666 
L 4325 4666 
L 2547 0 
L 1831 0 
z
" transform="scale(0.015625)"/>
      <path id="DejaVuSans-69" d="M 603 3500 
L 1178 3500 
L 1178 0 
L 603 0 
L 603 3500 
z
M 603 4863 
L 1178 4863 
L 1178 4134 
L 603 4134 
L 603 4863 
z
" transform="scale(0.015625)"/>
      <path id="DejaVuSans-63" d="M 3122 3366 
L 3122 2828 
Q 2878 2963 2633 3030 
Q 2388 3097 2138 3097 
Q 1578 3097 1268 2742 
Q 959 2388 959 1747 
Q 959 1106 1268 751 
Q 1578 397 2138 397 
Q 2388 397 2633 464 
Q 2878 531 3122 666 
L 3122 134 
Q 2881 22 2623 -34 
Q 2366 -91 2075 -91 
Q 1284 -91 818 406 
Q 353 903 353 1747 
Q 353 2603 823 3093 
Q 1294 3584 2113 3584 
Q 2378 3584 2631 3529 
Q 2884 3475 3122 3366 
z
" transform="scale(0.015625)"/>
      <path id="DejaVuSans-62" d="M 3116 1747 
Q 3116 2381 2855 2742 
Q 2594 3103 2138 3103 
Q 1681 3103 1420 2742 
Q 1159 2381 1159 1747 
Q 1159 1113 1420 752 
Q 1681 391 2138 391 
Q 2594 391 2855 752 
Q 3116 1113 3116 1747 
z
M 1159 2969 
Q 1341 3281 1617 3432 
Q 1894 3584 2278 3584 
Q 2916 3584 3314 3078 
Q 3713 2572 3713 1747 
Q 3713 922 3314 415 
Q 2916 -91 2278 -91 
Q 1894 -91 1617 61 
Q 1341 213 1159 525 
L 1159 0 
L 581 0 
L 581 4863 
L 1159 4863 
L 1159 2969 
z
" transform="scale(0.015625)"/>
      <path id="DejaVuSans-77" d="M 269 3500 
L 844 3500 
L 1563 769 
L 2278 3500 
L 2956 3500 
L 3675 769 
L 4391 3500 
L 4966 3500 
L 4050 0 
L 3372 0 
L 2619 2869 
L 1863 0 
L 1184 0 
L 269 3500 
z
" transform="scale(0.015625)"/>
      <path id="DejaVuSans-71" d="M 947 1747 
Q 947 1113 1208 752 
Q 1469 391 1925 391 
Q 2381 391 2643 752 
Q 2906 1113 2906 1747 
Q 2906 2381 2643 2742 
Q 2381 3103 1925 3103 
Q 1469 3103 1208 2742 
Q 947 2381 947 1747 
z
M 2906 525 
Q 2725 213 2448 61 
Q 2172 -91 1784 -91 
Q 1150 -91 751 415 
Q 353 922 353 1747 
Q 353 2572 751 3078 
Q 1150 3584 1784 3584 
Q 2172 3584 2448 3432 
Q 2725 3281 2906 2969 
L 2906 3500 
L 3481 3500 
L 3481 -1331 
L 2906 -1331 
L 2906 525 
z
" transform="scale(0.015625)"/>
      <path id="DejaVuSans-64" d="M 2906 2969 
L 2906 4863 
L 3481 4863 
L 3481 0 
L 2906 0 
L 2906 525 
Q 2725 213 2448 61 
Q 2172 -91 1784 -91 
Q 1150 -91 751 415 
Q 353 922 353 1747 
Q 353 2572 751 3078 
Q 1150 3584 1784 3584 
Q 2172 3584 2448 3432 
Q 2725 3281 2906 2969 
z
M 947 1747 
Q 947 1113 1208 752 
Q 1469 391 1925 391 
Q 2381 391 2643 752 
Q 2906 1113 2906 1747 
Q 2906 2381 2643 2742 
Q 2381 3103 1925 3103 
Q 1469 3103 1208 2742 
Q 947 2381 947 1747 
z
" transform="scale(0.015625)"/>
      <path id="DejaVuSans-6d" d="M 3328 2828 
Q 3544 3216 3844 3400 
Q 4144 3584 4550 3584 
Q 5097 3584 5394 3201 
Q 5691 2819 5691 2113 
L 5691 0 
L 5113 0 
L 5113 2094 
Q 5113 2597 4934 2840 
Q 4756 3084 4391 3084 
Q 3944 3084 3684 2787 
Q 3425 2491 3425 1978 
L 3425 0 
L 2847 0 
L 2847 2094 
Q 2847 2600 2669 2842 
Q 2491 3084 2119 3084 
Q 1678 3084 1418 2786 
Q 1159 2488 1159 1978 
L 1159 0 
L 581 0 
L 581 3500 
L 1159 3500 
L 1159 2956 
Q 1356 3278 1631 3431 
Q 1906 3584 2284 3584 
Q 2666 3584 2933 3390 
Q 3200 3197 3328 2828 
z
" transform="scale(0.015625)"/>
      <path id="DejaVuSans-6c" d="M 603 4863 
L 1178 4863 
L 1178 0 
L 603 0 
L 603 4863 
z
" transform="scale(0.015625)"/>
      <path id="DejaVuSans-7a" d="M 353 3500 
L 3084 3500 
L 3084 2975 
L 922 459 
L 3084 459 
L 3084 0 
L 275 0 
L 275 525 
L 2438 3041 
L 353 3041 
L 353 3500 
z
" transform="scale(0.015625)"/>
     </defs>
     <use xlink:href="#DejaVuSans-48"/>
     <use xlink:href="#DejaVuSans-49" x="75.195312"/>
     <use xlink:href="#DejaVuSans-4c" x="104.6875"/>
     <use xlink:href="#DejaVuSans-49" x="160.400391"/>
     <use xlink:href="#DejaVuSans-43" x="189.892578"/>
     <use xlink:href="#DejaVuSans-70" x="259.716797"/>
     <use xlink:href="#DejaVuSans-6f" x="323.193359"/>
     <use xlink:href="#DejaVuSans-73" x="384.375"/>
     <use xlink:href="#DejaVuSans-5f" x="436.474609"/>
     <use xlink:href="#DejaVuSans-61" x="486.474609"/>
     <use xlink:href="#DejaVuSans-72" x="547.753906"/>
     <use xlink:href="#DejaVuSans-65" x="586.617188"/>
     <use xlink:href="#DejaVuSans-61" x="648.140625"/>
     <use xlink:href="#DejaVuSans-5f" x="709.419922"/>
     <use xlink:href="#DejaVuSans-51" x="759.419922"/>
     <use xlink:href="#DejaVuSans-43" x="838.130859"/>
     <use xlink:href="#DejaVuSans-65" x="907.955078"/>
     <use xlink:href="#DejaVuSans-78" x="967.728516"/>
     <use xlink:href="#DejaVuSans-74" x="1026.908203"/>
     <use xlink:href="#DejaVuSans-20" x="1066.117188"/>
     <use xlink:href="#DejaVuSans-56" x="1097.904297"/>
     <use xlink:href="#DejaVuSans-61" x="1158.5625"/>
     <use xlink:href="#DejaVuSans-72" x="1219.841797"/>
     <use xlink:href="#DejaVuSans-69" x="1260.955078"/>
     <use xlink:href="#DejaVuSans-61" x="1288.738281"/>
     <use xlink:href="#DejaVuSans-6e" x="1350.017578"/>
     <use xlink:href="#DejaVuSans-63" x="1413.396484"/>
     <use xlink:href="#DejaVuSans-65" x="1468.376953"/>
     <use xlink:href="#DejaVuSans-73" x="1529.900391"/>
     <use xlink:href="#DejaVuSans-20" x="1582"/>
     <use xlink:href="#DejaVuSans-62" x="1613.787109"/>
     <use xlink:href="#DejaVuSans-65" x="1677.263672"/>
     <use xlink:href="#DejaVuSans-74" x="1738.787109"/>
     <use xlink:href="#DejaVuSans-77" x="1777.996094"/>
     <use xlink:href="#DejaVuSans-65" x="1859.783203"/>
     <use xlink:href="#DejaVuSans-65" x="1921.306641"/>
     <use xlink:href="#DejaVuSans-6e" x="1982.830078"/>
     <use xlink:href="#DejaVuSans-20" x="2046.208984"/>
     <use xlink:href="#DejaVuSans-71" x="2077.996094"/>
     <use xlink:href="#DejaVuSans-63" x="2141.472656"/>
     <use xlink:href="#DejaVuSans-20" x="2196.453125"/>
     <use xlink:href="#DejaVuSans-72" x="2228.240234"/>
     <use xlink:href="#DejaVuSans-61" x="2269.353516"/>
     <use xlink:href="#DejaVuSans-77" x="2330.632812"/>
     <use xlink:href="#DejaVuSans-20" x="2412.419922"/>
     <use xlink:href="#DejaVuSans-61" x="2444.207031"/>
     <use xlink:href="#DejaVuSans-6e" x="2505.486328"/>
     <use xlink:href="#DejaVuSans-64" x="2568.865234"/>
     <use xlink:href="#DejaVuSans-20" x="2632.341797"/>
     <use xlink:href="#DejaVuSans-6e" x="2664.128906"/>
     <use xlink:href="#DejaVuSans-6f" x="2727.507812"/>
     <use xlink:href="#DejaVuSans-72" x="2788.689453"/>
     <use xlink:href="#DejaVuSans-6d" x="2828.052734"/>
     <use xlink:href="#DejaVuSans-61" x="2925.464844"/>
     <use xlink:href="#DejaVuSans-6c" x="2986.744141"/>
     <use xlink:href="#DejaVuSans-69" x="3014.527344"/>
     <use xlink:href="#DejaVuSans-7a" x="3042.310547"/>
     <use xlink:href="#DejaVuSans-65" x="3094.800781"/>
     <use xlink:href="#DejaVuSans-64" x="3156.324219"/>
     <use xlink:href="#DejaVuSans-20" x="3219.800781"/>
    </g>
   </g>
   <g id="legend_1">
    <g id="patch_107">
     <path d="M 544.8625 124.3125 
L 641 124.3125 
Q 643 124.3125 643 122.3125 
L 643 93.4 
Q 643 91.4 641 91.4 
L 544.8625 91.4 
Q 542.8625 91.4 542.8625 93.4 
L 542.8625 122.3125 
Q 542.8625 124.3125 544.8625 124.3125 
z
" style="fill: #ffffff; opacity: 0.8; stroke: #cccccc; stroke-linejoin: miter"/>
    </g>
    <g id="patch_108">
     <path d="M 546.8625 102.998438 
L 566.8625 102.998438 
L 566.8625 95.998438 
L 546.8625 95.998438 
z
" style="fill: #0000ff; fill-opacity: 0.6; stroke: #000000; stroke-linejoin: miter"/>
    </g>
    <g id="text_14">
     <!-- var_qc_raw -->
     <g transform="translate(574.8625 102.998438)scale(0.1 -0.1)">
      <defs>
       <path id="DejaVuSans-76" d="M 191 3500 
L 800 3500 
L 1894 563 
L 2988 3500 
L 3597 3500 
L 2284 0 
L 1503 0 
L 191 3500 
z
" transform="scale(0.015625)"/>
      </defs>
      <use xlink:href="#DejaVuSans-76"/>
      <use xlink:href="#DejaVuSans-61" x="59.179688"/>
      <use xlink:href="#DejaVuSans-72" x="120.458984"/>
      <use xlink:href="#DejaVuSans-5f" x="161.572266"/>
      <use xlink:href="#DejaVuSans-71" x="211.572266"/>
      <use xlink:href="#DejaVuSans-63" x="275.048828"/>
      <use xlink:href="#DejaVuSans-5f" x="330.029297"/>
      <use xlink:href="#DejaVuSans-72" x="380.029297"/>
      <use xlink:href="#DejaVuSans-61" x="421.142578"/>
      <use xlink:href="#DejaVuSans-77" x="482.421875"/>
     </g>
    </g>
    <g id="patch_109">
     <path d="M 546.8625 117.954687 
L 566.8625 117.954687 
L 566.8625 110.954687 
L 546.8625 110.954687 
z
" style="fill: #ffff00; fill-opacity: 0.2; stroke: #000000; stroke-width: 0.90588; stroke-linejoin: miter"/>
    </g>
    <g id="text_15">
     <!-- var_qc_norm -->
     <g transform="translate(574.8625 117.954687)scale(0.1 -0.1)">
      <use xlink:href="#DejaVuSans-76"/>
      <use xlink:href="#DejaVuSans-61" x="59.179688"/>
      <use xlink:href="#DejaVuSans-72" x="120.458984"/>
      <use xlink:href="#DejaVuSans-5f" x="161.572266"/>
      <use xlink:href="#DejaVuSans-71" x="211.572266"/>
      <use xlink:href="#DejaVuSans-63" x="275.048828"/>
      <use xlink:href="#DejaVuSans-5f" x="330.029297"/>
      <use xlink:href="#DejaVuSans-6e" x="380.029297"/>
      <use xlink:href="#DejaVuSans-6f" x="443.408203"/>
      <use xlink:href="#DejaVuSans-72" x="504.589844"/>
      <use xlink:href="#DejaVuSans-6d" x="543.953125"/>
     </g>
    </g>
   </g>
  </g>
 </g>
 <defs>
  <clipPath id="p960a72580b">
   <rect x="90" y="86.4" width="558" height="543.6"/>
  </clipPath>
 </defs>
</svg>
