<?xml version="1.0" encoding="utf-8" standalone="no"?>
<!DOCTYPE svg PUBLIC "-//W3C//DTD SVG 1.1//EN"
  "http://www.w3.org/Graphics/SVG/1.1/DTD/svg11.dtd">
<svg xmlns:xlink="http://www.w3.org/1999/xlink" width="720pt" height="720pt" viewBox="0 0 720 720" xmlns="http://www.w3.org/2000/svg" version="1.1">
 <metadata>
  <rdf:RDF xmlns:dc="http://purl.org/dc/elements/1.1/" xmlns:cc="http://creativecommons.org/ns#" xmlns:rdf="http://www.w3.org/1999/02/22-rdf-syntax-ns#">
   <cc:Work>
    <dc:type rdf:resource="http://purl.org/dc/dcmitype/StillImage"/>
    <dc:date>2022-04-08T22:01:31.359916</dc:date>
    <dc:format>image/svg+xml</dc:format>
    <dc:creator>
     <cc:Agent>
      <dc:title>Matplotlib v3.5.1, https://matplotlib.org/</dc:title>
     </cc:Agent>
    </dc:creator>
   </cc:Work>
  </rdf:RDF>
 </metadata>
 <defs>
  <style type="text/css">*{stroke-linejoin: round; stroke-linecap: butt}</style>
 </defs>
 <g id="figure_1">
  <g id="patch_1">
   <path d="M 0 720 
L 720 720 
L 720 0 
L 0 0 
L 0 720 
z
" style="fill: none"/>
  </g>
  <g id="axes_1">
   <g id="patch_2">
    <path d="M 90 630 
L 648 630 
L 648 86.4 
L 90 86.4 
z
" style="fill: #ffffff"/>
   </g>
   <g id="patch_3">
    <path d="M 115.363636 630 
L 119.501414 630 
L 119.501414 112.285714 
L 115.363636 112.285714 
z
" clip-path="url(#p9a877dc5eb)" style="fill: #0000ff; fill-opacity: 0.6; stroke: #000000; stroke-linejoin: miter"/>
   </g>
   <g id="patch_4">
    <path d="M 119.501414 630 
L 123.639191 630 
L 123.639191 604.672206 
L 119.501414 604.672206 
z
" clip-path="url(#p9a877dc5eb)" style="fill: #0000ff; fill-opacity: 0.6; stroke: #000000; stroke-linejoin: miter"/>
   </g>
   <g id="patch_5">
    <path d="M 123.639191 630 
L 127.776968 630 
L 127.776968 624.863594 
L 123.639191 624.863594 
z
" clip-path="url(#p9a877dc5eb)" style="fill: #0000ff; fill-opacity: 0.6; stroke: #000000; stroke-linejoin: miter"/>
   </g>
   <g id="patch_6">
    <path d="M 127.776968 630 
L 131.914746 630 
L 131.914746 625.217829 
L 127.776968 625.217829 
z
" clip-path="url(#p9a877dc5eb)" style="fill: #0000ff; fill-opacity: 0.6; stroke: #000000; stroke-linejoin: miter"/>
   </g>
   <g id="patch_7">
    <path d="M 131.914746 630 
L 136.052523 630 
L 136.052523 627.25468 
L 131.914746 627.25468 
z
" clip-path="url(#p9a877dc5eb)" style="fill: #0000ff; fill-opacity: 0.6; stroke: #000000; stroke-linejoin: miter"/>
   </g>
   <g id="patch_8">
    <path d="M 136.052523 630 
L 140.1903 630 
L 140.1903 627.963149 
L 136.052523 627.963149 
z
" clip-path="url(#p9a877dc5eb)" style="fill: #0000ff; fill-opacity: 0.6; stroke: #000000; stroke-linejoin: miter"/>
   </g>
   <g id="patch_9">
    <path d="M 140.1903 630 
L 144.328078 630 
L 144.328078 627.786032 
L 140.1903 627.786032 
z
" clip-path="url(#p9a877dc5eb)" style="fill: #0000ff; fill-opacity: 0.6; stroke: #000000; stroke-linejoin: miter"/>
   </g>
   <g id="patch_10">
    <path d="M 144.328078 630 
L 148.465855 630 
L 148.465855 629.202972 
L 144.328078 629.202972 
z
" clip-path="url(#p9a877dc5eb)" style="fill: #0000ff; fill-opacity: 0.6; stroke: #000000; stroke-linejoin: miter"/>
   </g>
   <g id="patch_11">
    <path d="M 148.465855 630 
L 152.603633 630 
L 152.603633 628.051708 
L 148.465855 628.051708 
z
" clip-path="url(#p9a877dc5eb)" style="fill: #0000ff; fill-opacity: 0.6; stroke: #000000; stroke-linejoin: miter"/>
   </g>
   <g id="patch_12">
    <path d="M 152.603633 630 
L 156.74141 630 
L 156.74141 628.494502 
L 152.603633 628.494502 
z
" clip-path="url(#p9a877dc5eb)" style="fill: #0000ff; fill-opacity: 0.6; stroke: #000000; stroke-linejoin: miter"/>
   </g>
   <g id="patch_13">
    <path d="M 156.74141 630 
L 160.879187 630 
L 160.879187 629.29153 
L 156.74141 629.29153 
z
" clip-path="url(#p9a877dc5eb)" style="fill: #0000ff; fill-opacity: 0.6; stroke: #000000; stroke-linejoin: miter"/>
   </g>
   <g id="patch_14">
    <path d="M 160.879187 630 
L 165.016965 630 
L 165.016965 628.848737 
L 160.879187 628.848737 
z
" clip-path="url(#p9a877dc5eb)" style="fill: #0000ff; fill-opacity: 0.6; stroke: #000000; stroke-linejoin: miter"/>
   </g>
   <g id="patch_15">
    <path d="M 165.016965 630 
L 169.154742 630 
L 169.154742 629.645765 
L 165.016965 629.645765 
z
" clip-path="url(#p9a877dc5eb)" style="fill: #0000ff; fill-opacity: 0.6; stroke: #000000; stroke-linejoin: miter"/>
   </g>
   <g id="patch_16">
    <path d="M 169.154742 630 
L 173.292519 630 
L 173.292519 629.468648 
L 169.154742 629.468648 
z
" clip-path="url(#p9a877dc5eb)" style="fill: #0000ff; fill-opacity: 0.6; stroke: #000000; stroke-linejoin: miter"/>
   </g>
   <g id="patch_17">
    <path d="M 173.292519 630 
L 177.430297 630 
L 177.430297 629.557206 
L 173.292519 629.557206 
z
" clip-path="url(#p9a877dc5eb)" style="fill: #0000ff; fill-opacity: 0.6; stroke: #000000; stroke-linejoin: miter"/>
   </g>
   <g id="patch_18">
    <path d="M 177.430297 630 
L 181.568074 630 
L 181.568074 629.557206 
L 177.430297 629.557206 
z
" clip-path="url(#p9a877dc5eb)" style="fill: #0000ff; fill-opacity: 0.6; stroke: #000000; stroke-linejoin: miter"/>
   </g>
   <g id="patch_19">
    <path d="M 181.568074 630 
L 185.705851 630 
L 185.705851 629.557206 
L 181.568074 629.557206 
z
" clip-path="url(#p9a877dc5eb)" style="fill: #0000ff; fill-opacity: 0.6; stroke: #000000; stroke-linejoin: miter"/>
   </g>
   <g id="patch_20">
    <path d="M 185.705851 630 
L 189.843629 630 
L 189.843629 629.645765 
L 185.705851 629.645765 
z
" clip-path="url(#p9a877dc5eb)" style="fill: #0000ff; fill-opacity: 0.6; stroke: #000000; stroke-linejoin: miter"/>
   </g>
   <g id="patch_21">
    <path d="M 189.843629 630 
L 193.981406 630 
L 193.981406 629.734324 
L 189.843629 629.734324 
z
" clip-path="url(#p9a877dc5eb)" style="fill: #0000ff; fill-opacity: 0.6; stroke: #000000; stroke-linejoin: miter"/>
   </g>
   <g id="patch_22">
    <path d="M 193.981406 630 
L 198.119183 630 
L 198.119183 630 
L 193.981406 630 
z
" clip-path="url(#p9a877dc5eb)" style="fill: #0000ff; fill-opacity: 0.6; stroke: #000000; stroke-linejoin: miter"/>
   </g>
   <g id="patch_23">
    <path d="M 198.119183 630 
L 202.256961 630 
L 202.256961 629.380089 
L 198.119183 629.380089 
z
" clip-path="url(#p9a877dc5eb)" style="fill: #0000ff; fill-opacity: 0.6; stroke: #000000; stroke-linejoin: miter"/>
   </g>
   <g id="patch_24">
    <path d="M 202.256961 630 
L 206.394738 630 
L 206.394738 629.468648 
L 202.256961 629.468648 
z
" clip-path="url(#p9a877dc5eb)" style="fill: #0000ff; fill-opacity: 0.6; stroke: #000000; stroke-linejoin: miter"/>
   </g>
   <g id="patch_25">
    <path d="M 206.394738 630 
L 210.532515 630 
L 210.532515 629.645765 
L 206.394738 629.645765 
z
" clip-path="url(#p9a877dc5eb)" style="fill: #0000ff; fill-opacity: 0.6; stroke: #000000; stroke-linejoin: miter"/>
   </g>
   <g id="patch_26">
    <path d="M 210.532515 630 
L 214.670293 630 
L 214.670293 629.734324 
L 210.532515 629.734324 
z
" clip-path="url(#p9a877dc5eb)" style="fill: #0000ff; fill-opacity: 0.6; stroke: #000000; stroke-linejoin: miter"/>
   </g>
   <g id="patch_27">
    <path d="M 214.670293 630 
L 218.80807 630 
L 218.80807 629.734324 
L 214.670293 629.734324 
z
" clip-path="url(#p9a877dc5eb)" style="fill: #0000ff; fill-opacity: 0.6; stroke: #000000; stroke-linejoin: miter"/>
   </g>
   <g id="patch_28">
    <path d="M 218.80807 630 
L 222.945847 630 
L 222.945847 629.822883 
L 218.80807 629.822883 
z
" clip-path="url(#p9a877dc5eb)" style="fill: #0000ff; fill-opacity: 0.6; stroke: #000000; stroke-linejoin: miter"/>
   </g>
   <g id="patch_29">
    <path d="M 222.945847 630 
L 227.083625 630 
L 227.083625 629.822883 
L 222.945847 629.822883 
z
" clip-path="url(#p9a877dc5eb)" style="fill: #0000ff; fill-opacity: 0.6; stroke: #000000; stroke-linejoin: miter"/>
   </g>
   <g id="patch_30">
    <path d="M 227.083625 630 
L 231.221402 630 
L 231.221402 629.822883 
L 227.083625 629.822883 
z
" clip-path="url(#p9a877dc5eb)" style="fill: #0000ff; fill-opacity: 0.6; stroke: #000000; stroke-linejoin: miter"/>
   </g>
   <g id="patch_31">
    <path d="M 231.221402 630 
L 235.359179 630 
L 235.359179 629.911441 
L 231.221402 629.911441 
z
" clip-path="url(#p9a877dc5eb)" style="fill: #0000ff; fill-opacity: 0.6; stroke: #000000; stroke-linejoin: miter"/>
   </g>
   <g id="patch_32">
    <path d="M 235.359179 630 
L 239.496957 630 
L 239.496957 629.911441 
L 235.359179 629.911441 
z
" clip-path="url(#p9a877dc5eb)" style="fill: #0000ff; fill-opacity: 0.6; stroke: #000000; stroke-linejoin: miter"/>
   </g>
   <g id="patch_33">
    <path d="M 239.496957 630 
L 243.634734 630 
L 243.634734 629.822883 
L 239.496957 629.822883 
z
" clip-path="url(#p9a877dc5eb)" style="fill: #0000ff; fill-opacity: 0.6; stroke: #000000; stroke-linejoin: miter"/>
   </g>
   <g id="patch_34">
    <path d="M 243.634734 630 
L 247.772512 630 
L 247.772512 629.822883 
L 243.634734 629.822883 
z
" clip-path="url(#p9a877dc5eb)" style="fill: #0000ff; fill-opacity: 0.6; stroke: #000000; stroke-linejoin: miter"/>
   </g>
   <g id="patch_35">
    <path d="M 247.772512 630 
L 251.910289 630 
L 251.910289 630 
L 247.772512 630 
z
" clip-path="url(#p9a877dc5eb)" style="fill: #0000ff; fill-opacity: 0.6; stroke: #000000; stroke-linejoin: miter"/>
   </g>
   <g id="patch_36">
    <path d="M 251.910289 630 
L 256.048066 630 
L 256.048066 629.822883 
L 251.910289 629.822883 
z
" clip-path="url(#p9a877dc5eb)" style="fill: #0000ff; fill-opacity: 0.6; stroke: #000000; stroke-linejoin: miter"/>
   </g>
   <g id="patch_37">
    <path d="M 256.048066 630 
L 260.185844 630 
L 260.185844 630 
L 256.048066 630 
z
" clip-path="url(#p9a877dc5eb)" style="fill: #0000ff; fill-opacity: 0.6; stroke: #000000; stroke-linejoin: miter"/>
   </g>
   <g id="patch_38">
    <path d="M 260.185844 630 
L 264.323621 630 
L 264.323621 630 
L 260.185844 630 
z
" clip-path="url(#p9a877dc5eb)" style="fill: #0000ff; fill-opacity: 0.6; stroke: #000000; stroke-linejoin: miter"/>
   </g>
   <g id="patch_39">
    <path d="M 264.323621 630 
L 268.461398 630 
L 268.461398 630 
L 264.323621 630 
z
" clip-path="url(#p9a877dc5eb)" style="fill: #0000ff; fill-opacity: 0.6; stroke: #000000; stroke-linejoin: miter"/>
   </g>
   <g id="patch_40">
    <path d="M 268.461398 630 
L 272.599176 630 
L 272.599176 630 
L 268.461398 630 
z
" clip-path="url(#p9a877dc5eb)" style="fill: #0000ff; fill-opacity: 0.6; stroke: #000000; stroke-linejoin: miter"/>
   </g>
   <g id="patch_41">
    <path d="M 272.599176 630 
L 276.736953 630 
L 276.736953 630 
L 272.599176 630 
z
" clip-path="url(#p9a877dc5eb)" style="fill: #0000ff; fill-opacity: 0.6; stroke: #000000; stroke-linejoin: miter"/>
   </g>
   <g id="patch_42">
    <path d="M 276.736953 630 
L 280.87473 630 
L 280.87473 630 
L 276.736953 630 
z
" clip-path="url(#p9a877dc5eb)" style="fill: #0000ff; fill-opacity: 0.6; stroke: #000000; stroke-linejoin: miter"/>
   </g>
   <g id="patch_43">
    <path d="M 280.87473 630 
L 285.012508 630 
L 285.012508 630 
L 280.87473 630 
z
" clip-path="url(#p9a877dc5eb)" style="fill: #0000ff; fill-opacity: 0.6; stroke: #000000; stroke-linejoin: miter"/>
   </g>
   <g id="patch_44">
    <path d="M 285.012508 630 
L 289.150285 630 
L 289.150285 630 
L 285.012508 630 
z
" clip-path="url(#p9a877dc5eb)" style="fill: #0000ff; fill-opacity: 0.6; stroke: #000000; stroke-linejoin: miter"/>
   </g>
   <g id="patch_45">
    <path d="M 289.150285 630 
L 293.288062 630 
L 293.288062 630 
L 289.150285 630 
z
" clip-path="url(#p9a877dc5eb)" style="fill: #0000ff; fill-opacity: 0.6; stroke: #000000; stroke-linejoin: miter"/>
   </g>
   <g id="patch_46">
    <path d="M 293.288062 630 
L 297.42584 630 
L 297.42584 630 
L 293.288062 630 
z
" clip-path="url(#p9a877dc5eb)" style="fill: #0000ff; fill-opacity: 0.6; stroke: #000000; stroke-linejoin: miter"/>
   </g>
   <g id="patch_47">
    <path d="M 297.42584 630 
L 301.563617 630 
L 301.563617 630 
L 297.42584 630 
z
" clip-path="url(#p9a877dc5eb)" style="fill: #0000ff; fill-opacity: 0.6; stroke: #000000; stroke-linejoin: miter"/>
   </g>
   <g id="patch_48">
    <path d="M 301.563617 630 
L 305.701394 630 
L 305.701394 630 
L 301.563617 630 
z
" clip-path="url(#p9a877dc5eb)" style="fill: #0000ff; fill-opacity: 0.6; stroke: #000000; stroke-linejoin: miter"/>
   </g>
   <g id="patch_49">
    <path d="M 305.701394 630 
L 309.839172 630 
L 309.839172 630 
L 305.701394 630 
z
" clip-path="url(#p9a877dc5eb)" style="fill: #0000ff; fill-opacity: 0.6; stroke: #000000; stroke-linejoin: miter"/>
   </g>
   <g id="patch_50">
    <path d="M 309.839172 630 
L 313.976949 630 
L 313.976949 630 
L 309.839172 630 
z
" clip-path="url(#p9a877dc5eb)" style="fill: #0000ff; fill-opacity: 0.6; stroke: #000000; stroke-linejoin: miter"/>
   </g>
   <g id="patch_51">
    <path d="M 313.976949 630 
L 318.114726 630 
L 318.114726 629.911441 
L 313.976949 629.911441 
z
" clip-path="url(#p9a877dc5eb)" style="fill: #0000ff; fill-opacity: 0.6; stroke: #000000; stroke-linejoin: miter"/>
   </g>
   <g id="patch_52">
    <path d="M 318.114726 630 
L 322.252504 630 
L 322.252504 629.911441 
L 318.114726 629.911441 
z
" clip-path="url(#p9a877dc5eb)" style="fill: #0000ff; fill-opacity: 0.6; stroke: #000000; stroke-linejoin: miter"/>
   </g>
   <g id="patch_53">
    <path d="M 115.374588 630 
L 125.519824 630 
L 125.519824 215.633742 
L 115.374588 215.633742 
z
" clip-path="url(#p9a877dc5eb)" style="fill: #ffff00; fill-opacity: 0.2; stroke: #000000; stroke-linejoin: miter"/>
   </g>
   <g id="patch_54">
    <path d="M 125.519824 630 
L 135.665059 630 
L 135.665059 507.700406 
L 125.519824 507.700406 
z
" clip-path="url(#p9a877dc5eb)" style="fill: #ffff00; fill-opacity: 0.2; stroke: #000000; stroke-linejoin: miter"/>
   </g>
   <g id="patch_55">
    <path d="M 135.665059 630 
L 145.810295 630 
L 145.810295 622.561067 
L 135.665059 622.561067 
z
" clip-path="url(#p9a877dc5eb)" style="fill: #ffff00; fill-opacity: 0.2; stroke: #000000; stroke-linejoin: miter"/>
   </g>
   <g id="patch_56">
    <path d="M 145.810295 630 
L 155.95553 630 
L 155.95553 626.723327 
L 145.810295 626.723327 
z
" clip-path="url(#p9a877dc5eb)" style="fill: #ffff00; fill-opacity: 0.2; stroke: #000000; stroke-linejoin: miter"/>
   </g>
   <g id="patch_57">
    <path d="M 155.95553 630 
L 166.100766 630 
L 166.100766 625.306388 
L 155.95553 625.306388 
z
" clip-path="url(#p9a877dc5eb)" style="fill: #ffff00; fill-opacity: 0.2; stroke: #000000; stroke-linejoin: miter"/>
   </g>
   <g id="patch_58">
    <path d="M 166.100766 630 
L 176.246001 630 
L 176.246001 627.520356 
L 166.100766 627.520356 
z
" clip-path="url(#p9a877dc5eb)" style="fill: #ffff00; fill-opacity: 0.2; stroke: #000000; stroke-linejoin: miter"/>
   </g>
   <g id="patch_59">
    <path d="M 176.246001 630 
L 186.391237 630 
L 186.391237 627.874591 
L 176.246001 627.874591 
z
" clip-path="url(#p9a877dc5eb)" style="fill: #ffff00; fill-opacity: 0.2; stroke: #000000; stroke-linejoin: miter"/>
   </g>
   <g id="patch_60">
    <path d="M 186.391237 630 
L 196.536472 630 
L 196.536472 628.317384 
L 186.391237 628.317384 
z
" clip-path="url(#p9a877dc5eb)" style="fill: #ffff00; fill-opacity: 0.2; stroke: #000000; stroke-linejoin: miter"/>
   </g>
   <g id="patch_61">
    <path d="M 196.536472 630 
L 206.681708 630 
L 206.681708 628.671619 
L 196.536472 628.671619 
z
" clip-path="url(#p9a877dc5eb)" style="fill: #ffff00; fill-opacity: 0.2; stroke: #000000; stroke-linejoin: miter"/>
   </g>
   <g id="patch_62">
    <path d="M 206.681708 630 
L 216.826943 630 
L 216.826943 628.405943 
L 206.681708 628.405943 
z
" clip-path="url(#p9a877dc5eb)" style="fill: #ffff00; fill-opacity: 0.2; stroke: #000000; stroke-linejoin: miter"/>
   </g>
   <g id="patch_63">
    <path d="M 216.826943 630 
L 226.972179 630 
L 226.972179 628.848737 
L 216.826943 628.848737 
z
" clip-path="url(#p9a877dc5eb)" style="fill: #ffff00; fill-opacity: 0.2; stroke: #000000; stroke-linejoin: miter"/>
   </g>
   <g id="patch_64">
    <path d="M 226.972179 630 
L 237.117414 630 
L 237.117414 628.937295 
L 226.972179 628.937295 
z
" clip-path="url(#p9a877dc5eb)" style="fill: #ffff00; fill-opacity: 0.2; stroke: #000000; stroke-linejoin: miter"/>
   </g>
   <g id="patch_65">
    <path d="M 237.117414 630 
L 247.26265 630 
L 247.26265 628.937295 
L 237.117414 628.937295 
z
" clip-path="url(#p9a877dc5eb)" style="fill: #ffff00; fill-opacity: 0.2; stroke: #000000; stroke-linejoin: miter"/>
   </g>
   <g id="patch_66">
    <path d="M 247.26265 630 
L 257.407885 630 
L 257.407885 628.937295 
L 247.26265 628.937295 
z
" clip-path="url(#p9a877dc5eb)" style="fill: #ffff00; fill-opacity: 0.2; stroke: #000000; stroke-linejoin: miter"/>
   </g>
   <g id="patch_67">
    <path d="M 257.407885 630 
L 267.553121 630 
L 267.553121 629.202972 
L 257.407885 629.202972 
z
" clip-path="url(#p9a877dc5eb)" style="fill: #ffff00; fill-opacity: 0.2; stroke: #000000; stroke-linejoin: miter"/>
   </g>
   <g id="patch_68">
    <path d="M 267.553121 630 
L 277.698356 630 
L 277.698356 629.557206 
L 267.553121 629.557206 
z
" clip-path="url(#p9a877dc5eb)" style="fill: #ffff00; fill-opacity: 0.2; stroke: #000000; stroke-linejoin: miter"/>
   </g>
   <g id="patch_69">
    <path d="M 277.698356 630 
L 287.843592 630 
L 287.843592 629.734324 
L 277.698356 629.734324 
z
" clip-path="url(#p9a877dc5eb)" style="fill: #ffff00; fill-opacity: 0.2; stroke: #000000; stroke-linejoin: miter"/>
   </g>
   <g id="patch_70">
    <path d="M 287.843592 630 
L 297.988827 630 
L 297.988827 629.557206 
L 287.843592 629.557206 
z
" clip-path="url(#p9a877dc5eb)" style="fill: #ffff00; fill-opacity: 0.2; stroke: #000000; stroke-linejoin: miter"/>
   </g>
   <g id="patch_71">
    <path d="M 297.988827 630 
L 308.134063 630 
L 308.134063 629.557206 
L 297.988827 629.557206 
z
" clip-path="url(#p9a877dc5eb)" style="fill: #ffff00; fill-opacity: 0.2; stroke: #000000; stroke-linejoin: miter"/>
   </g>
   <g id="patch_72">
    <path d="M 308.134063 630 
L 318.279298 630 
L 318.279298 629.557206 
L 308.134063 629.557206 
z
" clip-path="url(#p9a877dc5eb)" style="fill: #ffff00; fill-opacity: 0.2; stroke: #000000; stroke-linejoin: miter"/>
   </g>
   <g id="patch_73">
    <path d="M 318.279298 630 
L 328.424534 630 
L 328.424534 629.645765 
L 318.279298 629.645765 
z
" clip-path="url(#p9a877dc5eb)" style="fill: #ffff00; fill-opacity: 0.2; stroke: #000000; stroke-linejoin: miter"/>
   </g>
   <g id="patch_74">
    <path d="M 328.424534 630 
L 338.569769 630 
L 338.569769 629.645765 
L 328.424534 629.645765 
z
" clip-path="url(#p9a877dc5eb)" style="fill: #ffff00; fill-opacity: 0.2; stroke: #000000; stroke-linejoin: miter"/>
   </g>
   <g id="patch_75">
    <path d="M 338.569769 630 
L 348.715005 630 
L 348.715005 629.468648 
L 338.569769 629.468648 
z
" clip-path="url(#p9a877dc5eb)" style="fill: #ffff00; fill-opacity: 0.2; stroke: #000000; stroke-linejoin: miter"/>
   </g>
   <g id="patch_76">
    <path d="M 348.715005 630 
L 358.86024 630 
L 358.86024 629.557206 
L 348.715005 629.557206 
z
" clip-path="url(#p9a877dc5eb)" style="fill: #ffff00; fill-opacity: 0.2; stroke: #000000; stroke-linejoin: miter"/>
   </g>
   <g id="patch_77">
    <path d="M 358.86024 630 
L 369.005476 630 
L 369.005476 629.557206 
L 358.86024 629.557206 
z
" clip-path="url(#p9a877dc5eb)" style="fill: #ffff00; fill-opacity: 0.2; stroke: #000000; stroke-linejoin: miter"/>
   </g>
   <g id="patch_78">
    <path d="M 369.005476 630 
L 379.150711 630 
L 379.150711 629.557206 
L 369.005476 629.557206 
z
" clip-path="url(#p9a877dc5eb)" style="fill: #ffff00; fill-opacity: 0.2; stroke: #000000; stroke-linejoin: miter"/>
   </g>
   <g id="patch_79">
    <path d="M 379.150711 630 
L 389.295947 630 
L 389.295947 629.822883 
L 379.150711 629.822883 
z
" clip-path="url(#p9a877dc5eb)" style="fill: #ffff00; fill-opacity: 0.2; stroke: #000000; stroke-linejoin: miter"/>
   </g>
   <g id="patch_80">
    <path d="M 389.295947 630 
L 399.441182 630 
L 399.441182 629.822883 
L 389.295947 629.822883 
z
" clip-path="url(#p9a877dc5eb)" style="fill: #ffff00; fill-opacity: 0.2; stroke: #000000; stroke-linejoin: miter"/>
   </g>
   <g id="patch_81">
    <path d="M 399.441182 630 
L 409.586418 630 
L 409.586418 629.911441 
L 399.441182 629.911441 
z
" clip-path="url(#p9a877dc5eb)" style="fill: #ffff00; fill-opacity: 0.2; stroke: #000000; stroke-linejoin: miter"/>
   </g>
   <g id="patch_82">
    <path d="M 409.586418 630 
L 419.731653 630 
L 419.731653 629.822883 
L 409.586418 629.822883 
z
" clip-path="url(#p9a877dc5eb)" style="fill: #ffff00; fill-opacity: 0.2; stroke: #000000; stroke-linejoin: miter"/>
   </g>
   <g id="patch_83">
    <path d="M 419.731653 630 
L 429.876889 630 
L 429.876889 629.911441 
L 419.731653 629.911441 
z
" clip-path="url(#p9a877dc5eb)" style="fill: #ffff00; fill-opacity: 0.2; stroke: #000000; stroke-linejoin: miter"/>
   </g>
   <g id="patch_84">
    <path d="M 429.876889 630 
L 440.022124 630 
L 440.022124 629.911441 
L 429.876889 629.911441 
z
" clip-path="url(#p9a877dc5eb)" style="fill: #ffff00; fill-opacity: 0.2; stroke: #000000; stroke-linejoin: miter"/>
   </g>
   <g id="patch_85">
    <path d="M 440.022124 630 
L 450.16736 630 
L 450.16736 630 
L 440.022124 630 
z
" clip-path="url(#p9a877dc5eb)" style="fill: #ffff00; fill-opacity: 0.2; stroke: #000000; stroke-linejoin: miter"/>
   </g>
   <g id="patch_86">
    <path d="M 450.16736 630 
L 460.312595 630 
L 460.312595 629.734324 
L 450.16736 629.734324 
z
" clip-path="url(#p9a877dc5eb)" style="fill: #ffff00; fill-opacity: 0.2; stroke: #000000; stroke-linejoin: miter"/>
   </g>
   <g id="patch_87">
    <path d="M 460.312595 630 
L 470.457831 630 
L 470.457831 630 
L 460.312595 630 
z
" clip-path="url(#p9a877dc5eb)" style="fill: #ffff00; fill-opacity: 0.2; stroke: #000000; stroke-linejoin: miter"/>
   </g>
   <g id="patch_88">
    <path d="M 470.457831 630 
L 480.603066 630 
L 480.603066 630 
L 470.457831 630 
z
" clip-path="url(#p9a877dc5eb)" style="fill: #ffff00; fill-opacity: 0.2; stroke: #000000; stroke-linejoin: miter"/>
   </g>
   <g id="patch_89">
    <path d="M 480.603066 630 
L 490.748302 630 
L 490.748302 630 
L 480.603066 630 
z
" clip-path="url(#p9a877dc5eb)" style="fill: #ffff00; fill-opacity: 0.2; stroke: #000000; stroke-linejoin: miter"/>
   </g>
   <g id="patch_90">
    <path d="M 490.748302 630 
L 500.893537 630 
L 500.893537 630 
L 490.748302 630 
z
" clip-path="url(#p9a877dc5eb)" style="fill: #ffff00; fill-opacity: 0.2; stroke: #000000; stroke-linejoin: miter"/>
   </g>
   <g id="patch_91">
    <path d="M 500.893537 630 
L 511.038773 630 
L 511.038773 629.911441 
L 500.893537 629.911441 
z
" clip-path="url(#p9a877dc5eb)" style="fill: #ffff00; fill-opacity: 0.2; stroke: #000000; stroke-linejoin: miter"/>
   </g>
   <g id="patch_92">
    <path d="M 511.038773 630 
L 521.184009 630 
L 521.184009 630 
L 511.038773 630 
z
" clip-path="url(#p9a877dc5eb)" style="fill: #ffff00; fill-opacity: 0.2; stroke: #000000; stroke-linejoin: miter"/>
   </g>
   <g id="patch_93">
    <path d="M 521.184009 630 
L 531.329244 630 
L 531.329244 629.911441 
L 521.184009 629.911441 
z
" clip-path="url(#p9a877dc5eb)" style="fill: #ffff00; fill-opacity: 0.2; stroke: #000000; stroke-linejoin: miter"/>
   </g>
   <g id="patch_94">
    <path d="M 531.329244 630 
L 541.47448 630 
L 541.47448 630 
L 531.329244 630 
z
" clip-path="url(#p9a877dc5eb)" style="fill: #ffff00; fill-opacity: 0.2; stroke: #000000; stroke-linejoin: miter"/>
   </g>
   <g id="patch_95">
    <path d="M 541.47448 630 
L 551.619715 630 
L 551.619715 630 
L 541.47448 630 
z
" clip-path="url(#p9a877dc5eb)" style="fill: #ffff00; fill-opacity: 0.2; stroke: #000000; stroke-linejoin: miter"/>
   </g>
   <g id="patch_96">
    <path d="M 551.619715 630 
L 561.764951 630 
L 561.764951 630 
L 551.619715 630 
z
" clip-path="url(#p9a877dc5eb)" style="fill: #ffff00; fill-opacity: 0.2; stroke: #000000; stroke-linejoin: miter"/>
   </g>
   <g id="patch_97">
    <path d="M 561.764951 630 
L 571.910186 630 
L 571.910186 630 
L 561.764951 630 
z
" clip-path="url(#p9a877dc5eb)" style="fill: #ffff00; fill-opacity: 0.2; stroke: #000000; stroke-linejoin: miter"/>
   </g>
   <g id="patch_98">
    <path d="M 571.910186 630 
L 582.055422 630 
L 582.055422 630 
L 571.910186 630 
z
" clip-path="url(#p9a877dc5eb)" style="fill: #ffff00; fill-opacity: 0.2; stroke: #000000; stroke-linejoin: miter"/>
   </g>
   <g id="patch_99">
    <path d="M 582.055422 630 
L 592.200657 630 
L 592.200657 630 
L 582.055422 630 
z
" clip-path="url(#p9a877dc5eb)" style="fill: #ffff00; fill-opacity: 0.2; stroke: #000000; stroke-linejoin: miter"/>
   </g>
   <g id="patch_100">
    <path d="M 592.200657 630 
L 602.345893 630 
L 602.345893 630 
L 592.200657 630 
z
" clip-path="url(#p9a877dc5eb)" style="fill: #ffff00; fill-opacity: 0.2; stroke: #000000; stroke-linejoin: miter"/>
   </g>
   <g id="patch_101">
    <path d="M 602.345893 630 
L 612.491128 630 
L 612.491128 630 
L 602.345893 630 
z
" clip-path="url(#p9a877dc5eb)" style="fill: #ffff00; fill-opacity: 0.2; stroke: #000000; stroke-linejoin: miter"/>
   </g>
   <g id="patch_102">
    <path d="M 612.491128 630 
L 622.636364 630 
L 622.636364 629.911441 
L 612.491128 629.911441 
z
" clip-path="url(#p9a877dc5eb)" style="fill: #ffff00; fill-opacity: 0.2; stroke: #000000; stroke-linejoin: miter"/>
   </g>
   <g id="matplotlib.axis_1">
    <g id="xtick_1">
     <g id="line2d_1">
      <defs>
       <path id="m0f5a9b8368" d="M 0 0 
L 0 3.5 
" style="stroke: #000000; stroke-width: 0.8"/>
      </defs>
      <g>
       <use xlink:href="#m0f5a9b8368" x="115.359986" y="630" style="stroke: #000000; stroke-width: 0.8"/>
      </g>
     </g>
     <g id="text_1">
      <!-- 0 -->
      <g transform="translate(112.178736 644.598438)scale(0.1 -0.1)">
       <defs>
        <path id="DejaVuSans-30" d="M 2034 4250 
Q 1547 4250 1301 3770 
Q 1056 3291 1056 2328 
Q 1056 1369 1301 889 
Q 1547 409 2034 409 
Q 2525 409 2770 889 
Q 3016 1369 3016 2328 
Q 3016 3291 2770 3770 
Q 2525 4250 2034 4250 
z
M 2034 4750 
Q 2819 4750 3233 4129 
Q 3647 3509 3647 2328 
Q 3647 1150 3233 529 
Q 2819 -91 2034 -91 
Q 1250 -91 836 529 
Q 422 1150 422 2328 
Q 422 3509 836 4129 
Q 1250 4750 2034 4750 
z
" transform="scale(0.015625)"/>
       </defs>
       <use xlink:href="#DejaVuSans-30"/>
      </g>
     </g>
    </g>
    <g id="xtick_2">
     <g id="line2d_2">
      <g>
       <use xlink:href="#m0f5a9b8368" x="222.202025" y="630" style="stroke: #000000; stroke-width: 0.8"/>
      </g>
     </g>
     <g id="text_2">
      <!-- 10 -->
      <g transform="translate(215.839525 644.598438)scale(0.1 -0.1)">
       <defs>
        <path id="DejaVuSans-31" d="M 794 531 
L 1825 531 
L 1825 4091 
L 703 3866 
L 703 4441 
L 1819 4666 
L 2450 4666 
L 2450 531 
L 3481 531 
L 3481 0 
L 794 0 
L 794 531 
z
" transform="scale(0.015625)"/>
       </defs>
       <use xlink:href="#DejaVuSans-31"/>
       <use xlink:href="#DejaVuSans-30" x="63.623047"/>
      </g>
     </g>
    </g>
    <g id="xtick_3">
     <g id="line2d_3">
      <g>
       <use xlink:href="#m0f5a9b8368" x="329.044064" y="630" style="stroke: #000000; stroke-width: 0.8"/>
      </g>
     </g>
     <g id="text_3">
      <!-- 20 -->
      <g transform="translate(322.681564 644.598438)scale(0.1 -0.1)">
       <defs>
        <path id="DejaVuSans-32" d="M 1228 531 
L 3431 531 
L 3431 0 
L 469 0 
L 469 531 
Q 828 903 1448 1529 
Q 2069 2156 2228 2338 
Q 2531 2678 2651 2914 
Q 2772 3150 2772 3378 
Q 2772 3750 2511 3984 
Q 2250 4219 1831 4219 
Q 1534 4219 1204 4116 
Q 875 4013 500 3803 
L 500 4441 
Q 881 4594 1212 4672 
Q 1544 4750 1819 4750 
Q 2544 4750 2975 4387 
Q 3406 4025 3406 3419 
Q 3406 3131 3298 2873 
Q 3191 2616 2906 2266 
Q 2828 2175 2409 1742 
Q 1991 1309 1228 531 
z
" transform="scale(0.015625)"/>
       </defs>
       <use xlink:href="#DejaVuSans-32"/>
       <use xlink:href="#DejaVuSans-30" x="63.623047"/>
      </g>
     </g>
    </g>
    <g id="xtick_4">
     <g id="line2d_4">
      <g>
       <use xlink:href="#m0f5a9b8368" x="435.886103" y="630" style="stroke: #000000; stroke-width: 0.8"/>
      </g>
     </g>
     <g id="text_4">
      <!-- 30 -->
      <g transform="translate(429.523603 644.598438)scale(0.1 -0.1)">
       <defs>
        <path id="DejaVuSans-33" d="M 2597 2516 
Q 3050 2419 3304 2112 
Q 3559 1806 3559 1356 
Q 3559 666 3084 287 
Q 2609 -91 1734 -91 
Q 1441 -91 1130 -33 
Q 819 25 488 141 
L 488 750 
Q 750 597 1062 519 
Q 1375 441 1716 441 
Q 2309 441 2620 675 
Q 2931 909 2931 1356 
Q 2931 1769 2642 2001 
Q 2353 2234 1838 2234 
L 1294 2234 
L 1294 2753 
L 1863 2753 
Q 2328 2753 2575 2939 
Q 2822 3125 2822 3475 
Q 2822 3834 2567 4026 
Q 2313 4219 1838 4219 
Q 1578 4219 1281 4162 
Q 984 4106 628 3988 
L 628 4550 
Q 988 4650 1302 4700 
Q 1616 4750 1894 4750 
Q 2613 4750 3031 4423 
Q 3450 4097 3450 3541 
Q 3450 3153 3228 2886 
Q 3006 2619 2597 2516 
z
" transform="scale(0.015625)"/>
       </defs>
       <use xlink:href="#DejaVuSans-33"/>
       <use xlink:href="#DejaVuSans-30" x="63.623047"/>
      </g>
     </g>
    </g>
    <g id="xtick_5">
     <g id="line2d_5">
      <g>
       <use xlink:href="#m0f5a9b8368" x="542.728141" y="630" style="stroke: #000000; stroke-width: 0.8"/>
      </g>
     </g>
     <g id="text_5">
      <!-- 40 -->
      <g transform="translate(536.365641 644.598438)scale(0.1 -0.1)">
       <defs>
        <path id="DejaVuSans-34" d="M 2419 4116 
L 825 1625 
L 2419 1625 
L 2419 4116 
z
M 2253 4666 
L 3047 4666 
L 3047 1625 
L 3713 1625 
L 3713 1100 
L 3047 1100 
L 3047 0 
L 2419 0 
L 2419 1100 
L 313 1100 
L 313 1709 
L 2253 4666 
z
" transform="scale(0.015625)"/>
       </defs>
       <use xlink:href="#DejaVuSans-34"/>
       <use xlink:href="#DejaVuSans-30" x="63.623047"/>
      </g>
     </g>
    </g>
   </g>
   <g id="matplotlib.axis_2">
    <g id="ytick_1">
     <g id="line2d_6">
      <defs>
       <path id="m694e8c890c" d="M 0 0 
L -3.5 0 
" style="stroke: #000000; stroke-width: 0.8"/>
      </defs>
      <g>
       <use xlink:href="#m694e8c890c" x="90" y="630" style="stroke: #000000; stroke-width: 0.8"/>
      </g>
     </g>
     <g id="text_6">
      <!-- 0 -->
      <g transform="translate(76.6375 633.799219)scale(0.1 -0.1)">
       <use xlink:href="#DejaVuSans-30"/>
      </g>
     </g>
    </g>
    <g id="ytick_2">
     <g id="line2d_7">
      <g>
       <use xlink:href="#m694e8c890c" x="90" y="541.441279" style="stroke: #000000; stroke-width: 0.8"/>
      </g>
     </g>
     <g id="text_7">
      <!-- 1000 -->
      <g transform="translate(57.55 545.240497)scale(0.1 -0.1)">
       <use xlink:href="#DejaVuSans-31"/>
       <use xlink:href="#DejaVuSans-30" x="63.623047"/>
       <use xlink:href="#DejaVuSans-30" x="127.246094"/>
       <use xlink:href="#DejaVuSans-30" x="190.869141"/>
      </g>
     </g>
    </g>
    <g id="ytick_3">
     <g id="line2d_8">
      <g>
       <use xlink:href="#m694e8c890c" x="90" y="452.882557" style="stroke: #000000; stroke-width: 0.8"/>
      </g>
     </g>
     <g id="text_8">
      <!-- 2000 -->
      <g transform="translate(57.55 456.681776)scale(0.1 -0.1)">
       <use xlink:href="#DejaVuSans-32"/>
       <use xlink:href="#DejaVuSans-30" x="63.623047"/>
       <use xlink:href="#DejaVuSans-30" x="127.246094"/>
       <use xlink:href="#DejaVuSans-30" x="190.869141"/>
      </g>
     </g>
    </g>
    <g id="ytick_4">
     <g id="line2d_9">
      <g>
       <use xlink:href="#m694e8c890c" x="90" y="364.323836" style="stroke: #000000; stroke-width: 0.8"/>
      </g>
     </g>
     <g id="text_9">
      <!-- 3000 -->
      <g transform="translate(57.55 368.123054)scale(0.1 -0.1)">
       <use xlink:href="#DejaVuSans-33"/>
       <use xlink:href="#DejaVuSans-30" x="63.623047"/>
       <use xlink:href="#DejaVuSans-30" x="127.246094"/>
       <use xlink:href="#DejaVuSans-30" x="190.869141"/>
      </g>
     </g>
    </g>
    <g id="ytick_5">
     <g id="line2d_10">
      <g>
       <use xlink:href="#m694e8c890c" x="90" y="275.765114" style="stroke: #000000; stroke-width: 0.8"/>
      </g>
     </g>
     <g id="text_10">
      <!-- 4000 -->
      <g transform="translate(57.55 279.564333)scale(0.1 -0.1)">
       <use xlink:href="#DejaVuSans-34"/>
       <use xlink:href="#DejaVuSans-30" x="63.623047"/>
       <use xlink:href="#DejaVuSans-30" x="127.246094"/>
       <use xlink:href="#DejaVuSans-30" x="190.869141"/>
      </g>
     </g>
    </g>
    <g id="ytick_6">
     <g id="line2d_11">
      <g>
       <use xlink:href="#m694e8c890c" x="90" y="187.206393" style="stroke: #000000; stroke-width: 0.8"/>
      </g>
     </g>
     <g id="text_11">
      <!-- 5000 -->
      <g transform="translate(57.55 191.005611)scale(0.1 -0.1)">
       <defs>
        <path id="DejaVuSans-35" d="M 691 4666 
L 3169 4666 
L 3169 4134 
L 1269 4134 
L 1269 2991 
Q 1406 3038 1543 3061 
Q 1681 3084 1819 3084 
Q 2600 3084 3056 2656 
Q 3513 2228 3513 1497 
Q 3513 744 3044 326 
Q 2575 -91 1722 -91 
Q 1428 -91 1123 -41 
Q 819 9 494 109 
L 494 744 
Q 775 591 1075 516 
Q 1375 441 1709 441 
Q 2250 441 2565 725 
Q 2881 1009 2881 1497 
Q 2881 1984 2565 2268 
Q 2250 2553 1709 2553 
Q 1456 2553 1204 2497 
Q 953 2441 691 2322 
L 691 4666 
z
" transform="scale(0.015625)"/>
       </defs>
       <use xlink:href="#DejaVuSans-35"/>
       <use xlink:href="#DejaVuSans-30" x="63.623047"/>
       <use xlink:href="#DejaVuSans-30" x="127.246094"/>
       <use xlink:href="#DejaVuSans-30" x="190.869141"/>
      </g>
     </g>
    </g>
    <g id="ytick_7">
     <g id="line2d_12">
      <g>
       <use xlink:href="#m694e8c890c" x="90" y="98.647671" style="stroke: #000000; stroke-width: 0.8"/>
      </g>
     </g>
     <g id="text_12">
      <!-- 6000 -->
      <g transform="translate(57.55 102.44689)scale(0.1 -0.1)">
       <defs>
        <path id="DejaVuSans-36" d="M 2113 2584 
Q 1688 2584 1439 2293 
Q 1191 2003 1191 1497 
Q 1191 994 1439 701 
Q 1688 409 2113 409 
Q 2538 409 2786 701 
Q 3034 994 3034 1497 
Q 3034 2003 2786 2293 
Q 2538 2584 2113 2584 
z
M 3366 4563 
L 3366 3988 
Q 3128 4100 2886 4159 
Q 2644 4219 2406 4219 
Q 1781 4219 1451 3797 
Q 1122 3375 1075 2522 
Q 1259 2794 1537 2939 
Q 1816 3084 2150 3084 
Q 2853 3084 3261 2657 
Q 3669 2231 3669 1497 
Q 3669 778 3244 343 
Q 2819 -91 2113 -91 
Q 1303 -91 875 529 
Q 447 1150 447 2328 
Q 447 3434 972 4092 
Q 1497 4750 2381 4750 
Q 2619 4750 2861 4703 
Q 3103 4656 3366 4563 
z
" transform="scale(0.015625)"/>
       </defs>
       <use xlink:href="#DejaVuSans-36"/>
       <use xlink:href="#DejaVuSans-30" x="63.623047"/>
       <use xlink:href="#DejaVuSans-30" x="127.246094"/>
       <use xlink:href="#DejaVuSans-30" x="190.869141"/>
      </g>
     </g>
    </g>
    <g id="text_13">
     <!-- Count -->
     <g transform="translate(51.470312 373.048437)rotate(-90)scale(0.1 -0.1)">
      <defs>
       <path id="DejaVuSans-43" d="M 4122 4306 
L 4122 3641 
Q 3803 3938 3442 4084 
Q 3081 4231 2675 4231 
Q 1875 4231 1450 3742 
Q 1025 3253 1025 2328 
Q 1025 1406 1450 917 
Q 1875 428 2675 428 
Q 3081 428 3442 575 
Q 3803 722 4122 1019 
L 4122 359 
Q 3791 134 3420 21 
Q 3050 -91 2638 -91 
Q 1578 -91 968 557 
Q 359 1206 359 2328 
Q 359 3453 968 4101 
Q 1578 4750 2638 4750 
Q 3056 4750 3426 4639 
Q 3797 4528 4122 4306 
z
" transform="scale(0.015625)"/>
       <path id="DejaVuSans-6f" d="M 1959 3097 
Q 1497 3097 1228 2736 
Q 959 2375 959 1747 
Q 959 1119 1226 758 
Q 1494 397 1959 397 
Q 2419 397 2687 759 
Q 2956 1122 2956 1747 
Q 2956 2369 2687 2733 
Q 2419 3097 1959 3097 
z
M 1959 3584 
Q 2709 3584 3137 3096 
Q 3566 2609 3566 1747 
Q 3566 888 3137 398 
Q 2709 -91 1959 -91 
Q 1206 -91 779 398 
Q 353 888 353 1747 
Q 353 2609 779 3096 
Q 1206 3584 1959 3584 
z
" transform="scale(0.015625)"/>
       <path id="DejaVuSans-75" d="M 544 1381 
L 544 3500 
L 1119 3500 
L 1119 1403 
Q 1119 906 1312 657 
Q 1506 409 1894 409 
Q 2359 409 2629 706 
Q 2900 1003 2900 1516 
L 2900 3500 
L 3475 3500 
L 3475 0 
L 2900 0 
L 2900 538 
Q 2691 219 2414 64 
Q 2138 -91 1772 -91 
Q 1169 -91 856 284 
Q 544 659 544 1381 
z
M 1991 3584 
L 1991 3584 
z
" transform="scale(0.015625)"/>
       <path id="DejaVuSans-6e" d="M 3513 2113 
L 3513 0 
L 2938 0 
L 2938 2094 
Q 2938 2591 2744 2837 
Q 2550 3084 2163 3084 
Q 1697 3084 1428 2787 
Q 1159 2491 1159 1978 
L 1159 0 
L 581 0 
L 581 3500 
L 1159 3500 
L 1159 2956 
Q 1366 3272 1645 3428 
Q 1925 3584 2291 3584 
Q 2894 3584 3203 3211 
Q 3513 2838 3513 2113 
z
" transform="scale(0.015625)"/>
       <path id="DejaVuSans-74" d="M 1172 4494 
L 1172 3500 
L 2356 3500 
L 2356 3053 
L 1172 3053 
L 1172 1153 
Q 1172 725 1289 603 
Q 1406 481 1766 481 
L 2356 481 
L 2356 0 
L 1766 0 
Q 1100 0 847 248 
Q 594 497 594 1153 
L 594 3053 
L 172 3053 
L 172 3500 
L 594 3500 
L 594 4494 
L 1172 4494 
z
" transform="scale(0.015625)"/>
      </defs>
      <use xlink:href="#DejaVuSans-43"/>
      <use xlink:href="#DejaVuSans-6f" x="69.824219"/>
      <use xlink:href="#DejaVuSans-75" x="131.005859"/>
      <use xlink:href="#DejaVuSans-6e" x="194.384766"/>
      <use xlink:href="#DejaVuSans-74" x="257.763672"/>
     </g>
    </g>
   </g>
   <g id="patch_103">
    <path d="M 90 630 
L 90 86.4 
" style="fill: none; stroke: #000000; stroke-width: 0.8; stroke-linejoin: miter; stroke-linecap: square"/>
   </g>
   <g id="patch_104">
    <path d="M 648 630 
L 648 86.4 
" style="fill: none; stroke: #000000; stroke-width: 0.8; stroke-linejoin: miter; stroke-linecap: square"/>
   </g>
   <g id="patch_105">
    <path d="M 90 630 
L 648 630 
" style="fill: none; stroke: #000000; stroke-width: 0.8; stroke-linejoin: miter; stroke-linecap: square"/>
   </g>
   <g id="patch_106">
    <path d="M 90 86.4 
L 648 86.4 
" style="fill: none; stroke: #000000; stroke-width: 0.8; stroke-linejoin: miter; stroke-linecap: square"/>
   </g>
   <g id="text_14">
    <!-- C18pos_area_nolowess Variances between qc raw and normalized  -->
    <g transform="translate(168.403125 80.4)scale(0.12 -0.12)">
     <defs>
      <path id="DejaVuSans-38" d="M 2034 2216 
Q 1584 2216 1326 1975 
Q 1069 1734 1069 1313 
Q 1069 891 1326 650 
Q 1584 409 2034 409 
Q 2484 409 2743 651 
Q 3003 894 3003 1313 
Q 3003 1734 2745 1975 
Q 2488 2216 2034 2216 
z
M 1403 2484 
Q 997 2584 770 2862 
Q 544 3141 544 3541 
Q 544 4100 942 4425 
Q 1341 4750 2034 4750 
Q 2731 4750 3128 4425 
Q 3525 4100 3525 3541 
Q 3525 3141 3298 2862 
Q 3072 2584 2669 2484 
Q 3125 2378 3379 2068 
Q 3634 1759 3634 1313 
Q 3634 634 3220 271 
Q 2806 -91 2034 -91 
Q 1263 -91 848 271 
Q 434 634 434 1313 
Q 434 1759 690 2068 
Q 947 2378 1403 2484 
z
M 1172 3481 
Q 1172 3119 1398 2916 
Q 1625 2713 2034 2713 
Q 2441 2713 2670 2916 
Q 2900 3119 2900 3481 
Q 2900 3844 2670 4047 
Q 2441 4250 2034 4250 
Q 1625 4250 1398 4047 
Q 1172 3844 1172 3481 
z
" transform="scale(0.015625)"/>
      <path id="DejaVuSans-70" d="M 1159 525 
L 1159 -1331 
L 581 -1331 
L 581 3500 
L 1159 3500 
L 1159 2969 
Q 1341 3281 1617 3432 
Q 1894 3584 2278 3584 
Q 2916 3584 3314 3078 
Q 3713 2572 3713 1747 
Q 3713 922 3314 415 
Q 2916 -91 2278 -91 
Q 1894 -91 1617 61 
Q 1341 213 1159 525 
z
M 3116 1747 
Q 3116 2381 2855 2742 
Q 2594 3103 2138 3103 
Q 1681 3103 1420 2742 
Q 1159 2381 1159 1747 
Q 1159 1113 1420 752 
Q 1681 391 2138 391 
Q 2594 391 2855 752 
Q 3116 1113 3116 1747 
z
" transform="scale(0.015625)"/>
      <path id="DejaVuSans-73" d="M 2834 3397 
L 2834 2853 
Q 2591 2978 2328 3040 
Q 2066 3103 1784 3103 
Q 1356 3103 1142 2972 
Q 928 2841 928 2578 
Q 928 2378 1081 2264 
Q 1234 2150 1697 2047 
L 1894 2003 
Q 2506 1872 2764 1633 
Q 3022 1394 3022 966 
Q 3022 478 2636 193 
Q 2250 -91 1575 -91 
Q 1294 -91 989 -36 
Q 684 19 347 128 
L 347 722 
Q 666 556 975 473 
Q 1284 391 1588 391 
Q 1994 391 2212 530 
Q 2431 669 2431 922 
Q 2431 1156 2273 1281 
Q 2116 1406 1581 1522 
L 1381 1569 
Q 847 1681 609 1914 
Q 372 2147 372 2553 
Q 372 3047 722 3315 
Q 1072 3584 1716 3584 
Q 2034 3584 2315 3537 
Q 2597 3491 2834 3397 
z
" transform="scale(0.015625)"/>
      <path id="DejaVuSans-5f" d="M 3263 -1063 
L 3263 -1509 
L -63 -1509 
L -63 -1063 
L 3263 -1063 
z
" transform="scale(0.015625)"/>
      <path id="DejaVuSans-61" d="M 2194 1759 
Q 1497 1759 1228 1600 
Q 959 1441 959 1056 
Q 959 750 1161 570 
Q 1363 391 1709 391 
Q 2188 391 2477 730 
Q 2766 1069 2766 1631 
L 2766 1759 
L 2194 1759 
z
M 3341 1997 
L 3341 0 
L 2766 0 
L 2766 531 
Q 2569 213 2275 61 
Q 1981 -91 1556 -91 
Q 1019 -91 701 211 
Q 384 513 384 1019 
Q 384 1609 779 1909 
Q 1175 2209 1959 2209 
L 2766 2209 
L 2766 2266 
Q 2766 2663 2505 2880 
Q 2244 3097 1772 3097 
Q 1472 3097 1187 3025 
Q 903 2953 641 2809 
L 641 3341 
Q 956 3463 1253 3523 
Q 1550 3584 1831 3584 
Q 2591 3584 2966 3190 
Q 3341 2797 3341 1997 
z
" transform="scale(0.015625)"/>
      <path id="DejaVuSans-72" d="M 2631 2963 
Q 2534 3019 2420 3045 
Q 2306 3072 2169 3072 
Q 1681 3072 1420 2755 
Q 1159 2438 1159 1844 
L 1159 0 
L 581 0 
L 581 3500 
L 1159 3500 
L 1159 2956 
Q 1341 3275 1631 3429 
Q 1922 3584 2338 3584 
Q 2397 3584 2469 3576 
Q 2541 3569 2628 3553 
L 2631 2963 
z
" transform="scale(0.015625)"/>
      <path id="DejaVuSans-65" d="M 3597 1894 
L 3597 1613 
L 953 1613 
Q 991 1019 1311 708 
Q 1631 397 2203 397 
Q 2534 397 2845 478 
Q 3156 559 3463 722 
L 3463 178 
Q 3153 47 2828 -22 
Q 2503 -91 2169 -91 
Q 1331 -91 842 396 
Q 353 884 353 1716 
Q 353 2575 817 3079 
Q 1281 3584 2069 3584 
Q 2775 3584 3186 3129 
Q 3597 2675 3597 1894 
z
M 3022 2063 
Q 3016 2534 2758 2815 
Q 2500 3097 2075 3097 
Q 1594 3097 1305 2825 
Q 1016 2553 972 2059 
L 3022 2063 
z
" transform="scale(0.015625)"/>
      <path id="DejaVuSans-6c" d="M 603 4863 
L 1178 4863 
L 1178 0 
L 603 0 
L 603 4863 
z
" transform="scale(0.015625)"/>
      <path id="DejaVuSans-77" d="M 269 3500 
L 844 3500 
L 1563 769 
L 2278 3500 
L 2956 3500 
L 3675 769 
L 4391 3500 
L 4966 3500 
L 4050 0 
L 3372 0 
L 2619 2869 
L 1863 0 
L 1184 0 
L 269 3500 
z
" transform="scale(0.015625)"/>
      <path id="DejaVuSans-20" transform="scale(0.015625)"/>
      <path id="DejaVuSans-56" d="M 1831 0 
L 50 4666 
L 709 4666 
L 2188 738 
L 3669 4666 
L 4325 4666 
L 2547 0 
L 1831 0 
z
" transform="scale(0.015625)"/>
      <path id="DejaVuSans-69" d="M 603 3500 
L 1178 3500 
L 1178 0 
L 603 0 
L 603 3500 
z
M 603 4863 
L 1178 4863 
L 1178 4134 
L 603 4134 
L 603 4863 
z
" transform="scale(0.015625)"/>
      <path id="DejaVuSans-63" d="M 3122 3366 
L 3122 2828 
Q 2878 2963 2633 3030 
Q 2388 3097 2138 3097 
Q 1578 3097 1268 2742 
Q 959 2388 959 1747 
Q 959 1106 1268 751 
Q 1578 397 2138 397 
Q 2388 397 2633 464 
Q 2878 531 3122 666 
L 3122 134 
Q 2881 22 2623 -34 
Q 2366 -91 2075 -91 
Q 1284 -91 818 406 
Q 353 903 353 1747 
Q 353 2603 823 3093 
Q 1294 3584 2113 3584 
Q 2378 3584 2631 3529 
Q 2884 3475 3122 3366 
z
" transform="scale(0.015625)"/>
      <path id="DejaVuSans-62" d="M 3116 1747 
Q 3116 2381 2855 2742 
Q 2594 3103 2138 3103 
Q 1681 3103 1420 2742 
Q 1159 2381 1159 1747 
Q 1159 1113 1420 752 
Q 1681 391 2138 391 
Q 2594 391 2855 752 
Q 3116 1113 3116 1747 
z
M 1159 2969 
Q 1341 3281 1617 3432 
Q 1894 3584 2278 3584 
Q 2916 3584 3314 3078 
Q 3713 2572 3713 1747 
Q 3713 922 3314 415 
Q 2916 -91 2278 -91 
Q 1894 -91 1617 61 
Q 1341 213 1159 525 
L 1159 0 
L 581 0 
L 581 4863 
L 1159 4863 
L 1159 2969 
z
" transform="scale(0.015625)"/>
      <path id="DejaVuSans-71" d="M 947 1747 
Q 947 1113 1208 752 
Q 1469 391 1925 391 
Q 2381 391 2643 752 
Q 2906 1113 2906 1747 
Q 2906 2381 2643 2742 
Q 2381 3103 1925 3103 
Q 1469 3103 1208 2742 
Q 947 2381 947 1747 
z
M 2906 525 
Q 2725 213 2448 61 
Q 2172 -91 1784 -91 
Q 1150 -91 751 415 
Q 353 922 353 1747 
Q 353 2572 751 3078 
Q 1150 3584 1784 3584 
Q 2172 3584 2448 3432 
Q 2725 3281 2906 2969 
L 2906 3500 
L 3481 3500 
L 3481 -1331 
L 2906 -1331 
L 2906 525 
z
" transform="scale(0.015625)"/>
      <path id="DejaVuSans-64" d="M 2906 2969 
L 2906 4863 
L 3481 4863 
L 3481 0 
L 2906 0 
L 2906 525 
Q 2725 213 2448 61 
Q 2172 -91 1784 -91 
Q 1150 -91 751 415 
Q 353 922 353 1747 
Q 353 2572 751 3078 
Q 1150 3584 1784 3584 
Q 2172 3584 2448 3432 
Q 2725 3281 2906 2969 
z
M 947 1747 
Q 947 1113 1208 752 
Q 1469 391 1925 391 
Q 2381 391 2643 752 
Q 2906 1113 2906 1747 
Q 2906 2381 2643 2742 
Q 2381 3103 1925 3103 
Q 1469 3103 1208 2742 
Q 947 2381 947 1747 
z
" transform="scale(0.015625)"/>
      <path id="DejaVuSans-6d" d="M 3328 2828 
Q 3544 3216 3844 3400 
Q 4144 3584 4550 3584 
Q 5097 3584 5394 3201 
Q 5691 2819 5691 2113 
L 5691 0 
L 5113 0 
L 5113 2094 
Q 5113 2597 4934 2840 
Q 4756 3084 4391 3084 
Q 3944 3084 3684 2787 
Q 3425 2491 3425 1978 
L 3425 0 
L 2847 0 
L 2847 2094 
Q 2847 2600 2669 2842 
Q 2491 3084 2119 3084 
Q 1678 3084 1418 2786 
Q 1159 2488 1159 1978 
L 1159 0 
L 581 0 
L 581 3500 
L 1159 3500 
L 1159 2956 
Q 1356 3278 1631 3431 
Q 1906 3584 2284 3584 
Q 2666 3584 2933 3390 
Q 3200 3197 3328 2828 
z
" transform="scale(0.015625)"/>
      <path id="DejaVuSans-7a" d="M 353 3500 
L 3084 3500 
L 3084 2975 
L 922 459 
L 3084 459 
L 3084 0 
L 275 0 
L 275 525 
L 2438 3041 
L 353 3041 
L 353 3500 
z
" transform="scale(0.015625)"/>
     </defs>
     <use xlink:href="#DejaVuSans-43"/>
     <use xlink:href="#DejaVuSans-31" x="69.824219"/>
     <use xlink:href="#DejaVuSans-38" x="133.447266"/>
     <use xlink:href="#DejaVuSans-70" x="197.070312"/>
     <use xlink:href="#DejaVuSans-6f" x="260.546875"/>
     <use xlink:href="#DejaVuSans-73" x="321.728516"/>
     <use xlink:href="#DejaVuSans-5f" x="373.828125"/>
     <use xlink:href="#DejaVuSans-61" x="423.828125"/>
     <use xlink:href="#DejaVuSans-72" x="485.107422"/>
     <use xlink:href="#DejaVuSans-65" x="523.970703"/>
     <use xlink:href="#DejaVuSans-61" x="585.494141"/>
     <use xlink:href="#DejaVuSans-5f" x="646.773438"/>
     <use xlink:href="#DejaVuSans-6e" x="696.773438"/>
     <use xlink:href="#DejaVuSans-6f" x="760.152344"/>
     <use xlink:href="#DejaVuSans-6c" x="821.333984"/>
     <use xlink:href="#DejaVuSans-6f" x="849.117188"/>
     <use xlink:href="#DejaVuSans-77" x="910.298828"/>
     <use xlink:href="#DejaVuSans-65" x="992.085938"/>
     <use xlink:href="#DejaVuSans-73" x="1053.609375"/>
     <use xlink:href="#DejaVuSans-73" x="1105.708984"/>
     <use xlink:href="#DejaVuSans-20" x="1157.808594"/>
     <use xlink:href="#DejaVuSans-56" x="1189.595703"/>
     <use xlink:href="#DejaVuSans-61" x="1250.253906"/>
     <use xlink:href="#DejaVuSans-72" x="1311.533203"/>
     <use xlink:href="#DejaVuSans-69" x="1352.646484"/>
     <use xlink:href="#DejaVuSans-61" x="1380.429688"/>
     <use xlink:href="#DejaVuSans-6e" x="1441.708984"/>
     <use xlink:href="#DejaVuSans-63" x="1505.087891"/>
     <use xlink:href="#DejaVuSans-65" x="1560.068359"/>
     <use xlink:href="#DejaVuSans-73" x="1621.591797"/>
     <use xlink:href="#DejaVuSans-20" x="1673.691406"/>
     <use xlink:href="#DejaVuSans-62" x="1705.478516"/>
     <use xlink:href="#DejaVuSans-65" x="1768.955078"/>
     <use xlink:href="#DejaVuSans-74" x="1830.478516"/>
     <use xlink:href="#DejaVuSans-77" x="1869.6875"/>
     <use xlink:href="#DejaVuSans-65" x="1951.474609"/>
     <use xlink:href="#DejaVuSans-65" x="2012.998047"/>
     <use xlink:href="#DejaVuSans-6e" x="2074.521484"/>
     <use xlink:href="#DejaVuSans-20" x="2137.900391"/>
     <use xlink:href="#DejaVuSans-71" x="2169.6875"/>
     <use xlink:href="#DejaVuSans-63" x="2233.164062"/>
     <use xlink:href="#DejaVuSans-20" x="2288.144531"/>
     <use xlink:href="#DejaVuSans-72" x="2319.931641"/>
     <use xlink:href="#DejaVuSans-61" x="2361.044922"/>
     <use xlink:href="#DejaVuSans-77" x="2422.324219"/>
     <use xlink:href="#DejaVuSans-20" x="2504.111328"/>
     <use xlink:href="#DejaVuSans-61" x="2535.898438"/>
     <use xlink:href="#DejaVuSans-6e" x="2597.177734"/>
     <use xlink:href="#DejaVuSans-64" x="2660.556641"/>
     <use xlink:href="#DejaVuSans-20" x="2724.033203"/>
     <use xlink:href="#DejaVuSans-6e" x="2755.820312"/>
     <use xlink:href="#DejaVuSans-6f" x="2819.199219"/>
     <use xlink:href="#DejaVuSans-72" x="2880.380859"/>
     <use xlink:href="#DejaVuSans-6d" x="2919.744141"/>
     <use xlink:href="#DejaVuSans-61" x="3017.15625"/>
     <use xlink:href="#DejaVuSans-6c" x="3078.435547"/>
     <use xlink:href="#DejaVuSans-69" x="3106.21875"/>
     <use xlink:href="#DejaVuSans-7a" x="3134.001953"/>
     <use xlink:href="#DejaVuSans-65" x="3186.492188"/>
     <use xlink:href="#DejaVuSans-64" x="3248.015625"/>
     <use xlink:href="#DejaVuSans-20" x="3311.492188"/>
    </g>
   </g>
   <g id="legend_1">
    <g id="patch_107">
     <path d="M 544.8625 124.3125 
L 641 124.3125 
Q 643 124.3125 643 122.3125 
L 643 93.4 
Q 643 91.4 641 91.4 
L 544.8625 91.4 
Q 542.8625 91.4 542.8625 93.4 
L 542.8625 122.3125 
Q 542.8625 124.3125 544.8625 124.3125 
z
" style="fill: #ffffff; opacity: 0.8; stroke: #cccccc; stroke-linejoin: miter"/>
    </g>
    <g id="patch_108">
     <path d="M 546.8625 102.998438 
L 566.8625 102.998438 
L 566.8625 95.998438 
L 546.8625 95.998438 
z
" style="fill: #0000ff; fill-opacity: 0.6; stroke: #000000; stroke-linejoin: miter"/>
    </g>
    <g id="text_15">
     <!-- var_qc_raw -->
     <g transform="translate(574.8625 102.998438)scale(0.1 -0.1)">
      <defs>
       <path id="DejaVuSans-76" d="M 191 3500 
L 800 3500 
L 1894 563 
L 2988 3500 
L 3597 3500 
L 2284 0 
L 1503 0 
L 191 3500 
z
" transform="scale(0.015625)"/>
      </defs>
      <use xlink:href="#DejaVuSans-76"/>
      <use xlink:href="#DejaVuSans-61" x="59.179688"/>
      <use xlink:href="#DejaVuSans-72" x="120.458984"/>
      <use xlink:href="#DejaVuSans-5f" x="161.572266"/>
      <use xlink:href="#DejaVuSans-71" x="211.572266"/>
      <use xlink:href="#DejaVuSans-63" x="275.048828"/>
      <use xlink:href="#DejaVuSans-5f" x="330.029297"/>
      <use xlink:href="#DejaVuSans-72" x="380.029297"/>
      <use xlink:href="#DejaVuSans-61" x="421.142578"/>
      <use xlink:href="#DejaVuSans-77" x="482.421875"/>
     </g>
    </g>
    <g id="patch_109">
     <path d="M 546.8625 117.954687 
L 566.8625 117.954687 
L 566.8625 110.954687 
L 546.8625 110.954687 
z
" style="fill: #ffff00; fill-opacity: 0.2; stroke: #000000; stroke-linejoin: miter"/>
    </g>
    <g id="text_16">
     <!-- var_qc_norm -->
     <g transform="translate(574.8625 117.954687)scale(0.1 -0.1)">
      <use xlink:href="#DejaVuSans-76"/>
      <use xlink:href="#DejaVuSans-61" x="59.179688"/>
      <use xlink:href="#DejaVuSans-72" x="120.458984"/>
      <use xlink:href="#DejaVuSans-5f" x="161.572266"/>
      <use xlink:href="#DejaVuSans-71" x="211.572266"/>
      <use xlink:href="#DejaVuSans-63" x="275.048828"/>
      <use xlink:href="#DejaVuSans-5f" x="330.029297"/>
      <use xlink:href="#DejaVuSans-6e" x="380.029297"/>
      <use xlink:href="#DejaVuSans-6f" x="443.408203"/>
      <use xlink:href="#DejaVuSans-72" x="504.589844"/>
      <use xlink:href="#DejaVuSans-6d" x="543.953125"/>
     </g>
    </g>
   </g>
  </g>
 </g>
 <defs>
  <clipPath id="p9a877dc5eb">
   <rect x="90" y="86.4" width="558" height="543.6"/>
  </clipPath>
 </defs>
</svg>
