<?xml version="1.0" encoding="utf-8" standalone="no"?>
<!DOCTYPE svg PUBLIC "-//W3C//DTD SVG 1.1//EN"
  "http://www.w3.org/Graphics/SVG/1.1/DTD/svg11.dtd">
<svg xmlns:xlink="http://www.w3.org/1999/xlink" width="2160pt" height="1080pt" viewBox="0 0 2160 1080" xmlns="http://www.w3.org/2000/svg" version="1.1">
 <metadata>
  <rdf:RDF xmlns:dc="http://purl.org/dc/elements/1.1/" xmlns:cc="http://creativecommons.org/ns#" xmlns:rdf="http://www.w3.org/1999/02/22-rdf-syntax-ns#">
   <cc:Work>
    <dc:type rdf:resource="http://purl.org/dc/dcmitype/StillImage"/>
    <dc:date>2022-04-08T22:01:35.380123</dc:date>
    <dc:format>image/svg+xml</dc:format>
    <dc:creator>
     <cc:Agent>
      <dc:title>Matplotlib v3.5.1, https://matplotlib.org/</dc:title>
     </cc:Agent>
    </dc:creator>
   </cc:Work>
  </rdf:RDF>
 </metadata>
 <defs>
  <style type="text/css">*{stroke-linejoin: round; stroke-linecap: butt}</style>
 </defs>
 <g id="figure_1">
  <g id="patch_1">
   <path d="M 0 1080 
L 2160 1080 
L 2160 0 
L 0 0 
L 0 1080 
z
" style="fill: none"/>
  </g>
  <g id="axes_1">
   <g id="patch_2">
    <path d="M 270 945 
L 1944 945 
L 1944 129.6 
L 270 129.6 
z
" style="fill: #ffffff"/>
   </g>
   <g id="patch_3">
    <path d="M 346.090909 945 
L 366.937733 945 
L 366.937733 942.660929 
L 346.090909 942.660929 
z
" clip-path="url(#p9c7bc46848)" style="fill: #ff0000; fill-opacity: 0.75; stroke: #000000; stroke-linejoin: miter"/>
   </g>
   <g id="patch_4">
    <path d="M 366.937733 945 
L 387.784558 945 
L 387.784558 943.830465 
L 366.937733 943.830465 
z
" clip-path="url(#p9c7bc46848)" style="fill: #ff0000; fill-opacity: 0.75; stroke: #000000; stroke-linejoin: miter"/>
   </g>
   <g id="patch_5">
    <path d="M 387.784558 945 
L 408.631382 945 
L 408.631382 943.830465 
L 387.784558 943.830465 
z
" clip-path="url(#p9c7bc46848)" style="fill: #ff0000; fill-opacity: 0.75; stroke: #000000; stroke-linejoin: miter"/>
   </g>
   <g id="patch_6">
    <path d="M 408.631382 945 
L 429.478207 945 
L 429.478207 943.830465 
L 408.631382 943.830465 
z
" clip-path="url(#p9c7bc46848)" style="fill: #ff0000; fill-opacity: 0.75; stroke: #000000; stroke-linejoin: miter"/>
   </g>
   <g id="patch_7">
    <path d="M 429.478207 945 
L 450.325031 945 
L 450.325031 943.830465 
L 429.478207 943.830465 
z
" clip-path="url(#p9c7bc46848)" style="fill: #ff0000; fill-opacity: 0.75; stroke: #000000; stroke-linejoin: miter"/>
   </g>
   <g id="patch_8">
    <path d="M 450.325031 945 
L 471.171856 945 
L 471.171856 942.660929 
L 450.325031 942.660929 
z
" clip-path="url(#p9c7bc46848)" style="fill: #ff0000; fill-opacity: 0.75; stroke: #000000; stroke-linejoin: miter"/>
   </g>
   <g id="patch_9">
    <path d="M 471.171856 945 
L 492.01868 945 
L 492.01868 945 
L 471.171856 945 
z
" clip-path="url(#p9c7bc46848)" style="fill: #ff0000; fill-opacity: 0.75; stroke: #000000; stroke-linejoin: miter"/>
   </g>
   <g id="patch_10">
    <path d="M 492.01868 945 
L 512.865504 945 
L 512.865504 945 
L 492.01868 945 
z
" clip-path="url(#p9c7bc46848)" style="fill: #ff0000; fill-opacity: 0.75; stroke: #000000; stroke-linejoin: miter"/>
   </g>
   <g id="patch_11">
    <path d="M 512.865504 945 
L 533.712329 945 
L 533.712329 943.830465 
L 512.865504 943.830465 
z
" clip-path="url(#p9c7bc46848)" style="fill: #ff0000; fill-opacity: 0.75; stroke: #000000; stroke-linejoin: miter"/>
   </g>
   <g id="patch_12">
    <path d="M 533.712329 945 
L 554.559153 945 
L 554.559153 942.660929 
L 533.712329 942.660929 
z
" clip-path="url(#p9c7bc46848)" style="fill: #ff0000; fill-opacity: 0.75; stroke: #000000; stroke-linejoin: miter"/>
   </g>
   <g id="patch_13">
    <path d="M 554.559153 945 
L 575.405978 945 
L 575.405978 942.660929 
L 554.559153 942.660929 
z
" clip-path="url(#p9c7bc46848)" style="fill: #ff0000; fill-opacity: 0.75; stroke: #000000; stroke-linejoin: miter"/>
   </g>
   <g id="patch_14">
    <path d="M 575.405978 945 
L 596.252802 945 
L 596.252802 941.491394 
L 575.405978 941.491394 
z
" clip-path="url(#p9c7bc46848)" style="fill: #ff0000; fill-opacity: 0.75; stroke: #000000; stroke-linejoin: miter"/>
   </g>
   <g id="patch_15">
    <path d="M 596.252802 945 
L 617.099626 945 
L 617.099626 943.830465 
L 596.252802 943.830465 
z
" clip-path="url(#p9c7bc46848)" style="fill: #ff0000; fill-opacity: 0.75; stroke: #000000; stroke-linejoin: miter"/>
   </g>
   <g id="patch_16">
    <path d="M 617.099626 945 
L 637.946451 945 
L 637.946451 943.830465 
L 617.099626 943.830465 
z
" clip-path="url(#p9c7bc46848)" style="fill: #ff0000; fill-opacity: 0.75; stroke: #000000; stroke-linejoin: miter"/>
   </g>
   <g id="patch_17">
    <path d="M 637.946451 945 
L 658.793275 945 
L 658.793275 930.965577 
L 637.946451 930.965577 
z
" clip-path="url(#p9c7bc46848)" style="fill: #ff0000; fill-opacity: 0.75; stroke: #000000; stroke-linejoin: miter"/>
   </g>
   <g id="patch_18">
    <path d="M 658.793275 945 
L 679.6401 945 
L 679.6401 932.135112 
L 658.793275 932.135112 
z
" clip-path="url(#p9c7bc46848)" style="fill: #ff0000; fill-opacity: 0.75; stroke: #000000; stroke-linejoin: miter"/>
   </g>
   <g id="patch_19">
    <path d="M 679.6401 945 
L 700.486924 945 
L 700.486924 937.982788 
L 679.6401 937.982788 
z
" clip-path="url(#p9c7bc46848)" style="fill: #ff0000; fill-opacity: 0.75; stroke: #000000; stroke-linejoin: miter"/>
   </g>
   <g id="patch_20">
    <path d="M 700.486924 945 
L 721.333748 945 
L 721.333748 935.643718 
L 700.486924 935.643718 
z
" clip-path="url(#p9c7bc46848)" style="fill: #ff0000; fill-opacity: 0.75; stroke: #000000; stroke-linejoin: miter"/>
   </g>
   <g id="patch_21">
    <path d="M 721.333748 945 
L 742.180573 945 
L 742.180573 921.609294 
L 721.333748 921.609294 
z
" clip-path="url(#p9c7bc46848)" style="fill: #ff0000; fill-opacity: 0.75; stroke: #000000; stroke-linejoin: miter"/>
   </g>
   <g id="patch_22">
    <path d="M 742.180573 945 
L 763.027397 945 
L 763.027397 927.456971 
L 742.180573 927.456971 
z
" clip-path="url(#p9c7bc46848)" style="fill: #ff0000; fill-opacity: 0.75; stroke: #000000; stroke-linejoin: miter"/>
   </g>
   <g id="patch_23">
    <path d="M 763.027397 945 
L 783.874222 945 
L 783.874222 902.89673 
L 763.027397 902.89673 
z
" clip-path="url(#p9c7bc46848)" style="fill: #ff0000; fill-opacity: 0.75; stroke: #000000; stroke-linejoin: miter"/>
   </g>
   <g id="patch_24">
    <path d="M 783.874222 945 
L 804.721046 945 
L 804.721046 859.623924 
L 783.874222 859.623924 
z
" clip-path="url(#p9c7bc46848)" style="fill: #ff0000; fill-opacity: 0.75; stroke: #000000; stroke-linejoin: miter"/>
   </g>
   <g id="patch_25">
    <path d="M 804.721046 945 
L 825.56787 945 
L 825.56787 846.759036 
L 804.721046 846.759036 
z
" clip-path="url(#p9c7bc46848)" style="fill: #ff0000; fill-opacity: 0.75; stroke: #000000; stroke-linejoin: miter"/>
   </g>
   <g id="patch_26">
    <path d="M 825.56787 945 
L 846.414695 945 
L 846.414695 776.586919 
L 825.56787 776.586919 
z
" clip-path="url(#p9c7bc46848)" style="fill: #ff0000; fill-opacity: 0.75; stroke: #000000; stroke-linejoin: miter"/>
   </g>
   <g id="patch_27">
    <path d="M 846.414695 945 
L 867.261519 945 
L 867.261519 766.061102 
L 846.414695 766.061102 
z
" clip-path="url(#p9c7bc46848)" style="fill: #ff0000; fill-opacity: 0.75; stroke: #000000; stroke-linejoin: miter"/>
   </g>
   <g id="patch_28">
    <path d="M 867.261519 945 
L 888.108344 945 
L 888.108344 647.938038 
L 867.261519 647.938038 
z
" clip-path="url(#p9c7bc46848)" style="fill: #ff0000; fill-opacity: 0.75; stroke: #000000; stroke-linejoin: miter"/>
   </g>
   <g id="patch_29">
    <path d="M 888.108344 945 
L 908.955168 945 
L 908.955168 518.119621 
L 888.108344 518.119621 
z
" clip-path="url(#p9c7bc46848)" style="fill: #ff0000; fill-opacity: 0.75; stroke: #000000; stroke-linejoin: miter"/>
   </g>
   <g id="patch_30">
    <path d="M 908.955168 945 
L 929.801993 945 
L 929.801993 382.453528 
L 908.955168 382.453528 
z
" clip-path="url(#p9c7bc46848)" style="fill: #ff0000; fill-opacity: 0.75; stroke: #000000; stroke-linejoin: miter"/>
   </g>
   <g id="patch_31">
    <path d="M 929.801993 945 
L 950.648817 945 
L 950.648817 212.870912 
L 929.801993 212.870912 
z
" clip-path="url(#p9c7bc46848)" style="fill: #ff0000; fill-opacity: 0.75; stroke: #000000; stroke-linejoin: miter"/>
   </g>
   <g id="patch_32">
    <path d="M 950.648817 945 
L 971.495641 945 
L 971.495641 168.428571 
L 950.648817 168.428571 
z
" clip-path="url(#p9c7bc46848)" style="fill: #ff0000; fill-opacity: 0.75; stroke: #000000; stroke-linejoin: miter"/>
   </g>
   <g id="patch_33">
    <path d="M 971.495641 945 
L 992.342466 945 
L 992.342466 446.777969 
L 971.495641 446.777969 
z
" clip-path="url(#p9c7bc46848)" style="fill: #ff0000; fill-opacity: 0.75; stroke: #000000; stroke-linejoin: miter"/>
   </g>
   <g id="patch_34">
    <path d="M 992.342466 945 
L 1013.18929 945 
L 1013.18929 542.679862 
L 992.342466 542.679862 
z
" clip-path="url(#p9c7bc46848)" style="fill: #ff0000; fill-opacity: 0.75; stroke: #000000; stroke-linejoin: miter"/>
   </g>
   <g id="patch_35">
    <path d="M 1013.18929 945 
L 1034.036115 945 
L 1034.036115 611.682444 
L 1013.18929 611.682444 
z
" clip-path="url(#p9c7bc46848)" style="fill: #ff0000; fill-opacity: 0.75; stroke: #000000; stroke-linejoin: miter"/>
   </g>
   <g id="patch_36">
    <path d="M 1034.036115 945 
L 1054.882939 945 
L 1054.882939 672.498279 
L 1034.036115 672.498279 
z
" clip-path="url(#p9c7bc46848)" style="fill: #ff0000; fill-opacity: 0.75; stroke: #000000; stroke-linejoin: miter"/>
   </g>
   <g id="patch_37">
    <path d="M 1054.882939 945 
L 1075.729763 945 
L 1075.729763 700.567126 
L 1054.882939 700.567126 
z
" clip-path="url(#p9c7bc46848)" style="fill: #ff0000; fill-opacity: 0.75; stroke: #000000; stroke-linejoin: miter"/>
   </g>
   <g id="patch_38">
    <path d="M 1075.729763 945 
L 1096.576588 945 
L 1096.576588 723.957831 
L 1075.729763 723.957831 
z
" clip-path="url(#p9c7bc46848)" style="fill: #ff0000; fill-opacity: 0.75; stroke: #000000; stroke-linejoin: miter"/>
   </g>
   <g id="patch_39">
    <path d="M 1096.576588 945 
L 1117.423412 945 
L 1117.423412 768.400172 
L 1096.576588 768.400172 
z
" clip-path="url(#p9c7bc46848)" style="fill: #ff0000; fill-opacity: 0.75; stroke: #000000; stroke-linejoin: miter"/>
   </g>
   <g id="patch_40">
    <path d="M 1117.423412 945 
L 1138.270237 945 
L 1138.270237 763.722031 
L 1117.423412 763.722031 
z
" clip-path="url(#p9c7bc46848)" style="fill: #ff0000; fill-opacity: 0.75; stroke: #000000; stroke-linejoin: miter"/>
   </g>
   <g id="patch_41">
    <path d="M 1138.270237 945 
L 1159.117061 945 
L 1159.117061 799.977625 
L 1138.270237 799.977625 
z
" clip-path="url(#p9c7bc46848)" style="fill: #ff0000; fill-opacity: 0.75; stroke: #000000; stroke-linejoin: miter"/>
   </g>
   <g id="patch_42">
    <path d="M 1159.117061 945 
L 1179.963885 945 
L 1179.963885 810.503442 
L 1159.117061 810.503442 
z
" clip-path="url(#p9c7bc46848)" style="fill: #ff0000; fill-opacity: 0.75; stroke: #000000; stroke-linejoin: miter"/>
   </g>
   <g id="patch_43">
    <path d="M 1179.963885 945 
L 1200.81071 945 
L 1200.81071 811.672978 
L 1179.963885 811.672978 
z
" clip-path="url(#p9c7bc46848)" style="fill: #ff0000; fill-opacity: 0.75; stroke: #000000; stroke-linejoin: miter"/>
   </g>
   <g id="patch_44">
    <path d="M 1200.81071 945 
L 1221.657534 945 
L 1221.657534 816.351119 
L 1200.81071 816.351119 
z
" clip-path="url(#p9c7bc46848)" style="fill: #ff0000; fill-opacity: 0.75; stroke: #000000; stroke-linejoin: miter"/>
   </g>
   <g id="patch_45">
    <path d="M 1221.657534 945 
L 1242.504359 945 
L 1242.504359 831.555077 
L 1221.657534 831.555077 
z
" clip-path="url(#p9c7bc46848)" style="fill: #ff0000; fill-opacity: 0.75; stroke: #000000; stroke-linejoin: miter"/>
   </g>
   <g id="patch_46">
    <path d="M 1242.504359 945 
L 1263.351183 945 
L 1263.351183 839.741824 
L 1242.504359 839.741824 
z
" clip-path="url(#p9c7bc46848)" style="fill: #ff0000; fill-opacity: 0.75; stroke: #000000; stroke-linejoin: miter"/>
   </g>
   <g id="patch_47">
    <path d="M 1263.351183 945 
L 1284.198007 945 
L 1284.198007 854.945783 
L 1263.351183 854.945783 
z
" clip-path="url(#p9c7bc46848)" style="fill: #ff0000; fill-opacity: 0.75; stroke: #000000; stroke-linejoin: miter"/>
   </g>
   <g id="patch_48">
    <path d="M 1284.198007 945 
L 1305.044832 945 
L 1305.044832 872.488812 
L 1284.198007 872.488812 
z
" clip-path="url(#p9c7bc46848)" style="fill: #ff0000; fill-opacity: 0.75; stroke: #000000; stroke-linejoin: miter"/>
   </g>
   <g id="patch_49">
    <path d="M 1305.044832 945 
L 1325.891656 945 
L 1325.891656 864.302065 
L 1305.044832 864.302065 
z
" clip-path="url(#p9c7bc46848)" style="fill: #ff0000; fill-opacity: 0.75; stroke: #000000; stroke-linejoin: miter"/>
   </g>
   <g id="patch_50">
    <path d="M 1325.891656 945 
L 1346.738481 945 
L 1346.738481 881.845095 
L 1325.891656 881.845095 
z
" clip-path="url(#p9c7bc46848)" style="fill: #ff0000; fill-opacity: 0.75; stroke: #000000; stroke-linejoin: miter"/>
   </g>
   <g id="patch_51">
    <path d="M 1346.738481 945 
L 1367.585305 945 
L 1367.585305 888.862306 
L 1346.738481 888.862306 
z
" clip-path="url(#p9c7bc46848)" style="fill: #ff0000; fill-opacity: 0.75; stroke: #000000; stroke-linejoin: miter"/>
   </g>
   <g id="patch_52">
    <path d="M 1367.585305 945 
L 1388.43213 945 
L 1388.43213 900.557659 
L 1367.585305 900.557659 
z
" clip-path="url(#p9c7bc46848)" style="fill: #ff0000; fill-opacity: 0.75; stroke: #000000; stroke-linejoin: miter"/>
   </g>
   <g id="patch_53">
    <path d="M 1388.43213 945 
L 1409.278954 945 
L 1409.278954 901.727194 
L 1388.43213 901.727194 
z
" clip-path="url(#p9c7bc46848)" style="fill: #ff0000; fill-opacity: 0.75; stroke: #000000; stroke-linejoin: miter"/>
   </g>
   <g id="patch_54">
    <path d="M 1409.278954 945 
L 1430.125778 945 
L 1430.125778 892.370912 
L 1409.278954 892.370912 
z
" clip-path="url(#p9c7bc46848)" style="fill: #ff0000; fill-opacity: 0.75; stroke: #000000; stroke-linejoin: miter"/>
   </g>
   <g id="patch_55">
    <path d="M 1430.125778 945 
L 1450.972603 945 
L 1450.972603 897.049053 
L 1430.125778 897.049053 
z
" clip-path="url(#p9c7bc46848)" style="fill: #ff0000; fill-opacity: 0.75; stroke: #000000; stroke-linejoin: miter"/>
   </g>
   <g id="patch_56">
    <path d="M 1450.972603 945 
L 1471.819427 945 
L 1471.819427 883.01463 
L 1450.972603 883.01463 
z
" clip-path="url(#p9c7bc46848)" style="fill: #ff0000; fill-opacity: 0.75; stroke: #000000; stroke-linejoin: miter"/>
   </g>
   <g id="patch_57">
    <path d="M 1471.819427 945 
L 1492.666252 945 
L 1492.666252 911.083477 
L 1471.819427 911.083477 
z
" clip-path="url(#p9c7bc46848)" style="fill: #ff0000; fill-opacity: 0.75; stroke: #000000; stroke-linejoin: miter"/>
   </g>
   <g id="patch_58">
    <path d="M 1492.666252 945 
L 1513.513076 945 
L 1513.513076 909.913941 
L 1492.666252 909.913941 
z
" clip-path="url(#p9c7bc46848)" style="fill: #ff0000; fill-opacity: 0.75; stroke: #000000; stroke-linejoin: miter"/>
   </g>
   <g id="patch_59">
    <path d="M 1513.513076 945 
L 1534.3599 945 
L 1534.3599 911.083477 
L 1513.513076 911.083477 
z
" clip-path="url(#p9c7bc46848)" style="fill: #ff0000; fill-opacity: 0.75; stroke: #000000; stroke-linejoin: miter"/>
   </g>
   <g id="patch_60">
    <path d="M 1534.3599 945 
L 1555.206725 945 
L 1555.206725 918.100688 
L 1534.3599 918.100688 
z
" clip-path="url(#p9c7bc46848)" style="fill: #ff0000; fill-opacity: 0.75; stroke: #000000; stroke-linejoin: miter"/>
   </g>
   <g id="patch_61">
    <path d="M 1555.206725 945 
L 1576.053549 945 
L 1576.053549 921.609294 
L 1555.206725 921.609294 
z
" clip-path="url(#p9c7bc46848)" style="fill: #ff0000; fill-opacity: 0.75; stroke: #000000; stroke-linejoin: miter"/>
   </g>
   <g id="patch_62">
    <path d="M 1576.053549 945 
L 1596.900374 945 
L 1596.900374 914.592083 
L 1576.053549 914.592083 
z
" clip-path="url(#p9c7bc46848)" style="fill: #ff0000; fill-opacity: 0.75; stroke: #000000; stroke-linejoin: miter"/>
   </g>
   <g id="patch_63">
    <path d="M 1596.900374 945 
L 1617.747198 945 
L 1617.747198 904.066265 
L 1596.900374 904.066265 
z
" clip-path="url(#p9c7bc46848)" style="fill: #ff0000; fill-opacity: 0.75; stroke: #000000; stroke-linejoin: miter"/>
   </g>
   <g id="patch_64">
    <path d="M 1617.747198 945 
L 1638.594022 945 
L 1638.594022 928.626506 
L 1617.747198 928.626506 
z
" clip-path="url(#p9c7bc46848)" style="fill: #ff0000; fill-opacity: 0.75; stroke: #000000; stroke-linejoin: miter"/>
   </g>
   <g id="patch_65">
    <path d="M 1638.594022 945 
L 1659.440847 945 
L 1659.440847 919.270224 
L 1638.594022 919.270224 
z
" clip-path="url(#p9c7bc46848)" style="fill: #ff0000; fill-opacity: 0.75; stroke: #000000; stroke-linejoin: miter"/>
   </g>
   <g id="patch_66">
    <path d="M 1659.440847 945 
L 1680.287671 945 
L 1680.287671 922.77883 
L 1659.440847 922.77883 
z
" clip-path="url(#p9c7bc46848)" style="fill: #ff0000; fill-opacity: 0.75; stroke: #000000; stroke-linejoin: miter"/>
   </g>
   <g id="patch_67">
    <path d="M 1680.287671 945 
L 1701.134496 945 
L 1701.134496 925.1179 
L 1680.287671 925.1179 
z
" clip-path="url(#p9c7bc46848)" style="fill: #ff0000; fill-opacity: 0.75; stroke: #000000; stroke-linejoin: miter"/>
   </g>
   <g id="patch_68">
    <path d="M 1701.134496 945 
L 1721.98132 945 
L 1721.98132 930.965577 
L 1701.134496 930.965577 
z
" clip-path="url(#p9c7bc46848)" style="fill: #ff0000; fill-opacity: 0.75; stroke: #000000; stroke-linejoin: miter"/>
   </g>
   <g id="patch_69">
    <path d="M 1721.98132 945 
L 1742.828144 945 
L 1742.828144 930.965577 
L 1721.98132 930.965577 
z
" clip-path="url(#p9c7bc46848)" style="fill: #ff0000; fill-opacity: 0.75; stroke: #000000; stroke-linejoin: miter"/>
   </g>
   <g id="patch_70">
    <path d="M 1742.828144 945 
L 1763.674969 945 
L 1763.674969 936.813253 
L 1742.828144 936.813253 
z
" clip-path="url(#p9c7bc46848)" style="fill: #ff0000; fill-opacity: 0.75; stroke: #000000; stroke-linejoin: miter"/>
   </g>
   <g id="patch_71">
    <path d="M 1763.674969 945 
L 1784.521793 945 
L 1784.521793 935.643718 
L 1763.674969 935.643718 
z
" clip-path="url(#p9c7bc46848)" style="fill: #ff0000; fill-opacity: 0.75; stroke: #000000; stroke-linejoin: miter"/>
   </g>
   <g id="patch_72">
    <path d="M 1784.521793 945 
L 1805.368618 945 
L 1805.368618 935.643718 
L 1784.521793 935.643718 
z
" clip-path="url(#p9c7bc46848)" style="fill: #ff0000; fill-opacity: 0.75; stroke: #000000; stroke-linejoin: miter"/>
   </g>
   <g id="patch_73">
    <path d="M 1805.368618 945 
L 1826.215442 945 
L 1826.215442 940.321859 
L 1805.368618 940.321859 
z
" clip-path="url(#p9c7bc46848)" style="fill: #ff0000; fill-opacity: 0.75; stroke: #000000; stroke-linejoin: miter"/>
   </g>
   <g id="patch_74">
    <path d="M 1826.215442 945 
L 1847.062267 945 
L 1847.062267 940.321859 
L 1826.215442 940.321859 
z
" clip-path="url(#p9c7bc46848)" style="fill: #ff0000; fill-opacity: 0.75; stroke: #000000; stroke-linejoin: miter"/>
   </g>
   <g id="patch_75">
    <path d="M 1847.062267 945 
L 1867.909091 945 
L 1867.909091 935.643718 
L 1847.062267 935.643718 
z
" clip-path="url(#p9c7bc46848)" style="fill: #ff0000; fill-opacity: 0.75; stroke: #000000; stroke-linejoin: miter"/>
   </g>
   <g id="matplotlib.axis_1">
    <g id="xtick_1">
     <g id="line2d_1">
      <defs>
       <path id="mb1db74ec70" d="M 0 0 
L 0 3.5 
" style="stroke: #000000; stroke-width: 0.8"/>
      </defs>
      <g>
       <use xlink:href="#mb1db74ec70" x="363.951911" y="945" style="stroke: #000000; stroke-width: 0.8"/>
      </g>
     </g>
     <g id="text_1">
      <!-- −0.6 -->
      <g transform="translate(351.810504 959.598438)scale(0.1 -0.1)">
       <defs>
        <path id="DejaVuSans-2212" d="M 678 2272 
L 4684 2272 
L 4684 1741 
L 678 1741 
L 678 2272 
z
" transform="scale(0.015625)"/>
        <path id="DejaVuSans-30" d="M 2034 4250 
Q 1547 4250 1301 3770 
Q 1056 3291 1056 2328 
Q 1056 1369 1301 889 
Q 1547 409 2034 409 
Q 2525 409 2770 889 
Q 3016 1369 3016 2328 
Q 3016 3291 2770 3770 
Q 2525 4250 2034 4250 
z
M 2034 4750 
Q 2819 4750 3233 4129 
Q 3647 3509 3647 2328 
Q 3647 1150 3233 529 
Q 2819 -91 2034 -91 
Q 1250 -91 836 529 
Q 422 1150 422 2328 
Q 422 3509 836 4129 
Q 1250 4750 2034 4750 
z
" transform="scale(0.015625)"/>
        <path id="DejaVuSans-2e" d="M 684 794 
L 1344 794 
L 1344 0 
L 684 0 
L 684 794 
z
" transform="scale(0.015625)"/>
        <path id="DejaVuSans-36" d="M 2113 2584 
Q 1688 2584 1439 2293 
Q 1191 2003 1191 1497 
Q 1191 994 1439 701 
Q 1688 409 2113 409 
Q 2538 409 2786 701 
Q 3034 994 3034 1497 
Q 3034 2003 2786 2293 
Q 2538 2584 2113 2584 
z
M 3366 4563 
L 3366 3988 
Q 3128 4100 2886 4159 
Q 2644 4219 2406 4219 
Q 1781 4219 1451 3797 
Q 1122 3375 1075 2522 
Q 1259 2794 1537 2939 
Q 1816 3084 2150 3084 
Q 2853 3084 3261 2657 
Q 3669 2231 3669 1497 
Q 3669 778 3244 343 
Q 2819 -91 2113 -91 
Q 1303 -91 875 529 
Q 447 1150 447 2328 
Q 447 3434 972 4092 
Q 1497 4750 2381 4750 
Q 2619 4750 2861 4703 
Q 3103 4656 3366 4563 
z
" transform="scale(0.015625)"/>
       </defs>
       <use xlink:href="#DejaVuSans-2212"/>
       <use xlink:href="#DejaVuSans-30" x="83.789062"/>
       <use xlink:href="#DejaVuSans-2e" x="147.412109"/>
       <use xlink:href="#DejaVuSans-36" x="179.199219"/>
      </g>
     </g>
    </g>
    <g id="xtick_2">
     <g id="line2d_2">
      <g>
       <use xlink:href="#mb1db74ec70" x="562.027827" y="945" style="stroke: #000000; stroke-width: 0.8"/>
      </g>
     </g>
     <g id="text_2">
      <!-- −0.4 -->
      <g transform="translate(549.886421 959.598438)scale(0.1 -0.1)">
       <defs>
        <path id="DejaVuSans-34" d="M 2419 4116 
L 825 1625 
L 2419 1625 
L 2419 4116 
z
M 2253 4666 
L 3047 4666 
L 3047 1625 
L 3713 1625 
L 3713 1100 
L 3047 1100 
L 3047 0 
L 2419 0 
L 2419 1100 
L 313 1100 
L 313 1709 
L 2253 4666 
z
" transform="scale(0.015625)"/>
       </defs>
       <use xlink:href="#DejaVuSans-2212"/>
       <use xlink:href="#DejaVuSans-30" x="83.789062"/>
       <use xlink:href="#DejaVuSans-2e" x="147.412109"/>
       <use xlink:href="#DejaVuSans-34" x="179.199219"/>
      </g>
     </g>
    </g>
    <g id="xtick_3">
     <g id="line2d_3">
      <g>
       <use xlink:href="#mb1db74ec70" x="760.103744" y="945" style="stroke: #000000; stroke-width: 0.8"/>
      </g>
     </g>
     <g id="text_3">
      <!-- −0.2 -->
      <g transform="translate(747.962337 959.598438)scale(0.1 -0.1)">
       <defs>
        <path id="DejaVuSans-32" d="M 1228 531 
L 3431 531 
L 3431 0 
L 469 0 
L 469 531 
Q 828 903 1448 1529 
Q 2069 2156 2228 2338 
Q 2531 2678 2651 2914 
Q 2772 3150 2772 3378 
Q 2772 3750 2511 3984 
Q 2250 4219 1831 4219 
Q 1534 4219 1204 4116 
Q 875 4013 500 3803 
L 500 4441 
Q 881 4594 1212 4672 
Q 1544 4750 1819 4750 
Q 2544 4750 2975 4387 
Q 3406 4025 3406 3419 
Q 3406 3131 3298 2873 
Q 3191 2616 2906 2266 
Q 2828 2175 2409 1742 
Q 1991 1309 1228 531 
z
" transform="scale(0.015625)"/>
       </defs>
       <use xlink:href="#DejaVuSans-2212"/>
       <use xlink:href="#DejaVuSans-30" x="83.789062"/>
       <use xlink:href="#DejaVuSans-2e" x="147.412109"/>
       <use xlink:href="#DejaVuSans-32" x="179.199219"/>
      </g>
     </g>
    </g>
    <g id="xtick_4">
     <g id="line2d_4">
      <g>
       <use xlink:href="#mb1db74ec70" x="958.17966" y="945" style="stroke: #000000; stroke-width: 0.8"/>
      </g>
     </g>
     <g id="text_4">
      <!-- 0.0 -->
      <g transform="translate(950.228097 959.598438)scale(0.1 -0.1)">
       <use xlink:href="#DejaVuSans-30"/>
       <use xlink:href="#DejaVuSans-2e" x="63.623047"/>
       <use xlink:href="#DejaVuSans-30" x="95.410156"/>
      </g>
     </g>
    </g>
    <g id="xtick_5">
     <g id="line2d_5">
      <g>
       <use xlink:href="#mb1db74ec70" x="1156.255576" y="945" style="stroke: #000000; stroke-width: 0.8"/>
      </g>
     </g>
     <g id="text_5">
      <!-- 0.2 -->
      <g transform="translate(1148.304014 959.598438)scale(0.1 -0.1)">
       <use xlink:href="#DejaVuSans-30"/>
       <use xlink:href="#DejaVuSans-2e" x="63.623047"/>
       <use xlink:href="#DejaVuSans-32" x="95.410156"/>
      </g>
     </g>
    </g>
    <g id="xtick_6">
     <g id="line2d_6">
      <g>
       <use xlink:href="#mb1db74ec70" x="1354.331493" y="945" style="stroke: #000000; stroke-width: 0.8"/>
      </g>
     </g>
     <g id="text_6">
      <!-- 0.4 -->
      <g transform="translate(1346.37993 959.598438)scale(0.1 -0.1)">
       <use xlink:href="#DejaVuSans-30"/>
       <use xlink:href="#DejaVuSans-2e" x="63.623047"/>
       <use xlink:href="#DejaVuSans-34" x="95.410156"/>
      </g>
     </g>
    </g>
    <g id="xtick_7">
     <g id="line2d_7">
      <g>
       <use xlink:href="#mb1db74ec70" x="1552.407409" y="945" style="stroke: #000000; stroke-width: 0.8"/>
      </g>
     </g>
     <g id="text_7">
      <!-- 0.6 -->
      <g transform="translate(1544.455847 959.598438)scale(0.1 -0.1)">
       <use xlink:href="#DejaVuSans-30"/>
       <use xlink:href="#DejaVuSans-2e" x="63.623047"/>
       <use xlink:href="#DejaVuSans-36" x="95.410156"/>
      </g>
     </g>
    </g>
    <g id="xtick_8">
     <g id="line2d_8">
      <g>
       <use xlink:href="#mb1db74ec70" x="1750.483326" y="945" style="stroke: #000000; stroke-width: 0.8"/>
      </g>
     </g>
     <g id="text_8">
      <!-- 0.8 -->
      <g transform="translate(1742.531763 959.598438)scale(0.1 -0.1)">
       <defs>
        <path id="DejaVuSans-38" d="M 2034 2216 
Q 1584 2216 1326 1975 
Q 1069 1734 1069 1313 
Q 1069 891 1326 650 
Q 1584 409 2034 409 
Q 2484 409 2743 651 
Q 3003 894 3003 1313 
Q 3003 1734 2745 1975 
Q 2488 2216 2034 2216 
z
M 1403 2484 
Q 997 2584 770 2862 
Q 544 3141 544 3541 
Q 544 4100 942 4425 
Q 1341 4750 2034 4750 
Q 2731 4750 3128 4425 
Q 3525 4100 3525 3541 
Q 3525 3141 3298 2862 
Q 3072 2584 2669 2484 
Q 3125 2378 3379 2068 
Q 3634 1759 3634 1313 
Q 3634 634 3220 271 
Q 2806 -91 2034 -91 
Q 1263 -91 848 271 
Q 434 634 434 1313 
Q 434 1759 690 2068 
Q 947 2378 1403 2484 
z
M 1172 3481 
Q 1172 3119 1398 2916 
Q 1625 2713 2034 2713 
Q 2441 2713 2670 2916 
Q 2900 3119 2900 3481 
Q 2900 3844 2670 4047 
Q 2441 4250 2034 4250 
Q 1625 4250 1398 4047 
Q 1172 3844 1172 3481 
z
" transform="scale(0.015625)"/>
       </defs>
       <use xlink:href="#DejaVuSans-30"/>
       <use xlink:href="#DejaVuSans-2e" x="63.623047"/>
       <use xlink:href="#DejaVuSans-38" x="95.410156"/>
      </g>
     </g>
    </g>
   </g>
   <g id="matplotlib.axis_2">
    <g id="ytick_1">
     <g id="line2d_9">
      <defs>
       <path id="m9bf0812ebe" d="M 0 0 
L -3.5 0 
" style="stroke: #000000; stroke-width: 0.8"/>
      </defs>
      <g>
       <use xlink:href="#m9bf0812ebe" x="270" y="945" style="stroke: #000000; stroke-width: 0.8"/>
      </g>
     </g>
     <g id="text_9">
      <!-- 0 -->
      <g transform="translate(256.6375 948.799219)scale(0.1 -0.1)">
       <use xlink:href="#DejaVuSans-30"/>
      </g>
     </g>
    </g>
    <g id="ytick_2">
     <g id="line2d_10">
      <g>
       <use xlink:href="#m9bf0812ebe" x="270" y="828.046472" style="stroke: #000000; stroke-width: 0.8"/>
      </g>
     </g>
     <g id="text_10">
      <!-- 100 -->
      <g transform="translate(243.9125 831.84569)scale(0.1 -0.1)">
       <defs>
        <path id="DejaVuSans-31" d="M 794 531 
L 1825 531 
L 1825 4091 
L 703 3866 
L 703 4441 
L 1819 4666 
L 2450 4666 
L 2450 531 
L 3481 531 
L 3481 0 
L 794 0 
L 794 531 
z
" transform="scale(0.015625)"/>
       </defs>
       <use xlink:href="#DejaVuSans-31"/>
       <use xlink:href="#DejaVuSans-30" x="63.623047"/>
       <use xlink:href="#DejaVuSans-30" x="127.246094"/>
      </g>
     </g>
    </g>
    <g id="ytick_3">
     <g id="line2d_11">
      <g>
       <use xlink:href="#m9bf0812ebe" x="270" y="711.092943" style="stroke: #000000; stroke-width: 0.8"/>
      </g>
     </g>
     <g id="text_11">
      <!-- 200 -->
      <g transform="translate(243.9125 714.892162)scale(0.1 -0.1)">
       <use xlink:href="#DejaVuSans-32"/>
       <use xlink:href="#DejaVuSans-30" x="63.623047"/>
       <use xlink:href="#DejaVuSans-30" x="127.246094"/>
      </g>
     </g>
    </g>
    <g id="ytick_4">
     <g id="line2d_12">
      <g>
       <use xlink:href="#m9bf0812ebe" x="270" y="594.139415" style="stroke: #000000; stroke-width: 0.8"/>
      </g>
     </g>
     <g id="text_12">
      <!-- 300 -->
      <g transform="translate(243.9125 597.938634)scale(0.1 -0.1)">
       <defs>
        <path id="DejaVuSans-33" d="M 2597 2516 
Q 3050 2419 3304 2112 
Q 3559 1806 3559 1356 
Q 3559 666 3084 287 
Q 2609 -91 1734 -91 
Q 1441 -91 1130 -33 
Q 819 25 488 141 
L 488 750 
Q 750 597 1062 519 
Q 1375 441 1716 441 
Q 2309 441 2620 675 
Q 2931 909 2931 1356 
Q 2931 1769 2642 2001 
Q 2353 2234 1838 2234 
L 1294 2234 
L 1294 2753 
L 1863 2753 
Q 2328 2753 2575 2939 
Q 2822 3125 2822 3475 
Q 2822 3834 2567 4026 
Q 2313 4219 1838 4219 
Q 1578 4219 1281 4162 
Q 984 4106 628 3988 
L 628 4550 
Q 988 4650 1302 4700 
Q 1616 4750 1894 4750 
Q 2613 4750 3031 4423 
Q 3450 4097 3450 3541 
Q 3450 3153 3228 2886 
Q 3006 2619 2597 2516 
z
" transform="scale(0.015625)"/>
       </defs>
       <use xlink:href="#DejaVuSans-33"/>
       <use xlink:href="#DejaVuSans-30" x="63.623047"/>
       <use xlink:href="#DejaVuSans-30" x="127.246094"/>
      </g>
     </g>
    </g>
    <g id="ytick_5">
     <g id="line2d_13">
      <g>
       <use xlink:href="#m9bf0812ebe" x="270" y="477.185886" style="stroke: #000000; stroke-width: 0.8"/>
      </g>
     </g>
     <g id="text_13">
      <!-- 400 -->
      <g transform="translate(243.9125 480.985105)scale(0.1 -0.1)">
       <use xlink:href="#DejaVuSans-34"/>
       <use xlink:href="#DejaVuSans-30" x="63.623047"/>
       <use xlink:href="#DejaVuSans-30" x="127.246094"/>
      </g>
     </g>
    </g>
    <g id="ytick_6">
     <g id="line2d_14">
      <g>
       <use xlink:href="#m9bf0812ebe" x="270" y="360.232358" style="stroke: #000000; stroke-width: 0.8"/>
      </g>
     </g>
     <g id="text_14">
      <!-- 500 -->
      <g transform="translate(243.9125 364.031577)scale(0.1 -0.1)">
       <defs>
        <path id="DejaVuSans-35" d="M 691 4666 
L 3169 4666 
L 3169 4134 
L 1269 4134 
L 1269 2991 
Q 1406 3038 1543 3061 
Q 1681 3084 1819 3084 
Q 2600 3084 3056 2656 
Q 3513 2228 3513 1497 
Q 3513 744 3044 326 
Q 2575 -91 1722 -91 
Q 1428 -91 1123 -41 
Q 819 9 494 109 
L 494 744 
Q 775 591 1075 516 
Q 1375 441 1709 441 
Q 2250 441 2565 725 
Q 2881 1009 2881 1497 
Q 2881 1984 2565 2268 
Q 2250 2553 1709 2553 
Q 1456 2553 1204 2497 
Q 953 2441 691 2322 
L 691 4666 
z
" transform="scale(0.015625)"/>
       </defs>
       <use xlink:href="#DejaVuSans-35"/>
       <use xlink:href="#DejaVuSans-30" x="63.623047"/>
       <use xlink:href="#DejaVuSans-30" x="127.246094"/>
      </g>
     </g>
    </g>
    <g id="ytick_7">
     <g id="line2d_15">
      <g>
       <use xlink:href="#m9bf0812ebe" x="270" y="243.27883" style="stroke: #000000; stroke-width: 0.8"/>
      </g>
     </g>
     <g id="text_15">
      <!-- 600 -->
      <g transform="translate(243.9125 247.078048)scale(0.1 -0.1)">
       <use xlink:href="#DejaVuSans-36"/>
       <use xlink:href="#DejaVuSans-30" x="63.623047"/>
       <use xlink:href="#DejaVuSans-30" x="127.246094"/>
      </g>
     </g>
    </g>
    <g id="text_16">
     <!-- Count -->
     <g transform="translate(237.832812 552.148438)rotate(-90)scale(0.1 -0.1)">
      <defs>
       <path id="DejaVuSans-43" d="M 4122 4306 
L 4122 3641 
Q 3803 3938 3442 4084 
Q 3081 4231 2675 4231 
Q 1875 4231 1450 3742 
Q 1025 3253 1025 2328 
Q 1025 1406 1450 917 
Q 1875 428 2675 428 
Q 3081 428 3442 575 
Q 3803 722 4122 1019 
L 4122 359 
Q 3791 134 3420 21 
Q 3050 -91 2638 -91 
Q 1578 -91 968 557 
Q 359 1206 359 2328 
Q 359 3453 968 4101 
Q 1578 4750 2638 4750 
Q 3056 4750 3426 4639 
Q 3797 4528 4122 4306 
z
" transform="scale(0.015625)"/>
       <path id="DejaVuSans-6f" d="M 1959 3097 
Q 1497 3097 1228 2736 
Q 959 2375 959 1747 
Q 959 1119 1226 758 
Q 1494 397 1959 397 
Q 2419 397 2687 759 
Q 2956 1122 2956 1747 
Q 2956 2369 2687 2733 
Q 2419 3097 1959 3097 
z
M 1959 3584 
Q 2709 3584 3137 3096 
Q 3566 2609 3566 1747 
Q 3566 888 3137 398 
Q 2709 -91 1959 -91 
Q 1206 -91 779 398 
Q 353 888 353 1747 
Q 353 2609 779 3096 
Q 1206 3584 1959 3584 
z
" transform="scale(0.015625)"/>
       <path id="DejaVuSans-75" d="M 544 1381 
L 544 3500 
L 1119 3500 
L 1119 1403 
Q 1119 906 1312 657 
Q 1506 409 1894 409 
Q 2359 409 2629 706 
Q 2900 1003 2900 1516 
L 2900 3500 
L 3475 3500 
L 3475 0 
L 2900 0 
L 2900 538 
Q 2691 219 2414 64 
Q 2138 -91 1772 -91 
Q 1169 -91 856 284 
Q 544 659 544 1381 
z
M 1991 3584 
L 1991 3584 
z
" transform="scale(0.015625)"/>
       <path id="DejaVuSans-6e" d="M 3513 2113 
L 3513 0 
L 2938 0 
L 2938 2094 
Q 2938 2591 2744 2837 
Q 2550 3084 2163 3084 
Q 1697 3084 1428 2787 
Q 1159 2491 1159 1978 
L 1159 0 
L 581 0 
L 581 3500 
L 1159 3500 
L 1159 2956 
Q 1366 3272 1645 3428 
Q 1925 3584 2291 3584 
Q 2894 3584 3203 3211 
Q 3513 2838 3513 2113 
z
" transform="scale(0.015625)"/>
       <path id="DejaVuSans-74" d="M 1172 4494 
L 1172 3500 
L 2356 3500 
L 2356 3053 
L 1172 3053 
L 1172 1153 
Q 1172 725 1289 603 
Q 1406 481 1766 481 
L 2356 481 
L 2356 0 
L 1766 0 
Q 1100 0 847 248 
Q 594 497 594 1153 
L 594 3053 
L 172 3053 
L 172 3500 
L 594 3500 
L 594 4494 
L 1172 4494 
z
" transform="scale(0.015625)"/>
      </defs>
      <use xlink:href="#DejaVuSans-43"/>
      <use xlink:href="#DejaVuSans-6f" x="69.824219"/>
      <use xlink:href="#DejaVuSans-75" x="131.005859"/>
      <use xlink:href="#DejaVuSans-6e" x="194.384766"/>
      <use xlink:href="#DejaVuSans-74" x="257.763672"/>
     </g>
    </g>
   </g>
   <g id="patch_76">
    <path d="M 270 945 
L 270 129.6 
" style="fill: none; stroke: #000000; stroke-width: 0.8; stroke-linejoin: miter; stroke-linecap: square"/>
   </g>
   <g id="patch_77">
    <path d="M 1944 945 
L 1944 129.6 
" style="fill: none; stroke: #000000; stroke-width: 0.8; stroke-linejoin: miter; stroke-linecap: square"/>
   </g>
   <g id="patch_78">
    <path d="M 270 945 
L 1944 945 
" style="fill: none; stroke: #000000; stroke-width: 0.8; stroke-linejoin: miter; stroke-linecap: square"/>
   </g>
   <g id="patch_79">
    <path d="M 270 129.6 
L 1944 129.6 
" style="fill: none; stroke: #000000; stroke-width: 0.8; stroke-linejoin: miter; stroke-linecap: square"/>
   </g>
   <g id="text_17">
    <!-- C18pos_area_nolowess_intensity_svr_poly R2 score -->
    <g transform="translate(952.756875 123.6)scale(0.12 -0.12)">
     <defs>
      <path id="DejaVuSans-70" d="M 1159 525 
L 1159 -1331 
L 581 -1331 
L 581 3500 
L 1159 3500 
L 1159 2969 
Q 1341 3281 1617 3432 
Q 1894 3584 2278 3584 
Q 2916 3584 3314 3078 
Q 3713 2572 3713 1747 
Q 3713 922 3314 415 
Q 2916 -91 2278 -91 
Q 1894 -91 1617 61 
Q 1341 213 1159 525 
z
M 3116 1747 
Q 3116 2381 2855 2742 
Q 2594 3103 2138 3103 
Q 1681 3103 1420 2742 
Q 1159 2381 1159 1747 
Q 1159 1113 1420 752 
Q 1681 391 2138 391 
Q 2594 391 2855 752 
Q 3116 1113 3116 1747 
z
" transform="scale(0.015625)"/>
      <path id="DejaVuSans-73" d="M 2834 3397 
L 2834 2853 
Q 2591 2978 2328 3040 
Q 2066 3103 1784 3103 
Q 1356 3103 1142 2972 
Q 928 2841 928 2578 
Q 928 2378 1081 2264 
Q 1234 2150 1697 2047 
L 1894 2003 
Q 2506 1872 2764 1633 
Q 3022 1394 3022 966 
Q 3022 478 2636 193 
Q 2250 -91 1575 -91 
Q 1294 -91 989 -36 
Q 684 19 347 128 
L 347 722 
Q 666 556 975 473 
Q 1284 391 1588 391 
Q 1994 391 2212 530 
Q 2431 669 2431 922 
Q 2431 1156 2273 1281 
Q 2116 1406 1581 1522 
L 1381 1569 
Q 847 1681 609 1914 
Q 372 2147 372 2553 
Q 372 3047 722 3315 
Q 1072 3584 1716 3584 
Q 2034 3584 2315 3537 
Q 2597 3491 2834 3397 
z
" transform="scale(0.015625)"/>
      <path id="DejaVuSans-5f" d="M 3263 -1063 
L 3263 -1509 
L -63 -1509 
L -63 -1063 
L 3263 -1063 
z
" transform="scale(0.015625)"/>
      <path id="DejaVuSans-61" d="M 2194 1759 
Q 1497 1759 1228 1600 
Q 959 1441 959 1056 
Q 959 750 1161 570 
Q 1363 391 1709 391 
Q 2188 391 2477 730 
Q 2766 1069 2766 1631 
L 2766 1759 
L 2194 1759 
z
M 3341 1997 
L 3341 0 
L 2766 0 
L 2766 531 
Q 2569 213 2275 61 
Q 1981 -91 1556 -91 
Q 1019 -91 701 211 
Q 384 513 384 1019 
Q 384 1609 779 1909 
Q 1175 2209 1959 2209 
L 2766 2209 
L 2766 2266 
Q 2766 2663 2505 2880 
Q 2244 3097 1772 3097 
Q 1472 3097 1187 3025 
Q 903 2953 641 2809 
L 641 3341 
Q 956 3463 1253 3523 
Q 1550 3584 1831 3584 
Q 2591 3584 2966 3190 
Q 3341 2797 3341 1997 
z
" transform="scale(0.015625)"/>
      <path id="DejaVuSans-72" d="M 2631 2963 
Q 2534 3019 2420 3045 
Q 2306 3072 2169 3072 
Q 1681 3072 1420 2755 
Q 1159 2438 1159 1844 
L 1159 0 
L 581 0 
L 581 3500 
L 1159 3500 
L 1159 2956 
Q 1341 3275 1631 3429 
Q 1922 3584 2338 3584 
Q 2397 3584 2469 3576 
Q 2541 3569 2628 3553 
L 2631 2963 
z
" transform="scale(0.015625)"/>
      <path id="DejaVuSans-65" d="M 3597 1894 
L 3597 1613 
L 953 1613 
Q 991 1019 1311 708 
Q 1631 397 2203 397 
Q 2534 397 2845 478 
Q 3156 559 3463 722 
L 3463 178 
Q 3153 47 2828 -22 
Q 2503 -91 2169 -91 
Q 1331 -91 842 396 
Q 353 884 353 1716 
Q 353 2575 817 3079 
Q 1281 3584 2069 3584 
Q 2775 3584 3186 3129 
Q 3597 2675 3597 1894 
z
M 3022 2063 
Q 3016 2534 2758 2815 
Q 2500 3097 2075 3097 
Q 1594 3097 1305 2825 
Q 1016 2553 972 2059 
L 3022 2063 
z
" transform="scale(0.015625)"/>
      <path id="DejaVuSans-6c" d="M 603 4863 
L 1178 4863 
L 1178 0 
L 603 0 
L 603 4863 
z
" transform="scale(0.015625)"/>
      <path id="DejaVuSans-77" d="M 269 3500 
L 844 3500 
L 1563 769 
L 2278 3500 
L 2956 3500 
L 3675 769 
L 4391 3500 
L 4966 3500 
L 4050 0 
L 3372 0 
L 2619 2869 
L 1863 0 
L 1184 0 
L 269 3500 
z
" transform="scale(0.015625)"/>
      <path id="DejaVuSans-69" d="M 603 3500 
L 1178 3500 
L 1178 0 
L 603 0 
L 603 3500 
z
M 603 4863 
L 1178 4863 
L 1178 4134 
L 603 4134 
L 603 4863 
z
" transform="scale(0.015625)"/>
      <path id="DejaVuSans-79" d="M 2059 -325 
Q 1816 -950 1584 -1140 
Q 1353 -1331 966 -1331 
L 506 -1331 
L 506 -850 
L 844 -850 
Q 1081 -850 1212 -737 
Q 1344 -625 1503 -206 
L 1606 56 
L 191 3500 
L 800 3500 
L 1894 763 
L 2988 3500 
L 3597 3500 
L 2059 -325 
z
" transform="scale(0.015625)"/>
      <path id="DejaVuSans-76" d="M 191 3500 
L 800 3500 
L 1894 563 
L 2988 3500 
L 3597 3500 
L 2284 0 
L 1503 0 
L 191 3500 
z
" transform="scale(0.015625)"/>
      <path id="DejaVuSans-20" transform="scale(0.015625)"/>
      <path id="DejaVuSans-52" d="M 2841 2188 
Q 3044 2119 3236 1894 
Q 3428 1669 3622 1275 
L 4263 0 
L 3584 0 
L 2988 1197 
Q 2756 1666 2539 1819 
Q 2322 1972 1947 1972 
L 1259 1972 
L 1259 0 
L 628 0 
L 628 4666 
L 2053 4666 
Q 2853 4666 3247 4331 
Q 3641 3997 3641 3322 
Q 3641 2881 3436 2590 
Q 3231 2300 2841 2188 
z
M 1259 4147 
L 1259 2491 
L 2053 2491 
Q 2509 2491 2742 2702 
Q 2975 2913 2975 3322 
Q 2975 3731 2742 3939 
Q 2509 4147 2053 4147 
L 1259 4147 
z
" transform="scale(0.015625)"/>
      <path id="DejaVuSans-63" d="M 3122 3366 
L 3122 2828 
Q 2878 2963 2633 3030 
Q 2388 3097 2138 3097 
Q 1578 3097 1268 2742 
Q 959 2388 959 1747 
Q 959 1106 1268 751 
Q 1578 397 2138 397 
Q 2388 397 2633 464 
Q 2878 531 3122 666 
L 3122 134 
Q 2881 22 2623 -34 
Q 2366 -91 2075 -91 
Q 1284 -91 818 406 
Q 353 903 353 1747 
Q 353 2603 823 3093 
Q 1294 3584 2113 3584 
Q 2378 3584 2631 3529 
Q 2884 3475 3122 3366 
z
" transform="scale(0.015625)"/>
     </defs>
     <use xlink:href="#DejaVuSans-43"/>
     <use xlink:href="#DejaVuSans-31" x="69.824219"/>
     <use xlink:href="#DejaVuSans-38" x="133.447266"/>
     <use xlink:href="#DejaVuSans-70" x="197.070312"/>
     <use xlink:href="#DejaVuSans-6f" x="260.546875"/>
     <use xlink:href="#DejaVuSans-73" x="321.728516"/>
     <use xlink:href="#DejaVuSans-5f" x="373.828125"/>
     <use xlink:href="#DejaVuSans-61" x="423.828125"/>
     <use xlink:href="#DejaVuSans-72" x="485.107422"/>
     <use xlink:href="#DejaVuSans-65" x="523.970703"/>
     <use xlink:href="#DejaVuSans-61" x="585.494141"/>
     <use xlink:href="#DejaVuSans-5f" x="646.773438"/>
     <use xlink:href="#DejaVuSans-6e" x="696.773438"/>
     <use xlink:href="#DejaVuSans-6f" x="760.152344"/>
     <use xlink:href="#DejaVuSans-6c" x="821.333984"/>
     <use xlink:href="#DejaVuSans-6f" x="849.117188"/>
     <use xlink:href="#DejaVuSans-77" x="910.298828"/>
     <use xlink:href="#DejaVuSans-65" x="992.085938"/>
     <use xlink:href="#DejaVuSans-73" x="1053.609375"/>
     <use xlink:href="#DejaVuSans-73" x="1105.708984"/>
     <use xlink:href="#DejaVuSans-5f" x="1157.808594"/>
     <use xlink:href="#DejaVuSans-69" x="1207.808594"/>
     <use xlink:href="#DejaVuSans-6e" x="1235.591797"/>
     <use xlink:href="#DejaVuSans-74" x="1298.970703"/>
     <use xlink:href="#DejaVuSans-65" x="1338.179688"/>
     <use xlink:href="#DejaVuSans-6e" x="1399.703125"/>
     <use xlink:href="#DejaVuSans-73" x="1463.082031"/>
     <use xlink:href="#DejaVuSans-69" x="1515.181641"/>
     <use xlink:href="#DejaVuSans-74" x="1542.964844"/>
     <use xlink:href="#DejaVuSans-79" x="1582.173828"/>
     <use xlink:href="#DejaVuSans-5f" x="1641.353516"/>
     <use xlink:href="#DejaVuSans-73" x="1691.353516"/>
     <use xlink:href="#DejaVuSans-76" x="1743.453125"/>
     <use xlink:href="#DejaVuSans-72" x="1802.632812"/>
     <use xlink:href="#DejaVuSans-5f" x="1843.746094"/>
     <use xlink:href="#DejaVuSans-70" x="1893.746094"/>
     <use xlink:href="#DejaVuSans-6f" x="1957.222656"/>
     <use xlink:href="#DejaVuSans-6c" x="2018.404297"/>
     <use xlink:href="#DejaVuSans-79" x="2046.1875"/>
     <use xlink:href="#DejaVuSans-20" x="2105.367188"/>
     <use xlink:href="#DejaVuSans-52" x="2137.154297"/>
     <use xlink:href="#DejaVuSans-32" x="2206.636719"/>
     <use xlink:href="#DejaVuSans-20" x="2270.259766"/>
     <use xlink:href="#DejaVuSans-73" x="2302.046875"/>
     <use xlink:href="#DejaVuSans-63" x="2354.146484"/>
     <use xlink:href="#DejaVuSans-6f" x="2409.126953"/>
     <use xlink:href="#DejaVuSans-72" x="2470.308594"/>
     <use xlink:href="#DejaVuSans-65" x="2509.171875"/>
    </g>
   </g>
  </g>
 </g>
 <defs>
  <clipPath id="p9c7bc46848">
   <rect x="270" y="129.6" width="1674" height="815.4"/>
  </clipPath>
 </defs>
</svg>
