<?xml version="1.0" encoding="utf-8" standalone="no"?>
<!DOCTYPE svg PUBLIC "-//W3C//DTD SVG 1.1//EN"
  "http://www.w3.org/Graphics/SVG/1.1/DTD/svg11.dtd">
<svg xmlns:xlink="http://www.w3.org/1999/xlink" width="720pt" height="720pt" viewBox="0 0 720 720" xmlns="http://www.w3.org/2000/svg" version="1.1">
 <metadata>
  <rdf:RDF xmlns:dc="http://purl.org/dc/elements/1.1/" xmlns:cc="http://creativecommons.org/ns#" xmlns:rdf="http://www.w3.org/1999/02/22-rdf-syntax-ns#">
   <cc:Work>
    <dc:type rdf:resource="http://purl.org/dc/dcmitype/StillImage"/>
    <dc:date>2022-04-08T18:36:23.419269</dc:date>
    <dc:format>image/svg+xml</dc:format>
    <dc:creator>
     <cc:Agent>
      <dc:title>Matplotlib v3.5.1, https://matplotlib.org/</dc:title>
     </cc:Agent>
    </dc:creator>
   </cc:Work>
  </rdf:RDF>
 </metadata>
 <defs>
  <style type="text/css">*{stroke-linejoin: round; stroke-linecap: butt}</style>
 </defs>
 <g id="figure_1">
  <g id="patch_1">
   <path d="M 0 720 
L 720 720 
L 720 0 
L 0 0 
L 0 720 
z
" style="fill: none"/>
  </g>
  <g id="axes_1">
   <g id="patch_2">
    <path d="M 90 630 
L 648 630 
L 648 86.4 
L 90 86.4 
z
" style="fill: #ffffff"/>
   </g>
   <g id="patch_3">
    <path d="M 115.363636 630 
L 119.995275 630 
L 119.995275 422.914286 
L 115.363636 422.914286 
z
" clip-path="url(#p182a6a4bd9)" style="fill: #0000ff; fill-opacity: 0.6; stroke: #000000; stroke-width: 0.724675; stroke-linejoin: miter"/>
   </g>
   <g id="patch_4">
    <path d="M 119.995275 630 
L 124.626913 630 
L 124.626913 630 
L 119.995275 630 
z
" clip-path="url(#p182a6a4bd9)" style="fill: #0000ff; fill-opacity: 0.6; stroke: #000000; stroke-width: 0.724675; stroke-linejoin: miter"/>
   </g>
   <g id="patch_5">
    <path d="M 124.626913 630 
L 129.258552 630 
L 129.258552 630 
L 124.626913 630 
z
" clip-path="url(#p182a6a4bd9)" style="fill: #0000ff; fill-opacity: 0.6; stroke: #000000; stroke-width: 0.724675; stroke-linejoin: miter"/>
   </g>
   <g id="patch_6">
    <path d="M 129.258552 630 
L 133.89019 630 
L 133.89019 630 
L 129.258552 630 
z
" clip-path="url(#p182a6a4bd9)" style="fill: #0000ff; fill-opacity: 0.6; stroke: #000000; stroke-width: 0.724675; stroke-linejoin: miter"/>
   </g>
   <g id="patch_7">
    <path d="M 133.89019 630 
L 138.521829 630 
L 138.521829 630 
L 133.89019 630 
z
" clip-path="url(#p182a6a4bd9)" style="fill: #0000ff; fill-opacity: 0.6; stroke: #000000; stroke-width: 0.724675; stroke-linejoin: miter"/>
   </g>
   <g id="patch_8">
    <path d="M 138.521829 630 
L 143.153467 630 
L 143.153467 526.457143 
L 138.521829 526.457143 
z
" clip-path="url(#p182a6a4bd9)" style="fill: #0000ff; fill-opacity: 0.6; stroke: #000000; stroke-width: 0.724675; stroke-linejoin: miter"/>
   </g>
   <g id="patch_9">
    <path d="M 143.153467 630 
L 147.785106 630 
L 147.785106 630 
L 143.153467 630 
z
" clip-path="url(#p182a6a4bd9)" style="fill: #0000ff; fill-opacity: 0.6; stroke: #000000; stroke-width: 0.724675; stroke-linejoin: miter"/>
   </g>
   <g id="patch_10">
    <path d="M 147.785106 630 
L 152.416744 630 
L 152.416744 630 
L 147.785106 630 
z
" clip-path="url(#p182a6a4bd9)" style="fill: #0000ff; fill-opacity: 0.6; stroke: #000000; stroke-width: 0.724675; stroke-linejoin: miter"/>
   </g>
   <g id="patch_11">
    <path d="M 152.416744 630 
L 157.048383 630 
L 157.048383 526.457143 
L 152.416744 526.457143 
z
" clip-path="url(#p182a6a4bd9)" style="fill: #0000ff; fill-opacity: 0.6; stroke: #000000; stroke-width: 0.724675; stroke-linejoin: miter"/>
   </g>
   <g id="patch_12">
    <path d="M 157.048383 630 
L 161.680021 630 
L 161.680021 630 
L 157.048383 630 
z
" clip-path="url(#p182a6a4bd9)" style="fill: #0000ff; fill-opacity: 0.6; stroke: #000000; stroke-width: 0.724675; stroke-linejoin: miter"/>
   </g>
   <g id="patch_13">
    <path d="M 161.680021 630 
L 166.311659 630 
L 166.311659 526.457143 
L 161.680021 526.457143 
z
" clip-path="url(#p182a6a4bd9)" style="fill: #0000ff; fill-opacity: 0.6; stroke: #000000; stroke-width: 0.724675; stroke-linejoin: miter"/>
   </g>
   <g id="patch_14">
    <path d="M 166.311659 630 
L 170.943298 630 
L 170.943298 630 
L 166.311659 630 
z
" clip-path="url(#p182a6a4bd9)" style="fill: #0000ff; fill-opacity: 0.6; stroke: #000000; stroke-width: 0.724675; stroke-linejoin: miter"/>
   </g>
   <g id="patch_15">
    <path d="M 170.943298 630 
L 175.574936 630 
L 175.574936 319.371429 
L 170.943298 319.371429 
z
" clip-path="url(#p182a6a4bd9)" style="fill: #0000ff; fill-opacity: 0.6; stroke: #000000; stroke-width: 0.724675; stroke-linejoin: miter"/>
   </g>
   <g id="patch_16">
    <path d="M 175.574936 630 
L 180.206575 630 
L 180.206575 422.914286 
L 175.574936 422.914286 
z
" clip-path="url(#p182a6a4bd9)" style="fill: #0000ff; fill-opacity: 0.6; stroke: #000000; stroke-width: 0.724675; stroke-linejoin: miter"/>
   </g>
   <g id="patch_17">
    <path d="M 180.206575 630 
L 184.838213 630 
L 184.838213 422.914286 
L 180.206575 422.914286 
z
" clip-path="url(#p182a6a4bd9)" style="fill: #0000ff; fill-opacity: 0.6; stroke: #000000; stroke-width: 0.724675; stroke-linejoin: miter"/>
   </g>
   <g id="patch_18">
    <path d="M 184.838213 630 
L 189.469852 630 
L 189.469852 422.914286 
L 184.838213 422.914286 
z
" clip-path="url(#p182a6a4bd9)" style="fill: #0000ff; fill-opacity: 0.6; stroke: #000000; stroke-width: 0.724675; stroke-linejoin: miter"/>
   </g>
   <g id="patch_19">
    <path d="M 189.469852 630 
L 194.10149 630 
L 194.10149 422.914286 
L 189.469852 422.914286 
z
" clip-path="url(#p182a6a4bd9)" style="fill: #0000ff; fill-opacity: 0.6; stroke: #000000; stroke-width: 0.724675; stroke-linejoin: miter"/>
   </g>
   <g id="patch_20">
    <path d="M 194.10149 630 
L 198.733129 630 
L 198.733129 422.914286 
L 194.10149 422.914286 
z
" clip-path="url(#p182a6a4bd9)" style="fill: #0000ff; fill-opacity: 0.6; stroke: #000000; stroke-width: 0.724675; stroke-linejoin: miter"/>
   </g>
   <g id="patch_21">
    <path d="M 198.733129 630 
L 203.364767 630 
L 203.364767 422.914286 
L 198.733129 422.914286 
z
" clip-path="url(#p182a6a4bd9)" style="fill: #0000ff; fill-opacity: 0.6; stroke: #000000; stroke-width: 0.724675; stroke-linejoin: miter"/>
   </g>
   <g id="patch_22">
    <path d="M 203.364767 630 
L 207.996406 630 
L 207.996406 319.371429 
L 203.364767 319.371429 
z
" clip-path="url(#p182a6a4bd9)" style="fill: #0000ff; fill-opacity: 0.6; stroke: #000000; stroke-width: 0.724675; stroke-linejoin: miter"/>
   </g>
   <g id="patch_23">
    <path d="M 207.996406 630 
L 212.628044 630 
L 212.628044 319.371429 
L 207.996406 319.371429 
z
" clip-path="url(#p182a6a4bd9)" style="fill: #0000ff; fill-opacity: 0.6; stroke: #000000; stroke-width: 0.724675; stroke-linejoin: miter"/>
   </g>
   <g id="patch_24">
    <path d="M 212.628044 630 
L 217.259683 630 
L 217.259683 630 
L 212.628044 630 
z
" clip-path="url(#p182a6a4bd9)" style="fill: #0000ff; fill-opacity: 0.6; stroke: #000000; stroke-width: 0.724675; stroke-linejoin: miter"/>
   </g>
   <g id="patch_25">
    <path d="M 217.259683 630 
L 221.891321 630 
L 221.891321 422.914286 
L 217.259683 422.914286 
z
" clip-path="url(#p182a6a4bd9)" style="fill: #0000ff; fill-opacity: 0.6; stroke: #000000; stroke-width: 0.724675; stroke-linejoin: miter"/>
   </g>
   <g id="patch_26">
    <path d="M 221.891321 630 
L 226.52296 630 
L 226.52296 319.371429 
L 221.891321 319.371429 
z
" clip-path="url(#p182a6a4bd9)" style="fill: #0000ff; fill-opacity: 0.6; stroke: #000000; stroke-width: 0.724675; stroke-linejoin: miter"/>
   </g>
   <g id="patch_27">
    <path d="M 226.52296 630 
L 231.154598 630 
L 231.154598 526.457143 
L 226.52296 526.457143 
z
" clip-path="url(#p182a6a4bd9)" style="fill: #0000ff; fill-opacity: 0.6; stroke: #000000; stroke-width: 0.724675; stroke-linejoin: miter"/>
   </g>
   <g id="patch_28">
    <path d="M 231.154598 630 
L 235.786236 630 
L 235.786236 422.914286 
L 231.154598 422.914286 
z
" clip-path="url(#p182a6a4bd9)" style="fill: #0000ff; fill-opacity: 0.6; stroke: #000000; stroke-width: 0.724675; stroke-linejoin: miter"/>
   </g>
   <g id="patch_29">
    <path d="M 235.786236 630 
L 240.417875 630 
L 240.417875 630 
L 235.786236 630 
z
" clip-path="url(#p182a6a4bd9)" style="fill: #0000ff; fill-opacity: 0.6; stroke: #000000; stroke-width: 0.724675; stroke-linejoin: miter"/>
   </g>
   <g id="patch_30">
    <path d="M 240.417875 630 
L 245.049513 630 
L 245.049513 526.457143 
L 240.417875 526.457143 
z
" clip-path="url(#p182a6a4bd9)" style="fill: #0000ff; fill-opacity: 0.6; stroke: #000000; stroke-width: 0.724675; stroke-linejoin: miter"/>
   </g>
   <g id="patch_31">
    <path d="M 245.049513 630 
L 249.681152 630 
L 249.681152 630 
L 245.049513 630 
z
" clip-path="url(#p182a6a4bd9)" style="fill: #0000ff; fill-opacity: 0.6; stroke: #000000; stroke-width: 0.724675; stroke-linejoin: miter"/>
   </g>
   <g id="patch_32">
    <path d="M 249.681152 630 
L 254.31279 630 
L 254.31279 422.914286 
L 249.681152 422.914286 
z
" clip-path="url(#p182a6a4bd9)" style="fill: #0000ff; fill-opacity: 0.6; stroke: #000000; stroke-width: 0.724675; stroke-linejoin: miter"/>
   </g>
   <g id="patch_33">
    <path d="M 254.31279 630 
L 258.944429 630 
L 258.944429 422.914286 
L 254.31279 422.914286 
z
" clip-path="url(#p182a6a4bd9)" style="fill: #0000ff; fill-opacity: 0.6; stroke: #000000; stroke-width: 0.724675; stroke-linejoin: miter"/>
   </g>
   <g id="patch_34">
    <path d="M 258.944429 630 
L 263.576067 630 
L 263.576067 319.371429 
L 258.944429 319.371429 
z
" clip-path="url(#p182a6a4bd9)" style="fill: #0000ff; fill-opacity: 0.6; stroke: #000000; stroke-width: 0.724675; stroke-linejoin: miter"/>
   </g>
   <g id="patch_35">
    <path d="M 263.576067 630 
L 268.207706 630 
L 268.207706 526.457143 
L 263.576067 526.457143 
z
" clip-path="url(#p182a6a4bd9)" style="fill: #0000ff; fill-opacity: 0.6; stroke: #000000; stroke-width: 0.724675; stroke-linejoin: miter"/>
   </g>
   <g id="patch_36">
    <path d="M 268.207706 630 
L 272.839344 630 
L 272.839344 526.457143 
L 268.207706 526.457143 
z
" clip-path="url(#p182a6a4bd9)" style="fill: #0000ff; fill-opacity: 0.6; stroke: #000000; stroke-width: 0.724675; stroke-linejoin: miter"/>
   </g>
   <g id="patch_37">
    <path d="M 272.839344 630 
L 277.470983 630 
L 277.470983 630 
L 272.839344 630 
z
" clip-path="url(#p182a6a4bd9)" style="fill: #0000ff; fill-opacity: 0.6; stroke: #000000; stroke-width: 0.724675; stroke-linejoin: miter"/>
   </g>
   <g id="patch_38">
    <path d="M 277.470983 630 
L 282.102621 630 
L 282.102621 630 
L 277.470983 630 
z
" clip-path="url(#p182a6a4bd9)" style="fill: #0000ff; fill-opacity: 0.6; stroke: #000000; stroke-width: 0.724675; stroke-linejoin: miter"/>
   </g>
   <g id="patch_39">
    <path d="M 282.102621 630 
L 286.73426 630 
L 286.73426 630 
L 282.102621 630 
z
" clip-path="url(#p182a6a4bd9)" style="fill: #0000ff; fill-opacity: 0.6; stroke: #000000; stroke-width: 0.724675; stroke-linejoin: miter"/>
   </g>
   <g id="patch_40">
    <path d="M 286.73426 630 
L 291.365898 630 
L 291.365898 630 
L 286.73426 630 
z
" clip-path="url(#p182a6a4bd9)" style="fill: #0000ff; fill-opacity: 0.6; stroke: #000000; stroke-width: 0.724675; stroke-linejoin: miter"/>
   </g>
   <g id="patch_41">
    <path d="M 291.365898 630 
L 295.997536 630 
L 295.997536 630 
L 291.365898 630 
z
" clip-path="url(#p182a6a4bd9)" style="fill: #0000ff; fill-opacity: 0.6; stroke: #000000; stroke-width: 0.724675; stroke-linejoin: miter"/>
   </g>
   <g id="patch_42">
    <path d="M 295.997536 630 
L 300.629175 630 
L 300.629175 526.457143 
L 295.997536 526.457143 
z
" clip-path="url(#p182a6a4bd9)" style="fill: #0000ff; fill-opacity: 0.6; stroke: #000000; stroke-width: 0.724675; stroke-linejoin: miter"/>
   </g>
   <g id="patch_43">
    <path d="M 300.629175 630 
L 305.260813 630 
L 305.260813 630 
L 300.629175 630 
z
" clip-path="url(#p182a6a4bd9)" style="fill: #0000ff; fill-opacity: 0.6; stroke: #000000; stroke-width: 0.724675; stroke-linejoin: miter"/>
   </g>
   <g id="patch_44">
    <path d="M 305.260813 630 
L 309.892452 630 
L 309.892452 630 
L 305.260813 630 
z
" clip-path="url(#p182a6a4bd9)" style="fill: #0000ff; fill-opacity: 0.6; stroke: #000000; stroke-width: 0.724675; stroke-linejoin: miter"/>
   </g>
   <g id="patch_45">
    <path d="M 309.892452 630 
L 314.52409 630 
L 314.52409 630 
L 309.892452 630 
z
" clip-path="url(#p182a6a4bd9)" style="fill: #0000ff; fill-opacity: 0.6; stroke: #000000; stroke-width: 0.724675; stroke-linejoin: miter"/>
   </g>
   <g id="patch_46">
    <path d="M 314.52409 630 
L 319.155729 630 
L 319.155729 630 
L 314.52409 630 
z
" clip-path="url(#p182a6a4bd9)" style="fill: #0000ff; fill-opacity: 0.6; stroke: #000000; stroke-width: 0.724675; stroke-linejoin: miter"/>
   </g>
   <g id="patch_47">
    <path d="M 319.155729 630 
L 323.787367 630 
L 323.787367 630 
L 319.155729 630 
z
" clip-path="url(#p182a6a4bd9)" style="fill: #0000ff; fill-opacity: 0.6; stroke: #000000; stroke-width: 0.724675; stroke-linejoin: miter"/>
   </g>
   <g id="patch_48">
    <path d="M 323.787367 630 
L 328.419006 630 
L 328.419006 630 
L 323.787367 630 
z
" clip-path="url(#p182a6a4bd9)" style="fill: #0000ff; fill-opacity: 0.6; stroke: #000000; stroke-width: 0.724675; stroke-linejoin: miter"/>
   </g>
   <g id="patch_49">
    <path d="M 328.419006 630 
L 333.050644 630 
L 333.050644 630 
L 328.419006 630 
z
" clip-path="url(#p182a6a4bd9)" style="fill: #0000ff; fill-opacity: 0.6; stroke: #000000; stroke-width: 0.724675; stroke-linejoin: miter"/>
   </g>
   <g id="patch_50">
    <path d="M 333.050644 630 
L 337.682283 630 
L 337.682283 630 
L 333.050644 630 
z
" clip-path="url(#p182a6a4bd9)" style="fill: #0000ff; fill-opacity: 0.6; stroke: #000000; stroke-width: 0.724675; stroke-linejoin: miter"/>
   </g>
   <g id="patch_51">
    <path d="M 337.682283 630 
L 342.313921 630 
L 342.313921 526.457143 
L 337.682283 526.457143 
z
" clip-path="url(#p182a6a4bd9)" style="fill: #0000ff; fill-opacity: 0.6; stroke: #000000; stroke-width: 0.724675; stroke-linejoin: miter"/>
   </g>
   <g id="patch_52">
    <path d="M 342.313921 630 
L 346.94556 630 
L 346.94556 630 
L 342.313921 630 
z
" clip-path="url(#p182a6a4bd9)" style="fill: #0000ff; fill-opacity: 0.6; stroke: #000000; stroke-width: 0.724675; stroke-linejoin: miter"/>
   </g>
   <g id="patch_53">
    <path d="M 346.94556 630 
L 351.577198 630 
L 351.577198 630 
L 346.94556 630 
z
" clip-path="url(#p182a6a4bd9)" style="fill: #0000ff; fill-opacity: 0.6; stroke: #000000; stroke-width: 0.724675; stroke-linejoin: miter"/>
   </g>
   <g id="patch_54">
    <path d="M 351.577198 630 
L 356.208837 630 
L 356.208837 630 
L 351.577198 630 
z
" clip-path="url(#p182a6a4bd9)" style="fill: #0000ff; fill-opacity: 0.6; stroke: #000000; stroke-width: 0.724675; stroke-linejoin: miter"/>
   </g>
   <g id="patch_55">
    <path d="M 356.208837 630 
L 360.840475 630 
L 360.840475 630 
L 356.208837 630 
z
" clip-path="url(#p182a6a4bd9)" style="fill: #0000ff; fill-opacity: 0.6; stroke: #000000; stroke-width: 0.724675; stroke-linejoin: miter"/>
   </g>
   <g id="patch_56">
    <path d="M 360.840475 630 
L 365.472113 630 
L 365.472113 630 
L 360.840475 630 
z
" clip-path="url(#p182a6a4bd9)" style="fill: #0000ff; fill-opacity: 0.6; stroke: #000000; stroke-width: 0.724675; stroke-linejoin: miter"/>
   </g>
   <g id="patch_57">
    <path d="M 365.472113 630 
L 370.103752 630 
L 370.103752 630 
L 365.472113 630 
z
" clip-path="url(#p182a6a4bd9)" style="fill: #0000ff; fill-opacity: 0.6; stroke: #000000; stroke-width: 0.724675; stroke-linejoin: miter"/>
   </g>
   <g id="patch_58">
    <path d="M 370.103752 630 
L 374.73539 630 
L 374.73539 630 
L 370.103752 630 
z
" clip-path="url(#p182a6a4bd9)" style="fill: #0000ff; fill-opacity: 0.6; stroke: #000000; stroke-width: 0.724675; stroke-linejoin: miter"/>
   </g>
   <g id="patch_59">
    <path d="M 374.73539 630 
L 379.367029 630 
L 379.367029 526.457143 
L 374.73539 526.457143 
z
" clip-path="url(#p182a6a4bd9)" style="fill: #0000ff; fill-opacity: 0.6; stroke: #000000; stroke-width: 0.724675; stroke-linejoin: miter"/>
   </g>
   <g id="patch_60">
    <path d="M 379.367029 630 
L 383.998667 630 
L 383.998667 630 
L 379.367029 630 
z
" clip-path="url(#p182a6a4bd9)" style="fill: #0000ff; fill-opacity: 0.6; stroke: #000000; stroke-width: 0.724675; stroke-linejoin: miter"/>
   </g>
   <g id="patch_61">
    <path d="M 383.998667 630 
L 388.630306 630 
L 388.630306 630 
L 383.998667 630 
z
" clip-path="url(#p182a6a4bd9)" style="fill: #0000ff; fill-opacity: 0.6; stroke: #000000; stroke-width: 0.724675; stroke-linejoin: miter"/>
   </g>
   <g id="patch_62">
    <path d="M 388.630306 630 
L 393.261944 630 
L 393.261944 630 
L 388.630306 630 
z
" clip-path="url(#p182a6a4bd9)" style="fill: #0000ff; fill-opacity: 0.6; stroke: #000000; stroke-width: 0.724675; stroke-linejoin: miter"/>
   </g>
   <g id="patch_63">
    <path d="M 393.261944 630 
L 397.893583 630 
L 397.893583 526.457143 
L 393.261944 526.457143 
z
" clip-path="url(#p182a6a4bd9)" style="fill: #0000ff; fill-opacity: 0.6; stroke: #000000; stroke-width: 0.724675; stroke-linejoin: miter"/>
   </g>
   <g id="patch_64">
    <path d="M 397.893583 630 
L 402.525221 630 
L 402.525221 630 
L 397.893583 630 
z
" clip-path="url(#p182a6a4bd9)" style="fill: #0000ff; fill-opacity: 0.6; stroke: #000000; stroke-width: 0.724675; stroke-linejoin: miter"/>
   </g>
   <g id="patch_65">
    <path d="M 402.525221 630 
L 407.15686 630 
L 407.15686 630 
L 402.525221 630 
z
" clip-path="url(#p182a6a4bd9)" style="fill: #0000ff; fill-opacity: 0.6; stroke: #000000; stroke-width: 0.724675; stroke-linejoin: miter"/>
   </g>
   <g id="patch_66">
    <path d="M 407.15686 630 
L 411.788498 630 
L 411.788498 630 
L 407.15686 630 
z
" clip-path="url(#p182a6a4bd9)" style="fill: #0000ff; fill-opacity: 0.6; stroke: #000000; stroke-width: 0.724675; stroke-linejoin: miter"/>
   </g>
   <g id="patch_67">
    <path d="M 411.788498 630 
L 416.420137 630 
L 416.420137 630 
L 411.788498 630 
z
" clip-path="url(#p182a6a4bd9)" style="fill: #0000ff; fill-opacity: 0.6; stroke: #000000; stroke-width: 0.724675; stroke-linejoin: miter"/>
   </g>
   <g id="patch_68">
    <path d="M 416.420137 630 
L 421.051775 630 
L 421.051775 526.457143 
L 416.420137 526.457143 
z
" clip-path="url(#p182a6a4bd9)" style="fill: #0000ff; fill-opacity: 0.6; stroke: #000000; stroke-width: 0.724675; stroke-linejoin: miter"/>
   </g>
   <g id="patch_69">
    <path d="M 421.051775 630 
L 425.683414 630 
L 425.683414 630 
L 421.051775 630 
z
" clip-path="url(#p182a6a4bd9)" style="fill: #0000ff; fill-opacity: 0.6; stroke: #000000; stroke-width: 0.724675; stroke-linejoin: miter"/>
   </g>
   <g id="patch_70">
    <path d="M 425.683414 630 
L 430.315052 630 
L 430.315052 630 
L 425.683414 630 
z
" clip-path="url(#p182a6a4bd9)" style="fill: #0000ff; fill-opacity: 0.6; stroke: #000000; stroke-width: 0.724675; stroke-linejoin: miter"/>
   </g>
   <g id="patch_71">
    <path d="M 430.315052 630 
L 434.94669 630 
L 434.94669 630 
L 430.315052 630 
z
" clip-path="url(#p182a6a4bd9)" style="fill: #0000ff; fill-opacity: 0.6; stroke: #000000; stroke-width: 0.724675; stroke-linejoin: miter"/>
   </g>
   <g id="patch_72">
    <path d="M 434.94669 630 
L 439.578329 630 
L 439.578329 526.457143 
L 434.94669 526.457143 
z
" clip-path="url(#p182a6a4bd9)" style="fill: #0000ff; fill-opacity: 0.6; stroke: #000000; stroke-width: 0.724675; stroke-linejoin: miter"/>
   </g>
   <g id="patch_73">
    <path d="M 118.697807 630 
L 125.89693 630 
L 125.89693 422.914286 
L 118.697807 422.914286 
z
" clip-path="url(#p182a6a4bd9)" style="fill: #ff0000; fill-opacity: 0.6; stroke: #000000; stroke-width: 0.719912; stroke-linejoin: miter"/>
   </g>
   <g id="patch_74">
    <path d="M 125.89693 630 
L 133.096052 630 
L 133.096052 630 
L 125.89693 630 
z
" clip-path="url(#p182a6a4bd9)" style="fill: #ff0000; fill-opacity: 0.6; stroke: #000000; stroke-width: 0.719912; stroke-linejoin: miter"/>
   </g>
   <g id="patch_75">
    <path d="M 133.096052 630 
L 140.295174 630 
L 140.295174 630 
L 133.096052 630 
z
" clip-path="url(#p182a6a4bd9)" style="fill: #ff0000; fill-opacity: 0.6; stroke: #000000; stroke-width: 0.719912; stroke-linejoin: miter"/>
   </g>
   <g id="patch_76">
    <path d="M 140.295174 630 
L 147.494296 630 
L 147.494296 630 
L 140.295174 630 
z
" clip-path="url(#p182a6a4bd9)" style="fill: #ff0000; fill-opacity: 0.6; stroke: #000000; stroke-width: 0.719912; stroke-linejoin: miter"/>
   </g>
   <g id="patch_77">
    <path d="M 147.494296 630 
L 154.693418 630 
L 154.693418 630 
L 147.494296 630 
z
" clip-path="url(#p182a6a4bd9)" style="fill: #ff0000; fill-opacity: 0.6; stroke: #000000; stroke-width: 0.719912; stroke-linejoin: miter"/>
   </g>
   <g id="patch_78">
    <path d="M 154.693418 630 
L 161.892541 630 
L 161.892541 526.457143 
L 154.693418 526.457143 
z
" clip-path="url(#p182a6a4bd9)" style="fill: #ff0000; fill-opacity: 0.6; stroke: #000000; stroke-width: 0.719912; stroke-linejoin: miter"/>
   </g>
   <g id="patch_79">
    <path d="M 161.892541 630 
L 169.091663 630 
L 169.091663 422.914286 
L 161.892541 422.914286 
z
" clip-path="url(#p182a6a4bd9)" style="fill: #ff0000; fill-opacity: 0.6; stroke: #000000; stroke-width: 0.719912; stroke-linejoin: miter"/>
   </g>
   <g id="patch_80">
    <path d="M 169.091663 630 
L 176.290785 630 
L 176.290785 630 
L 169.091663 630 
z
" clip-path="url(#p182a6a4bd9)" style="fill: #ff0000; fill-opacity: 0.6; stroke: #000000; stroke-width: 0.719912; stroke-linejoin: miter"/>
   </g>
   <g id="patch_81">
    <path d="M 176.290785 630 
L 183.489907 630 
L 183.489907 215.828571 
L 176.290785 215.828571 
z
" clip-path="url(#p182a6a4bd9)" style="fill: #ff0000; fill-opacity: 0.6; stroke: #000000; stroke-width: 0.719912; stroke-linejoin: miter"/>
   </g>
   <g id="patch_82">
    <path d="M 183.489907 630 
L 190.68903 630 
L 190.68903 630 
L 183.489907 630 
z
" clip-path="url(#p182a6a4bd9)" style="fill: #ff0000; fill-opacity: 0.6; stroke: #000000; stroke-width: 0.719912; stroke-linejoin: miter"/>
   </g>
   <g id="patch_83">
    <path d="M 190.68903 630 
L 197.888152 630 
L 197.888152 526.457143 
L 190.68903 526.457143 
z
" clip-path="url(#p182a6a4bd9)" style="fill: #ff0000; fill-opacity: 0.6; stroke: #000000; stroke-width: 0.719912; stroke-linejoin: miter"/>
   </g>
   <g id="patch_84">
    <path d="M 197.888152 630 
L 205.087274 630 
L 205.087274 422.914286 
L 197.888152 422.914286 
z
" clip-path="url(#p182a6a4bd9)" style="fill: #ff0000; fill-opacity: 0.6; stroke: #000000; stroke-width: 0.719912; stroke-linejoin: miter"/>
   </g>
   <g id="patch_85">
    <path d="M 205.087274 630 
L 212.286396 630 
L 212.286396 526.457143 
L 205.087274 526.457143 
z
" clip-path="url(#p182a6a4bd9)" style="fill: #ff0000; fill-opacity: 0.6; stroke: #000000; stroke-width: 0.719912; stroke-linejoin: miter"/>
   </g>
   <g id="patch_86">
    <path d="M 212.286396 630 
L 219.485519 630 
L 219.485519 422.914286 
L 212.286396 422.914286 
z
" clip-path="url(#p182a6a4bd9)" style="fill: #ff0000; fill-opacity: 0.6; stroke: #000000; stroke-width: 0.719912; stroke-linejoin: miter"/>
   </g>
   <g id="patch_87">
    <path d="M 219.485519 630 
L 226.684641 630 
L 226.684641 526.457143 
L 219.485519 526.457143 
z
" clip-path="url(#p182a6a4bd9)" style="fill: #ff0000; fill-opacity: 0.6; stroke: #000000; stroke-width: 0.719912; stroke-linejoin: miter"/>
   </g>
   <g id="patch_88">
    <path d="M 226.684641 630 
L 233.883763 630 
L 233.883763 112.285714 
L 226.684641 112.285714 
z
" clip-path="url(#p182a6a4bd9)" style="fill: #ff0000; fill-opacity: 0.6; stroke: #000000; stroke-width: 0.719912; stroke-linejoin: miter"/>
   </g>
   <g id="patch_89">
    <path d="M 233.883763 630 
L 241.082885 630 
L 241.082885 215.828571 
L 233.883763 215.828571 
z
" clip-path="url(#p182a6a4bd9)" style="fill: #ff0000; fill-opacity: 0.6; stroke: #000000; stroke-width: 0.719912; stroke-linejoin: miter"/>
   </g>
   <g id="patch_90">
    <path d="M 241.082885 630 
L 248.282008 630 
L 248.282008 630 
L 241.082885 630 
z
" clip-path="url(#p182a6a4bd9)" style="fill: #ff0000; fill-opacity: 0.6; stroke: #000000; stroke-width: 0.719912; stroke-linejoin: miter"/>
   </g>
   <g id="patch_91">
    <path d="M 248.282008 630 
L 255.48113 630 
L 255.48113 422.914286 
L 248.282008 422.914286 
z
" clip-path="url(#p182a6a4bd9)" style="fill: #ff0000; fill-opacity: 0.6; stroke: #000000; stroke-width: 0.719912; stroke-linejoin: miter"/>
   </g>
   <g id="patch_92">
    <path d="M 255.48113 630 
L 262.680252 630 
L 262.680252 630 
L 255.48113 630 
z
" clip-path="url(#p182a6a4bd9)" style="fill: #ff0000; fill-opacity: 0.6; stroke: #000000; stroke-width: 0.719912; stroke-linejoin: miter"/>
   </g>
   <g id="patch_93">
    <path d="M 262.680252 630 
L 269.879374 630 
L 269.879374 526.457143 
L 262.680252 526.457143 
z
" clip-path="url(#p182a6a4bd9)" style="fill: #ff0000; fill-opacity: 0.6; stroke: #000000; stroke-width: 0.719912; stroke-linejoin: miter"/>
   </g>
   <g id="patch_94">
    <path d="M 269.879374 630 
L 277.078496 630 
L 277.078496 215.828571 
L 269.879374 215.828571 
z
" clip-path="url(#p182a6a4bd9)" style="fill: #ff0000; fill-opacity: 0.6; stroke: #000000; stroke-width: 0.719912; stroke-linejoin: miter"/>
   </g>
   <g id="patch_95">
    <path d="M 277.078496 630 
L 284.277619 630 
L 284.277619 422.914286 
L 277.078496 422.914286 
z
" clip-path="url(#p182a6a4bd9)" style="fill: #ff0000; fill-opacity: 0.6; stroke: #000000; stroke-width: 0.719912; stroke-linejoin: miter"/>
   </g>
   <g id="patch_96">
    <path d="M 284.277619 630 
L 291.476741 630 
L 291.476741 422.914286 
L 284.277619 422.914286 
z
" clip-path="url(#p182a6a4bd9)" style="fill: #ff0000; fill-opacity: 0.6; stroke: #000000; stroke-width: 0.719912; stroke-linejoin: miter"/>
   </g>
   <g id="patch_97">
    <path d="M 291.476741 630 
L 298.675863 630 
L 298.675863 422.914286 
L 291.476741 422.914286 
z
" clip-path="url(#p182a6a4bd9)" style="fill: #ff0000; fill-opacity: 0.6; stroke: #000000; stroke-width: 0.719912; stroke-linejoin: miter"/>
   </g>
   <g id="patch_98">
    <path d="M 298.675863 630 
L 305.874985 630 
L 305.874985 422.914286 
L 298.675863 422.914286 
z
" clip-path="url(#p182a6a4bd9)" style="fill: #ff0000; fill-opacity: 0.6; stroke: #000000; stroke-width: 0.719912; stroke-linejoin: miter"/>
   </g>
   <g id="patch_99">
    <path d="M 305.874985 630 
L 313.074108 630 
L 313.074108 630 
L 305.874985 630 
z
" clip-path="url(#p182a6a4bd9)" style="fill: #ff0000; fill-opacity: 0.6; stroke: #000000; stroke-width: 0.719912; stroke-linejoin: miter"/>
   </g>
   <g id="patch_100">
    <path d="M 313.074108 630 
L 320.27323 630 
L 320.27323 526.457143 
L 313.074108 526.457143 
z
" clip-path="url(#p182a6a4bd9)" style="fill: #ff0000; fill-opacity: 0.6; stroke: #000000; stroke-width: 0.719912; stroke-linejoin: miter"/>
   </g>
   <g id="patch_101">
    <path d="M 320.27323 630 
L 327.472352 630 
L 327.472352 630 
L 320.27323 630 
z
" clip-path="url(#p182a6a4bd9)" style="fill: #ff0000; fill-opacity: 0.6; stroke: #000000; stroke-width: 0.719912; stroke-linejoin: miter"/>
   </g>
   <g id="patch_102">
    <path d="M 327.472352 630 
L 334.671474 630 
L 334.671474 630 
L 327.472352 630 
z
" clip-path="url(#p182a6a4bd9)" style="fill: #ff0000; fill-opacity: 0.6; stroke: #000000; stroke-width: 0.719912; stroke-linejoin: miter"/>
   </g>
   <g id="patch_103">
    <path d="M 334.671474 630 
L 341.870597 630 
L 341.870597 630 
L 334.671474 630 
z
" clip-path="url(#p182a6a4bd9)" style="fill: #ff0000; fill-opacity: 0.6; stroke: #000000; stroke-width: 0.719912; stroke-linejoin: miter"/>
   </g>
   <g id="patch_104">
    <path d="M 341.870597 630 
L 349.069719 630 
L 349.069719 630 
L 341.870597 630 
z
" clip-path="url(#p182a6a4bd9)" style="fill: #ff0000; fill-opacity: 0.6; stroke: #000000; stroke-width: 0.719912; stroke-linejoin: miter"/>
   </g>
   <g id="patch_105">
    <path d="M 349.069719 630 
L 356.268841 630 
L 356.268841 630 
L 349.069719 630 
z
" clip-path="url(#p182a6a4bd9)" style="fill: #ff0000; fill-opacity: 0.6; stroke: #000000; stroke-width: 0.719912; stroke-linejoin: miter"/>
   </g>
   <g id="patch_106">
    <path d="M 356.268841 630 
L 363.467963 630 
L 363.467963 630 
L 356.268841 630 
z
" clip-path="url(#p182a6a4bd9)" style="fill: #ff0000; fill-opacity: 0.6; stroke: #000000; stroke-width: 0.719912; stroke-linejoin: miter"/>
   </g>
   <g id="patch_107">
    <path d="M 363.467963 630 
L 370.667085 630 
L 370.667085 630 
L 363.467963 630 
z
" clip-path="url(#p182a6a4bd9)" style="fill: #ff0000; fill-opacity: 0.6; stroke: #000000; stroke-width: 0.719912; stroke-linejoin: miter"/>
   </g>
   <g id="patch_108">
    <path d="M 370.667085 630 
L 377.866208 630 
L 377.866208 526.457143 
L 370.667085 526.457143 
z
" clip-path="url(#p182a6a4bd9)" style="fill: #ff0000; fill-opacity: 0.6; stroke: #000000; stroke-width: 0.719912; stroke-linejoin: miter"/>
   </g>
   <g id="patch_109">
    <path d="M 377.866208 630 
L 385.06533 630 
L 385.06533 630 
L 377.866208 630 
z
" clip-path="url(#p182a6a4bd9)" style="fill: #ff0000; fill-opacity: 0.6; stroke: #000000; stroke-width: 0.719912; stroke-linejoin: miter"/>
   </g>
   <g id="patch_110">
    <path d="M 385.06533 630 
L 392.264452 630 
L 392.264452 630 
L 385.06533 630 
z
" clip-path="url(#p182a6a4bd9)" style="fill: #ff0000; fill-opacity: 0.6; stroke: #000000; stroke-width: 0.719912; stroke-linejoin: miter"/>
   </g>
   <g id="patch_111">
    <path d="M 392.264452 630 
L 399.463574 630 
L 399.463574 630 
L 392.264452 630 
z
" clip-path="url(#p182a6a4bd9)" style="fill: #ff0000; fill-opacity: 0.6; stroke: #000000; stroke-width: 0.719912; stroke-linejoin: miter"/>
   </g>
   <g id="patch_112">
    <path d="M 399.463574 630 
L 406.662697 630 
L 406.662697 630 
L 399.463574 630 
z
" clip-path="url(#p182a6a4bd9)" style="fill: #ff0000; fill-opacity: 0.6; stroke: #000000; stroke-width: 0.719912; stroke-linejoin: miter"/>
   </g>
   <g id="patch_113">
    <path d="M 406.662697 630 
L 413.861819 630 
L 413.861819 422.914286 
L 406.662697 422.914286 
z
" clip-path="url(#p182a6a4bd9)" style="fill: #ff0000; fill-opacity: 0.6; stroke: #000000; stroke-width: 0.719912; stroke-linejoin: miter"/>
   </g>
   <g id="patch_114">
    <path d="M 413.861819 630 
L 421.060941 630 
L 421.060941 630 
L 413.861819 630 
z
" clip-path="url(#p182a6a4bd9)" style="fill: #ff0000; fill-opacity: 0.6; stroke: #000000; stroke-width: 0.719912; stroke-linejoin: miter"/>
   </g>
   <g id="patch_115">
    <path d="M 421.060941 630 
L 428.260063 630 
L 428.260063 630 
L 421.060941 630 
z
" clip-path="url(#p182a6a4bd9)" style="fill: #ff0000; fill-opacity: 0.6; stroke: #000000; stroke-width: 0.719912; stroke-linejoin: miter"/>
   </g>
   <g id="patch_116">
    <path d="M 428.260063 630 
L 435.459186 630 
L 435.459186 630 
L 428.260063 630 
z
" clip-path="url(#p182a6a4bd9)" style="fill: #ff0000; fill-opacity: 0.6; stroke: #000000; stroke-width: 0.719912; stroke-linejoin: miter"/>
   </g>
   <g id="patch_117">
    <path d="M 435.459186 630 
L 442.658308 630 
L 442.658308 526.457143 
L 435.459186 526.457143 
z
" clip-path="url(#p182a6a4bd9)" style="fill: #ff0000; fill-opacity: 0.6; stroke: #000000; stroke-width: 0.719912; stroke-linejoin: miter"/>
   </g>
   <g id="patch_118">
    <path d="M 442.658308 630 
L 449.85743 630 
L 449.85743 630 
L 442.658308 630 
z
" clip-path="url(#p182a6a4bd9)" style="fill: #ff0000; fill-opacity: 0.6; stroke: #000000; stroke-width: 0.719912; stroke-linejoin: miter"/>
   </g>
   <g id="patch_119">
    <path d="M 449.85743 630 
L 457.056552 630 
L 457.056552 630 
L 449.85743 630 
z
" clip-path="url(#p182a6a4bd9)" style="fill: #ff0000; fill-opacity: 0.6; stroke: #000000; stroke-width: 0.719912; stroke-linejoin: miter"/>
   </g>
   <g id="patch_120">
    <path d="M 457.056552 630 
L 464.255675 630 
L 464.255675 630 
L 457.056552 630 
z
" clip-path="url(#p182a6a4bd9)" style="fill: #ff0000; fill-opacity: 0.6; stroke: #000000; stroke-width: 0.719912; stroke-linejoin: miter"/>
   </g>
   <g id="patch_121">
    <path d="M 464.255675 630 
L 471.454797 630 
L 471.454797 630 
L 464.255675 630 
z
" clip-path="url(#p182a6a4bd9)" style="fill: #ff0000; fill-opacity: 0.6; stroke: #000000; stroke-width: 0.719912; stroke-linejoin: miter"/>
   </g>
   <g id="patch_122">
    <path d="M 471.454797 630 
L 478.653919 630 
L 478.653919 630 
L 471.454797 630 
z
" clip-path="url(#p182a6a4bd9)" style="fill: #ff0000; fill-opacity: 0.6; stroke: #000000; stroke-width: 0.719912; stroke-linejoin: miter"/>
   </g>
   <g id="patch_123">
    <path d="M 478.653919 630 
L 485.853041 630 
L 485.853041 630 
L 478.653919 630 
z
" clip-path="url(#p182a6a4bd9)" style="fill: #ff0000; fill-opacity: 0.6; stroke: #000000; stroke-width: 0.719912; stroke-linejoin: miter"/>
   </g>
   <g id="patch_124">
    <path d="M 485.853041 630 
L 493.052163 630 
L 493.052163 630 
L 485.853041 630 
z
" clip-path="url(#p182a6a4bd9)" style="fill: #ff0000; fill-opacity: 0.6; stroke: #000000; stroke-width: 0.719912; stroke-linejoin: miter"/>
   </g>
   <g id="patch_125">
    <path d="M 493.052163 630 
L 500.251286 630 
L 500.251286 630 
L 493.052163 630 
z
" clip-path="url(#p182a6a4bd9)" style="fill: #ff0000; fill-opacity: 0.6; stroke: #000000; stroke-width: 0.719912; stroke-linejoin: miter"/>
   </g>
   <g id="patch_126">
    <path d="M 500.251286 630 
L 507.450408 630 
L 507.450408 630 
L 500.251286 630 
z
" clip-path="url(#p182a6a4bd9)" style="fill: #ff0000; fill-opacity: 0.6; stroke: #000000; stroke-width: 0.719912; stroke-linejoin: miter"/>
   </g>
   <g id="patch_127">
    <path d="M 507.450408 630 
L 514.64953 630 
L 514.64953 630 
L 507.450408 630 
z
" clip-path="url(#p182a6a4bd9)" style="fill: #ff0000; fill-opacity: 0.6; stroke: #000000; stroke-width: 0.719912; stroke-linejoin: miter"/>
   </g>
   <g id="patch_128">
    <path d="M 514.64953 630 
L 521.848652 630 
L 521.848652 630 
L 514.64953 630 
z
" clip-path="url(#p182a6a4bd9)" style="fill: #ff0000; fill-opacity: 0.6; stroke: #000000; stroke-width: 0.719912; stroke-linejoin: miter"/>
   </g>
   <g id="patch_129">
    <path d="M 521.848652 630 
L 529.047775 630 
L 529.047775 526.457143 
L 521.848652 526.457143 
z
" clip-path="url(#p182a6a4bd9)" style="fill: #ff0000; fill-opacity: 0.6; stroke: #000000; stroke-width: 0.719912; stroke-linejoin: miter"/>
   </g>
   <g id="patch_130">
    <path d="M 529.047775 630 
L 536.246897 630 
L 536.246897 630 
L 529.047775 630 
z
" clip-path="url(#p182a6a4bd9)" style="fill: #ff0000; fill-opacity: 0.6; stroke: #000000; stroke-width: 0.719912; stroke-linejoin: miter"/>
   </g>
   <g id="patch_131">
    <path d="M 536.246897 630 
L 543.446019 630 
L 543.446019 526.457143 
L 536.246897 526.457143 
z
" clip-path="url(#p182a6a4bd9)" style="fill: #ff0000; fill-opacity: 0.6; stroke: #000000; stroke-width: 0.719912; stroke-linejoin: miter"/>
   </g>
   <g id="patch_132">
    <path d="M 543.446019 630 
L 550.645141 630 
L 550.645141 630 
L 543.446019 630 
z
" clip-path="url(#p182a6a4bd9)" style="fill: #ff0000; fill-opacity: 0.6; stroke: #000000; stroke-width: 0.719912; stroke-linejoin: miter"/>
   </g>
   <g id="patch_133">
    <path d="M 550.645141 630 
L 557.844264 630 
L 557.844264 630 
L 550.645141 630 
z
" clip-path="url(#p182a6a4bd9)" style="fill: #ff0000; fill-opacity: 0.6; stroke: #000000; stroke-width: 0.719912; stroke-linejoin: miter"/>
   </g>
   <g id="patch_134">
    <path d="M 557.844264 630 
L 565.043386 630 
L 565.043386 630 
L 557.844264 630 
z
" clip-path="url(#p182a6a4bd9)" style="fill: #ff0000; fill-opacity: 0.6; stroke: #000000; stroke-width: 0.719912; stroke-linejoin: miter"/>
   </g>
   <g id="patch_135">
    <path d="M 565.043386 630 
L 572.242508 630 
L 572.242508 630 
L 565.043386 630 
z
" clip-path="url(#p182a6a4bd9)" style="fill: #ff0000; fill-opacity: 0.6; stroke: #000000; stroke-width: 0.719912; stroke-linejoin: miter"/>
   </g>
   <g id="patch_136">
    <path d="M 572.242508 630 
L 579.44163 630 
L 579.44163 630 
L 572.242508 630 
z
" clip-path="url(#p182a6a4bd9)" style="fill: #ff0000; fill-opacity: 0.6; stroke: #000000; stroke-width: 0.719912; stroke-linejoin: miter"/>
   </g>
   <g id="patch_137">
    <path d="M 579.44163 630 
L 586.640752 630 
L 586.640752 630 
L 579.44163 630 
z
" clip-path="url(#p182a6a4bd9)" style="fill: #ff0000; fill-opacity: 0.6; stroke: #000000; stroke-width: 0.719912; stroke-linejoin: miter"/>
   </g>
   <g id="patch_138">
    <path d="M 586.640752 630 
L 593.839875 630 
L 593.839875 526.457143 
L 586.640752 526.457143 
z
" clip-path="url(#p182a6a4bd9)" style="fill: #ff0000; fill-opacity: 0.6; stroke: #000000; stroke-width: 0.719912; stroke-linejoin: miter"/>
   </g>
   <g id="patch_139">
    <path d="M 593.839875 630 
L 601.038997 630 
L 601.038997 526.457143 
L 593.839875 526.457143 
z
" clip-path="url(#p182a6a4bd9)" style="fill: #ff0000; fill-opacity: 0.6; stroke: #000000; stroke-width: 0.719912; stroke-linejoin: miter"/>
   </g>
   <g id="patch_140">
    <path d="M 601.038997 630 
L 608.238119 630 
L 608.238119 630 
L 601.038997 630 
z
" clip-path="url(#p182a6a4bd9)" style="fill: #ff0000; fill-opacity: 0.6; stroke: #000000; stroke-width: 0.719912; stroke-linejoin: miter"/>
   </g>
   <g id="patch_141">
    <path d="M 608.238119 630 
L 615.437241 630 
L 615.437241 630 
L 608.238119 630 
z
" clip-path="url(#p182a6a4bd9)" style="fill: #ff0000; fill-opacity: 0.6; stroke: #000000; stroke-width: 0.719912; stroke-linejoin: miter"/>
   </g>
   <g id="patch_142">
    <path d="M 615.437241 630 
L 622.636364 630 
L 622.636364 526.457143 
L 615.437241 526.457143 
z
" clip-path="url(#p182a6a4bd9)" style="fill: #ff0000; fill-opacity: 0.6; stroke: #000000; stroke-width: 0.719912; stroke-linejoin: miter"/>
   </g>
   <g id="matplotlib.axis_1">
    <g id="xtick_1">
     <g id="line2d_1">
      <defs>
       <path id="m5b9baabc8e" d="M 0 0 
L 0 3.5 
" style="stroke: #000000; stroke-width: 0.8"/>
      </defs>
      <g>
       <use xlink:href="#m5b9baabc8e" x="114.271661" y="630" style="stroke: #000000; stroke-width: 0.8"/>
      </g>
     </g>
     <g id="text_1">
      <!-- 0.0 -->
      <g transform="translate(106.320099 644.598438)scale(0.1 -0.1)">
       <defs>
        <path id="DejaVuSans-30" d="M 2034 4250 
Q 1547 4250 1301 3770 
Q 1056 3291 1056 2328 
Q 1056 1369 1301 889 
Q 1547 409 2034 409 
Q 2525 409 2770 889 
Q 3016 1369 3016 2328 
Q 3016 3291 2770 3770 
Q 2525 4250 2034 4250 
z
M 2034 4750 
Q 2819 4750 3233 4129 
Q 3647 3509 3647 2328 
Q 3647 1150 3233 529 
Q 2819 -91 2034 -91 
Q 1250 -91 836 529 
Q 422 1150 422 2328 
Q 422 3509 836 4129 
Q 1250 4750 2034 4750 
z
" transform="scale(0.015625)"/>
        <path id="DejaVuSans-2e" d="M 684 794 
L 1344 794 
L 1344 0 
L 684 0 
L 684 794 
z
" transform="scale(0.015625)"/>
       </defs>
       <use xlink:href="#DejaVuSans-30"/>
       <use xlink:href="#DejaVuSans-2e" x="63.623047"/>
       <use xlink:href="#DejaVuSans-30" x="95.410156"/>
      </g>
     </g>
    </g>
    <g id="xtick_2">
     <g id="line2d_2">
      <g>
       <use xlink:href="#m5b9baabc8e" x="208.516846" y="630" style="stroke: #000000; stroke-width: 0.8"/>
      </g>
     </g>
     <g id="text_2">
      <!-- 0.2 -->
      <g transform="translate(200.565284 644.598438)scale(0.1 -0.1)">
       <defs>
        <path id="DejaVuSans-32" d="M 1228 531 
L 3431 531 
L 3431 0 
L 469 0 
L 469 531 
Q 828 903 1448 1529 
Q 2069 2156 2228 2338 
Q 2531 2678 2651 2914 
Q 2772 3150 2772 3378 
Q 2772 3750 2511 3984 
Q 2250 4219 1831 4219 
Q 1534 4219 1204 4116 
Q 875 4013 500 3803 
L 500 4441 
Q 881 4594 1212 4672 
Q 1544 4750 1819 4750 
Q 2544 4750 2975 4387 
Q 3406 4025 3406 3419 
Q 3406 3131 3298 2873 
Q 3191 2616 2906 2266 
Q 2828 2175 2409 1742 
Q 1991 1309 1228 531 
z
" transform="scale(0.015625)"/>
       </defs>
       <use xlink:href="#DejaVuSans-30"/>
       <use xlink:href="#DejaVuSans-2e" x="63.623047"/>
       <use xlink:href="#DejaVuSans-32" x="95.410156"/>
      </g>
     </g>
    </g>
    <g id="xtick_3">
     <g id="line2d_3">
      <g>
       <use xlink:href="#m5b9baabc8e" x="302.762032" y="630" style="stroke: #000000; stroke-width: 0.8"/>
      </g>
     </g>
     <g id="text_3">
      <!-- 0.4 -->
      <g transform="translate(294.810469 644.598438)scale(0.1 -0.1)">
       <defs>
        <path id="DejaVuSans-34" d="M 2419 4116 
L 825 1625 
L 2419 1625 
L 2419 4116 
z
M 2253 4666 
L 3047 4666 
L 3047 1625 
L 3713 1625 
L 3713 1100 
L 3047 1100 
L 3047 0 
L 2419 0 
L 2419 1100 
L 313 1100 
L 313 1709 
L 2253 4666 
z
" transform="scale(0.015625)"/>
       </defs>
       <use xlink:href="#DejaVuSans-30"/>
       <use xlink:href="#DejaVuSans-2e" x="63.623047"/>
       <use xlink:href="#DejaVuSans-34" x="95.410156"/>
      </g>
     </g>
    </g>
    <g id="xtick_4">
     <g id="line2d_4">
      <g>
       <use xlink:href="#m5b9baabc8e" x="397.007217" y="630" style="stroke: #000000; stroke-width: 0.8"/>
      </g>
     </g>
     <g id="text_4">
      <!-- 0.6 -->
      <g transform="translate(389.055654 644.598438)scale(0.1 -0.1)">
       <defs>
        <path id="DejaVuSans-36" d="M 2113 2584 
Q 1688 2584 1439 2293 
Q 1191 2003 1191 1497 
Q 1191 994 1439 701 
Q 1688 409 2113 409 
Q 2538 409 2786 701 
Q 3034 994 3034 1497 
Q 3034 2003 2786 2293 
Q 2538 2584 2113 2584 
z
M 3366 4563 
L 3366 3988 
Q 3128 4100 2886 4159 
Q 2644 4219 2406 4219 
Q 1781 4219 1451 3797 
Q 1122 3375 1075 2522 
Q 1259 2794 1537 2939 
Q 1816 3084 2150 3084 
Q 2853 3084 3261 2657 
Q 3669 2231 3669 1497 
Q 3669 778 3244 343 
Q 2819 -91 2113 -91 
Q 1303 -91 875 529 
Q 447 1150 447 2328 
Q 447 3434 972 4092 
Q 1497 4750 2381 4750 
Q 2619 4750 2861 4703 
Q 3103 4656 3366 4563 
z
" transform="scale(0.015625)"/>
       </defs>
       <use xlink:href="#DejaVuSans-30"/>
       <use xlink:href="#DejaVuSans-2e" x="63.623047"/>
       <use xlink:href="#DejaVuSans-36" x="95.410156"/>
      </g>
     </g>
    </g>
    <g id="xtick_5">
     <g id="line2d_5">
      <g>
       <use xlink:href="#m5b9baabc8e" x="491.252402" y="630" style="stroke: #000000; stroke-width: 0.8"/>
      </g>
     </g>
     <g id="text_5">
      <!-- 0.8 -->
      <g transform="translate(483.300839 644.598438)scale(0.1 -0.1)">
       <defs>
        <path id="DejaVuSans-38" d="M 2034 2216 
Q 1584 2216 1326 1975 
Q 1069 1734 1069 1313 
Q 1069 891 1326 650 
Q 1584 409 2034 409 
Q 2484 409 2743 651 
Q 3003 894 3003 1313 
Q 3003 1734 2745 1975 
Q 2488 2216 2034 2216 
z
M 1403 2484 
Q 997 2584 770 2862 
Q 544 3141 544 3541 
Q 544 4100 942 4425 
Q 1341 4750 2034 4750 
Q 2731 4750 3128 4425 
Q 3525 4100 3525 3541 
Q 3525 3141 3298 2862 
Q 3072 2584 2669 2484 
Q 3125 2378 3379 2068 
Q 3634 1759 3634 1313 
Q 3634 634 3220 271 
Q 2806 -91 2034 -91 
Q 1263 -91 848 271 
Q 434 634 434 1313 
Q 434 1759 690 2068 
Q 947 2378 1403 2484 
z
M 1172 3481 
Q 1172 3119 1398 2916 
Q 1625 2713 2034 2713 
Q 2441 2713 2670 2916 
Q 2900 3119 2900 3481 
Q 2900 3844 2670 4047 
Q 2441 4250 2034 4250 
Q 1625 4250 1398 4047 
Q 1172 3844 1172 3481 
z
" transform="scale(0.015625)"/>
       </defs>
       <use xlink:href="#DejaVuSans-30"/>
       <use xlink:href="#DejaVuSans-2e" x="63.623047"/>
       <use xlink:href="#DejaVuSans-38" x="95.410156"/>
      </g>
     </g>
    </g>
    <g id="xtick_6">
     <g id="line2d_6">
      <g>
       <use xlink:href="#m5b9baabc8e" x="585.497587" y="630" style="stroke: #000000; stroke-width: 0.8"/>
      </g>
     </g>
     <g id="text_6">
      <!-- 1.0 -->
      <g transform="translate(577.546024 644.598438)scale(0.1 -0.1)">
       <defs>
        <path id="DejaVuSans-31" d="M 794 531 
L 1825 531 
L 1825 4091 
L 703 3866 
L 703 4441 
L 1819 4666 
L 2450 4666 
L 2450 531 
L 3481 531 
L 3481 0 
L 794 0 
L 794 531 
z
" transform="scale(0.015625)"/>
       </defs>
       <use xlink:href="#DejaVuSans-31"/>
       <use xlink:href="#DejaVuSans-2e" x="63.623047"/>
       <use xlink:href="#DejaVuSans-30" x="95.410156"/>
      </g>
     </g>
    </g>
   </g>
   <g id="matplotlib.axis_2">
    <g id="ytick_1">
     <g id="line2d_7">
      <defs>
       <path id="m086ffce999" d="M 0 0 
L -3.5 0 
" style="stroke: #000000; stroke-width: 0.8"/>
      </defs>
      <g>
       <use xlink:href="#m086ffce999" x="90" y="630" style="stroke: #000000; stroke-width: 0.8"/>
      </g>
     </g>
     <g id="text_7">
      <!-- 0 -->
      <g transform="translate(76.6375 633.799219)scale(0.1 -0.1)">
       <use xlink:href="#DejaVuSans-30"/>
      </g>
     </g>
    </g>
    <g id="ytick_2">
     <g id="line2d_8">
      <g>
       <use xlink:href="#m086ffce999" x="90" y="526.457143" style="stroke: #000000; stroke-width: 0.8"/>
      </g>
     </g>
     <g id="text_8">
      <!-- 1 -->
      <g transform="translate(76.6375 530.256362)scale(0.1 -0.1)">
       <use xlink:href="#DejaVuSans-31"/>
      </g>
     </g>
    </g>
    <g id="ytick_3">
     <g id="line2d_9">
      <g>
       <use xlink:href="#m086ffce999" x="90" y="422.914286" style="stroke: #000000; stroke-width: 0.8"/>
      </g>
     </g>
     <g id="text_9">
      <!-- 2 -->
      <g transform="translate(76.6375 426.713504)scale(0.1 -0.1)">
       <use xlink:href="#DejaVuSans-32"/>
      </g>
     </g>
    </g>
    <g id="ytick_4">
     <g id="line2d_10">
      <g>
       <use xlink:href="#m086ffce999" x="90" y="319.371429" style="stroke: #000000; stroke-width: 0.8"/>
      </g>
     </g>
     <g id="text_10">
      <!-- 3 -->
      <g transform="translate(76.6375 323.170647)scale(0.1 -0.1)">
       <defs>
        <path id="DejaVuSans-33" d="M 2597 2516 
Q 3050 2419 3304 2112 
Q 3559 1806 3559 1356 
Q 3559 666 3084 287 
Q 2609 -91 1734 -91 
Q 1441 -91 1130 -33 
Q 819 25 488 141 
L 488 750 
Q 750 597 1062 519 
Q 1375 441 1716 441 
Q 2309 441 2620 675 
Q 2931 909 2931 1356 
Q 2931 1769 2642 2001 
Q 2353 2234 1838 2234 
L 1294 2234 
L 1294 2753 
L 1863 2753 
Q 2328 2753 2575 2939 
Q 2822 3125 2822 3475 
Q 2822 3834 2567 4026 
Q 2313 4219 1838 4219 
Q 1578 4219 1281 4162 
Q 984 4106 628 3988 
L 628 4550 
Q 988 4650 1302 4700 
Q 1616 4750 1894 4750 
Q 2613 4750 3031 4423 
Q 3450 4097 3450 3541 
Q 3450 3153 3228 2886 
Q 3006 2619 2597 2516 
z
" transform="scale(0.015625)"/>
       </defs>
       <use xlink:href="#DejaVuSans-33"/>
      </g>
     </g>
    </g>
    <g id="ytick_5">
     <g id="line2d_11">
      <g>
       <use xlink:href="#m086ffce999" x="90" y="215.828571" style="stroke: #000000; stroke-width: 0.8"/>
      </g>
     </g>
     <g id="text_11">
      <!-- 4 -->
      <g transform="translate(76.6375 219.62779)scale(0.1 -0.1)">
       <use xlink:href="#DejaVuSans-34"/>
      </g>
     </g>
    </g>
    <g id="ytick_6">
     <g id="line2d_12">
      <g>
       <use xlink:href="#m086ffce999" x="90" y="112.285714" style="stroke: #000000; stroke-width: 0.8"/>
      </g>
     </g>
     <g id="text_12">
      <!-- 5 -->
      <g transform="translate(76.6375 116.084933)scale(0.1 -0.1)">
       <defs>
        <path id="DejaVuSans-35" d="M 691 4666 
L 3169 4666 
L 3169 4134 
L 1269 4134 
L 1269 2991 
Q 1406 3038 1543 3061 
Q 1681 3084 1819 3084 
Q 2600 3084 3056 2656 
Q 3513 2228 3513 1497 
Q 3513 744 3044 326 
Q 2575 -91 1722 -91 
Q 1428 -91 1123 -41 
Q 819 9 494 109 
L 494 744 
Q 775 591 1075 516 
Q 1375 441 1709 441 
Q 2250 441 2565 725 
Q 2881 1009 2881 1497 
Q 2881 1984 2565 2268 
Q 2250 2553 1709 2553 
Q 1456 2553 1204 2497 
Q 953 2441 691 2322 
L 691 4666 
z
" transform="scale(0.015625)"/>
       </defs>
       <use xlink:href="#DejaVuSans-35"/>
      </g>
     </g>
    </g>
    <g id="text_13">
     <!-- Count -->
     <g transform="translate(70.557812 373.048437)rotate(-90)scale(0.1 -0.1)">
      <defs>
       <path id="DejaVuSans-43" d="M 4122 4306 
L 4122 3641 
Q 3803 3938 3442 4084 
Q 3081 4231 2675 4231 
Q 1875 4231 1450 3742 
Q 1025 3253 1025 2328 
Q 1025 1406 1450 917 
Q 1875 428 2675 428 
Q 3081 428 3442 575 
Q 3803 722 4122 1019 
L 4122 359 
Q 3791 134 3420 21 
Q 3050 -91 2638 -91 
Q 1578 -91 968 557 
Q 359 1206 359 2328 
Q 359 3453 968 4101 
Q 1578 4750 2638 4750 
Q 3056 4750 3426 4639 
Q 3797 4528 4122 4306 
z
" transform="scale(0.015625)"/>
       <path id="DejaVuSans-6f" d="M 1959 3097 
Q 1497 3097 1228 2736 
Q 959 2375 959 1747 
Q 959 1119 1226 758 
Q 1494 397 1959 397 
Q 2419 397 2687 759 
Q 2956 1122 2956 1747 
Q 2956 2369 2687 2733 
Q 2419 3097 1959 3097 
z
M 1959 3584 
Q 2709 3584 3137 3096 
Q 3566 2609 3566 1747 
Q 3566 888 3137 398 
Q 2709 -91 1959 -91 
Q 1206 -91 779 398 
Q 353 888 353 1747 
Q 353 2609 779 3096 
Q 1206 3584 1959 3584 
z
" transform="scale(0.015625)"/>
       <path id="DejaVuSans-75" d="M 544 1381 
L 544 3500 
L 1119 3500 
L 1119 1403 
Q 1119 906 1312 657 
Q 1506 409 1894 409 
Q 2359 409 2629 706 
Q 2900 1003 2900 1516 
L 2900 3500 
L 3475 3500 
L 3475 0 
L 2900 0 
L 2900 538 
Q 2691 219 2414 64 
Q 2138 -91 1772 -91 
Q 1169 -91 856 284 
Q 544 659 544 1381 
z
M 1991 3584 
L 1991 3584 
z
" transform="scale(0.015625)"/>
       <path id="DejaVuSans-6e" d="M 3513 2113 
L 3513 0 
L 2938 0 
L 2938 2094 
Q 2938 2591 2744 2837 
Q 2550 3084 2163 3084 
Q 1697 3084 1428 2787 
Q 1159 2491 1159 1978 
L 1159 0 
L 581 0 
L 581 3500 
L 1159 3500 
L 1159 2956 
Q 1366 3272 1645 3428 
Q 1925 3584 2291 3584 
Q 2894 3584 3203 3211 
Q 3513 2838 3513 2113 
z
" transform="scale(0.015625)"/>
       <path id="DejaVuSans-74" d="M 1172 4494 
L 1172 3500 
L 2356 3500 
L 2356 3053 
L 1172 3053 
L 1172 1153 
Q 1172 725 1289 603 
Q 1406 481 1766 481 
L 2356 481 
L 2356 0 
L 1766 0 
Q 1100 0 847 248 
Q 594 497 594 1153 
L 594 3053 
L 172 3053 
L 172 3500 
L 594 3500 
L 594 4494 
L 1172 4494 
z
" transform="scale(0.015625)"/>
      </defs>
      <use xlink:href="#DejaVuSans-43"/>
      <use xlink:href="#DejaVuSans-6f" x="69.824219"/>
      <use xlink:href="#DejaVuSans-75" x="131.005859"/>
      <use xlink:href="#DejaVuSans-6e" x="194.384766"/>
      <use xlink:href="#DejaVuSans-74" x="257.763672"/>
     </g>
    </g>
   </g>
   <g id="patch_143">
    <path d="M 90 630 
L 90 86.4 
" style="fill: none; stroke: #000000; stroke-width: 0.8; stroke-linejoin: miter; stroke-linecap: square"/>
   </g>
   <g id="patch_144">
    <path d="M 648 630 
L 648 86.4 
" style="fill: none; stroke: #000000; stroke-width: 0.8; stroke-linejoin: miter; stroke-linecap: square"/>
   </g>
   <g id="patch_145">
    <path d="M 90 630 
L 648 630 
" style="fill: none; stroke: #000000; stroke-width: 0.8; stroke-linejoin: miter; stroke-linecap: square"/>
   </g>
   <g id="patch_146">
    <path d="M 90 86.4 
L 648 86.4 
" style="fill: none; stroke: #000000; stroke-width: 0.8; stroke-linejoin: miter; stroke-linecap: square"/>
   </g>
   <g id="text_14">
    <!-- HILICneg_area_QCext - Variance between QC raw and normalized (filtered metabolites) -->
    <g transform="translate(106.993125 80.4)scale(0.12 -0.12)">
     <defs>
      <path id="DejaVuSans-48" d="M 628 4666 
L 1259 4666 
L 1259 2753 
L 3553 2753 
L 3553 4666 
L 4184 4666 
L 4184 0 
L 3553 0 
L 3553 2222 
L 1259 2222 
L 1259 0 
L 628 0 
L 628 4666 
z
" transform="scale(0.015625)"/>
      <path id="DejaVuSans-49" d="M 628 4666 
L 1259 4666 
L 1259 0 
L 628 0 
L 628 4666 
z
" transform="scale(0.015625)"/>
      <path id="DejaVuSans-4c" d="M 628 4666 
L 1259 4666 
L 1259 531 
L 3531 531 
L 3531 0 
L 628 0 
L 628 4666 
z
" transform="scale(0.015625)"/>
      <path id="DejaVuSans-65" d="M 3597 1894 
L 3597 1613 
L 953 1613 
Q 991 1019 1311 708 
Q 1631 397 2203 397 
Q 2534 397 2845 478 
Q 3156 559 3463 722 
L 3463 178 
Q 3153 47 2828 -22 
Q 2503 -91 2169 -91 
Q 1331 -91 842 396 
Q 353 884 353 1716 
Q 353 2575 817 3079 
Q 1281 3584 2069 3584 
Q 2775 3584 3186 3129 
Q 3597 2675 3597 1894 
z
M 3022 2063 
Q 3016 2534 2758 2815 
Q 2500 3097 2075 3097 
Q 1594 3097 1305 2825 
Q 1016 2553 972 2059 
L 3022 2063 
z
" transform="scale(0.015625)"/>
      <path id="DejaVuSans-67" d="M 2906 1791 
Q 2906 2416 2648 2759 
Q 2391 3103 1925 3103 
Q 1463 3103 1205 2759 
Q 947 2416 947 1791 
Q 947 1169 1205 825 
Q 1463 481 1925 481 
Q 2391 481 2648 825 
Q 2906 1169 2906 1791 
z
M 3481 434 
Q 3481 -459 3084 -895 
Q 2688 -1331 1869 -1331 
Q 1566 -1331 1297 -1286 
Q 1028 -1241 775 -1147 
L 775 -588 
Q 1028 -725 1275 -790 
Q 1522 -856 1778 -856 
Q 2344 -856 2625 -561 
Q 2906 -266 2906 331 
L 2906 616 
Q 2728 306 2450 153 
Q 2172 0 1784 0 
Q 1141 0 747 490 
Q 353 981 353 1791 
Q 353 2603 747 3093 
Q 1141 3584 1784 3584 
Q 2172 3584 2450 3431 
Q 2728 3278 2906 2969 
L 2906 3500 
L 3481 3500 
L 3481 434 
z
" transform="scale(0.015625)"/>
      <path id="DejaVuSans-5f" d="M 3263 -1063 
L 3263 -1509 
L -63 -1509 
L -63 -1063 
L 3263 -1063 
z
" transform="scale(0.015625)"/>
      <path id="DejaVuSans-61" d="M 2194 1759 
Q 1497 1759 1228 1600 
Q 959 1441 959 1056 
Q 959 750 1161 570 
Q 1363 391 1709 391 
Q 2188 391 2477 730 
Q 2766 1069 2766 1631 
L 2766 1759 
L 2194 1759 
z
M 3341 1997 
L 3341 0 
L 2766 0 
L 2766 531 
Q 2569 213 2275 61 
Q 1981 -91 1556 -91 
Q 1019 -91 701 211 
Q 384 513 384 1019 
Q 384 1609 779 1909 
Q 1175 2209 1959 2209 
L 2766 2209 
L 2766 2266 
Q 2766 2663 2505 2880 
Q 2244 3097 1772 3097 
Q 1472 3097 1187 3025 
Q 903 2953 641 2809 
L 641 3341 
Q 956 3463 1253 3523 
Q 1550 3584 1831 3584 
Q 2591 3584 2966 3190 
Q 3341 2797 3341 1997 
z
" transform="scale(0.015625)"/>
      <path id="DejaVuSans-72" d="M 2631 2963 
Q 2534 3019 2420 3045 
Q 2306 3072 2169 3072 
Q 1681 3072 1420 2755 
Q 1159 2438 1159 1844 
L 1159 0 
L 581 0 
L 581 3500 
L 1159 3500 
L 1159 2956 
Q 1341 3275 1631 3429 
Q 1922 3584 2338 3584 
Q 2397 3584 2469 3576 
Q 2541 3569 2628 3553 
L 2631 2963 
z
" transform="scale(0.015625)"/>
      <path id="DejaVuSans-51" d="M 2522 4238 
Q 1834 4238 1429 3725 
Q 1025 3213 1025 2328 
Q 1025 1447 1429 934 
Q 1834 422 2522 422 
Q 3209 422 3611 934 
Q 4013 1447 4013 2328 
Q 4013 3213 3611 3725 
Q 3209 4238 2522 4238 
z
M 3406 84 
L 4238 -825 
L 3475 -825 
L 2784 -78 
Q 2681 -84 2626 -87 
Q 2572 -91 2522 -91 
Q 1538 -91 948 567 
Q 359 1225 359 2328 
Q 359 3434 948 4092 
Q 1538 4750 2522 4750 
Q 3503 4750 4090 4092 
Q 4678 3434 4678 2328 
Q 4678 1516 4351 937 
Q 4025 359 3406 84 
z
" transform="scale(0.015625)"/>
      <path id="DejaVuSans-78" d="M 3513 3500 
L 2247 1797 
L 3578 0 
L 2900 0 
L 1881 1375 
L 863 0 
L 184 0 
L 1544 1831 
L 300 3500 
L 978 3500 
L 1906 2253 
L 2834 3500 
L 3513 3500 
z
" transform="scale(0.015625)"/>
      <path id="DejaVuSans-20" transform="scale(0.015625)"/>
      <path id="DejaVuSans-2d" d="M 313 2009 
L 1997 2009 
L 1997 1497 
L 313 1497 
L 313 2009 
z
" transform="scale(0.015625)"/>
      <path id="DejaVuSans-56" d="M 1831 0 
L 50 4666 
L 709 4666 
L 2188 738 
L 3669 4666 
L 4325 4666 
L 2547 0 
L 1831 0 
z
" transform="scale(0.015625)"/>
      <path id="DejaVuSans-69" d="M 603 3500 
L 1178 3500 
L 1178 0 
L 603 0 
L 603 3500 
z
M 603 4863 
L 1178 4863 
L 1178 4134 
L 603 4134 
L 603 4863 
z
" transform="scale(0.015625)"/>
      <path id="DejaVuSans-63" d="M 3122 3366 
L 3122 2828 
Q 2878 2963 2633 3030 
Q 2388 3097 2138 3097 
Q 1578 3097 1268 2742 
Q 959 2388 959 1747 
Q 959 1106 1268 751 
Q 1578 397 2138 397 
Q 2388 397 2633 464 
Q 2878 531 3122 666 
L 3122 134 
Q 2881 22 2623 -34 
Q 2366 -91 2075 -91 
Q 1284 -91 818 406 
Q 353 903 353 1747 
Q 353 2603 823 3093 
Q 1294 3584 2113 3584 
Q 2378 3584 2631 3529 
Q 2884 3475 3122 3366 
z
" transform="scale(0.015625)"/>
      <path id="DejaVuSans-62" d="M 3116 1747 
Q 3116 2381 2855 2742 
Q 2594 3103 2138 3103 
Q 1681 3103 1420 2742 
Q 1159 2381 1159 1747 
Q 1159 1113 1420 752 
Q 1681 391 2138 391 
Q 2594 391 2855 752 
Q 3116 1113 3116 1747 
z
M 1159 2969 
Q 1341 3281 1617 3432 
Q 1894 3584 2278 3584 
Q 2916 3584 3314 3078 
Q 3713 2572 3713 1747 
Q 3713 922 3314 415 
Q 2916 -91 2278 -91 
Q 1894 -91 1617 61 
Q 1341 213 1159 525 
L 1159 0 
L 581 0 
L 581 4863 
L 1159 4863 
L 1159 2969 
z
" transform="scale(0.015625)"/>
      <path id="DejaVuSans-77" d="M 269 3500 
L 844 3500 
L 1563 769 
L 2278 3500 
L 2956 3500 
L 3675 769 
L 4391 3500 
L 4966 3500 
L 4050 0 
L 3372 0 
L 2619 2869 
L 1863 0 
L 1184 0 
L 269 3500 
z
" transform="scale(0.015625)"/>
      <path id="DejaVuSans-64" d="M 2906 2969 
L 2906 4863 
L 3481 4863 
L 3481 0 
L 2906 0 
L 2906 525 
Q 2725 213 2448 61 
Q 2172 -91 1784 -91 
Q 1150 -91 751 415 
Q 353 922 353 1747 
Q 353 2572 751 3078 
Q 1150 3584 1784 3584 
Q 2172 3584 2448 3432 
Q 2725 3281 2906 2969 
z
M 947 1747 
Q 947 1113 1208 752 
Q 1469 391 1925 391 
Q 2381 391 2643 752 
Q 2906 1113 2906 1747 
Q 2906 2381 2643 2742 
Q 2381 3103 1925 3103 
Q 1469 3103 1208 2742 
Q 947 2381 947 1747 
z
" transform="scale(0.015625)"/>
      <path id="DejaVuSans-6d" d="M 3328 2828 
Q 3544 3216 3844 3400 
Q 4144 3584 4550 3584 
Q 5097 3584 5394 3201 
Q 5691 2819 5691 2113 
L 5691 0 
L 5113 0 
L 5113 2094 
Q 5113 2597 4934 2840 
Q 4756 3084 4391 3084 
Q 3944 3084 3684 2787 
Q 3425 2491 3425 1978 
L 3425 0 
L 2847 0 
L 2847 2094 
Q 2847 2600 2669 2842 
Q 2491 3084 2119 3084 
Q 1678 3084 1418 2786 
Q 1159 2488 1159 1978 
L 1159 0 
L 581 0 
L 581 3500 
L 1159 3500 
L 1159 2956 
Q 1356 3278 1631 3431 
Q 1906 3584 2284 3584 
Q 2666 3584 2933 3390 
Q 3200 3197 3328 2828 
z
" transform="scale(0.015625)"/>
      <path id="DejaVuSans-6c" d="M 603 4863 
L 1178 4863 
L 1178 0 
L 603 0 
L 603 4863 
z
" transform="scale(0.015625)"/>
      <path id="DejaVuSans-7a" d="M 353 3500 
L 3084 3500 
L 3084 2975 
L 922 459 
L 3084 459 
L 3084 0 
L 275 0 
L 275 525 
L 2438 3041 
L 353 3041 
L 353 3500 
z
" transform="scale(0.015625)"/>
      <path id="DejaVuSans-28" d="M 1984 4856 
Q 1566 4138 1362 3434 
Q 1159 2731 1159 2009 
Q 1159 1288 1364 580 
Q 1569 -128 1984 -844 
L 1484 -844 
Q 1016 -109 783 600 
Q 550 1309 550 2009 
Q 550 2706 781 3412 
Q 1013 4119 1484 4856 
L 1984 4856 
z
" transform="scale(0.015625)"/>
      <path id="DejaVuSans-66" d="M 2375 4863 
L 2375 4384 
L 1825 4384 
Q 1516 4384 1395 4259 
Q 1275 4134 1275 3809 
L 1275 3500 
L 2222 3500 
L 2222 3053 
L 1275 3053 
L 1275 0 
L 697 0 
L 697 3053 
L 147 3053 
L 147 3500 
L 697 3500 
L 697 3744 
Q 697 4328 969 4595 
Q 1241 4863 1831 4863 
L 2375 4863 
z
" transform="scale(0.015625)"/>
      <path id="DejaVuSans-73" d="M 2834 3397 
L 2834 2853 
Q 2591 2978 2328 3040 
Q 2066 3103 1784 3103 
Q 1356 3103 1142 2972 
Q 928 2841 928 2578 
Q 928 2378 1081 2264 
Q 1234 2150 1697 2047 
L 1894 2003 
Q 2506 1872 2764 1633 
Q 3022 1394 3022 966 
Q 3022 478 2636 193 
Q 2250 -91 1575 -91 
Q 1294 -91 989 -36 
Q 684 19 347 128 
L 347 722 
Q 666 556 975 473 
Q 1284 391 1588 391 
Q 1994 391 2212 530 
Q 2431 669 2431 922 
Q 2431 1156 2273 1281 
Q 2116 1406 1581 1522 
L 1381 1569 
Q 847 1681 609 1914 
Q 372 2147 372 2553 
Q 372 3047 722 3315 
Q 1072 3584 1716 3584 
Q 2034 3584 2315 3537 
Q 2597 3491 2834 3397 
z
" transform="scale(0.015625)"/>
      <path id="DejaVuSans-29" d="M 513 4856 
L 1013 4856 
Q 1481 4119 1714 3412 
Q 1947 2706 1947 2009 
Q 1947 1309 1714 600 
Q 1481 -109 1013 -844 
L 513 -844 
Q 928 -128 1133 580 
Q 1338 1288 1338 2009 
Q 1338 2731 1133 3434 
Q 928 4138 513 4856 
z
" transform="scale(0.015625)"/>
     </defs>
     <use xlink:href="#DejaVuSans-48"/>
     <use xlink:href="#DejaVuSans-49" x="75.195312"/>
     <use xlink:href="#DejaVuSans-4c" x="104.6875"/>
     <use xlink:href="#DejaVuSans-49" x="160.400391"/>
     <use xlink:href="#DejaVuSans-43" x="189.892578"/>
     <use xlink:href="#DejaVuSans-6e" x="259.716797"/>
     <use xlink:href="#DejaVuSans-65" x="323.095703"/>
     <use xlink:href="#DejaVuSans-67" x="384.619141"/>
     <use xlink:href="#DejaVuSans-5f" x="448.095703"/>
     <use xlink:href="#DejaVuSans-61" x="498.095703"/>
     <use xlink:href="#DejaVuSans-72" x="559.375"/>
     <use xlink:href="#DejaVuSans-65" x="598.238281"/>
     <use xlink:href="#DejaVuSans-61" x="659.761719"/>
     <use xlink:href="#DejaVuSans-5f" x="721.041016"/>
     <use xlink:href="#DejaVuSans-51" x="771.041016"/>
     <use xlink:href="#DejaVuSans-43" x="849.751953"/>
     <use xlink:href="#DejaVuSans-65" x="919.576172"/>
     <use xlink:href="#DejaVuSans-78" x="979.349609"/>
     <use xlink:href="#DejaVuSans-74" x="1038.529297"/>
     <use xlink:href="#DejaVuSans-20" x="1077.738281"/>
     <use xlink:href="#DejaVuSans-2d" x="1109.525391"/>
     <use xlink:href="#DejaVuSans-20" x="1145.609375"/>
     <use xlink:href="#DejaVuSans-56" x="1177.396484"/>
     <use xlink:href="#DejaVuSans-61" x="1238.054688"/>
     <use xlink:href="#DejaVuSans-72" x="1299.333984"/>
     <use xlink:href="#DejaVuSans-69" x="1340.447266"/>
     <use xlink:href="#DejaVuSans-61" x="1368.230469"/>
     <use xlink:href="#DejaVuSans-6e" x="1429.509766"/>
     <use xlink:href="#DejaVuSans-63" x="1492.888672"/>
     <use xlink:href="#DejaVuSans-65" x="1547.869141"/>
     <use xlink:href="#DejaVuSans-20" x="1609.392578"/>
     <use xlink:href="#DejaVuSans-62" x="1641.179688"/>
     <use xlink:href="#DejaVuSans-65" x="1704.65625"/>
     <use xlink:href="#DejaVuSans-74" x="1766.179688"/>
     <use xlink:href="#DejaVuSans-77" x="1805.388672"/>
     <use xlink:href="#DejaVuSans-65" x="1887.175781"/>
     <use xlink:href="#DejaVuSans-65" x="1948.699219"/>
     <use xlink:href="#DejaVuSans-6e" x="2010.222656"/>
     <use xlink:href="#DejaVuSans-20" x="2073.601562"/>
     <use xlink:href="#DejaVuSans-51" x="2105.388672"/>
     <use xlink:href="#DejaVuSans-43" x="2184.099609"/>
     <use xlink:href="#DejaVuSans-20" x="2253.923828"/>
     <use xlink:href="#DejaVuSans-72" x="2285.710938"/>
     <use xlink:href="#DejaVuSans-61" x="2326.824219"/>
     <use xlink:href="#DejaVuSans-77" x="2388.103516"/>
     <use xlink:href="#DejaVuSans-20" x="2469.890625"/>
     <use xlink:href="#DejaVuSans-61" x="2501.677734"/>
     <use xlink:href="#DejaVuSans-6e" x="2562.957031"/>
     <use xlink:href="#DejaVuSans-64" x="2626.335938"/>
     <use xlink:href="#DejaVuSans-20" x="2689.8125"/>
     <use xlink:href="#DejaVuSans-6e" x="2721.599609"/>
     <use xlink:href="#DejaVuSans-6f" x="2784.978516"/>
     <use xlink:href="#DejaVuSans-72" x="2846.160156"/>
     <use xlink:href="#DejaVuSans-6d" x="2885.523438"/>
     <use xlink:href="#DejaVuSans-61" x="2982.935547"/>
     <use xlink:href="#DejaVuSans-6c" x="3044.214844"/>
     <use xlink:href="#DejaVuSans-69" x="3071.998047"/>
     <use xlink:href="#DejaVuSans-7a" x="3099.78125"/>
     <use xlink:href="#DejaVuSans-65" x="3152.271484"/>
     <use xlink:href="#DejaVuSans-64" x="3213.794922"/>
     <use xlink:href="#DejaVuSans-20" x="3277.271484"/>
     <use xlink:href="#DejaVuSans-28" x="3309.058594"/>
     <use xlink:href="#DejaVuSans-66" x="3348.072266"/>
     <use xlink:href="#DejaVuSans-69" x="3383.277344"/>
     <use xlink:href="#DejaVuSans-6c" x="3411.060547"/>
     <use xlink:href="#DejaVuSans-74" x="3438.84375"/>
     <use xlink:href="#DejaVuSans-65" x="3478.052734"/>
     <use xlink:href="#DejaVuSans-72" x="3539.576172"/>
     <use xlink:href="#DejaVuSans-65" x="3578.439453"/>
     <use xlink:href="#DejaVuSans-64" x="3639.962891"/>
     <use xlink:href="#DejaVuSans-20" x="3703.439453"/>
     <use xlink:href="#DejaVuSans-6d" x="3735.226562"/>
     <use xlink:href="#DejaVuSans-65" x="3832.638672"/>
     <use xlink:href="#DejaVuSans-74" x="3894.162109"/>
     <use xlink:href="#DejaVuSans-61" x="3933.371094"/>
     <use xlink:href="#DejaVuSans-62" x="3994.650391"/>
     <use xlink:href="#DejaVuSans-6f" x="4058.126953"/>
     <use xlink:href="#DejaVuSans-6c" x="4119.308594"/>
     <use xlink:href="#DejaVuSans-69" x="4147.091797"/>
     <use xlink:href="#DejaVuSans-74" x="4174.875"/>
     <use xlink:href="#DejaVuSans-65" x="4214.083984"/>
     <use xlink:href="#DejaVuSans-73" x="4275.607422"/>
     <use xlink:href="#DejaVuSans-29" x="4327.707031"/>
    </g>
   </g>
   <g id="legend_1">
    <g id="patch_147">
     <path d="M 530.785938 124.3125 
L 641 124.3125 
Q 643 124.3125 643 122.3125 
L 643 93.4 
Q 643 91.4 641 91.4 
L 530.785938 91.4 
Q 528.785938 91.4 528.785938 93.4 
L 528.785938 122.3125 
Q 528.785938 124.3125 530.785938 124.3125 
z
" style="fill: #ffffff; opacity: 0.8; stroke: #cccccc; stroke-linejoin: miter"/>
    </g>
    <g id="patch_148">
     <path d="M 532.785938 102.998438 
L 552.785938 102.998438 
L 552.785938 95.998438 
L 532.785938 95.998438 
z
" style="fill: #0000ff; fill-opacity: 0.6; stroke: #000000; stroke-width: 0.724675; stroke-linejoin: miter"/>
    </g>
    <g id="text_15">
     <!-- var_fil_qc_raw -->
     <g transform="translate(560.785938 102.998438)scale(0.1 -0.1)">
      <defs>
       <path id="DejaVuSans-76" d="M 191 3500 
L 800 3500 
L 1894 563 
L 2988 3500 
L 3597 3500 
L 2284 0 
L 1503 0 
L 191 3500 
z
" transform="scale(0.015625)"/>
       <path id="DejaVuSans-71" d="M 947 1747 
Q 947 1113 1208 752 
Q 1469 391 1925 391 
Q 2381 391 2643 752 
Q 2906 1113 2906 1747 
Q 2906 2381 2643 2742 
Q 2381 3103 1925 3103 
Q 1469 3103 1208 2742 
Q 947 2381 947 1747 
z
M 2906 525 
Q 2725 213 2448 61 
Q 2172 -91 1784 -91 
Q 1150 -91 751 415 
Q 353 922 353 1747 
Q 353 2572 751 3078 
Q 1150 3584 1784 3584 
Q 2172 3584 2448 3432 
Q 2725 3281 2906 2969 
L 2906 3500 
L 3481 3500 
L 3481 -1331 
L 2906 -1331 
L 2906 525 
z
" transform="scale(0.015625)"/>
      </defs>
      <use xlink:href="#DejaVuSans-76"/>
      <use xlink:href="#DejaVuSans-61" x="59.179688"/>
      <use xlink:href="#DejaVuSans-72" x="120.458984"/>
      <use xlink:href="#DejaVuSans-5f" x="161.572266"/>
      <use xlink:href="#DejaVuSans-66" x="211.572266"/>
      <use xlink:href="#DejaVuSans-69" x="246.777344"/>
      <use xlink:href="#DejaVuSans-6c" x="274.560547"/>
      <use xlink:href="#DejaVuSans-5f" x="302.34375"/>
      <use xlink:href="#DejaVuSans-71" x="352.34375"/>
      <use xlink:href="#DejaVuSans-63" x="415.820312"/>
      <use xlink:href="#DejaVuSans-5f" x="470.800781"/>
      <use xlink:href="#DejaVuSans-72" x="520.800781"/>
      <use xlink:href="#DejaVuSans-61" x="561.914062"/>
      <use xlink:href="#DejaVuSans-77" x="623.193359"/>
     </g>
    </g>
    <g id="patch_149">
     <path d="M 532.785938 117.954687 
L 552.785938 117.954687 
L 552.785938 110.954687 
L 532.785938 110.954687 
z
" style="fill: #ff0000; fill-opacity: 0.6; stroke: #000000; stroke-width: 0.719912; stroke-linejoin: miter"/>
    </g>
    <g id="text_16">
     <!-- var_fil_qc_norm -->
     <g transform="translate(560.785938 117.954687)scale(0.1 -0.1)">
      <use xlink:href="#DejaVuSans-76"/>
      <use xlink:href="#DejaVuSans-61" x="59.179688"/>
      <use xlink:href="#DejaVuSans-72" x="120.458984"/>
      <use xlink:href="#DejaVuSans-5f" x="161.572266"/>
      <use xlink:href="#DejaVuSans-66" x="211.572266"/>
      <use xlink:href="#DejaVuSans-69" x="246.777344"/>
      <use xlink:href="#DejaVuSans-6c" x="274.560547"/>
      <use xlink:href="#DejaVuSans-5f" x="302.34375"/>
      <use xlink:href="#DejaVuSans-71" x="352.34375"/>
      <use xlink:href="#DejaVuSans-63" x="415.820312"/>
      <use xlink:href="#DejaVuSans-5f" x="470.800781"/>
      <use xlink:href="#DejaVuSans-6e" x="520.800781"/>
      <use xlink:href="#DejaVuSans-6f" x="584.179688"/>
      <use xlink:href="#DejaVuSans-72" x="645.361328"/>
      <use xlink:href="#DejaVuSans-6d" x="684.724609"/>
     </g>
    </g>
   </g>
  </g>
 </g>
 <defs>
  <clipPath id="p182a6a4bd9">
   <rect x="90" y="86.4" width="558" height="543.6"/>
  </clipPath>
 </defs>
</svg>
