<?xml version="1.0" encoding="utf-8" standalone="no"?>
<!DOCTYPE svg PUBLIC "-//W3C//DTD SVG 1.1//EN"
  "http://www.w3.org/Graphics/SVG/1.1/DTD/svg11.dtd">
<svg xmlns:xlink="http://www.w3.org/1999/xlink" width="720pt" height="720pt" viewBox="0 0 720 720" xmlns="http://www.w3.org/2000/svg" version="1.1">
 <metadata>
  <rdf:RDF xmlns:dc="http://purl.org/dc/elements/1.1/" xmlns:cc="http://creativecommons.org/ns#" xmlns:rdf="http://www.w3.org/1999/02/22-rdf-syntax-ns#">
   <cc:Work>
    <dc:type rdf:resource="http://purl.org/dc/dcmitype/StillImage"/>
    <dc:date>2022-04-08T10:51:02.127599</dc:date>
    <dc:format>image/svg+xml</dc:format>
    <dc:creator>
     <cc:Agent>
      <dc:title>Matplotlib v3.5.1, https://matplotlib.org/</dc:title>
     </cc:Agent>
    </dc:creator>
   </cc:Work>
  </rdf:RDF>
 </metadata>
 <defs>
  <style type="text/css">*{stroke-linejoin: round; stroke-linecap: butt}</style>
 </defs>
 <g id="figure_1">
  <g id="patch_1">
   <path d="M 0 720 
L 720 720 
L 720 0 
L 0 0 
L 0 720 
z
" style="fill: none"/>
  </g>
  <g id="axes_1">
   <g id="patch_2">
    <path d="M 90 630 
L 648 630 
L 648 86.4 
L 90 86.4 
z
" style="fill: #ffffff"/>
   </g>
   <g id="patch_3">
    <path d="M 115.363636 630 
L 118.494611 630 
L 118.494611 112.603623 
L 115.363636 112.603623 
z
" clip-path="url(#p6be2d17aae)" style="fill: #0000ff; fill-opacity: 0.6; stroke: #000000; stroke-linejoin: miter"/>
   </g>
   <g id="patch_4">
    <path d="M 118.494611 630 
L 121.625587 630 
L 121.625587 626.820913 
L 118.494611 626.820913 
z
" clip-path="url(#p6be2d17aae)" style="fill: #0000ff; fill-opacity: 0.6; stroke: #000000; stroke-linejoin: miter"/>
   </g>
   <g id="patch_5">
    <path d="M 121.625587 630 
L 124.756562 630 
L 124.756562 628.88732 
L 121.625587 628.88732 
z
" clip-path="url(#p6be2d17aae)" style="fill: #0000ff; fill-opacity: 0.6; stroke: #000000; stroke-linejoin: miter"/>
   </g>
   <g id="patch_6">
    <path d="M 124.756562 630 
L 127.887537 630 
L 127.887537 629.046274 
L 124.756562 629.046274 
z
" clip-path="url(#p6be2d17aae)" style="fill: #0000ff; fill-opacity: 0.6; stroke: #000000; stroke-linejoin: miter"/>
   </g>
   <g id="patch_7">
    <path d="M 127.887537 630 
L 131.018512 630 
L 131.018512 629.205228 
L 127.887537 629.205228 
z
" clip-path="url(#p6be2d17aae)" style="fill: #0000ff; fill-opacity: 0.6; stroke: #000000; stroke-linejoin: miter"/>
   </g>
   <g id="patch_8">
    <path d="M 131.018512 630 
L 134.149487 630 
L 134.149487 629.205228 
L 131.018512 629.205228 
z
" clip-path="url(#p6be2d17aae)" style="fill: #0000ff; fill-opacity: 0.6; stroke: #000000; stroke-linejoin: miter"/>
   </g>
   <g id="patch_9">
    <path d="M 134.149487 630 
L 137.280462 630 
L 137.280462 629.841046 
L 134.149487 629.841046 
z
" clip-path="url(#p6be2d17aae)" style="fill: #0000ff; fill-opacity: 0.6; stroke: #000000; stroke-linejoin: miter"/>
   </g>
   <g id="patch_10">
    <path d="M 137.280462 630 
L 140.411437 630 
L 140.411437 628.88732 
L 137.280462 628.88732 
z
" clip-path="url(#p6be2d17aae)" style="fill: #0000ff; fill-opacity: 0.6; stroke: #000000; stroke-linejoin: miter"/>
   </g>
   <g id="patch_11">
    <path d="M 140.411437 630 
L 143.542412 630 
L 143.542412 629.682091 
L 140.411437 629.682091 
z
" clip-path="url(#p6be2d17aae)" style="fill: #0000ff; fill-opacity: 0.6; stroke: #000000; stroke-linejoin: miter"/>
   </g>
   <g id="patch_12">
    <path d="M 143.542412 630 
L 146.673387 630 
L 146.673387 630 
L 143.542412 630 
z
" clip-path="url(#p6be2d17aae)" style="fill: #0000ff; fill-opacity: 0.6; stroke: #000000; stroke-linejoin: miter"/>
   </g>
   <g id="patch_13">
    <path d="M 146.673387 630 
L 149.804362 630 
L 149.804362 629.841046 
L 146.673387 629.841046 
z
" clip-path="url(#p6be2d17aae)" style="fill: #0000ff; fill-opacity: 0.6; stroke: #000000; stroke-linejoin: miter"/>
   </g>
   <g id="patch_14">
    <path d="M 149.804362 630 
L 152.935338 630 
L 152.935338 630 
L 149.804362 630 
z
" clip-path="url(#p6be2d17aae)" style="fill: #0000ff; fill-opacity: 0.6; stroke: #000000; stroke-linejoin: miter"/>
   </g>
   <g id="patch_15">
    <path d="M 152.935338 630 
L 156.066313 630 
L 156.066313 630 
L 152.935338 630 
z
" clip-path="url(#p6be2d17aae)" style="fill: #0000ff; fill-opacity: 0.6; stroke: #000000; stroke-linejoin: miter"/>
   </g>
   <g id="patch_16">
    <path d="M 156.066313 630 
L 159.197288 630 
L 159.197288 629.841046 
L 156.066313 629.841046 
z
" clip-path="url(#p6be2d17aae)" style="fill: #0000ff; fill-opacity: 0.6; stroke: #000000; stroke-linejoin: miter"/>
   </g>
   <g id="patch_17">
    <path d="M 159.197288 630 
L 162.328263 630 
L 162.328263 630 
L 159.197288 630 
z
" clip-path="url(#p6be2d17aae)" style="fill: #0000ff; fill-opacity: 0.6; stroke: #000000; stroke-linejoin: miter"/>
   </g>
   <g id="patch_18">
    <path d="M 162.328263 630 
L 165.459238 630 
L 165.459238 629.841046 
L 162.328263 629.841046 
z
" clip-path="url(#p6be2d17aae)" style="fill: #0000ff; fill-opacity: 0.6; stroke: #000000; stroke-linejoin: miter"/>
   </g>
   <g id="patch_19">
    <path d="M 165.459238 630 
L 168.590213 630 
L 168.590213 629.841046 
L 165.459238 629.841046 
z
" clip-path="url(#p6be2d17aae)" style="fill: #0000ff; fill-opacity: 0.6; stroke: #000000; stroke-linejoin: miter"/>
   </g>
   <g id="patch_20">
    <path d="M 168.590213 630 
L 171.721188 630 
L 171.721188 629.841046 
L 168.590213 629.841046 
z
" clip-path="url(#p6be2d17aae)" style="fill: #0000ff; fill-opacity: 0.6; stroke: #000000; stroke-linejoin: miter"/>
   </g>
   <g id="patch_21">
    <path d="M 171.721188 630 
L 174.852163 630 
L 174.852163 629.523137 
L 171.721188 629.523137 
z
" clip-path="url(#p6be2d17aae)" style="fill: #0000ff; fill-opacity: 0.6; stroke: #000000; stroke-linejoin: miter"/>
   </g>
   <g id="patch_22">
    <path d="M 174.852163 630 
L 177.983138 630 
L 177.983138 629.364183 
L 174.852163 629.364183 
z
" clip-path="url(#p6be2d17aae)" style="fill: #0000ff; fill-opacity: 0.6; stroke: #000000; stroke-linejoin: miter"/>
   </g>
   <g id="patch_23">
    <path d="M 177.983138 630 
L 181.114113 630 
L 181.114113 630 
L 177.983138 630 
z
" clip-path="url(#p6be2d17aae)" style="fill: #0000ff; fill-opacity: 0.6; stroke: #000000; stroke-linejoin: miter"/>
   </g>
   <g id="patch_24">
    <path d="M 181.114113 630 
L 184.245089 630 
L 184.245089 629.841046 
L 181.114113 629.841046 
z
" clip-path="url(#p6be2d17aae)" style="fill: #0000ff; fill-opacity: 0.6; stroke: #000000; stroke-linejoin: miter"/>
   </g>
   <g id="patch_25">
    <path d="M 184.245089 630 
L 187.376064 630 
L 187.376064 630 
L 184.245089 630 
z
" clip-path="url(#p6be2d17aae)" style="fill: #0000ff; fill-opacity: 0.6; stroke: #000000; stroke-linejoin: miter"/>
   </g>
   <g id="patch_26">
    <path d="M 187.376064 630 
L 190.507039 630 
L 190.507039 630 
L 187.376064 630 
z
" clip-path="url(#p6be2d17aae)" style="fill: #0000ff; fill-opacity: 0.6; stroke: #000000; stroke-linejoin: miter"/>
   </g>
   <g id="patch_27">
    <path d="M 190.507039 630 
L 193.638014 630 
L 193.638014 629.841046 
L 190.507039 629.841046 
z
" clip-path="url(#p6be2d17aae)" style="fill: #0000ff; fill-opacity: 0.6; stroke: #000000; stroke-linejoin: miter"/>
   </g>
   <g id="patch_28">
    <path d="M 193.638014 630 
L 196.768989 630 
L 196.768989 630 
L 193.638014 630 
z
" clip-path="url(#p6be2d17aae)" style="fill: #0000ff; fill-opacity: 0.6; stroke: #000000; stroke-linejoin: miter"/>
   </g>
   <g id="patch_29">
    <path d="M 196.768989 630 
L 199.899964 630 
L 199.899964 630 
L 196.768989 630 
z
" clip-path="url(#p6be2d17aae)" style="fill: #0000ff; fill-opacity: 0.6; stroke: #000000; stroke-linejoin: miter"/>
   </g>
   <g id="patch_30">
    <path d="M 199.899964 630 
L 203.030939 630 
L 203.030939 629.841046 
L 199.899964 629.841046 
z
" clip-path="url(#p6be2d17aae)" style="fill: #0000ff; fill-opacity: 0.6; stroke: #000000; stroke-linejoin: miter"/>
   </g>
   <g id="patch_31">
    <path d="M 203.030939 630 
L 206.161914 630 
L 206.161914 630 
L 203.030939 630 
z
" clip-path="url(#p6be2d17aae)" style="fill: #0000ff; fill-opacity: 0.6; stroke: #000000; stroke-linejoin: miter"/>
   </g>
   <g id="patch_32">
    <path d="M 206.161914 630 
L 209.292889 630 
L 209.292889 630 
L 206.161914 630 
z
" clip-path="url(#p6be2d17aae)" style="fill: #0000ff; fill-opacity: 0.6; stroke: #000000; stroke-linejoin: miter"/>
   </g>
   <g id="patch_33">
    <path d="M 209.292889 630 
L 212.423864 630 
L 212.423864 629.841046 
L 209.292889 629.841046 
z
" clip-path="url(#p6be2d17aae)" style="fill: #0000ff; fill-opacity: 0.6; stroke: #000000; stroke-linejoin: miter"/>
   </g>
   <g id="patch_34">
    <path d="M 212.423864 630 
L 215.55484 630 
L 215.55484 630 
L 212.423864 630 
z
" clip-path="url(#p6be2d17aae)" style="fill: #0000ff; fill-opacity: 0.6; stroke: #000000; stroke-linejoin: miter"/>
   </g>
   <g id="patch_35">
    <path d="M 215.55484 630 
L 218.685815 630 
L 218.685815 630 
L 215.55484 630 
z
" clip-path="url(#p6be2d17aae)" style="fill: #0000ff; fill-opacity: 0.6; stroke: #000000; stroke-linejoin: miter"/>
   </g>
   <g id="patch_36">
    <path d="M 218.685815 630 
L 221.81679 630 
L 221.81679 630 
L 218.685815 630 
z
" clip-path="url(#p6be2d17aae)" style="fill: #0000ff; fill-opacity: 0.6; stroke: #000000; stroke-linejoin: miter"/>
   </g>
   <g id="patch_37">
    <path d="M 221.81679 630 
L 224.947765 630 
L 224.947765 630 
L 221.81679 630 
z
" clip-path="url(#p6be2d17aae)" style="fill: #0000ff; fill-opacity: 0.6; stroke: #000000; stroke-linejoin: miter"/>
   </g>
   <g id="patch_38">
    <path d="M 224.947765 630 
L 228.07874 630 
L 228.07874 630 
L 224.947765 630 
z
" clip-path="url(#p6be2d17aae)" style="fill: #0000ff; fill-opacity: 0.6; stroke: #000000; stroke-linejoin: miter"/>
   </g>
   <g id="patch_39">
    <path d="M 228.07874 630 
L 231.209715 630 
L 231.209715 630 
L 228.07874 630 
z
" clip-path="url(#p6be2d17aae)" style="fill: #0000ff; fill-opacity: 0.6; stroke: #000000; stroke-linejoin: miter"/>
   </g>
   <g id="patch_40">
    <path d="M 231.209715 630 
L 234.34069 630 
L 234.34069 630 
L 231.209715 630 
z
" clip-path="url(#p6be2d17aae)" style="fill: #0000ff; fill-opacity: 0.6; stroke: #000000; stroke-linejoin: miter"/>
   </g>
   <g id="patch_41">
    <path d="M 234.34069 630 
L 237.471665 630 
L 237.471665 630 
L 234.34069 630 
z
" clip-path="url(#p6be2d17aae)" style="fill: #0000ff; fill-opacity: 0.6; stroke: #000000; stroke-linejoin: miter"/>
   </g>
   <g id="patch_42">
    <path d="M 237.471665 630 
L 240.60264 630 
L 240.60264 630 
L 237.471665 630 
z
" clip-path="url(#p6be2d17aae)" style="fill: #0000ff; fill-opacity: 0.6; stroke: #000000; stroke-linejoin: miter"/>
   </g>
   <g id="patch_43">
    <path d="M 240.60264 630 
L 243.733615 630 
L 243.733615 630 
L 240.60264 630 
z
" clip-path="url(#p6be2d17aae)" style="fill: #0000ff; fill-opacity: 0.6; stroke: #000000; stroke-linejoin: miter"/>
   </g>
   <g id="patch_44">
    <path d="M 243.733615 630 
L 246.864591 630 
L 246.864591 630 
L 243.733615 630 
z
" clip-path="url(#p6be2d17aae)" style="fill: #0000ff; fill-opacity: 0.6; stroke: #000000; stroke-linejoin: miter"/>
   </g>
   <g id="patch_45">
    <path d="M 246.864591 630 
L 249.995566 630 
L 249.995566 630 
L 246.864591 630 
z
" clip-path="url(#p6be2d17aae)" style="fill: #0000ff; fill-opacity: 0.6; stroke: #000000; stroke-linejoin: miter"/>
   </g>
   <g id="patch_46">
    <path d="M 249.995566 630 
L 253.126541 630 
L 253.126541 630 
L 249.995566 630 
z
" clip-path="url(#p6be2d17aae)" style="fill: #0000ff; fill-opacity: 0.6; stroke: #000000; stroke-linejoin: miter"/>
   </g>
   <g id="patch_47">
    <path d="M 253.126541 630 
L 256.257516 630 
L 256.257516 630 
L 253.126541 630 
z
" clip-path="url(#p6be2d17aae)" style="fill: #0000ff; fill-opacity: 0.6; stroke: #000000; stroke-linejoin: miter"/>
   </g>
   <g id="patch_48">
    <path d="M 256.257516 630 
L 259.388491 630 
L 259.388491 630 
L 256.257516 630 
z
" clip-path="url(#p6be2d17aae)" style="fill: #0000ff; fill-opacity: 0.6; stroke: #000000; stroke-linejoin: miter"/>
   </g>
   <g id="patch_49">
    <path d="M 259.388491 630 
L 262.519466 630 
L 262.519466 630 
L 259.388491 630 
z
" clip-path="url(#p6be2d17aae)" style="fill: #0000ff; fill-opacity: 0.6; stroke: #000000; stroke-linejoin: miter"/>
   </g>
   <g id="patch_50">
    <path d="M 262.519466 630 
L 265.650441 630 
L 265.650441 630 
L 262.519466 630 
z
" clip-path="url(#p6be2d17aae)" style="fill: #0000ff; fill-opacity: 0.6; stroke: #000000; stroke-linejoin: miter"/>
   </g>
   <g id="patch_51">
    <path d="M 265.650441 630 
L 268.781416 630 
L 268.781416 630 
L 265.650441 630 
z
" clip-path="url(#p6be2d17aae)" style="fill: #0000ff; fill-opacity: 0.6; stroke: #000000; stroke-linejoin: miter"/>
   </g>
   <g id="patch_52">
    <path d="M 268.781416 630 
L 271.912391 630 
L 271.912391 629.841046 
L 268.781416 629.841046 
z
" clip-path="url(#p6be2d17aae)" style="fill: #0000ff; fill-opacity: 0.6; stroke: #000000; stroke-linejoin: miter"/>
   </g>
   <g id="patch_53">
    <path d="M 115.36751 630 
L 125.512887 630 
L 125.512887 112.285714 
L 115.36751 112.285714 
z
" clip-path="url(#p6be2d17aae)" style="fill: #ffff00; fill-opacity: 0.2; stroke: #000000; stroke-linejoin: miter"/>
   </g>
   <g id="patch_54">
    <path d="M 125.512887 630 
L 135.658264 630 
L 135.658264 627.138822 
L 125.512887 627.138822 
z
" clip-path="url(#p6be2d17aae)" style="fill: #ffff00; fill-opacity: 0.2; stroke: #000000; stroke-linejoin: miter"/>
   </g>
   <g id="patch_55">
    <path d="M 135.658264 630 
L 145.803641 630 
L 145.803641 628.728365 
L 135.658264 628.728365 
z
" clip-path="url(#p6be2d17aae)" style="fill: #ffff00; fill-opacity: 0.2; stroke: #000000; stroke-linejoin: miter"/>
   </g>
   <g id="patch_56">
    <path d="M 145.803641 630 
L 155.949018 630 
L 155.949018 629.205228 
L 145.803641 629.205228 
z
" clip-path="url(#p6be2d17aae)" style="fill: #ffff00; fill-opacity: 0.2; stroke: #000000; stroke-linejoin: miter"/>
   </g>
   <g id="patch_57">
    <path d="M 155.949018 630 
L 166.094395 630 
L 166.094395 628.728365 
L 155.949018 628.728365 
z
" clip-path="url(#p6be2d17aae)" style="fill: #ffff00; fill-opacity: 0.2; stroke: #000000; stroke-linejoin: miter"/>
   </g>
   <g id="patch_58">
    <path d="M 166.094395 630 
L 176.239772 630 
L 176.239772 628.569411 
L 166.094395 628.569411 
z
" clip-path="url(#p6be2d17aae)" style="fill: #ffff00; fill-opacity: 0.2; stroke: #000000; stroke-linejoin: miter"/>
   </g>
   <g id="patch_59">
    <path d="M 176.239772 630 
L 186.385149 630 
L 186.385149 629.205228 
L 176.239772 629.205228 
z
" clip-path="url(#p6be2d17aae)" style="fill: #ffff00; fill-opacity: 0.2; stroke: #000000; stroke-linejoin: miter"/>
   </g>
   <g id="patch_60">
    <path d="M 186.385149 630 
L 196.530526 630 
L 196.530526 630 
L 186.385149 630 
z
" clip-path="url(#p6be2d17aae)" style="fill: #ffff00; fill-opacity: 0.2; stroke: #000000; stroke-linejoin: miter"/>
   </g>
   <g id="patch_61">
    <path d="M 196.530526 630 
L 206.675903 630 
L 206.675903 630 
L 196.530526 630 
z
" clip-path="url(#p6be2d17aae)" style="fill: #ffff00; fill-opacity: 0.2; stroke: #000000; stroke-linejoin: miter"/>
   </g>
   <g id="patch_62">
    <path d="M 206.675903 630 
L 216.821281 630 
L 216.821281 629.682091 
L 206.675903 629.682091 
z
" clip-path="url(#p6be2d17aae)" style="fill: #ffff00; fill-opacity: 0.2; stroke: #000000; stroke-linejoin: miter"/>
   </g>
   <g id="patch_63">
    <path d="M 216.821281 630 
L 226.966658 630 
L 226.966658 629.841046 
L 216.821281 629.841046 
z
" clip-path="url(#p6be2d17aae)" style="fill: #ffff00; fill-opacity: 0.2; stroke: #000000; stroke-linejoin: miter"/>
   </g>
   <g id="patch_64">
    <path d="M 226.966658 630 
L 237.112035 630 
L 237.112035 629.841046 
L 226.966658 629.841046 
z
" clip-path="url(#p6be2d17aae)" style="fill: #ffff00; fill-opacity: 0.2; stroke: #000000; stroke-linejoin: miter"/>
   </g>
   <g id="patch_65">
    <path d="M 237.112035 630 
L 247.257412 630 
L 247.257412 630 
L 237.112035 630 
z
" clip-path="url(#p6be2d17aae)" style="fill: #ffff00; fill-opacity: 0.2; stroke: #000000; stroke-linejoin: miter"/>
   </g>
   <g id="patch_66">
    <path d="M 247.257412 630 
L 257.402789 630 
L 257.402789 630 
L 247.257412 630 
z
" clip-path="url(#p6be2d17aae)" style="fill: #ffff00; fill-opacity: 0.2; stroke: #000000; stroke-linejoin: miter"/>
   </g>
   <g id="patch_67">
    <path d="M 257.402789 630 
L 267.548166 630 
L 267.548166 629.841046 
L 257.402789 629.841046 
z
" clip-path="url(#p6be2d17aae)" style="fill: #ffff00; fill-opacity: 0.2; stroke: #000000; stroke-linejoin: miter"/>
   </g>
   <g id="patch_68">
    <path d="M 267.548166 630 
L 277.693543 630 
L 277.693543 629.364183 
L 267.548166 629.364183 
z
" clip-path="url(#p6be2d17aae)" style="fill: #ffff00; fill-opacity: 0.2; stroke: #000000; stroke-linejoin: miter"/>
   </g>
   <g id="patch_69">
    <path d="M 277.693543 630 
L 287.83892 630 
L 287.83892 629.682091 
L 277.693543 629.682091 
z
" clip-path="url(#p6be2d17aae)" style="fill: #ffff00; fill-opacity: 0.2; stroke: #000000; stroke-linejoin: miter"/>
   </g>
   <g id="patch_70">
    <path d="M 287.83892 630 
L 297.984297 630 
L 297.984297 629.841046 
L 287.83892 629.841046 
z
" clip-path="url(#p6be2d17aae)" style="fill: #ffff00; fill-opacity: 0.2; stroke: #000000; stroke-linejoin: miter"/>
   </g>
   <g id="patch_71">
    <path d="M 297.984297 630 
L 308.129674 630 
L 308.129674 630 
L 297.984297 630 
z
" clip-path="url(#p6be2d17aae)" style="fill: #ffff00; fill-opacity: 0.2; stroke: #000000; stroke-linejoin: miter"/>
   </g>
   <g id="patch_72">
    <path d="M 308.129674 630 
L 318.275051 630 
L 318.275051 630 
L 308.129674 630 
z
" clip-path="url(#p6be2d17aae)" style="fill: #ffff00; fill-opacity: 0.2; stroke: #000000; stroke-linejoin: miter"/>
   </g>
   <g id="patch_73">
    <path d="M 318.275051 630 
L 328.420428 630 
L 328.420428 630 
L 318.275051 630 
z
" clip-path="url(#p6be2d17aae)" style="fill: #ffff00; fill-opacity: 0.2; stroke: #000000; stroke-linejoin: miter"/>
   </g>
   <g id="patch_74">
    <path d="M 328.420428 630 
L 338.565805 630 
L 338.565805 630 
L 328.420428 630 
z
" clip-path="url(#p6be2d17aae)" style="fill: #ffff00; fill-opacity: 0.2; stroke: #000000; stroke-linejoin: miter"/>
   </g>
   <g id="patch_75">
    <path d="M 338.565805 630 
L 348.711183 630 
L 348.711183 630 
L 338.565805 630 
z
" clip-path="url(#p6be2d17aae)" style="fill: #ffff00; fill-opacity: 0.2; stroke: #000000; stroke-linejoin: miter"/>
   </g>
   <g id="patch_76">
    <path d="M 348.711183 630 
L 358.85656 630 
L 358.85656 630 
L 348.711183 630 
z
" clip-path="url(#p6be2d17aae)" style="fill: #ffff00; fill-opacity: 0.2; stroke: #000000; stroke-linejoin: miter"/>
   </g>
   <g id="patch_77">
    <path d="M 358.85656 630 
L 369.001937 630 
L 369.001937 630 
L 358.85656 630 
z
" clip-path="url(#p6be2d17aae)" style="fill: #ffff00; fill-opacity: 0.2; stroke: #000000; stroke-linejoin: miter"/>
   </g>
   <g id="patch_78">
    <path d="M 369.001937 630 
L 379.147314 630 
L 379.147314 630 
L 369.001937 630 
z
" clip-path="url(#p6be2d17aae)" style="fill: #ffff00; fill-opacity: 0.2; stroke: #000000; stroke-linejoin: miter"/>
   </g>
   <g id="patch_79">
    <path d="M 379.147314 630 
L 389.292691 630 
L 389.292691 630 
L 379.147314 630 
z
" clip-path="url(#p6be2d17aae)" style="fill: #ffff00; fill-opacity: 0.2; stroke: #000000; stroke-linejoin: miter"/>
   </g>
   <g id="patch_80">
    <path d="M 389.292691 630 
L 399.438068 630 
L 399.438068 630 
L 389.292691 630 
z
" clip-path="url(#p6be2d17aae)" style="fill: #ffff00; fill-opacity: 0.2; stroke: #000000; stroke-linejoin: miter"/>
   </g>
   <g id="patch_81">
    <path d="M 399.438068 630 
L 409.583445 630 
L 409.583445 630 
L 399.438068 630 
z
" clip-path="url(#p6be2d17aae)" style="fill: #ffff00; fill-opacity: 0.2; stroke: #000000; stroke-linejoin: miter"/>
   </g>
   <g id="patch_82">
    <path d="M 409.583445 630 
L 419.728822 630 
L 419.728822 629.841046 
L 409.583445 629.841046 
z
" clip-path="url(#p6be2d17aae)" style="fill: #ffff00; fill-opacity: 0.2; stroke: #000000; stroke-linejoin: miter"/>
   </g>
   <g id="patch_83">
    <path d="M 419.728822 630 
L 429.874199 630 
L 429.874199 630 
L 419.728822 630 
z
" clip-path="url(#p6be2d17aae)" style="fill: #ffff00; fill-opacity: 0.2; stroke: #000000; stroke-linejoin: miter"/>
   </g>
   <g id="patch_84">
    <path d="M 429.874199 630 
L 440.019576 630 
L 440.019576 630 
L 429.874199 630 
z
" clip-path="url(#p6be2d17aae)" style="fill: #ffff00; fill-opacity: 0.2; stroke: #000000; stroke-linejoin: miter"/>
   </g>
   <g id="patch_85">
    <path d="M 440.019576 630 
L 450.164953 630 
L 450.164953 630 
L 440.019576 630 
z
" clip-path="url(#p6be2d17aae)" style="fill: #ffff00; fill-opacity: 0.2; stroke: #000000; stroke-linejoin: miter"/>
   </g>
   <g id="patch_86">
    <path d="M 450.164953 630 
L 460.31033 630 
L 460.31033 630 
L 450.164953 630 
z
" clip-path="url(#p6be2d17aae)" style="fill: #ffff00; fill-opacity: 0.2; stroke: #000000; stroke-linejoin: miter"/>
   </g>
   <g id="patch_87">
    <path d="M 460.31033 630 
L 470.455707 630 
L 470.455707 630 
L 460.31033 630 
z
" clip-path="url(#p6be2d17aae)" style="fill: #ffff00; fill-opacity: 0.2; stroke: #000000; stroke-linejoin: miter"/>
   </g>
   <g id="patch_88">
    <path d="M 470.455707 630 
L 480.601085 630 
L 480.601085 630 
L 470.455707 630 
z
" clip-path="url(#p6be2d17aae)" style="fill: #ffff00; fill-opacity: 0.2; stroke: #000000; stroke-linejoin: miter"/>
   </g>
   <g id="patch_89">
    <path d="M 480.601085 630 
L 490.746462 630 
L 490.746462 629.841046 
L 480.601085 629.841046 
z
" clip-path="url(#p6be2d17aae)" style="fill: #ffff00; fill-opacity: 0.2; stroke: #000000; stroke-linejoin: miter"/>
   </g>
   <g id="patch_90">
    <path d="M 490.746462 630 
L 500.891839 630 
L 500.891839 630 
L 490.746462 630 
z
" clip-path="url(#p6be2d17aae)" style="fill: #ffff00; fill-opacity: 0.2; stroke: #000000; stroke-linejoin: miter"/>
   </g>
   <g id="patch_91">
    <path d="M 500.891839 630 
L 511.037216 630 
L 511.037216 630 
L 500.891839 630 
z
" clip-path="url(#p6be2d17aae)" style="fill: #ffff00; fill-opacity: 0.2; stroke: #000000; stroke-linejoin: miter"/>
   </g>
   <g id="patch_92">
    <path d="M 511.037216 630 
L 521.182593 630 
L 521.182593 630 
L 511.037216 630 
z
" clip-path="url(#p6be2d17aae)" style="fill: #ffff00; fill-opacity: 0.2; stroke: #000000; stroke-linejoin: miter"/>
   </g>
   <g id="patch_93">
    <path d="M 521.182593 630 
L 531.32797 630 
L 531.32797 630 
L 521.182593 630 
z
" clip-path="url(#p6be2d17aae)" style="fill: #ffff00; fill-opacity: 0.2; stroke: #000000; stroke-linejoin: miter"/>
   </g>
   <g id="patch_94">
    <path d="M 531.32797 630 
L 541.473347 630 
L 541.473347 630 
L 531.32797 630 
z
" clip-path="url(#p6be2d17aae)" style="fill: #ffff00; fill-opacity: 0.2; stroke: #000000; stroke-linejoin: miter"/>
   </g>
   <g id="patch_95">
    <path d="M 541.473347 630 
L 551.618724 630 
L 551.618724 630 
L 541.473347 630 
z
" clip-path="url(#p6be2d17aae)" style="fill: #ffff00; fill-opacity: 0.2; stroke: #000000; stroke-linejoin: miter"/>
   </g>
   <g id="patch_96">
    <path d="M 551.618724 630 
L 561.764101 630 
L 561.764101 630 
L 551.618724 630 
z
" clip-path="url(#p6be2d17aae)" style="fill: #ffff00; fill-opacity: 0.2; stroke: #000000; stroke-linejoin: miter"/>
   </g>
   <g id="patch_97">
    <path d="M 561.764101 630 
L 571.909478 630 
L 571.909478 630 
L 561.764101 630 
z
" clip-path="url(#p6be2d17aae)" style="fill: #ffff00; fill-opacity: 0.2; stroke: #000000; stroke-linejoin: miter"/>
   </g>
   <g id="patch_98">
    <path d="M 571.909478 630 
L 582.054855 630 
L 582.054855 630 
L 571.909478 630 
z
" clip-path="url(#p6be2d17aae)" style="fill: #ffff00; fill-opacity: 0.2; stroke: #000000; stroke-linejoin: miter"/>
   </g>
   <g id="patch_99">
    <path d="M 582.054855 630 
L 592.200232 630 
L 592.200232 630 
L 582.054855 630 
z
" clip-path="url(#p6be2d17aae)" style="fill: #ffff00; fill-opacity: 0.2; stroke: #000000; stroke-linejoin: miter"/>
   </g>
   <g id="patch_100">
    <path d="M 592.200232 630 
L 602.345609 630 
L 602.345609 630 
L 592.200232 630 
z
" clip-path="url(#p6be2d17aae)" style="fill: #ffff00; fill-opacity: 0.2; stroke: #000000; stroke-linejoin: miter"/>
   </g>
   <g id="patch_101">
    <path d="M 602.345609 630 
L 612.490987 630 
L 612.490987 630 
L 602.345609 630 
z
" clip-path="url(#p6be2d17aae)" style="fill: #ffff00; fill-opacity: 0.2; stroke: #000000; stroke-linejoin: miter"/>
   </g>
   <g id="patch_102">
    <path d="M 612.490987 630 
L 622.636364 630 
L 622.636364 629.841046 
L 612.490987 629.841046 
z
" clip-path="url(#p6be2d17aae)" style="fill: #ffff00; fill-opacity: 0.2; stroke: #000000; stroke-linejoin: miter"/>
   </g>
   <g id="matplotlib.axis_1">
    <g id="xtick_1">
     <g id="line2d_1">
      <defs>
       <path id="m4fa6988dfb" d="M 0 0 
L 0 3.5 
" style="stroke: #000000; stroke-width: 0.8"/>
      </defs>
      <g>
       <use xlink:href="#m4fa6988dfb" x="115.362345" y="630" style="stroke: #000000; stroke-width: 0.8"/>
      </g>
     </g>
     <g id="text_1">
      <!-- 0 -->
      <g transform="translate(112.181095 644.598438)scale(0.1 -0.1)">
       <defs>
        <path id="DejaVuSans-30" d="M 2034 4250 
Q 1547 4250 1301 3770 
Q 1056 3291 1056 2328 
Q 1056 1369 1301 889 
Q 1547 409 2034 409 
Q 2525 409 2770 889 
Q 3016 1369 3016 2328 
Q 3016 3291 2770 3770 
Q 2525 4250 2034 4250 
z
M 2034 4750 
Q 2819 4750 3233 4129 
Q 3647 3509 3647 2328 
Q 3647 1150 3233 529 
Q 2819 -91 2034 -91 
Q 1250 -91 836 529 
Q 422 1150 422 2328 
Q 422 3509 836 4129 
Q 1250 4750 2034 4750 
z
" transform="scale(0.015625)"/>
       </defs>
       <use xlink:href="#DejaVuSans-30"/>
      </g>
     </g>
    </g>
    <g id="xtick_2">
     <g id="line2d_2">
      <g>
       <use xlink:href="#m4fa6988dfb" x="198.702813" y="630" style="stroke: #000000; stroke-width: 0.8"/>
      </g>
     </g>
     <g id="text_2">
      <!-- 20 -->
      <g transform="translate(192.340313 644.598438)scale(0.1 -0.1)">
       <defs>
        <path id="DejaVuSans-32" d="M 1228 531 
L 3431 531 
L 3431 0 
L 469 0 
L 469 531 
Q 828 903 1448 1529 
Q 2069 2156 2228 2338 
Q 2531 2678 2651 2914 
Q 2772 3150 2772 3378 
Q 2772 3750 2511 3984 
Q 2250 4219 1831 4219 
Q 1534 4219 1204 4116 
Q 875 4013 500 3803 
L 500 4441 
Q 881 4594 1212 4672 
Q 1544 4750 1819 4750 
Q 2544 4750 2975 4387 
Q 3406 4025 3406 3419 
Q 3406 3131 3298 2873 
Q 3191 2616 2906 2266 
Q 2828 2175 2409 1742 
Q 1991 1309 1228 531 
z
" transform="scale(0.015625)"/>
       </defs>
       <use xlink:href="#DejaVuSans-32"/>
       <use xlink:href="#DejaVuSans-30" x="63.623047"/>
      </g>
     </g>
    </g>
    <g id="xtick_3">
     <g id="line2d_3">
      <g>
       <use xlink:href="#m4fa6988dfb" x="282.043281" y="630" style="stroke: #000000; stroke-width: 0.8"/>
      </g>
     </g>
     <g id="text_3">
      <!-- 40 -->
      <g transform="translate(275.680781 644.598438)scale(0.1 -0.1)">
       <defs>
        <path id="DejaVuSans-34" d="M 2419 4116 
L 825 1625 
L 2419 1625 
L 2419 4116 
z
M 2253 4666 
L 3047 4666 
L 3047 1625 
L 3713 1625 
L 3713 1100 
L 3047 1100 
L 3047 0 
L 2419 0 
L 2419 1100 
L 313 1100 
L 313 1709 
L 2253 4666 
z
" transform="scale(0.015625)"/>
       </defs>
       <use xlink:href="#DejaVuSans-34"/>
       <use xlink:href="#DejaVuSans-30" x="63.623047"/>
      </g>
     </g>
    </g>
    <g id="xtick_4">
     <g id="line2d_4">
      <g>
       <use xlink:href="#m4fa6988dfb" x="365.383749" y="630" style="stroke: #000000; stroke-width: 0.8"/>
      </g>
     </g>
     <g id="text_4">
      <!-- 60 -->
      <g transform="translate(359.021249 644.598438)scale(0.1 -0.1)">
       <defs>
        <path id="DejaVuSans-36" d="M 2113 2584 
Q 1688 2584 1439 2293 
Q 1191 2003 1191 1497 
Q 1191 994 1439 701 
Q 1688 409 2113 409 
Q 2538 409 2786 701 
Q 3034 994 3034 1497 
Q 3034 2003 2786 2293 
Q 2538 2584 2113 2584 
z
M 3366 4563 
L 3366 3988 
Q 3128 4100 2886 4159 
Q 2644 4219 2406 4219 
Q 1781 4219 1451 3797 
Q 1122 3375 1075 2522 
Q 1259 2794 1537 2939 
Q 1816 3084 2150 3084 
Q 2853 3084 3261 2657 
Q 3669 2231 3669 1497 
Q 3669 778 3244 343 
Q 2819 -91 2113 -91 
Q 1303 -91 875 529 
Q 447 1150 447 2328 
Q 447 3434 972 4092 
Q 1497 4750 2381 4750 
Q 2619 4750 2861 4703 
Q 3103 4656 3366 4563 
z
" transform="scale(0.015625)"/>
       </defs>
       <use xlink:href="#DejaVuSans-36"/>
       <use xlink:href="#DejaVuSans-30" x="63.623047"/>
      </g>
     </g>
    </g>
    <g id="xtick_5">
     <g id="line2d_5">
      <g>
       <use xlink:href="#m4fa6988dfb" x="448.724217" y="630" style="stroke: #000000; stroke-width: 0.8"/>
      </g>
     </g>
     <g id="text_5">
      <!-- 80 -->
      <g transform="translate(442.361717 644.598438)scale(0.1 -0.1)">
       <defs>
        <path id="DejaVuSans-38" d="M 2034 2216 
Q 1584 2216 1326 1975 
Q 1069 1734 1069 1313 
Q 1069 891 1326 650 
Q 1584 409 2034 409 
Q 2484 409 2743 651 
Q 3003 894 3003 1313 
Q 3003 1734 2745 1975 
Q 2488 2216 2034 2216 
z
M 1403 2484 
Q 997 2584 770 2862 
Q 544 3141 544 3541 
Q 544 4100 942 4425 
Q 1341 4750 2034 4750 
Q 2731 4750 3128 4425 
Q 3525 4100 3525 3541 
Q 3525 3141 3298 2862 
Q 3072 2584 2669 2484 
Q 3125 2378 3379 2068 
Q 3634 1759 3634 1313 
Q 3634 634 3220 271 
Q 2806 -91 2034 -91 
Q 1263 -91 848 271 
Q 434 634 434 1313 
Q 434 1759 690 2068 
Q 947 2378 1403 2484 
z
M 1172 3481 
Q 1172 3119 1398 2916 
Q 1625 2713 2034 2713 
Q 2441 2713 2670 2916 
Q 2900 3119 2900 3481 
Q 2900 3844 2670 4047 
Q 2441 4250 2034 4250 
Q 1625 4250 1398 4047 
Q 1172 3844 1172 3481 
z
" transform="scale(0.015625)"/>
       </defs>
       <use xlink:href="#DejaVuSans-38"/>
       <use xlink:href="#DejaVuSans-30" x="63.623047"/>
      </g>
     </g>
    </g>
    <g id="xtick_6">
     <g id="line2d_6">
      <g>
       <use xlink:href="#m4fa6988dfb" x="532.064685" y="630" style="stroke: #000000; stroke-width: 0.8"/>
      </g>
     </g>
     <g id="text_6">
      <!-- 100 -->
      <g transform="translate(522.520935 644.598438)scale(0.1 -0.1)">
       <defs>
        <path id="DejaVuSans-31" d="M 794 531 
L 1825 531 
L 1825 4091 
L 703 3866 
L 703 4441 
L 1819 4666 
L 2450 4666 
L 2450 531 
L 3481 531 
L 3481 0 
L 794 0 
L 794 531 
z
" transform="scale(0.015625)"/>
       </defs>
       <use xlink:href="#DejaVuSans-31"/>
       <use xlink:href="#DejaVuSans-30" x="63.623047"/>
       <use xlink:href="#DejaVuSans-30" x="127.246094"/>
      </g>
     </g>
    </g>
    <g id="xtick_7">
     <g id="line2d_7">
      <g>
       <use xlink:href="#m4fa6988dfb" x="615.405153" y="630" style="stroke: #000000; stroke-width: 0.8"/>
      </g>
     </g>
     <g id="text_7">
      <!-- 120 -->
      <g transform="translate(605.861403 644.598438)scale(0.1 -0.1)">
       <use xlink:href="#DejaVuSans-31"/>
       <use xlink:href="#DejaVuSans-32" x="63.623047"/>
       <use xlink:href="#DejaVuSans-30" x="127.246094"/>
      </g>
     </g>
    </g>
   </g>
   <g id="matplotlib.axis_2">
    <g id="ytick_1">
     <g id="line2d_8">
      <defs>
       <path id="mafc5e9f79b" d="M 0 0 
L -3.5 0 
" style="stroke: #000000; stroke-width: 0.8"/>
      </defs>
      <g>
       <use xlink:href="#mafc5e9f79b" x="90" y="630" style="stroke: #000000; stroke-width: 0.8"/>
      </g>
     </g>
     <g id="text_8">
      <!-- 0 -->
      <g transform="translate(76.6375 633.799219)scale(0.1 -0.1)">
       <use xlink:href="#DejaVuSans-30"/>
      </g>
     </g>
    </g>
    <g id="ytick_2">
     <g id="line2d_9">
      <g>
       <use xlink:href="#mafc5e9f79b" x="90" y="550.52283" style="stroke: #000000; stroke-width: 0.8"/>
      </g>
     </g>
     <g id="text_9">
      <!-- 500 -->
      <g transform="translate(63.9125 554.322049)scale(0.1 -0.1)">
       <defs>
        <path id="DejaVuSans-35" d="M 691 4666 
L 3169 4666 
L 3169 4134 
L 1269 4134 
L 1269 2991 
Q 1406 3038 1543 3061 
Q 1681 3084 1819 3084 
Q 2600 3084 3056 2656 
Q 3513 2228 3513 1497 
Q 3513 744 3044 326 
Q 2575 -91 1722 -91 
Q 1428 -91 1123 -41 
Q 819 9 494 109 
L 494 744 
Q 775 591 1075 516 
Q 1375 441 1709 441 
Q 2250 441 2565 725 
Q 2881 1009 2881 1497 
Q 2881 1984 2565 2268 
Q 2250 2553 1709 2553 
Q 1456 2553 1204 2497 
Q 953 2441 691 2322 
L 691 4666 
z
" transform="scale(0.015625)"/>
       </defs>
       <use xlink:href="#DejaVuSans-35"/>
       <use xlink:href="#DejaVuSans-30" x="63.623047"/>
       <use xlink:href="#DejaVuSans-30" x="127.246094"/>
      </g>
     </g>
    </g>
    <g id="ytick_3">
     <g id="line2d_10">
      <g>
       <use xlink:href="#mafc5e9f79b" x="90" y="471.04566" style="stroke: #000000; stroke-width: 0.8"/>
      </g>
     </g>
     <g id="text_10">
      <!-- 1000 -->
      <g transform="translate(57.55 474.844879)scale(0.1 -0.1)">
       <use xlink:href="#DejaVuSans-31"/>
       <use xlink:href="#DejaVuSans-30" x="63.623047"/>
       <use xlink:href="#DejaVuSans-30" x="127.246094"/>
       <use xlink:href="#DejaVuSans-30" x="190.869141"/>
      </g>
     </g>
    </g>
    <g id="ytick_4">
     <g id="line2d_11">
      <g>
       <use xlink:href="#mafc5e9f79b" x="90" y="391.56849" style="stroke: #000000; stroke-width: 0.8"/>
      </g>
     </g>
     <g id="text_11">
      <!-- 1500 -->
      <g transform="translate(57.55 395.367709)scale(0.1 -0.1)">
       <use xlink:href="#DejaVuSans-31"/>
       <use xlink:href="#DejaVuSans-35" x="63.623047"/>
       <use xlink:href="#DejaVuSans-30" x="127.246094"/>
       <use xlink:href="#DejaVuSans-30" x="190.869141"/>
      </g>
     </g>
    </g>
    <g id="ytick_5">
     <g id="line2d_12">
      <g>
       <use xlink:href="#mafc5e9f79b" x="90" y="312.09132" style="stroke: #000000; stroke-width: 0.8"/>
      </g>
     </g>
     <g id="text_12">
      <!-- 2000 -->
      <g transform="translate(57.55 315.890539)scale(0.1 -0.1)">
       <use xlink:href="#DejaVuSans-32"/>
       <use xlink:href="#DejaVuSans-30" x="63.623047"/>
       <use xlink:href="#DejaVuSans-30" x="127.246094"/>
       <use xlink:href="#DejaVuSans-30" x="190.869141"/>
      </g>
     </g>
    </g>
    <g id="ytick_6">
     <g id="line2d_13">
      <g>
       <use xlink:href="#mafc5e9f79b" x="90" y="232.61415" style="stroke: #000000; stroke-width: 0.8"/>
      </g>
     </g>
     <g id="text_13">
      <!-- 2500 -->
      <g transform="translate(57.55 236.413368)scale(0.1 -0.1)">
       <use xlink:href="#DejaVuSans-32"/>
       <use xlink:href="#DejaVuSans-35" x="63.623047"/>
       <use xlink:href="#DejaVuSans-30" x="127.246094"/>
       <use xlink:href="#DejaVuSans-30" x="190.869141"/>
      </g>
     </g>
    </g>
    <g id="ytick_7">
     <g id="line2d_14">
      <g>
       <use xlink:href="#mafc5e9f79b" x="90" y="153.13698" style="stroke: #000000; stroke-width: 0.8"/>
      </g>
     </g>
     <g id="text_14">
      <!-- 3000 -->
      <g transform="translate(57.55 156.936198)scale(0.1 -0.1)">
       <defs>
        <path id="DejaVuSans-33" d="M 2597 2516 
Q 3050 2419 3304 2112 
Q 3559 1806 3559 1356 
Q 3559 666 3084 287 
Q 2609 -91 1734 -91 
Q 1441 -91 1130 -33 
Q 819 25 488 141 
L 488 750 
Q 750 597 1062 519 
Q 1375 441 1716 441 
Q 2309 441 2620 675 
Q 2931 909 2931 1356 
Q 2931 1769 2642 2001 
Q 2353 2234 1838 2234 
L 1294 2234 
L 1294 2753 
L 1863 2753 
Q 2328 2753 2575 2939 
Q 2822 3125 2822 3475 
Q 2822 3834 2567 4026 
Q 2313 4219 1838 4219 
Q 1578 4219 1281 4162 
Q 984 4106 628 3988 
L 628 4550 
Q 988 4650 1302 4700 
Q 1616 4750 1894 4750 
Q 2613 4750 3031 4423 
Q 3450 4097 3450 3541 
Q 3450 3153 3228 2886 
Q 3006 2619 2597 2516 
z
" transform="scale(0.015625)"/>
       </defs>
       <use xlink:href="#DejaVuSans-33"/>
       <use xlink:href="#DejaVuSans-30" x="63.623047"/>
       <use xlink:href="#DejaVuSans-30" x="127.246094"/>
       <use xlink:href="#DejaVuSans-30" x="190.869141"/>
      </g>
     </g>
    </g>
    <g id="text_15">
     <!-- Count -->
     <g transform="translate(51.470312 373.048437)rotate(-90)scale(0.1 -0.1)">
      <defs>
       <path id="DejaVuSans-43" d="M 4122 4306 
L 4122 3641 
Q 3803 3938 3442 4084 
Q 3081 4231 2675 4231 
Q 1875 4231 1450 3742 
Q 1025 3253 1025 2328 
Q 1025 1406 1450 917 
Q 1875 428 2675 428 
Q 3081 428 3442 575 
Q 3803 722 4122 1019 
L 4122 359 
Q 3791 134 3420 21 
Q 3050 -91 2638 -91 
Q 1578 -91 968 557 
Q 359 1206 359 2328 
Q 359 3453 968 4101 
Q 1578 4750 2638 4750 
Q 3056 4750 3426 4639 
Q 3797 4528 4122 4306 
z
" transform="scale(0.015625)"/>
       <path id="DejaVuSans-6f" d="M 1959 3097 
Q 1497 3097 1228 2736 
Q 959 2375 959 1747 
Q 959 1119 1226 758 
Q 1494 397 1959 397 
Q 2419 397 2687 759 
Q 2956 1122 2956 1747 
Q 2956 2369 2687 2733 
Q 2419 3097 1959 3097 
z
M 1959 3584 
Q 2709 3584 3137 3096 
Q 3566 2609 3566 1747 
Q 3566 888 3137 398 
Q 2709 -91 1959 -91 
Q 1206 -91 779 398 
Q 353 888 353 1747 
Q 353 2609 779 3096 
Q 1206 3584 1959 3584 
z
" transform="scale(0.015625)"/>
       <path id="DejaVuSans-75" d="M 544 1381 
L 544 3500 
L 1119 3500 
L 1119 1403 
Q 1119 906 1312 657 
Q 1506 409 1894 409 
Q 2359 409 2629 706 
Q 2900 1003 2900 1516 
L 2900 3500 
L 3475 3500 
L 3475 0 
L 2900 0 
L 2900 538 
Q 2691 219 2414 64 
Q 2138 -91 1772 -91 
Q 1169 -91 856 284 
Q 544 659 544 1381 
z
M 1991 3584 
L 1991 3584 
z
" transform="scale(0.015625)"/>
       <path id="DejaVuSans-6e" d="M 3513 2113 
L 3513 0 
L 2938 0 
L 2938 2094 
Q 2938 2591 2744 2837 
Q 2550 3084 2163 3084 
Q 1697 3084 1428 2787 
Q 1159 2491 1159 1978 
L 1159 0 
L 581 0 
L 581 3500 
L 1159 3500 
L 1159 2956 
Q 1366 3272 1645 3428 
Q 1925 3584 2291 3584 
Q 2894 3584 3203 3211 
Q 3513 2838 3513 2113 
z
" transform="scale(0.015625)"/>
       <path id="DejaVuSans-74" d="M 1172 4494 
L 1172 3500 
L 2356 3500 
L 2356 3053 
L 1172 3053 
L 1172 1153 
Q 1172 725 1289 603 
Q 1406 481 1766 481 
L 2356 481 
L 2356 0 
L 1766 0 
Q 1100 0 847 248 
Q 594 497 594 1153 
L 594 3053 
L 172 3053 
L 172 3500 
L 594 3500 
L 594 4494 
L 1172 4494 
z
" transform="scale(0.015625)"/>
      </defs>
      <use xlink:href="#DejaVuSans-43"/>
      <use xlink:href="#DejaVuSans-6f" x="69.824219"/>
      <use xlink:href="#DejaVuSans-75" x="131.005859"/>
      <use xlink:href="#DejaVuSans-6e" x="194.384766"/>
      <use xlink:href="#DejaVuSans-74" x="257.763672"/>
     </g>
    </g>
   </g>
   <g id="patch_103">
    <path d="M 90 630 
L 90 86.4 
" style="fill: none; stroke: #000000; stroke-width: 0.8; stroke-linejoin: miter; stroke-linecap: square"/>
   </g>
   <g id="patch_104">
    <path d="M 648 630 
L 648 86.4 
" style="fill: none; stroke: #000000; stroke-width: 0.8; stroke-linejoin: miter; stroke-linecap: square"/>
   </g>
   <g id="patch_105">
    <path d="M 90 630 
L 648 630 
" style="fill: none; stroke: #000000; stroke-width: 0.8; stroke-linejoin: miter; stroke-linecap: square"/>
   </g>
   <g id="patch_106">
    <path d="M 90 86.4 
L 648 86.4 
" style="fill: none; stroke: #000000; stroke-width: 0.8; stroke-linejoin: miter; stroke-linecap: square"/>
   </g>
   <g id="text_16">
    <!-- c18neg_area_QCext Variances between qc raw and normalized  -->
    <g transform="translate(177.855 80.4)scale(0.12 -0.12)">
     <defs>
      <path id="DejaVuSans-63" d="M 3122 3366 
L 3122 2828 
Q 2878 2963 2633 3030 
Q 2388 3097 2138 3097 
Q 1578 3097 1268 2742 
Q 959 2388 959 1747 
Q 959 1106 1268 751 
Q 1578 397 2138 397 
Q 2388 397 2633 464 
Q 2878 531 3122 666 
L 3122 134 
Q 2881 22 2623 -34 
Q 2366 -91 2075 -91 
Q 1284 -91 818 406 
Q 353 903 353 1747 
Q 353 2603 823 3093 
Q 1294 3584 2113 3584 
Q 2378 3584 2631 3529 
Q 2884 3475 3122 3366 
z
" transform="scale(0.015625)"/>
      <path id="DejaVuSans-65" d="M 3597 1894 
L 3597 1613 
L 953 1613 
Q 991 1019 1311 708 
Q 1631 397 2203 397 
Q 2534 397 2845 478 
Q 3156 559 3463 722 
L 3463 178 
Q 3153 47 2828 -22 
Q 2503 -91 2169 -91 
Q 1331 -91 842 396 
Q 353 884 353 1716 
Q 353 2575 817 3079 
Q 1281 3584 2069 3584 
Q 2775 3584 3186 3129 
Q 3597 2675 3597 1894 
z
M 3022 2063 
Q 3016 2534 2758 2815 
Q 2500 3097 2075 3097 
Q 1594 3097 1305 2825 
Q 1016 2553 972 2059 
L 3022 2063 
z
" transform="scale(0.015625)"/>
      <path id="DejaVuSans-67" d="M 2906 1791 
Q 2906 2416 2648 2759 
Q 2391 3103 1925 3103 
Q 1463 3103 1205 2759 
Q 947 2416 947 1791 
Q 947 1169 1205 825 
Q 1463 481 1925 481 
Q 2391 481 2648 825 
Q 2906 1169 2906 1791 
z
M 3481 434 
Q 3481 -459 3084 -895 
Q 2688 -1331 1869 -1331 
Q 1566 -1331 1297 -1286 
Q 1028 -1241 775 -1147 
L 775 -588 
Q 1028 -725 1275 -790 
Q 1522 -856 1778 -856 
Q 2344 -856 2625 -561 
Q 2906 -266 2906 331 
L 2906 616 
Q 2728 306 2450 153 
Q 2172 0 1784 0 
Q 1141 0 747 490 
Q 353 981 353 1791 
Q 353 2603 747 3093 
Q 1141 3584 1784 3584 
Q 2172 3584 2450 3431 
Q 2728 3278 2906 2969 
L 2906 3500 
L 3481 3500 
L 3481 434 
z
" transform="scale(0.015625)"/>
      <path id="DejaVuSans-5f" d="M 3263 -1063 
L 3263 -1509 
L -63 -1509 
L -63 -1063 
L 3263 -1063 
z
" transform="scale(0.015625)"/>
      <path id="DejaVuSans-61" d="M 2194 1759 
Q 1497 1759 1228 1600 
Q 959 1441 959 1056 
Q 959 750 1161 570 
Q 1363 391 1709 391 
Q 2188 391 2477 730 
Q 2766 1069 2766 1631 
L 2766 1759 
L 2194 1759 
z
M 3341 1997 
L 3341 0 
L 2766 0 
L 2766 531 
Q 2569 213 2275 61 
Q 1981 -91 1556 -91 
Q 1019 -91 701 211 
Q 384 513 384 1019 
Q 384 1609 779 1909 
Q 1175 2209 1959 2209 
L 2766 2209 
L 2766 2266 
Q 2766 2663 2505 2880 
Q 2244 3097 1772 3097 
Q 1472 3097 1187 3025 
Q 903 2953 641 2809 
L 641 3341 
Q 956 3463 1253 3523 
Q 1550 3584 1831 3584 
Q 2591 3584 2966 3190 
Q 3341 2797 3341 1997 
z
" transform="scale(0.015625)"/>
      <path id="DejaVuSans-72" d="M 2631 2963 
Q 2534 3019 2420 3045 
Q 2306 3072 2169 3072 
Q 1681 3072 1420 2755 
Q 1159 2438 1159 1844 
L 1159 0 
L 581 0 
L 581 3500 
L 1159 3500 
L 1159 2956 
Q 1341 3275 1631 3429 
Q 1922 3584 2338 3584 
Q 2397 3584 2469 3576 
Q 2541 3569 2628 3553 
L 2631 2963 
z
" transform="scale(0.015625)"/>
      <path id="DejaVuSans-51" d="M 2522 4238 
Q 1834 4238 1429 3725 
Q 1025 3213 1025 2328 
Q 1025 1447 1429 934 
Q 1834 422 2522 422 
Q 3209 422 3611 934 
Q 4013 1447 4013 2328 
Q 4013 3213 3611 3725 
Q 3209 4238 2522 4238 
z
M 3406 84 
L 4238 -825 
L 3475 -825 
L 2784 -78 
Q 2681 -84 2626 -87 
Q 2572 -91 2522 -91 
Q 1538 -91 948 567 
Q 359 1225 359 2328 
Q 359 3434 948 4092 
Q 1538 4750 2522 4750 
Q 3503 4750 4090 4092 
Q 4678 3434 4678 2328 
Q 4678 1516 4351 937 
Q 4025 359 3406 84 
z
" transform="scale(0.015625)"/>
      <path id="DejaVuSans-78" d="M 3513 3500 
L 2247 1797 
L 3578 0 
L 2900 0 
L 1881 1375 
L 863 0 
L 184 0 
L 1544 1831 
L 300 3500 
L 978 3500 
L 1906 2253 
L 2834 3500 
L 3513 3500 
z
" transform="scale(0.015625)"/>
      <path id="DejaVuSans-20" transform="scale(0.015625)"/>
      <path id="DejaVuSans-56" d="M 1831 0 
L 50 4666 
L 709 4666 
L 2188 738 
L 3669 4666 
L 4325 4666 
L 2547 0 
L 1831 0 
z
" transform="scale(0.015625)"/>
      <path id="DejaVuSans-69" d="M 603 3500 
L 1178 3500 
L 1178 0 
L 603 0 
L 603 3500 
z
M 603 4863 
L 1178 4863 
L 1178 4134 
L 603 4134 
L 603 4863 
z
" transform="scale(0.015625)"/>
      <path id="DejaVuSans-73" d="M 2834 3397 
L 2834 2853 
Q 2591 2978 2328 3040 
Q 2066 3103 1784 3103 
Q 1356 3103 1142 2972 
Q 928 2841 928 2578 
Q 928 2378 1081 2264 
Q 1234 2150 1697 2047 
L 1894 2003 
Q 2506 1872 2764 1633 
Q 3022 1394 3022 966 
Q 3022 478 2636 193 
Q 2250 -91 1575 -91 
Q 1294 -91 989 -36 
Q 684 19 347 128 
L 347 722 
Q 666 556 975 473 
Q 1284 391 1588 391 
Q 1994 391 2212 530 
Q 2431 669 2431 922 
Q 2431 1156 2273 1281 
Q 2116 1406 1581 1522 
L 1381 1569 
Q 847 1681 609 1914 
Q 372 2147 372 2553 
Q 372 3047 722 3315 
Q 1072 3584 1716 3584 
Q 2034 3584 2315 3537 
Q 2597 3491 2834 3397 
z
" transform="scale(0.015625)"/>
      <path id="DejaVuSans-62" d="M 3116 1747 
Q 3116 2381 2855 2742 
Q 2594 3103 2138 3103 
Q 1681 3103 1420 2742 
Q 1159 2381 1159 1747 
Q 1159 1113 1420 752 
Q 1681 391 2138 391 
Q 2594 391 2855 752 
Q 3116 1113 3116 1747 
z
M 1159 2969 
Q 1341 3281 1617 3432 
Q 1894 3584 2278 3584 
Q 2916 3584 3314 3078 
Q 3713 2572 3713 1747 
Q 3713 922 3314 415 
Q 2916 -91 2278 -91 
Q 1894 -91 1617 61 
Q 1341 213 1159 525 
L 1159 0 
L 581 0 
L 581 4863 
L 1159 4863 
L 1159 2969 
z
" transform="scale(0.015625)"/>
      <path id="DejaVuSans-77" d="M 269 3500 
L 844 3500 
L 1563 769 
L 2278 3500 
L 2956 3500 
L 3675 769 
L 4391 3500 
L 4966 3500 
L 4050 0 
L 3372 0 
L 2619 2869 
L 1863 0 
L 1184 0 
L 269 3500 
z
" transform="scale(0.015625)"/>
      <path id="DejaVuSans-71" d="M 947 1747 
Q 947 1113 1208 752 
Q 1469 391 1925 391 
Q 2381 391 2643 752 
Q 2906 1113 2906 1747 
Q 2906 2381 2643 2742 
Q 2381 3103 1925 3103 
Q 1469 3103 1208 2742 
Q 947 2381 947 1747 
z
M 2906 525 
Q 2725 213 2448 61 
Q 2172 -91 1784 -91 
Q 1150 -91 751 415 
Q 353 922 353 1747 
Q 353 2572 751 3078 
Q 1150 3584 1784 3584 
Q 2172 3584 2448 3432 
Q 2725 3281 2906 2969 
L 2906 3500 
L 3481 3500 
L 3481 -1331 
L 2906 -1331 
L 2906 525 
z
" transform="scale(0.015625)"/>
      <path id="DejaVuSans-64" d="M 2906 2969 
L 2906 4863 
L 3481 4863 
L 3481 0 
L 2906 0 
L 2906 525 
Q 2725 213 2448 61 
Q 2172 -91 1784 -91 
Q 1150 -91 751 415 
Q 353 922 353 1747 
Q 353 2572 751 3078 
Q 1150 3584 1784 3584 
Q 2172 3584 2448 3432 
Q 2725 3281 2906 2969 
z
M 947 1747 
Q 947 1113 1208 752 
Q 1469 391 1925 391 
Q 2381 391 2643 752 
Q 2906 1113 2906 1747 
Q 2906 2381 2643 2742 
Q 2381 3103 1925 3103 
Q 1469 3103 1208 2742 
Q 947 2381 947 1747 
z
" transform="scale(0.015625)"/>
      <path id="DejaVuSans-6d" d="M 3328 2828 
Q 3544 3216 3844 3400 
Q 4144 3584 4550 3584 
Q 5097 3584 5394 3201 
Q 5691 2819 5691 2113 
L 5691 0 
L 5113 0 
L 5113 2094 
Q 5113 2597 4934 2840 
Q 4756 3084 4391 3084 
Q 3944 3084 3684 2787 
Q 3425 2491 3425 1978 
L 3425 0 
L 2847 0 
L 2847 2094 
Q 2847 2600 2669 2842 
Q 2491 3084 2119 3084 
Q 1678 3084 1418 2786 
Q 1159 2488 1159 1978 
L 1159 0 
L 581 0 
L 581 3500 
L 1159 3500 
L 1159 2956 
Q 1356 3278 1631 3431 
Q 1906 3584 2284 3584 
Q 2666 3584 2933 3390 
Q 3200 3197 3328 2828 
z
" transform="scale(0.015625)"/>
      <path id="DejaVuSans-6c" d="M 603 4863 
L 1178 4863 
L 1178 0 
L 603 0 
L 603 4863 
z
" transform="scale(0.015625)"/>
      <path id="DejaVuSans-7a" d="M 353 3500 
L 3084 3500 
L 3084 2975 
L 922 459 
L 3084 459 
L 3084 0 
L 275 0 
L 275 525 
L 2438 3041 
L 353 3041 
L 353 3500 
z
" transform="scale(0.015625)"/>
     </defs>
     <use xlink:href="#DejaVuSans-63"/>
     <use xlink:href="#DejaVuSans-31" x="54.980469"/>
     <use xlink:href="#DejaVuSans-38" x="118.603516"/>
     <use xlink:href="#DejaVuSans-6e" x="182.226562"/>
     <use xlink:href="#DejaVuSans-65" x="245.605469"/>
     <use xlink:href="#DejaVuSans-67" x="307.128906"/>
     <use xlink:href="#DejaVuSans-5f" x="370.605469"/>
     <use xlink:href="#DejaVuSans-61" x="420.605469"/>
     <use xlink:href="#DejaVuSans-72" x="481.884766"/>
     <use xlink:href="#DejaVuSans-65" x="520.748047"/>
     <use xlink:href="#DejaVuSans-61" x="582.271484"/>
     <use xlink:href="#DejaVuSans-5f" x="643.550781"/>
     <use xlink:href="#DejaVuSans-51" x="693.550781"/>
     <use xlink:href="#DejaVuSans-43" x="772.261719"/>
     <use xlink:href="#DejaVuSans-65" x="842.085938"/>
     <use xlink:href="#DejaVuSans-78" x="901.859375"/>
     <use xlink:href="#DejaVuSans-74" x="961.039062"/>
     <use xlink:href="#DejaVuSans-20" x="1000.248047"/>
     <use xlink:href="#DejaVuSans-56" x="1032.035156"/>
     <use xlink:href="#DejaVuSans-61" x="1092.693359"/>
     <use xlink:href="#DejaVuSans-72" x="1153.972656"/>
     <use xlink:href="#DejaVuSans-69" x="1195.085938"/>
     <use xlink:href="#DejaVuSans-61" x="1222.869141"/>
     <use xlink:href="#DejaVuSans-6e" x="1284.148438"/>
     <use xlink:href="#DejaVuSans-63" x="1347.527344"/>
     <use xlink:href="#DejaVuSans-65" x="1402.507812"/>
     <use xlink:href="#DejaVuSans-73" x="1464.03125"/>
     <use xlink:href="#DejaVuSans-20" x="1516.130859"/>
     <use xlink:href="#DejaVuSans-62" x="1547.917969"/>
     <use xlink:href="#DejaVuSans-65" x="1611.394531"/>
     <use xlink:href="#DejaVuSans-74" x="1672.917969"/>
     <use xlink:href="#DejaVuSans-77" x="1712.126953"/>
     <use xlink:href="#DejaVuSans-65" x="1793.914062"/>
     <use xlink:href="#DejaVuSans-65" x="1855.4375"/>
     <use xlink:href="#DejaVuSans-6e" x="1916.960938"/>
     <use xlink:href="#DejaVuSans-20" x="1980.339844"/>
     <use xlink:href="#DejaVuSans-71" x="2012.126953"/>
     <use xlink:href="#DejaVuSans-63" x="2075.603516"/>
     <use xlink:href="#DejaVuSans-20" x="2130.583984"/>
     <use xlink:href="#DejaVuSans-72" x="2162.371094"/>
     <use xlink:href="#DejaVuSans-61" x="2203.484375"/>
     <use xlink:href="#DejaVuSans-77" x="2264.763672"/>
     <use xlink:href="#DejaVuSans-20" x="2346.550781"/>
     <use xlink:href="#DejaVuSans-61" x="2378.337891"/>
     <use xlink:href="#DejaVuSans-6e" x="2439.617188"/>
     <use xlink:href="#DejaVuSans-64" x="2502.996094"/>
     <use xlink:href="#DejaVuSans-20" x="2566.472656"/>
     <use xlink:href="#DejaVuSans-6e" x="2598.259766"/>
     <use xlink:href="#DejaVuSans-6f" x="2661.638672"/>
     <use xlink:href="#DejaVuSans-72" x="2722.820312"/>
     <use xlink:href="#DejaVuSans-6d" x="2762.183594"/>
     <use xlink:href="#DejaVuSans-61" x="2859.595703"/>
     <use xlink:href="#DejaVuSans-6c" x="2920.875"/>
     <use xlink:href="#DejaVuSans-69" x="2948.658203"/>
     <use xlink:href="#DejaVuSans-7a" x="2976.441406"/>
     <use xlink:href="#DejaVuSans-65" x="3028.931641"/>
     <use xlink:href="#DejaVuSans-64" x="3090.455078"/>
     <use xlink:href="#DejaVuSans-20" x="3153.931641"/>
    </g>
   </g>
   <g id="legend_1">
    <g id="patch_107">
     <path d="M 544.8625 124.3125 
L 641 124.3125 
Q 643 124.3125 643 122.3125 
L 643 93.4 
Q 643 91.4 641 91.4 
L 544.8625 91.4 
Q 542.8625 91.4 542.8625 93.4 
L 542.8625 122.3125 
Q 542.8625 124.3125 544.8625 124.3125 
z
" style="fill: #ffffff; opacity: 0.8; stroke: #cccccc; stroke-linejoin: miter"/>
    </g>
    <g id="patch_108">
     <path d="M 546.8625 102.998438 
L 566.8625 102.998438 
L 566.8625 95.998438 
L 546.8625 95.998438 
z
" style="fill: #0000ff; fill-opacity: 0.6; stroke: #000000; stroke-linejoin: miter"/>
    </g>
    <g id="text_17">
     <!-- var_qc_raw -->
     <g transform="translate(574.8625 102.998438)scale(0.1 -0.1)">
      <defs>
       <path id="DejaVuSans-76" d="M 191 3500 
L 800 3500 
L 1894 563 
L 2988 3500 
L 3597 3500 
L 2284 0 
L 1503 0 
L 191 3500 
z
" transform="scale(0.015625)"/>
      </defs>
      <use xlink:href="#DejaVuSans-76"/>
      <use xlink:href="#DejaVuSans-61" x="59.179688"/>
      <use xlink:href="#DejaVuSans-72" x="120.458984"/>
      <use xlink:href="#DejaVuSans-5f" x="161.572266"/>
      <use xlink:href="#DejaVuSans-71" x="211.572266"/>
      <use xlink:href="#DejaVuSans-63" x="275.048828"/>
      <use xlink:href="#DejaVuSans-5f" x="330.029297"/>
      <use xlink:href="#DejaVuSans-72" x="380.029297"/>
      <use xlink:href="#DejaVuSans-61" x="421.142578"/>
      <use xlink:href="#DejaVuSans-77" x="482.421875"/>
     </g>
    </g>
    <g id="patch_109">
     <path d="M 546.8625 117.954687 
L 566.8625 117.954687 
L 566.8625 110.954687 
L 546.8625 110.954687 
z
" style="fill: #ffff00; fill-opacity: 0.2; stroke: #000000; stroke-linejoin: miter"/>
    </g>
    <g id="text_18">
     <!-- var_qc_norm -->
     <g transform="translate(574.8625 117.954687)scale(0.1 -0.1)">
      <use xlink:href="#DejaVuSans-76"/>
      <use xlink:href="#DejaVuSans-61" x="59.179688"/>
      <use xlink:href="#DejaVuSans-72" x="120.458984"/>
      <use xlink:href="#DejaVuSans-5f" x="161.572266"/>
      <use xlink:href="#DejaVuSans-71" x="211.572266"/>
      <use xlink:href="#DejaVuSans-63" x="275.048828"/>
      <use xlink:href="#DejaVuSans-5f" x="330.029297"/>
      <use xlink:href="#DejaVuSans-6e" x="380.029297"/>
      <use xlink:href="#DejaVuSans-6f" x="443.408203"/>
      <use xlink:href="#DejaVuSans-72" x="504.589844"/>
      <use xlink:href="#DejaVuSans-6d" x="543.953125"/>
     </g>
    </g>
   </g>
  </g>
 </g>
 <defs>
  <clipPath id="p6be2d17aae">
   <rect x="90" y="86.4" width="558" height="543.6"/>
  </clipPath>
 </defs>
</svg>
