<?xml version="1.0" encoding="utf-8" standalone="no"?>
<!DOCTYPE svg PUBLIC "-//W3C//DTD SVG 1.1//EN"
  "http://www.w3.org/Graphics/SVG/1.1/DTD/svg11.dtd">
<svg xmlns:xlink="http://www.w3.org/1999/xlink" width="720pt" height="720pt" viewBox="0 0 720 720" xmlns="http://www.w3.org/2000/svg" version="1.1">
 <metadata>
  <rdf:RDF xmlns:dc="http://purl.org/dc/elements/1.1/" xmlns:cc="http://creativecommons.org/ns#" xmlns:rdf="http://www.w3.org/1999/02/22-rdf-syntax-ns#">
   <cc:Work>
    <dc:type rdf:resource="http://purl.org/dc/dcmitype/StillImage"/>
    <dc:date>2022-04-06T23:43:21.124602</dc:date>
    <dc:format>image/svg+xml</dc:format>
    <dc:creator>
     <cc:Agent>
      <dc:title>Matplotlib v3.5.1, https://matplotlib.org/</dc:title>
     </cc:Agent>
    </dc:creator>
   </cc:Work>
  </rdf:RDF>
 </metadata>
 <defs>
  <style type="text/css">*{stroke-linejoin: round; stroke-linecap: butt}</style>
 </defs>
 <g id="figure_1">
  <g id="patch_1">
   <path d="M 0 720 
L 720 720 
L 720 0 
L 0 0 
L 0 720 
z
" style="fill: none"/>
  </g>
  <g id="axes_1">
   <g id="patch_2">
    <path d="M 90 630 
L 648 630 
L 648 86.4 
L 90 86.4 
z
" style="fill: #ffffff"/>
   </g>
   <g id="patch_3">
    <path d="M 115.363636 630 
L 125.509091 630 
L 125.509091 112.285714 
L 115.363636 112.285714 
z
" clip-path="url(#p41dc63436c)" style="fill: #0000ff; fill-opacity: 0.6; stroke: #000000; stroke-linejoin: miter"/>
   </g>
   <g id="patch_4">
    <path d="M 125.509091 630 
L 135.654545 630 
L 135.654545 610.282626 
L 125.509091 610.282626 
z
" clip-path="url(#p41dc63436c)" style="fill: #0000ff; fill-opacity: 0.6; stroke: #000000; stroke-linejoin: miter"/>
   </g>
   <g id="patch_5">
    <path d="M 135.654545 630 
L 145.8 630 
L 145.8 625.203882 
L 135.654545 625.203882 
z
" clip-path="url(#p41dc63436c)" style="fill: #0000ff; fill-opacity: 0.6; stroke: #000000; stroke-linejoin: miter"/>
   </g>
   <g id="patch_6">
    <path d="M 145.8 630 
L 155.945455 630 
L 155.945455 626.269686 
L 145.8 626.269686 
z
" clip-path="url(#p41dc63436c)" style="fill: #0000ff; fill-opacity: 0.6; stroke: #000000; stroke-linejoin: miter"/>
   </g>
   <g id="patch_7">
    <path d="M 155.945455 630 
L 166.090909 630 
L 166.090909 628.401294 
L 155.945455 628.401294 
z
" clip-path="url(#p41dc63436c)" style="fill: #0000ff; fill-opacity: 0.6; stroke: #000000; stroke-linejoin: miter"/>
   </g>
   <g id="patch_8">
    <path d="M 166.090909 630 
L 176.236364 630 
L 176.236364 628.134843 
L 166.090909 628.134843 
z
" clip-path="url(#p41dc63436c)" style="fill: #0000ff; fill-opacity: 0.6; stroke: #000000; stroke-linejoin: miter"/>
   </g>
   <g id="patch_9">
    <path d="M 176.236364 630 
L 186.381818 630 
L 186.381818 627.868392 
L 176.236364 627.868392 
z
" clip-path="url(#p41dc63436c)" style="fill: #0000ff; fill-opacity: 0.6; stroke: #000000; stroke-linejoin: miter"/>
   </g>
   <g id="patch_10">
    <path d="M 186.381818 630 
L 196.527273 630 
L 196.527273 628.401294 
L 186.381818 628.401294 
z
" clip-path="url(#p41dc63436c)" style="fill: #0000ff; fill-opacity: 0.6; stroke: #000000; stroke-linejoin: miter"/>
   </g>
   <g id="patch_11">
    <path d="M 196.527273 630 
L 206.672727 630 
L 206.672727 628.134843 
L 196.527273 628.134843 
z
" clip-path="url(#p41dc63436c)" style="fill: #0000ff; fill-opacity: 0.6; stroke: #000000; stroke-linejoin: miter"/>
   </g>
   <g id="patch_12">
    <path d="M 206.672727 630 
L 216.818182 630 
L 216.818182 628.934196 
L 206.672727 628.934196 
z
" clip-path="url(#p41dc63436c)" style="fill: #0000ff; fill-opacity: 0.6; stroke: #000000; stroke-linejoin: miter"/>
   </g>
   <g id="patch_13">
    <path d="M 216.818182 630 
L 226.963636 630 
L 226.963636 628.934196 
L 216.818182 628.934196 
z
" clip-path="url(#p41dc63436c)" style="fill: #0000ff; fill-opacity: 0.6; stroke: #000000; stroke-linejoin: miter"/>
   </g>
   <g id="patch_14">
    <path d="M 226.963636 630 
L 237.109091 630 
L 237.109091 628.667745 
L 226.963636 628.667745 
z
" clip-path="url(#p41dc63436c)" style="fill: #0000ff; fill-opacity: 0.6; stroke: #000000; stroke-linejoin: miter"/>
   </g>
   <g id="patch_15">
    <path d="M 237.109091 630 
L 247.254545 630 
L 247.254545 629.467098 
L 237.109091 629.467098 
z
" clip-path="url(#p41dc63436c)" style="fill: #0000ff; fill-opacity: 0.6; stroke: #000000; stroke-linejoin: miter"/>
   </g>
   <g id="patch_16">
    <path d="M 247.254545 630 
L 257.4 630 
L 257.4 628.934196 
L 247.254545 628.934196 
z
" clip-path="url(#p41dc63436c)" style="fill: #0000ff; fill-opacity: 0.6; stroke: #000000; stroke-linejoin: miter"/>
   </g>
   <g id="patch_17">
    <path d="M 257.4 630 
L 267.545455 630 
L 267.545455 629.467098 
L 257.4 629.467098 
z
" clip-path="url(#p41dc63436c)" style="fill: #0000ff; fill-opacity: 0.6; stroke: #000000; stroke-linejoin: miter"/>
   </g>
   <g id="patch_18">
    <path d="M 267.545455 630 
L 277.690909 630 
L 277.690909 628.934196 
L 267.545455 628.934196 
z
" clip-path="url(#p41dc63436c)" style="fill: #0000ff; fill-opacity: 0.6; stroke: #000000; stroke-linejoin: miter"/>
   </g>
   <g id="patch_19">
    <path d="M 277.690909 630 
L 287.836364 630 
L 287.836364 629.467098 
L 277.690909 629.467098 
z
" clip-path="url(#p41dc63436c)" style="fill: #0000ff; fill-opacity: 0.6; stroke: #000000; stroke-linejoin: miter"/>
   </g>
   <g id="patch_20">
    <path d="M 287.836364 630 
L 297.981818 630 
L 297.981818 630 
L 287.836364 630 
z
" clip-path="url(#p41dc63436c)" style="fill: #0000ff; fill-opacity: 0.6; stroke: #000000; stroke-linejoin: miter"/>
   </g>
   <g id="patch_21">
    <path d="M 297.981818 630 
L 308.127273 630 
L 308.127273 628.934196 
L 297.981818 628.934196 
z
" clip-path="url(#p41dc63436c)" style="fill: #0000ff; fill-opacity: 0.6; stroke: #000000; stroke-linejoin: miter"/>
   </g>
   <g id="patch_22">
    <path d="M 308.127273 630 
L 318.272727 630 
L 318.272727 630 
L 308.127273 630 
z
" clip-path="url(#p41dc63436c)" style="fill: #0000ff; fill-opacity: 0.6; stroke: #000000; stroke-linejoin: miter"/>
   </g>
   <g id="patch_23">
    <path d="M 318.272727 630 
L 328.418182 630 
L 328.418182 629.467098 
L 318.272727 629.467098 
z
" clip-path="url(#p41dc63436c)" style="fill: #0000ff; fill-opacity: 0.6; stroke: #000000; stroke-linejoin: miter"/>
   </g>
   <g id="patch_24">
    <path d="M 328.418182 630 
L 338.563636 630 
L 338.563636 628.667745 
L 328.418182 628.667745 
z
" clip-path="url(#p41dc63436c)" style="fill: #0000ff; fill-opacity: 0.6; stroke: #000000; stroke-linejoin: miter"/>
   </g>
   <g id="patch_25">
    <path d="M 338.563636 630 
L 348.709091 630 
L 348.709091 629.200647 
L 338.563636 629.200647 
z
" clip-path="url(#p41dc63436c)" style="fill: #0000ff; fill-opacity: 0.6; stroke: #000000; stroke-linejoin: miter"/>
   </g>
   <g id="patch_26">
    <path d="M 348.709091 630 
L 358.854545 630 
L 358.854545 630 
L 348.709091 630 
z
" clip-path="url(#p41dc63436c)" style="fill: #0000ff; fill-opacity: 0.6; stroke: #000000; stroke-linejoin: miter"/>
   </g>
   <g id="patch_27">
    <path d="M 358.854545 630 
L 369 630 
L 369 629.200647 
L 358.854545 629.200647 
z
" clip-path="url(#p41dc63436c)" style="fill: #0000ff; fill-opacity: 0.6; stroke: #000000; stroke-linejoin: miter"/>
   </g>
   <g id="patch_28">
    <path d="M 369 630 
L 379.145455 630 
L 379.145455 629.467098 
L 369 629.467098 
z
" clip-path="url(#p41dc63436c)" style="fill: #0000ff; fill-opacity: 0.6; stroke: #000000; stroke-linejoin: miter"/>
   </g>
   <g id="patch_29">
    <path d="M 379.145455 630 
L 389.290909 630 
L 389.290909 629.733549 
L 379.145455 629.733549 
z
" clip-path="url(#p41dc63436c)" style="fill: #0000ff; fill-opacity: 0.6; stroke: #000000; stroke-linejoin: miter"/>
   </g>
   <g id="patch_30">
    <path d="M 389.290909 630 
L 399.436364 630 
L 399.436364 629.733549 
L 389.290909 629.733549 
z
" clip-path="url(#p41dc63436c)" style="fill: #0000ff; fill-opacity: 0.6; stroke: #000000; stroke-linejoin: miter"/>
   </g>
   <g id="patch_31">
    <path d="M 399.436364 630 
L 409.581818 630 
L 409.581818 630 
L 399.436364 630 
z
" clip-path="url(#p41dc63436c)" style="fill: #0000ff; fill-opacity: 0.6; stroke: #000000; stroke-linejoin: miter"/>
   </g>
   <g id="patch_32">
    <path d="M 409.581818 630 
L 419.727273 630 
L 419.727273 629.733549 
L 409.581818 629.733549 
z
" clip-path="url(#p41dc63436c)" style="fill: #0000ff; fill-opacity: 0.6; stroke: #000000; stroke-linejoin: miter"/>
   </g>
   <g id="patch_33">
    <path d="M 419.727273 630 
L 429.872727 630 
L 429.872727 629.733549 
L 419.727273 629.733549 
z
" clip-path="url(#p41dc63436c)" style="fill: #0000ff; fill-opacity: 0.6; stroke: #000000; stroke-linejoin: miter"/>
   </g>
   <g id="patch_34">
    <path d="M 429.872727 630 
L 440.018182 630 
L 440.018182 630 
L 429.872727 630 
z
" clip-path="url(#p41dc63436c)" style="fill: #0000ff; fill-opacity: 0.6; stroke: #000000; stroke-linejoin: miter"/>
   </g>
   <g id="patch_35">
    <path d="M 440.018182 630 
L 450.163636 630 
L 450.163636 630 
L 440.018182 630 
z
" clip-path="url(#p41dc63436c)" style="fill: #0000ff; fill-opacity: 0.6; stroke: #000000; stroke-linejoin: miter"/>
   </g>
   <g id="patch_36">
    <path d="M 450.163636 630 
L 460.309091 630 
L 460.309091 629.733549 
L 450.163636 629.733549 
z
" clip-path="url(#p41dc63436c)" style="fill: #0000ff; fill-opacity: 0.6; stroke: #000000; stroke-linejoin: miter"/>
   </g>
   <g id="patch_37">
    <path d="M 460.309091 630 
L 470.454545 630 
L 470.454545 630 
L 460.309091 630 
z
" clip-path="url(#p41dc63436c)" style="fill: #0000ff; fill-opacity: 0.6; stroke: #000000; stroke-linejoin: miter"/>
   </g>
   <g id="patch_38">
    <path d="M 470.454545 630 
L 480.6 630 
L 480.6 630 
L 470.454545 630 
z
" clip-path="url(#p41dc63436c)" style="fill: #0000ff; fill-opacity: 0.6; stroke: #000000; stroke-linejoin: miter"/>
   </g>
   <g id="patch_39">
    <path d="M 480.6 630 
L 490.745455 630 
L 490.745455 630 
L 480.6 630 
z
" clip-path="url(#p41dc63436c)" style="fill: #0000ff; fill-opacity: 0.6; stroke: #000000; stroke-linejoin: miter"/>
   </g>
   <g id="patch_40">
    <path d="M 490.745455 630 
L 500.890909 630 
L 500.890909 630 
L 490.745455 630 
z
" clip-path="url(#p41dc63436c)" style="fill: #0000ff; fill-opacity: 0.6; stroke: #000000; stroke-linejoin: miter"/>
   </g>
   <g id="patch_41">
    <path d="M 500.890909 630 
L 511.036364 630 
L 511.036364 630 
L 500.890909 630 
z
" clip-path="url(#p41dc63436c)" style="fill: #0000ff; fill-opacity: 0.6; stroke: #000000; stroke-linejoin: miter"/>
   </g>
   <g id="patch_42">
    <path d="M 511.036364 630 
L 521.181818 630 
L 521.181818 630 
L 511.036364 630 
z
" clip-path="url(#p41dc63436c)" style="fill: #0000ff; fill-opacity: 0.6; stroke: #000000; stroke-linejoin: miter"/>
   </g>
   <g id="patch_43">
    <path d="M 521.181818 630 
L 531.327273 630 
L 531.327273 630 
L 521.181818 630 
z
" clip-path="url(#p41dc63436c)" style="fill: #0000ff; fill-opacity: 0.6; stroke: #000000; stroke-linejoin: miter"/>
   </g>
   <g id="patch_44">
    <path d="M 531.327273 630 
L 541.472727 630 
L 541.472727 630 
L 531.327273 630 
z
" clip-path="url(#p41dc63436c)" style="fill: #0000ff; fill-opacity: 0.6; stroke: #000000; stroke-linejoin: miter"/>
   </g>
   <g id="patch_45">
    <path d="M 541.472727 630 
L 551.618182 630 
L 551.618182 630 
L 541.472727 630 
z
" clip-path="url(#p41dc63436c)" style="fill: #0000ff; fill-opacity: 0.6; stroke: #000000; stroke-linejoin: miter"/>
   </g>
   <g id="patch_46">
    <path d="M 551.618182 630 
L 561.763636 630 
L 561.763636 630 
L 551.618182 630 
z
" clip-path="url(#p41dc63436c)" style="fill: #0000ff; fill-opacity: 0.6; stroke: #000000; stroke-linejoin: miter"/>
   </g>
   <g id="patch_47">
    <path d="M 561.763636 630 
L 571.909091 630 
L 571.909091 630 
L 561.763636 630 
z
" clip-path="url(#p41dc63436c)" style="fill: #0000ff; fill-opacity: 0.6; stroke: #000000; stroke-linejoin: miter"/>
   </g>
   <g id="patch_48">
    <path d="M 571.909091 630 
L 582.054545 630 
L 582.054545 630 
L 571.909091 630 
z
" clip-path="url(#p41dc63436c)" style="fill: #0000ff; fill-opacity: 0.6; stroke: #000000; stroke-linejoin: miter"/>
   </g>
   <g id="patch_49">
    <path d="M 582.054545 630 
L 592.2 630 
L 592.2 630 
L 582.054545 630 
z
" clip-path="url(#p41dc63436c)" style="fill: #0000ff; fill-opacity: 0.6; stroke: #000000; stroke-linejoin: miter"/>
   </g>
   <g id="patch_50">
    <path d="M 592.2 630 
L 602.345455 630 
L 602.345455 630 
L 592.2 630 
z
" clip-path="url(#p41dc63436c)" style="fill: #0000ff; fill-opacity: 0.6; stroke: #000000; stroke-linejoin: miter"/>
   </g>
   <g id="patch_51">
    <path d="M 602.345455 630 
L 612.490909 630 
L 612.490909 630 
L 602.345455 630 
z
" clip-path="url(#p41dc63436c)" style="fill: #0000ff; fill-opacity: 0.6; stroke: #000000; stroke-linejoin: miter"/>
   </g>
   <g id="patch_52">
    <path d="M 612.490909 630 
L 622.636364 630 
L 622.636364 629.733549 
L 612.490909 629.733549 
z
" clip-path="url(#p41dc63436c)" style="fill: #0000ff; fill-opacity: 0.6; stroke: #000000; stroke-linejoin: miter"/>
   </g>
   <g id="patch_53">
    <path d="M 115.391382 630 
L 122.918234 630 
L 122.918234 236.71833 
L 115.391382 236.71833 
z
" clip-path="url(#p41dc63436c)" style="fill: #ffff00; fill-opacity: 0.2; stroke: #000000; stroke-width: 0.752685; stroke-linejoin: miter"/>
   </g>
   <g id="patch_54">
    <path d="M 122.918234 630 
L 130.445086 630 
L 130.445086 538.074406 
L 122.918234 538.074406 
z
" clip-path="url(#p41dc63436c)" style="fill: #ffff00; fill-opacity: 0.2; stroke: #000000; stroke-width: 0.752685; stroke-linejoin: miter"/>
   </g>
   <g id="patch_55">
    <path d="M 130.445086 630 
L 137.971939 630 
L 137.971939 600.423939 
L 130.445086 600.423939 
z
" clip-path="url(#p41dc63436c)" style="fill: #ffff00; fill-opacity: 0.2; stroke: #000000; stroke-width: 0.752685; stroke-linejoin: miter"/>
   </g>
   <g id="patch_56">
    <path d="M 137.971939 630 
L 145.498791 630 
L 145.498791 613.480038 
L 137.971939 613.480038 
z
" clip-path="url(#p41dc63436c)" style="fill: #ffff00; fill-opacity: 0.2; stroke: #000000; stroke-width: 0.752685; stroke-linejoin: miter"/>
   </g>
   <g id="patch_57">
    <path d="M 145.498791 630 
L 153.025644 630 
L 153.025644 622.272921 
L 145.498791 622.272921 
z
" clip-path="url(#p41dc63436c)" style="fill: #ffff00; fill-opacity: 0.2; stroke: #000000; stroke-width: 0.752685; stroke-linejoin: miter"/>
   </g>
   <g id="patch_58">
    <path d="M 153.025644 630 
L 160.552496 630 
L 160.552496 624.67098 
L 153.025644 624.67098 
z
" clip-path="url(#p41dc63436c)" style="fill: #ffff00; fill-opacity: 0.2; stroke: #000000; stroke-width: 0.752685; stroke-linejoin: miter"/>
   </g>
   <g id="patch_59">
    <path d="M 160.552496 630 
L 168.079348 630 
L 168.079348 627.601941 
L 160.552496 627.601941 
z
" clip-path="url(#p41dc63436c)" style="fill: #ffff00; fill-opacity: 0.2; stroke: #000000; stroke-width: 0.752685; stroke-linejoin: miter"/>
   </g>
   <g id="patch_60">
    <path d="M 168.079348 630 
L 175.606201 630 
L 175.606201 628.401294 
L 168.079348 628.401294 
z
" clip-path="url(#p41dc63436c)" style="fill: #ffff00; fill-opacity: 0.2; stroke: #000000; stroke-width: 0.752685; stroke-linejoin: miter"/>
   </g>
   <g id="patch_61">
    <path d="M 175.606201 630 
L 183.133053 630 
L 183.133053 628.934196 
L 175.606201 628.934196 
z
" clip-path="url(#p41dc63436c)" style="fill: #ffff00; fill-opacity: 0.2; stroke: #000000; stroke-width: 0.752685; stroke-linejoin: miter"/>
   </g>
   <g id="patch_62">
    <path d="M 183.133053 630 
L 190.659905 630 
L 190.659905 629.200647 
L 183.133053 629.200647 
z
" clip-path="url(#p41dc63436c)" style="fill: #ffff00; fill-opacity: 0.2; stroke: #000000; stroke-width: 0.752685; stroke-linejoin: miter"/>
   </g>
   <g id="patch_63">
    <path d="M 190.659905 630 
L 198.186758 630 
L 198.186758 628.401294 
L 190.659905 628.401294 
z
" clip-path="url(#p41dc63436c)" style="fill: #ffff00; fill-opacity: 0.2; stroke: #000000; stroke-width: 0.752685; stroke-linejoin: miter"/>
   </g>
   <g id="patch_64">
    <path d="M 198.186758 630 
L 205.71361 630 
L 205.71361 628.934196 
L 198.186758 628.934196 
z
" clip-path="url(#p41dc63436c)" style="fill: #ffff00; fill-opacity: 0.2; stroke: #000000; stroke-width: 0.752685; stroke-linejoin: miter"/>
   </g>
   <g id="patch_65">
    <path d="M 205.71361 630 
L 213.240462 630 
L 213.240462 628.667745 
L 205.71361 628.667745 
z
" clip-path="url(#p41dc63436c)" style="fill: #ffff00; fill-opacity: 0.2; stroke: #000000; stroke-width: 0.752685; stroke-linejoin: miter"/>
   </g>
   <g id="patch_66">
    <path d="M 213.240462 630 
L 220.767315 630 
L 220.767315 628.667745 
L 213.240462 628.667745 
z
" clip-path="url(#p41dc63436c)" style="fill: #ffff00; fill-opacity: 0.2; stroke: #000000; stroke-width: 0.752685; stroke-linejoin: miter"/>
   </g>
   <g id="patch_67">
    <path d="M 220.767315 630 
L 228.294167 630 
L 228.294167 629.200647 
L 220.767315 629.200647 
z
" clip-path="url(#p41dc63436c)" style="fill: #ffff00; fill-opacity: 0.2; stroke: #000000; stroke-width: 0.752685; stroke-linejoin: miter"/>
   </g>
   <g id="patch_68">
    <path d="M 228.294167 630 
L 235.821019 630 
L 235.821019 629.733549 
L 228.294167 629.733549 
z
" clip-path="url(#p41dc63436c)" style="fill: #ffff00; fill-opacity: 0.2; stroke: #000000; stroke-width: 0.752685; stroke-linejoin: miter"/>
   </g>
   <g id="patch_69">
    <path d="M 235.821019 630 
L 243.347872 630 
L 243.347872 628.934196 
L 235.821019 628.934196 
z
" clip-path="url(#p41dc63436c)" style="fill: #ffff00; fill-opacity: 0.2; stroke: #000000; stroke-width: 0.752685; stroke-linejoin: miter"/>
   </g>
   <g id="patch_70">
    <path d="M 243.347872 630 
L 250.874724 630 
L 250.874724 629.467098 
L 243.347872 629.467098 
z
" clip-path="url(#p41dc63436c)" style="fill: #ffff00; fill-opacity: 0.2; stroke: #000000; stroke-width: 0.752685; stroke-linejoin: miter"/>
   </g>
   <g id="patch_71">
    <path d="M 250.874724 630 
L 258.401576 630 
L 258.401576 629.467098 
L 250.874724 629.467098 
z
" clip-path="url(#p41dc63436c)" style="fill: #ffff00; fill-opacity: 0.2; stroke: #000000; stroke-width: 0.752685; stroke-linejoin: miter"/>
   </g>
   <g id="patch_72">
    <path d="M 258.401576 630 
L 265.928429 630 
L 265.928429 629.733549 
L 258.401576 629.733549 
z
" clip-path="url(#p41dc63436c)" style="fill: #ffff00; fill-opacity: 0.2; stroke: #000000; stroke-width: 0.752685; stroke-linejoin: miter"/>
   </g>
   <g id="patch_73">
    <path d="M 265.928429 630 
L 273.455281 630 
L 273.455281 629.200647 
L 265.928429 629.200647 
z
" clip-path="url(#p41dc63436c)" style="fill: #ffff00; fill-opacity: 0.2; stroke: #000000; stroke-width: 0.752685; stroke-linejoin: miter"/>
   </g>
   <g id="patch_74">
    <path d="M 273.455281 630 
L 280.982133 630 
L 280.982133 629.733549 
L 273.455281 629.733549 
z
" clip-path="url(#p41dc63436c)" style="fill: #ffff00; fill-opacity: 0.2; stroke: #000000; stroke-width: 0.752685; stroke-linejoin: miter"/>
   </g>
   <g id="patch_75">
    <path d="M 280.982133 630 
L 288.508986 630 
L 288.508986 629.733549 
L 280.982133 629.733549 
z
" clip-path="url(#p41dc63436c)" style="fill: #ffff00; fill-opacity: 0.2; stroke: #000000; stroke-width: 0.752685; stroke-linejoin: miter"/>
   </g>
   <g id="patch_76">
    <path d="M 288.508986 630 
L 296.035838 630 
L 296.035838 628.667745 
L 288.508986 628.667745 
z
" clip-path="url(#p41dc63436c)" style="fill: #ffff00; fill-opacity: 0.2; stroke: #000000; stroke-width: 0.752685; stroke-linejoin: miter"/>
   </g>
   <g id="patch_77">
    <path d="M 296.035838 630 
L 303.56269 630 
L 303.56269 629.733549 
L 296.035838 629.733549 
z
" clip-path="url(#p41dc63436c)" style="fill: #ffff00; fill-opacity: 0.2; stroke: #000000; stroke-width: 0.752685; stroke-linejoin: miter"/>
   </g>
   <g id="patch_78">
    <path d="M 303.56269 630 
L 311.089543 630 
L 311.089543 629.467098 
L 303.56269 629.467098 
z
" clip-path="url(#p41dc63436c)" style="fill: #ffff00; fill-opacity: 0.2; stroke: #000000; stroke-width: 0.752685; stroke-linejoin: miter"/>
   </g>
   <g id="patch_79">
    <path d="M 311.089543 630 
L 318.616395 630 
L 318.616395 629.467098 
L 311.089543 629.467098 
z
" clip-path="url(#p41dc63436c)" style="fill: #ffff00; fill-opacity: 0.2; stroke: #000000; stroke-width: 0.752685; stroke-linejoin: miter"/>
   </g>
   <g id="patch_80">
    <path d="M 318.616395 630 
L 326.143247 630 
L 326.143247 629.467098 
L 318.616395 629.467098 
z
" clip-path="url(#p41dc63436c)" style="fill: #ffff00; fill-opacity: 0.2; stroke: #000000; stroke-width: 0.752685; stroke-linejoin: miter"/>
   </g>
   <g id="patch_81">
    <path d="M 326.143247 630 
L 333.6701 630 
L 333.6701 629.467098 
L 326.143247 629.467098 
z
" clip-path="url(#p41dc63436c)" style="fill: #ffff00; fill-opacity: 0.2; stroke: #000000; stroke-width: 0.752685; stroke-linejoin: miter"/>
   </g>
   <g id="patch_82">
    <path d="M 333.6701 630 
L 341.196952 630 
L 341.196952 629.467098 
L 333.6701 629.467098 
z
" clip-path="url(#p41dc63436c)" style="fill: #ffff00; fill-opacity: 0.2; stroke: #000000; stroke-width: 0.752685; stroke-linejoin: miter"/>
   </g>
   <g id="patch_83">
    <path d="M 341.196952 630 
L 348.723805 630 
L 348.723805 628.934196 
L 341.196952 628.934196 
z
" clip-path="url(#p41dc63436c)" style="fill: #ffff00; fill-opacity: 0.2; stroke: #000000; stroke-width: 0.752685; stroke-linejoin: miter"/>
   </g>
   <g id="patch_84">
    <path d="M 348.723805 630 
L 356.250657 630 
L 356.250657 629.200647 
L 348.723805 629.200647 
z
" clip-path="url(#p41dc63436c)" style="fill: #ffff00; fill-opacity: 0.2; stroke: #000000; stroke-width: 0.752685; stroke-linejoin: miter"/>
   </g>
   <g id="patch_85">
    <path d="M 356.250657 630 
L 363.777509 630 
L 363.777509 630 
L 356.250657 630 
z
" clip-path="url(#p41dc63436c)" style="fill: #ffff00; fill-opacity: 0.2; stroke: #000000; stroke-width: 0.752685; stroke-linejoin: miter"/>
   </g>
   <g id="patch_86">
    <path d="M 363.777509 630 
L 371.304362 630 
L 371.304362 629.733549 
L 363.777509 629.733549 
z
" clip-path="url(#p41dc63436c)" style="fill: #ffff00; fill-opacity: 0.2; stroke: #000000; stroke-width: 0.752685; stroke-linejoin: miter"/>
   </g>
   <g id="patch_87">
    <path d="M 371.304362 630 
L 378.831214 630 
L 378.831214 629.733549 
L 371.304362 629.733549 
z
" clip-path="url(#p41dc63436c)" style="fill: #ffff00; fill-opacity: 0.2; stroke: #000000; stroke-width: 0.752685; stroke-linejoin: miter"/>
   </g>
   <g id="patch_88">
    <path d="M 378.831214 630 
L 386.358066 630 
L 386.358066 629.733549 
L 378.831214 629.733549 
z
" clip-path="url(#p41dc63436c)" style="fill: #ffff00; fill-opacity: 0.2; stroke: #000000; stroke-width: 0.752685; stroke-linejoin: miter"/>
   </g>
   <g id="patch_89">
    <path d="M 386.358066 630 
L 393.884919 630 
L 393.884919 629.467098 
L 386.358066 629.467098 
z
" clip-path="url(#p41dc63436c)" style="fill: #ffff00; fill-opacity: 0.2; stroke: #000000; stroke-width: 0.752685; stroke-linejoin: miter"/>
   </g>
   <g id="patch_90">
    <path d="M 393.884919 630 
L 401.411771 630 
L 401.411771 629.733549 
L 393.884919 629.733549 
z
" clip-path="url(#p41dc63436c)" style="fill: #ffff00; fill-opacity: 0.2; stroke: #000000; stroke-width: 0.752685; stroke-linejoin: miter"/>
   </g>
   <g id="patch_91">
    <path d="M 401.411771 630 
L 408.938623 630 
L 408.938623 629.733549 
L 401.411771 629.733549 
z
" clip-path="url(#p41dc63436c)" style="fill: #ffff00; fill-opacity: 0.2; stroke: #000000; stroke-width: 0.752685; stroke-linejoin: miter"/>
   </g>
   <g id="patch_92">
    <path d="M 408.938623 630 
L 416.465476 630 
L 416.465476 630 
L 408.938623 630 
z
" clip-path="url(#p41dc63436c)" style="fill: #ffff00; fill-opacity: 0.2; stroke: #000000; stroke-width: 0.752685; stroke-linejoin: miter"/>
   </g>
   <g id="patch_93">
    <path d="M 416.465476 630 
L 423.992328 630 
L 423.992328 630 
L 416.465476 630 
z
" clip-path="url(#p41dc63436c)" style="fill: #ffff00; fill-opacity: 0.2; stroke: #000000; stroke-width: 0.752685; stroke-linejoin: miter"/>
   </g>
   <g id="patch_94">
    <path d="M 423.992328 630 
L 431.51918 630 
L 431.51918 630 
L 423.992328 630 
z
" clip-path="url(#p41dc63436c)" style="fill: #ffff00; fill-opacity: 0.2; stroke: #000000; stroke-width: 0.752685; stroke-linejoin: miter"/>
   </g>
   <g id="patch_95">
    <path d="M 431.51918 630 
L 439.046033 630 
L 439.046033 630 
L 431.51918 630 
z
" clip-path="url(#p41dc63436c)" style="fill: #ffff00; fill-opacity: 0.2; stroke: #000000; stroke-width: 0.752685; stroke-linejoin: miter"/>
   </g>
   <g id="patch_96">
    <path d="M 439.046033 630 
L 446.572885 630 
L 446.572885 630 
L 439.046033 630 
z
" clip-path="url(#p41dc63436c)" style="fill: #ffff00; fill-opacity: 0.2; stroke: #000000; stroke-width: 0.752685; stroke-linejoin: miter"/>
   </g>
   <g id="patch_97">
    <path d="M 446.572885 630 
L 454.099737 630 
L 454.099737 629.733549 
L 446.572885 629.733549 
z
" clip-path="url(#p41dc63436c)" style="fill: #ffff00; fill-opacity: 0.2; stroke: #000000; stroke-width: 0.752685; stroke-linejoin: miter"/>
   </g>
   <g id="patch_98">
    <path d="M 454.099737 630 
L 461.62659 630 
L 461.62659 630 
L 454.099737 630 
z
" clip-path="url(#p41dc63436c)" style="fill: #ffff00; fill-opacity: 0.2; stroke: #000000; stroke-width: 0.752685; stroke-linejoin: miter"/>
   </g>
   <g id="patch_99">
    <path d="M 461.62659 630 
L 469.153442 630 
L 469.153442 630 
L 461.62659 630 
z
" clip-path="url(#p41dc63436c)" style="fill: #ffff00; fill-opacity: 0.2; stroke: #000000; stroke-width: 0.752685; stroke-linejoin: miter"/>
   </g>
   <g id="patch_100">
    <path d="M 469.153442 630 
L 476.680294 630 
L 476.680294 630 
L 469.153442 630 
z
" clip-path="url(#p41dc63436c)" style="fill: #ffff00; fill-opacity: 0.2; stroke: #000000; stroke-width: 0.752685; stroke-linejoin: miter"/>
   </g>
   <g id="patch_101">
    <path d="M 476.680294 630 
L 484.207147 630 
L 484.207147 630 
L 476.680294 630 
z
" clip-path="url(#p41dc63436c)" style="fill: #ffff00; fill-opacity: 0.2; stroke: #000000; stroke-width: 0.752685; stroke-linejoin: miter"/>
   </g>
   <g id="patch_102">
    <path d="M 484.207147 630 
L 491.733999 630 
L 491.733999 629.733549 
L 484.207147 629.733549 
z
" clip-path="url(#p41dc63436c)" style="fill: #ffff00; fill-opacity: 0.2; stroke: #000000; stroke-width: 0.752685; stroke-linejoin: miter"/>
   </g>
   <g id="matplotlib.axis_1">
    <g id="xtick_1">
     <g id="line2d_1">
      <defs>
       <path id="m72b337842f" d="M 0 0 
L 0 3.5 
" style="stroke: #000000; stroke-width: 0.8"/>
      </defs>
      <g>
       <use xlink:href="#m72b337842f" x="115.349606" y="630" style="stroke: #000000; stroke-width: 0.8"/>
      </g>
     </g>
     <g id="text_1">
      <!-- 0.0 -->
      <g transform="translate(107.398044 644.598438)scale(0.1 -0.1)">
       <defs>
        <path id="DejaVuSans-30" d="M 2034 4250 
Q 1547 4250 1301 3770 
Q 1056 3291 1056 2328 
Q 1056 1369 1301 889 
Q 1547 409 2034 409 
Q 2525 409 2770 889 
Q 3016 1369 3016 2328 
Q 3016 3291 2770 3770 
Q 2525 4250 2034 4250 
z
M 2034 4750 
Q 2819 4750 3233 4129 
Q 3647 3509 3647 2328 
Q 3647 1150 3233 529 
Q 2819 -91 2034 -91 
Q 1250 -91 836 529 
Q 422 1150 422 2328 
Q 422 3509 836 4129 
Q 1250 4750 2034 4750 
z
" transform="scale(0.015625)"/>
        <path id="DejaVuSans-2e" d="M 684 794 
L 1344 794 
L 1344 0 
L 684 0 
L 684 794 
z
" transform="scale(0.015625)"/>
       </defs>
       <use xlink:href="#DejaVuSans-30"/>
       <use xlink:href="#DejaVuSans-2e" x="63.623047"/>
       <use xlink:href="#DejaVuSans-30" x="95.410156"/>
      </g>
     </g>
    </g>
    <g id="xtick_2">
     <g id="line2d_2">
      <g>
       <use xlink:href="#m72b337842f" x="180.844537" y="630" style="stroke: #000000; stroke-width: 0.8"/>
      </g>
     </g>
     <g id="text_2">
      <!-- 2.5 -->
      <g transform="translate(172.892974 644.598438)scale(0.1 -0.1)">
       <defs>
        <path id="DejaVuSans-32" d="M 1228 531 
L 3431 531 
L 3431 0 
L 469 0 
L 469 531 
Q 828 903 1448 1529 
Q 2069 2156 2228 2338 
Q 2531 2678 2651 2914 
Q 2772 3150 2772 3378 
Q 2772 3750 2511 3984 
Q 2250 4219 1831 4219 
Q 1534 4219 1204 4116 
Q 875 4013 500 3803 
L 500 4441 
Q 881 4594 1212 4672 
Q 1544 4750 1819 4750 
Q 2544 4750 2975 4387 
Q 3406 4025 3406 3419 
Q 3406 3131 3298 2873 
Q 3191 2616 2906 2266 
Q 2828 2175 2409 1742 
Q 1991 1309 1228 531 
z
" transform="scale(0.015625)"/>
        <path id="DejaVuSans-35" d="M 691 4666 
L 3169 4666 
L 3169 4134 
L 1269 4134 
L 1269 2991 
Q 1406 3038 1543 3061 
Q 1681 3084 1819 3084 
Q 2600 3084 3056 2656 
Q 3513 2228 3513 1497 
Q 3513 744 3044 326 
Q 2575 -91 1722 -91 
Q 1428 -91 1123 -41 
Q 819 9 494 109 
L 494 744 
Q 775 591 1075 516 
Q 1375 441 1709 441 
Q 2250 441 2565 725 
Q 2881 1009 2881 1497 
Q 2881 1984 2565 2268 
Q 2250 2553 1709 2553 
Q 1456 2553 1204 2497 
Q 953 2441 691 2322 
L 691 4666 
z
" transform="scale(0.015625)"/>
       </defs>
       <use xlink:href="#DejaVuSans-32"/>
       <use xlink:href="#DejaVuSans-2e" x="63.623047"/>
       <use xlink:href="#DejaVuSans-35" x="95.410156"/>
      </g>
     </g>
    </g>
    <g id="xtick_3">
     <g id="line2d_3">
      <g>
       <use xlink:href="#m72b337842f" x="246.339467" y="630" style="stroke: #000000; stroke-width: 0.8"/>
      </g>
     </g>
     <g id="text_3">
      <!-- 5.0 -->
      <g transform="translate(238.387905 644.598438)scale(0.1 -0.1)">
       <use xlink:href="#DejaVuSans-35"/>
       <use xlink:href="#DejaVuSans-2e" x="63.623047"/>
       <use xlink:href="#DejaVuSans-30" x="95.410156"/>
      </g>
     </g>
    </g>
    <g id="xtick_4">
     <g id="line2d_4">
      <g>
       <use xlink:href="#m72b337842f" x="311.834398" y="630" style="stroke: #000000; stroke-width: 0.8"/>
      </g>
     </g>
     <g id="text_4">
      <!-- 7.5 -->
      <g transform="translate(303.882835 644.598438)scale(0.1 -0.1)">
       <defs>
        <path id="DejaVuSans-37" d="M 525 4666 
L 3525 4666 
L 3525 4397 
L 1831 0 
L 1172 0 
L 2766 4134 
L 525 4134 
L 525 4666 
z
" transform="scale(0.015625)"/>
       </defs>
       <use xlink:href="#DejaVuSans-37"/>
       <use xlink:href="#DejaVuSans-2e" x="63.623047"/>
       <use xlink:href="#DejaVuSans-35" x="95.410156"/>
      </g>
     </g>
    </g>
    <g id="xtick_5">
     <g id="line2d_5">
      <g>
       <use xlink:href="#m72b337842f" x="377.329328" y="630" style="stroke: #000000; stroke-width: 0.8"/>
      </g>
     </g>
     <g id="text_5">
      <!-- 10.0 -->
      <g transform="translate(366.196516 644.598438)scale(0.1 -0.1)">
       <defs>
        <path id="DejaVuSans-31" d="M 794 531 
L 1825 531 
L 1825 4091 
L 703 3866 
L 703 4441 
L 1819 4666 
L 2450 4666 
L 2450 531 
L 3481 531 
L 3481 0 
L 794 0 
L 794 531 
z
" transform="scale(0.015625)"/>
       </defs>
       <use xlink:href="#DejaVuSans-31"/>
       <use xlink:href="#DejaVuSans-30" x="63.623047"/>
       <use xlink:href="#DejaVuSans-2e" x="127.246094"/>
       <use xlink:href="#DejaVuSans-30" x="159.033203"/>
      </g>
     </g>
    </g>
    <g id="xtick_6">
     <g id="line2d_6">
      <g>
       <use xlink:href="#m72b337842f" x="442.824259" y="630" style="stroke: #000000; stroke-width: 0.8"/>
      </g>
     </g>
     <g id="text_6">
      <!-- 12.5 -->
      <g transform="translate(431.691447 644.598438)scale(0.1 -0.1)">
       <use xlink:href="#DejaVuSans-31"/>
       <use xlink:href="#DejaVuSans-32" x="63.623047"/>
       <use xlink:href="#DejaVuSans-2e" x="127.246094"/>
       <use xlink:href="#DejaVuSans-35" x="159.033203"/>
      </g>
     </g>
    </g>
    <g id="xtick_7">
     <g id="line2d_7">
      <g>
       <use xlink:href="#m72b337842f" x="508.31919" y="630" style="stroke: #000000; stroke-width: 0.8"/>
      </g>
     </g>
     <g id="text_7">
      <!-- 15.0 -->
      <g transform="translate(497.186377 644.598438)scale(0.1 -0.1)">
       <use xlink:href="#DejaVuSans-31"/>
       <use xlink:href="#DejaVuSans-35" x="63.623047"/>
       <use xlink:href="#DejaVuSans-2e" x="127.246094"/>
       <use xlink:href="#DejaVuSans-30" x="159.033203"/>
      </g>
     </g>
    </g>
    <g id="xtick_8">
     <g id="line2d_8">
      <g>
       <use xlink:href="#m72b337842f" x="573.81412" y="630" style="stroke: #000000; stroke-width: 0.8"/>
      </g>
     </g>
     <g id="text_8">
      <!-- 17.5 -->
      <g transform="translate(562.681308 644.598438)scale(0.1 -0.1)">
       <use xlink:href="#DejaVuSans-31"/>
       <use xlink:href="#DejaVuSans-37" x="63.623047"/>
       <use xlink:href="#DejaVuSans-2e" x="127.246094"/>
       <use xlink:href="#DejaVuSans-35" x="159.033203"/>
      </g>
     </g>
    </g>
    <g id="xtick_9">
     <g id="line2d_9">
      <g>
       <use xlink:href="#m72b337842f" x="639.309051" y="630" style="stroke: #000000; stroke-width: 0.8"/>
      </g>
     </g>
     <g id="text_9">
      <!-- 20.0 -->
      <g transform="translate(628.176238 644.598438)scale(0.1 -0.1)">
       <use xlink:href="#DejaVuSans-32"/>
       <use xlink:href="#DejaVuSans-30" x="63.623047"/>
       <use xlink:href="#DejaVuSans-2e" x="127.246094"/>
       <use xlink:href="#DejaVuSans-30" x="159.033203"/>
      </g>
     </g>
    </g>
   </g>
   <g id="matplotlib.axis_2">
    <g id="ytick_1">
     <g id="line2d_10">
      <defs>
       <path id="m553a32049a" d="M 0 0 
L -3.5 0 
" style="stroke: #000000; stroke-width: 0.8"/>
      </defs>
      <g>
       <use xlink:href="#m553a32049a" x="90" y="630" style="stroke: #000000; stroke-width: 0.8"/>
      </g>
     </g>
     <g id="text_10">
      <!-- 0 -->
      <g transform="translate(76.6375 633.799219)scale(0.1 -0.1)">
       <use xlink:href="#DejaVuSans-30"/>
      </g>
     </g>
    </g>
    <g id="ytick_2">
     <g id="line2d_11">
      <g>
       <use xlink:href="#m553a32049a" x="90" y="563.387251" style="stroke: #000000; stroke-width: 0.8"/>
      </g>
     </g>
     <g id="text_11">
      <!-- 250 -->
      <g transform="translate(63.9125 567.18647)scale(0.1 -0.1)">
       <use xlink:href="#DejaVuSans-32"/>
       <use xlink:href="#DejaVuSans-35" x="63.623047"/>
       <use xlink:href="#DejaVuSans-30" x="127.246094"/>
      </g>
     </g>
    </g>
    <g id="ytick_3">
     <g id="line2d_12">
      <g>
       <use xlink:href="#m553a32049a" x="90" y="496.774502" style="stroke: #000000; stroke-width: 0.8"/>
      </g>
     </g>
     <g id="text_12">
      <!-- 500 -->
      <g transform="translate(63.9125 500.573721)scale(0.1 -0.1)">
       <use xlink:href="#DejaVuSans-35"/>
       <use xlink:href="#DejaVuSans-30" x="63.623047"/>
       <use xlink:href="#DejaVuSans-30" x="127.246094"/>
      </g>
     </g>
    </g>
    <g id="ytick_4">
     <g id="line2d_13">
      <g>
       <use xlink:href="#m553a32049a" x="90" y="430.161753" style="stroke: #000000; stroke-width: 0.8"/>
      </g>
     </g>
     <g id="text_13">
      <!-- 750 -->
      <g transform="translate(63.9125 433.960972)scale(0.1 -0.1)">
       <use xlink:href="#DejaVuSans-37"/>
       <use xlink:href="#DejaVuSans-35" x="63.623047"/>
       <use xlink:href="#DejaVuSans-30" x="127.246094"/>
      </g>
     </g>
    </g>
    <g id="ytick_5">
     <g id="line2d_14">
      <g>
       <use xlink:href="#m553a32049a" x="90" y="363.549004" style="stroke: #000000; stroke-width: 0.8"/>
      </g>
     </g>
     <g id="text_14">
      <!-- 1000 -->
      <g transform="translate(57.55 367.348222)scale(0.1 -0.1)">
       <use xlink:href="#DejaVuSans-31"/>
       <use xlink:href="#DejaVuSans-30" x="63.623047"/>
       <use xlink:href="#DejaVuSans-30" x="127.246094"/>
       <use xlink:href="#DejaVuSans-30" x="190.869141"/>
      </g>
     </g>
    </g>
    <g id="ytick_6">
     <g id="line2d_15">
      <g>
       <use xlink:href="#m553a32049a" x="90" y="296.936255" style="stroke: #000000; stroke-width: 0.8"/>
      </g>
     </g>
     <g id="text_15">
      <!-- 1250 -->
      <g transform="translate(57.55 300.735473)scale(0.1 -0.1)">
       <use xlink:href="#DejaVuSans-31"/>
       <use xlink:href="#DejaVuSans-32" x="63.623047"/>
       <use xlink:href="#DejaVuSans-35" x="127.246094"/>
       <use xlink:href="#DejaVuSans-30" x="190.869141"/>
      </g>
     </g>
    </g>
    <g id="ytick_7">
     <g id="line2d_16">
      <g>
       <use xlink:href="#m553a32049a" x="90" y="230.323506" style="stroke: #000000; stroke-width: 0.8"/>
      </g>
     </g>
     <g id="text_16">
      <!-- 1500 -->
      <g transform="translate(57.55 234.122724)scale(0.1 -0.1)">
       <use xlink:href="#DejaVuSans-31"/>
       <use xlink:href="#DejaVuSans-35" x="63.623047"/>
       <use xlink:href="#DejaVuSans-30" x="127.246094"/>
       <use xlink:href="#DejaVuSans-30" x="190.869141"/>
      </g>
     </g>
    </g>
    <g id="ytick_8">
     <g id="line2d_17">
      <g>
       <use xlink:href="#m553a32049a" x="90" y="163.710757" style="stroke: #000000; stroke-width: 0.8"/>
      </g>
     </g>
     <g id="text_17">
      <!-- 1750 -->
      <g transform="translate(57.55 167.509975)scale(0.1 -0.1)">
       <use xlink:href="#DejaVuSans-31"/>
       <use xlink:href="#DejaVuSans-37" x="63.623047"/>
       <use xlink:href="#DejaVuSans-35" x="127.246094"/>
       <use xlink:href="#DejaVuSans-30" x="190.869141"/>
      </g>
     </g>
    </g>
    <g id="ytick_9">
     <g id="line2d_18">
      <g>
       <use xlink:href="#m553a32049a" x="90" y="97.098007" style="stroke: #000000; stroke-width: 0.8"/>
      </g>
     </g>
     <g id="text_18">
      <!-- 2000 -->
      <g transform="translate(57.55 100.897226)scale(0.1 -0.1)">
       <use xlink:href="#DejaVuSans-32"/>
       <use xlink:href="#DejaVuSans-30" x="63.623047"/>
       <use xlink:href="#DejaVuSans-30" x="127.246094"/>
       <use xlink:href="#DejaVuSans-30" x="190.869141"/>
      </g>
     </g>
    </g>
    <g id="text_19">
     <!-- Count -->
     <g transform="translate(51.470312 373.048437)rotate(-90)scale(0.1 -0.1)">
      <defs>
       <path id="DejaVuSans-43" d="M 4122 4306 
L 4122 3641 
Q 3803 3938 3442 4084 
Q 3081 4231 2675 4231 
Q 1875 4231 1450 3742 
Q 1025 3253 1025 2328 
Q 1025 1406 1450 917 
Q 1875 428 2675 428 
Q 3081 428 3442 575 
Q 3803 722 4122 1019 
L 4122 359 
Q 3791 134 3420 21 
Q 3050 -91 2638 -91 
Q 1578 -91 968 557 
Q 359 1206 359 2328 
Q 359 3453 968 4101 
Q 1578 4750 2638 4750 
Q 3056 4750 3426 4639 
Q 3797 4528 4122 4306 
z
" transform="scale(0.015625)"/>
       <path id="DejaVuSans-6f" d="M 1959 3097 
Q 1497 3097 1228 2736 
Q 959 2375 959 1747 
Q 959 1119 1226 758 
Q 1494 397 1959 397 
Q 2419 397 2687 759 
Q 2956 1122 2956 1747 
Q 2956 2369 2687 2733 
Q 2419 3097 1959 3097 
z
M 1959 3584 
Q 2709 3584 3137 3096 
Q 3566 2609 3566 1747 
Q 3566 888 3137 398 
Q 2709 -91 1959 -91 
Q 1206 -91 779 398 
Q 353 888 353 1747 
Q 353 2609 779 3096 
Q 1206 3584 1959 3584 
z
" transform="scale(0.015625)"/>
       <path id="DejaVuSans-75" d="M 544 1381 
L 544 3500 
L 1119 3500 
L 1119 1403 
Q 1119 906 1312 657 
Q 1506 409 1894 409 
Q 2359 409 2629 706 
Q 2900 1003 2900 1516 
L 2900 3500 
L 3475 3500 
L 3475 0 
L 2900 0 
L 2900 538 
Q 2691 219 2414 64 
Q 2138 -91 1772 -91 
Q 1169 -91 856 284 
Q 544 659 544 1381 
z
M 1991 3584 
L 1991 3584 
z
" transform="scale(0.015625)"/>
       <path id="DejaVuSans-6e" d="M 3513 2113 
L 3513 0 
L 2938 0 
L 2938 2094 
Q 2938 2591 2744 2837 
Q 2550 3084 2163 3084 
Q 1697 3084 1428 2787 
Q 1159 2491 1159 1978 
L 1159 0 
L 581 0 
L 581 3500 
L 1159 3500 
L 1159 2956 
Q 1366 3272 1645 3428 
Q 1925 3584 2291 3584 
Q 2894 3584 3203 3211 
Q 3513 2838 3513 2113 
z
" transform="scale(0.015625)"/>
       <path id="DejaVuSans-74" d="M 1172 4494 
L 1172 3500 
L 2356 3500 
L 2356 3053 
L 1172 3053 
L 1172 1153 
Q 1172 725 1289 603 
Q 1406 481 1766 481 
L 2356 481 
L 2356 0 
L 1766 0 
Q 1100 0 847 248 
Q 594 497 594 1153 
L 594 3053 
L 172 3053 
L 172 3500 
L 594 3500 
L 594 4494 
L 1172 4494 
z
" transform="scale(0.015625)"/>
      </defs>
      <use xlink:href="#DejaVuSans-43"/>
      <use xlink:href="#DejaVuSans-6f" x="69.824219"/>
      <use xlink:href="#DejaVuSans-75" x="131.005859"/>
      <use xlink:href="#DejaVuSans-6e" x="194.384766"/>
      <use xlink:href="#DejaVuSans-74" x="257.763672"/>
     </g>
    </g>
   </g>
   <g id="patch_103">
    <path d="M 90 630 
L 90 86.4 
" style="fill: none; stroke: #000000; stroke-width: 0.8; stroke-linejoin: miter; stroke-linecap: square"/>
   </g>
   <g id="patch_104">
    <path d="M 648 630 
L 648 86.4 
" style="fill: none; stroke: #000000; stroke-width: 0.8; stroke-linejoin: miter; stroke-linecap: square"/>
   </g>
   <g id="patch_105">
    <path d="M 90 630 
L 648 630 
" style="fill: none; stroke: #000000; stroke-width: 0.8; stroke-linejoin: miter; stroke-linecap: square"/>
   </g>
   <g id="patch_106">
    <path d="M 90 86.4 
L 648 86.4 
" style="fill: none; stroke: #000000; stroke-width: 0.8; stroke-linejoin: miter; stroke-linecap: square"/>
   </g>
   <g id="text_20">
    <!-- c18pos_area_QCext Variances between qc raw and normalized  -->
    <g transform="translate(178.5525 80.4)scale(0.12 -0.12)">
     <defs>
      <path id="DejaVuSans-63" d="M 3122 3366 
L 3122 2828 
Q 2878 2963 2633 3030 
Q 2388 3097 2138 3097 
Q 1578 3097 1268 2742 
Q 959 2388 959 1747 
Q 959 1106 1268 751 
Q 1578 397 2138 397 
Q 2388 397 2633 464 
Q 2878 531 3122 666 
L 3122 134 
Q 2881 22 2623 -34 
Q 2366 -91 2075 -91 
Q 1284 -91 818 406 
Q 353 903 353 1747 
Q 353 2603 823 3093 
Q 1294 3584 2113 3584 
Q 2378 3584 2631 3529 
Q 2884 3475 3122 3366 
z
" transform="scale(0.015625)"/>
      <path id="DejaVuSans-38" d="M 2034 2216 
Q 1584 2216 1326 1975 
Q 1069 1734 1069 1313 
Q 1069 891 1326 650 
Q 1584 409 2034 409 
Q 2484 409 2743 651 
Q 3003 894 3003 1313 
Q 3003 1734 2745 1975 
Q 2488 2216 2034 2216 
z
M 1403 2484 
Q 997 2584 770 2862 
Q 544 3141 544 3541 
Q 544 4100 942 4425 
Q 1341 4750 2034 4750 
Q 2731 4750 3128 4425 
Q 3525 4100 3525 3541 
Q 3525 3141 3298 2862 
Q 3072 2584 2669 2484 
Q 3125 2378 3379 2068 
Q 3634 1759 3634 1313 
Q 3634 634 3220 271 
Q 2806 -91 2034 -91 
Q 1263 -91 848 271 
Q 434 634 434 1313 
Q 434 1759 690 2068 
Q 947 2378 1403 2484 
z
M 1172 3481 
Q 1172 3119 1398 2916 
Q 1625 2713 2034 2713 
Q 2441 2713 2670 2916 
Q 2900 3119 2900 3481 
Q 2900 3844 2670 4047 
Q 2441 4250 2034 4250 
Q 1625 4250 1398 4047 
Q 1172 3844 1172 3481 
z
" transform="scale(0.015625)"/>
      <path id="DejaVuSans-70" d="M 1159 525 
L 1159 -1331 
L 581 -1331 
L 581 3500 
L 1159 3500 
L 1159 2969 
Q 1341 3281 1617 3432 
Q 1894 3584 2278 3584 
Q 2916 3584 3314 3078 
Q 3713 2572 3713 1747 
Q 3713 922 3314 415 
Q 2916 -91 2278 -91 
Q 1894 -91 1617 61 
Q 1341 213 1159 525 
z
M 3116 1747 
Q 3116 2381 2855 2742 
Q 2594 3103 2138 3103 
Q 1681 3103 1420 2742 
Q 1159 2381 1159 1747 
Q 1159 1113 1420 752 
Q 1681 391 2138 391 
Q 2594 391 2855 752 
Q 3116 1113 3116 1747 
z
" transform="scale(0.015625)"/>
      <path id="DejaVuSans-73" d="M 2834 3397 
L 2834 2853 
Q 2591 2978 2328 3040 
Q 2066 3103 1784 3103 
Q 1356 3103 1142 2972 
Q 928 2841 928 2578 
Q 928 2378 1081 2264 
Q 1234 2150 1697 2047 
L 1894 2003 
Q 2506 1872 2764 1633 
Q 3022 1394 3022 966 
Q 3022 478 2636 193 
Q 2250 -91 1575 -91 
Q 1294 -91 989 -36 
Q 684 19 347 128 
L 347 722 
Q 666 556 975 473 
Q 1284 391 1588 391 
Q 1994 391 2212 530 
Q 2431 669 2431 922 
Q 2431 1156 2273 1281 
Q 2116 1406 1581 1522 
L 1381 1569 
Q 847 1681 609 1914 
Q 372 2147 372 2553 
Q 372 3047 722 3315 
Q 1072 3584 1716 3584 
Q 2034 3584 2315 3537 
Q 2597 3491 2834 3397 
z
" transform="scale(0.015625)"/>
      <path id="DejaVuSans-5f" d="M 3263 -1063 
L 3263 -1509 
L -63 -1509 
L -63 -1063 
L 3263 -1063 
z
" transform="scale(0.015625)"/>
      <path id="DejaVuSans-61" d="M 2194 1759 
Q 1497 1759 1228 1600 
Q 959 1441 959 1056 
Q 959 750 1161 570 
Q 1363 391 1709 391 
Q 2188 391 2477 730 
Q 2766 1069 2766 1631 
L 2766 1759 
L 2194 1759 
z
M 3341 1997 
L 3341 0 
L 2766 0 
L 2766 531 
Q 2569 213 2275 61 
Q 1981 -91 1556 -91 
Q 1019 -91 701 211 
Q 384 513 384 1019 
Q 384 1609 779 1909 
Q 1175 2209 1959 2209 
L 2766 2209 
L 2766 2266 
Q 2766 2663 2505 2880 
Q 2244 3097 1772 3097 
Q 1472 3097 1187 3025 
Q 903 2953 641 2809 
L 641 3341 
Q 956 3463 1253 3523 
Q 1550 3584 1831 3584 
Q 2591 3584 2966 3190 
Q 3341 2797 3341 1997 
z
" transform="scale(0.015625)"/>
      <path id="DejaVuSans-72" d="M 2631 2963 
Q 2534 3019 2420 3045 
Q 2306 3072 2169 3072 
Q 1681 3072 1420 2755 
Q 1159 2438 1159 1844 
L 1159 0 
L 581 0 
L 581 3500 
L 1159 3500 
L 1159 2956 
Q 1341 3275 1631 3429 
Q 1922 3584 2338 3584 
Q 2397 3584 2469 3576 
Q 2541 3569 2628 3553 
L 2631 2963 
z
" transform="scale(0.015625)"/>
      <path id="DejaVuSans-65" d="M 3597 1894 
L 3597 1613 
L 953 1613 
Q 991 1019 1311 708 
Q 1631 397 2203 397 
Q 2534 397 2845 478 
Q 3156 559 3463 722 
L 3463 178 
Q 3153 47 2828 -22 
Q 2503 -91 2169 -91 
Q 1331 -91 842 396 
Q 353 884 353 1716 
Q 353 2575 817 3079 
Q 1281 3584 2069 3584 
Q 2775 3584 3186 3129 
Q 3597 2675 3597 1894 
z
M 3022 2063 
Q 3016 2534 2758 2815 
Q 2500 3097 2075 3097 
Q 1594 3097 1305 2825 
Q 1016 2553 972 2059 
L 3022 2063 
z
" transform="scale(0.015625)"/>
      <path id="DejaVuSans-51" d="M 2522 4238 
Q 1834 4238 1429 3725 
Q 1025 3213 1025 2328 
Q 1025 1447 1429 934 
Q 1834 422 2522 422 
Q 3209 422 3611 934 
Q 4013 1447 4013 2328 
Q 4013 3213 3611 3725 
Q 3209 4238 2522 4238 
z
M 3406 84 
L 4238 -825 
L 3475 -825 
L 2784 -78 
Q 2681 -84 2626 -87 
Q 2572 -91 2522 -91 
Q 1538 -91 948 567 
Q 359 1225 359 2328 
Q 359 3434 948 4092 
Q 1538 4750 2522 4750 
Q 3503 4750 4090 4092 
Q 4678 3434 4678 2328 
Q 4678 1516 4351 937 
Q 4025 359 3406 84 
z
" transform="scale(0.015625)"/>
      <path id="DejaVuSans-78" d="M 3513 3500 
L 2247 1797 
L 3578 0 
L 2900 0 
L 1881 1375 
L 863 0 
L 184 0 
L 1544 1831 
L 300 3500 
L 978 3500 
L 1906 2253 
L 2834 3500 
L 3513 3500 
z
" transform="scale(0.015625)"/>
      <path id="DejaVuSans-20" transform="scale(0.015625)"/>
      <path id="DejaVuSans-56" d="M 1831 0 
L 50 4666 
L 709 4666 
L 2188 738 
L 3669 4666 
L 4325 4666 
L 2547 0 
L 1831 0 
z
" transform="scale(0.015625)"/>
      <path id="DejaVuSans-69" d="M 603 3500 
L 1178 3500 
L 1178 0 
L 603 0 
L 603 3500 
z
M 603 4863 
L 1178 4863 
L 1178 4134 
L 603 4134 
L 603 4863 
z
" transform="scale(0.015625)"/>
      <path id="DejaVuSans-62" d="M 3116 1747 
Q 3116 2381 2855 2742 
Q 2594 3103 2138 3103 
Q 1681 3103 1420 2742 
Q 1159 2381 1159 1747 
Q 1159 1113 1420 752 
Q 1681 391 2138 391 
Q 2594 391 2855 752 
Q 3116 1113 3116 1747 
z
M 1159 2969 
Q 1341 3281 1617 3432 
Q 1894 3584 2278 3584 
Q 2916 3584 3314 3078 
Q 3713 2572 3713 1747 
Q 3713 922 3314 415 
Q 2916 -91 2278 -91 
Q 1894 -91 1617 61 
Q 1341 213 1159 525 
L 1159 0 
L 581 0 
L 581 4863 
L 1159 4863 
L 1159 2969 
z
" transform="scale(0.015625)"/>
      <path id="DejaVuSans-77" d="M 269 3500 
L 844 3500 
L 1563 769 
L 2278 3500 
L 2956 3500 
L 3675 769 
L 4391 3500 
L 4966 3500 
L 4050 0 
L 3372 0 
L 2619 2869 
L 1863 0 
L 1184 0 
L 269 3500 
z
" transform="scale(0.015625)"/>
      <path id="DejaVuSans-71" d="M 947 1747 
Q 947 1113 1208 752 
Q 1469 391 1925 391 
Q 2381 391 2643 752 
Q 2906 1113 2906 1747 
Q 2906 2381 2643 2742 
Q 2381 3103 1925 3103 
Q 1469 3103 1208 2742 
Q 947 2381 947 1747 
z
M 2906 525 
Q 2725 213 2448 61 
Q 2172 -91 1784 -91 
Q 1150 -91 751 415 
Q 353 922 353 1747 
Q 353 2572 751 3078 
Q 1150 3584 1784 3584 
Q 2172 3584 2448 3432 
Q 2725 3281 2906 2969 
L 2906 3500 
L 3481 3500 
L 3481 -1331 
L 2906 -1331 
L 2906 525 
z
" transform="scale(0.015625)"/>
      <path id="DejaVuSans-64" d="M 2906 2969 
L 2906 4863 
L 3481 4863 
L 3481 0 
L 2906 0 
L 2906 525 
Q 2725 213 2448 61 
Q 2172 -91 1784 -91 
Q 1150 -91 751 415 
Q 353 922 353 1747 
Q 353 2572 751 3078 
Q 1150 3584 1784 3584 
Q 2172 3584 2448 3432 
Q 2725 3281 2906 2969 
z
M 947 1747 
Q 947 1113 1208 752 
Q 1469 391 1925 391 
Q 2381 391 2643 752 
Q 2906 1113 2906 1747 
Q 2906 2381 2643 2742 
Q 2381 3103 1925 3103 
Q 1469 3103 1208 2742 
Q 947 2381 947 1747 
z
" transform="scale(0.015625)"/>
      <path id="DejaVuSans-6d" d="M 3328 2828 
Q 3544 3216 3844 3400 
Q 4144 3584 4550 3584 
Q 5097 3584 5394 3201 
Q 5691 2819 5691 2113 
L 5691 0 
L 5113 0 
L 5113 2094 
Q 5113 2597 4934 2840 
Q 4756 3084 4391 3084 
Q 3944 3084 3684 2787 
Q 3425 2491 3425 1978 
L 3425 0 
L 2847 0 
L 2847 2094 
Q 2847 2600 2669 2842 
Q 2491 3084 2119 3084 
Q 1678 3084 1418 2786 
Q 1159 2488 1159 1978 
L 1159 0 
L 581 0 
L 581 3500 
L 1159 3500 
L 1159 2956 
Q 1356 3278 1631 3431 
Q 1906 3584 2284 3584 
Q 2666 3584 2933 3390 
Q 3200 3197 3328 2828 
z
" transform="scale(0.015625)"/>
      <path id="DejaVuSans-6c" d="M 603 4863 
L 1178 4863 
L 1178 0 
L 603 0 
L 603 4863 
z
" transform="scale(0.015625)"/>
      <path id="DejaVuSans-7a" d="M 353 3500 
L 3084 3500 
L 3084 2975 
L 922 459 
L 3084 459 
L 3084 0 
L 275 0 
L 275 525 
L 2438 3041 
L 353 3041 
L 353 3500 
z
" transform="scale(0.015625)"/>
     </defs>
     <use xlink:href="#DejaVuSans-63"/>
     <use xlink:href="#DejaVuSans-31" x="54.980469"/>
     <use xlink:href="#DejaVuSans-38" x="118.603516"/>
     <use xlink:href="#DejaVuSans-70" x="182.226562"/>
     <use xlink:href="#DejaVuSans-6f" x="245.703125"/>
     <use xlink:href="#DejaVuSans-73" x="306.884766"/>
     <use xlink:href="#DejaVuSans-5f" x="358.984375"/>
     <use xlink:href="#DejaVuSans-61" x="408.984375"/>
     <use xlink:href="#DejaVuSans-72" x="470.263672"/>
     <use xlink:href="#DejaVuSans-65" x="509.126953"/>
     <use xlink:href="#DejaVuSans-61" x="570.650391"/>
     <use xlink:href="#DejaVuSans-5f" x="631.929688"/>
     <use xlink:href="#DejaVuSans-51" x="681.929688"/>
     <use xlink:href="#DejaVuSans-43" x="760.640625"/>
     <use xlink:href="#DejaVuSans-65" x="830.464844"/>
     <use xlink:href="#DejaVuSans-78" x="890.238281"/>
     <use xlink:href="#DejaVuSans-74" x="949.417969"/>
     <use xlink:href="#DejaVuSans-20" x="988.626953"/>
     <use xlink:href="#DejaVuSans-56" x="1020.414062"/>
     <use xlink:href="#DejaVuSans-61" x="1081.072266"/>
     <use xlink:href="#DejaVuSans-72" x="1142.351562"/>
     <use xlink:href="#DejaVuSans-69" x="1183.464844"/>
     <use xlink:href="#DejaVuSans-61" x="1211.248047"/>
     <use xlink:href="#DejaVuSans-6e" x="1272.527344"/>
     <use xlink:href="#DejaVuSans-63" x="1335.90625"/>
     <use xlink:href="#DejaVuSans-65" x="1390.886719"/>
     <use xlink:href="#DejaVuSans-73" x="1452.410156"/>
     <use xlink:href="#DejaVuSans-20" x="1504.509766"/>
     <use xlink:href="#DejaVuSans-62" x="1536.296875"/>
     <use xlink:href="#DejaVuSans-65" x="1599.773438"/>
     <use xlink:href="#DejaVuSans-74" x="1661.296875"/>
     <use xlink:href="#DejaVuSans-77" x="1700.505859"/>
     <use xlink:href="#DejaVuSans-65" x="1782.292969"/>
     <use xlink:href="#DejaVuSans-65" x="1843.816406"/>
     <use xlink:href="#DejaVuSans-6e" x="1905.339844"/>
     <use xlink:href="#DejaVuSans-20" x="1968.71875"/>
     <use xlink:href="#DejaVuSans-71" x="2000.505859"/>
     <use xlink:href="#DejaVuSans-63" x="2063.982422"/>
     <use xlink:href="#DejaVuSans-20" x="2118.962891"/>
     <use xlink:href="#DejaVuSans-72" x="2150.75"/>
     <use xlink:href="#DejaVuSans-61" x="2191.863281"/>
     <use xlink:href="#DejaVuSans-77" x="2253.142578"/>
     <use xlink:href="#DejaVuSans-20" x="2334.929688"/>
     <use xlink:href="#DejaVuSans-61" x="2366.716797"/>
     <use xlink:href="#DejaVuSans-6e" x="2427.996094"/>
     <use xlink:href="#DejaVuSans-64" x="2491.375"/>
     <use xlink:href="#DejaVuSans-20" x="2554.851562"/>
     <use xlink:href="#DejaVuSans-6e" x="2586.638672"/>
     <use xlink:href="#DejaVuSans-6f" x="2650.017578"/>
     <use xlink:href="#DejaVuSans-72" x="2711.199219"/>
     <use xlink:href="#DejaVuSans-6d" x="2750.5625"/>
     <use xlink:href="#DejaVuSans-61" x="2847.974609"/>
     <use xlink:href="#DejaVuSans-6c" x="2909.253906"/>
     <use xlink:href="#DejaVuSans-69" x="2937.037109"/>
     <use xlink:href="#DejaVuSans-7a" x="2964.820312"/>
     <use xlink:href="#DejaVuSans-65" x="3017.310547"/>
     <use xlink:href="#DejaVuSans-64" x="3078.833984"/>
     <use xlink:href="#DejaVuSans-20" x="3142.310547"/>
    </g>
   </g>
   <g id="legend_1">
    <g id="patch_107">
     <path d="M 544.8625 124.3125 
L 641 124.3125 
Q 643 124.3125 643 122.3125 
L 643 93.4 
Q 643 91.4 641 91.4 
L 544.8625 91.4 
Q 542.8625 91.4 542.8625 93.4 
L 542.8625 122.3125 
Q 542.8625 124.3125 544.8625 124.3125 
z
" style="fill: #ffffff; opacity: 0.8; stroke: #cccccc; stroke-linejoin: miter"/>
    </g>
    <g id="patch_108">
     <path d="M 546.8625 102.998438 
L 566.8625 102.998438 
L 566.8625 95.998438 
L 546.8625 95.998438 
z
" style="fill: #0000ff; fill-opacity: 0.6; stroke: #000000; stroke-linejoin: miter"/>
    </g>
    <g id="text_21">
     <!-- var_qc_raw -->
     <g transform="translate(574.8625 102.998438)scale(0.1 -0.1)">
      <defs>
       <path id="DejaVuSans-76" d="M 191 3500 
L 800 3500 
L 1894 563 
L 2988 3500 
L 3597 3500 
L 2284 0 
L 1503 0 
L 191 3500 
z
" transform="scale(0.015625)"/>
      </defs>
      <use xlink:href="#DejaVuSans-76"/>
      <use xlink:href="#DejaVuSans-61" x="59.179688"/>
      <use xlink:href="#DejaVuSans-72" x="120.458984"/>
      <use xlink:href="#DejaVuSans-5f" x="161.572266"/>
      <use xlink:href="#DejaVuSans-71" x="211.572266"/>
      <use xlink:href="#DejaVuSans-63" x="275.048828"/>
      <use xlink:href="#DejaVuSans-5f" x="330.029297"/>
      <use xlink:href="#DejaVuSans-72" x="380.029297"/>
      <use xlink:href="#DejaVuSans-61" x="421.142578"/>
      <use xlink:href="#DejaVuSans-77" x="482.421875"/>
     </g>
    </g>
    <g id="patch_109">
     <path d="M 546.8625 117.954687 
L 566.8625 117.954687 
L 566.8625 110.954687 
L 546.8625 110.954687 
z
" style="fill: #ffff00; fill-opacity: 0.2; stroke: #000000; stroke-width: 0.752685; stroke-linejoin: miter"/>
    </g>
    <g id="text_22">
     <!-- var_qc_norm -->
     <g transform="translate(574.8625 117.954687)scale(0.1 -0.1)">
      <use xlink:href="#DejaVuSans-76"/>
      <use xlink:href="#DejaVuSans-61" x="59.179688"/>
      <use xlink:href="#DejaVuSans-72" x="120.458984"/>
      <use xlink:href="#DejaVuSans-5f" x="161.572266"/>
      <use xlink:href="#DejaVuSans-71" x="211.572266"/>
      <use xlink:href="#DejaVuSans-63" x="275.048828"/>
      <use xlink:href="#DejaVuSans-5f" x="330.029297"/>
      <use xlink:href="#DejaVuSans-6e" x="380.029297"/>
      <use xlink:href="#DejaVuSans-6f" x="443.408203"/>
      <use xlink:href="#DejaVuSans-72" x="504.589844"/>
      <use xlink:href="#DejaVuSans-6d" x="543.953125"/>
     </g>
    </g>
   </g>
  </g>
 </g>
 <defs>
  <clipPath id="p41dc63436c">
   <rect x="90" y="86.4" width="558" height="543.6"/>
  </clipPath>
 </defs>
</svg>
